G04 #@! TF.FileFunction,Soldermask,Bot*
%FSLAX46Y46*%
G04 Gerber Fmt 4.6, Leading zero omitted, Abs format (unit mm)*
G04 Created by KiCad (PCBNEW 4.0.7) date 05/04/18 22:28:11*
%MOMM*%
%LPD*%
G01*
G04 APERTURE LIST*
%ADD10C,0.100000*%
%ADD11R,1.150000X1.200000*%
%ADD12R,1.200000X1.150000*%
%ADD13R,2.100000X1.700000*%
%ADD14R,1.200000X1.300000*%
%ADD15C,3.180000*%
%ADD16R,2.250000X2.250000*%
%ADD17C,2.250000*%
%ADD18C,3.400000*%
%ADD19R,2.100000X2.100000*%
%ADD20O,2.100000X2.100000*%
%ADD21R,1.300000X1.200000*%
%ADD22R,0.900000X1.300000*%
%ADD23R,1.300000X0.900000*%
%ADD24R,1.200000X1.700000*%
%ADD25R,1.460000X0.800000*%
%ADD26R,1.050000X1.460000*%
G04 APERTURE END LIST*
D10*
D11*
X99314000Y-47510000D03*
X99314000Y-49010000D03*
X100584000Y-49010000D03*
X100584000Y-47510000D03*
X96774000Y-47510000D03*
X96774000Y-49010000D03*
X95504000Y-49010000D03*
X95504000Y-47510000D03*
X96774000Y-54090000D03*
X96774000Y-52590000D03*
X95504000Y-52590000D03*
X95504000Y-54090000D03*
X99314000Y-54090000D03*
X99314000Y-52590000D03*
X100584000Y-52590000D03*
X100584000Y-54090000D03*
X84582000Y-47510000D03*
X84582000Y-49010000D03*
X85852000Y-49010000D03*
X85852000Y-47510000D03*
X82042000Y-47510000D03*
X82042000Y-49010000D03*
X80772000Y-49010000D03*
X80772000Y-47510000D03*
D12*
X98794000Y-51435000D03*
X97294000Y-51435000D03*
X82030000Y-52070000D03*
X80530000Y-52070000D03*
X97294000Y-50165000D03*
X98794000Y-50165000D03*
X80530000Y-50546000D03*
X82030000Y-50546000D03*
D11*
X102108000Y-49010000D03*
X102108000Y-47510000D03*
X93980000Y-49010000D03*
X93980000Y-47510000D03*
X93980000Y-52590000D03*
X93980000Y-54090000D03*
X102108000Y-52590000D03*
X102108000Y-54090000D03*
X87376000Y-49010000D03*
X87376000Y-47510000D03*
X79248000Y-49010000D03*
X79248000Y-47510000D03*
D12*
X71489000Y-62230000D03*
X69989000Y-62230000D03*
X71489000Y-60833000D03*
X69989000Y-60833000D03*
X64758000Y-60452000D03*
X63258000Y-60452000D03*
X63258000Y-58928000D03*
X64758000Y-58928000D03*
D13*
X89408000Y-56360000D03*
X89408000Y-52860000D03*
X104140000Y-45240000D03*
X104140000Y-48740000D03*
X91948000Y-45240000D03*
X91948000Y-48740000D03*
X91948000Y-56360000D03*
X91948000Y-52860000D03*
X104140000Y-56360000D03*
X104140000Y-52860000D03*
X89408000Y-45240000D03*
X89408000Y-48740000D03*
X77216000Y-45240000D03*
X77216000Y-48740000D03*
D14*
X69662000Y-43069000D03*
X71562000Y-43069000D03*
X70612000Y-45069000D03*
X65979000Y-43069000D03*
X67879000Y-43069000D03*
X66929000Y-45069000D03*
D15*
X47625000Y-48260000D03*
X44225000Y-48260000D03*
X47625000Y-58180000D03*
X44225000Y-58180000D03*
D16*
X83439000Y-74295000D03*
D17*
X85939000Y-74295000D03*
X88439000Y-74295000D03*
X90939000Y-74295000D03*
X93439000Y-74295000D03*
X95939000Y-74295000D03*
X98439000Y-74295000D03*
D18*
X52584360Y-65483740D03*
X50085000Y-70485000D03*
X45085000Y-70485000D03*
X47584360Y-65483740D03*
D19*
X67183000Y-40894000D03*
D20*
X64643000Y-40894000D03*
D19*
X56896000Y-40894000D03*
D20*
X54356000Y-40894000D03*
X51816000Y-40894000D03*
X49276000Y-40894000D03*
X46736000Y-40894000D03*
X44196000Y-40894000D03*
D19*
X75946000Y-40894000D03*
D20*
X73406000Y-40894000D03*
X70866000Y-40894000D03*
D14*
X87310000Y-56118000D03*
X85410000Y-56118000D03*
X86360000Y-54118000D03*
D21*
X87360000Y-50612000D03*
X87360000Y-52512000D03*
X85360000Y-51562000D03*
D22*
X84594000Y-62738000D03*
X86094000Y-62738000D03*
X87134000Y-62738000D03*
X88634000Y-62738000D03*
X89674000Y-62738000D03*
X91174000Y-62738000D03*
X92214000Y-62738000D03*
X93714000Y-62738000D03*
X95262000Y-62738000D03*
X96762000Y-62738000D03*
X97802000Y-62738000D03*
X99302000Y-62738000D03*
D23*
X99314000Y-44716000D03*
X99314000Y-46216000D03*
X96774000Y-44716000D03*
X96774000Y-46216000D03*
X96774000Y-56884000D03*
X96774000Y-55384000D03*
X99060000Y-56884000D03*
X99060000Y-55384000D03*
X84582000Y-44716000D03*
X84582000Y-46216000D03*
X82042000Y-44716000D03*
X82042000Y-46216000D03*
X100584000Y-44716000D03*
X100584000Y-46216000D03*
X95504000Y-44716000D03*
X95504000Y-46216000D03*
X95250000Y-56884000D03*
X95250000Y-55384000D03*
X100584000Y-56884000D03*
X100584000Y-55384000D03*
X86106000Y-44716000D03*
X86106000Y-46216000D03*
X80772000Y-44716000D03*
X80772000Y-46216000D03*
X102108000Y-46216000D03*
X102108000Y-44716000D03*
X93980000Y-46216000D03*
X93980000Y-44716000D03*
X93980000Y-55384000D03*
X93980000Y-56884000D03*
X102108000Y-55384000D03*
X102108000Y-56884000D03*
X87376000Y-46216000D03*
X87376000Y-44716000D03*
X79248000Y-46216000D03*
X79248000Y-44716000D03*
D22*
X66814000Y-49657000D03*
X68314000Y-49657000D03*
D23*
X52832000Y-53582000D03*
X52832000Y-52082000D03*
D22*
X74537000Y-43053000D03*
X73037000Y-43053000D03*
D24*
X84577000Y-64541000D03*
X85857000Y-64541000D03*
X87117000Y-64541000D03*
X88387000Y-64541000D03*
X89667000Y-64541000D03*
X90937000Y-64541000D03*
X92197000Y-64541000D03*
X93477000Y-64541000D03*
X93477000Y-70841000D03*
X92197000Y-70841000D03*
X90937000Y-70841000D03*
X89667000Y-70841000D03*
X88387000Y-70841000D03*
X87117000Y-70841000D03*
X85857000Y-70841000D03*
X84577000Y-70841000D03*
X95626000Y-64541000D03*
X96906000Y-64541000D03*
X98166000Y-64541000D03*
X99436000Y-64541000D03*
X100716000Y-64541000D03*
X101986000Y-64541000D03*
X103246000Y-64541000D03*
X104526000Y-64541000D03*
X104526000Y-70841000D03*
X103246000Y-70841000D03*
X101986000Y-70841000D03*
X100716000Y-70841000D03*
X99436000Y-70841000D03*
X98166000Y-70841000D03*
X96906000Y-70841000D03*
X95626000Y-70841000D03*
D25*
X62908000Y-63972000D03*
X62908000Y-63322000D03*
X62908000Y-62662000D03*
X62908000Y-62012000D03*
X65108000Y-62012000D03*
X65108000Y-62662000D03*
X65108000Y-63322000D03*
X65108000Y-63972000D03*
D26*
X64450000Y-70696000D03*
X63500000Y-70696000D03*
X62550000Y-70696000D03*
X62550000Y-68496000D03*
X64450000Y-68496000D03*
M02*
