G04 #@! TF.FileFunction,Copper,L1,Top,Signal*
%FSLAX46Y46*%
G04 Gerber Fmt 4.6, Leading zero omitted, Abs format (unit mm)*
G04 Created by KiCad (PCBNEW 4.0.7) date 05/04/18 22:28:11*
%MOMM*%
%LPD*%
G01*
G04 APERTURE LIST*
%ADD10C,0.100000*%
%ADD11R,0.800000X0.750000*%
%ADD12R,0.750000X0.800000*%
%ADD13R,2.500000X1.800000*%
%ADD14R,0.800000X0.800000*%
%ADD15R,0.800000X0.900000*%
%ADD16R,3.500000X1.600000*%
%ADD17C,2.780000*%
%ADD18R,1.850000X1.850000*%
%ADD19C,1.850000*%
%ADD20C,3.000000*%
%ADD21R,1.700000X1.700000*%
%ADD22O,1.700000X1.700000*%
%ADD23R,2.200000X1.200000*%
%ADD24R,6.400000X5.800000*%
%ADD25R,3.050000X2.750000*%
%ADD26R,3.200000X1.000000*%
%ADD27R,0.900000X0.500000*%
%ADD28R,0.500000X0.900000*%
%ADD29R,1.700000X0.900000*%
%ADD30R,1.000000X1.700000*%
%ADD31R,0.600000X1.500000*%
%ADD32R,0.650000X1.060000*%
%ADD33R,0.550000X1.450000*%
%ADD34R,1.200000X0.600000*%
%ADD35R,0.600000X1.200000*%
%ADD36C,0.600000*%
%ADD37C,0.250000*%
%ADD38C,0.500000*%
%ADD39C,2.540000*%
%ADD40C,0.254000*%
G04 APERTURE END LIST*
D10*
D11*
X55130000Y-75184000D03*
X56630000Y-75184000D03*
X56630000Y-73660000D03*
X55130000Y-73660000D03*
D12*
X58928000Y-68846000D03*
X58928000Y-70346000D03*
X60198000Y-70346000D03*
X60198000Y-68846000D03*
X67056000Y-56654000D03*
X67056000Y-58154000D03*
X62738000Y-70346000D03*
X62738000Y-68846000D03*
D13*
X63468000Y-74676000D03*
X59468000Y-74676000D03*
D14*
X71755000Y-72352000D03*
X71755000Y-73952000D03*
D15*
X75245000Y-43069000D03*
X73345000Y-43069000D03*
X74295000Y-45069000D03*
D16*
X68453000Y-74957000D03*
X68453000Y-70077000D03*
D17*
X47625000Y-48260000D03*
X44225000Y-48260000D03*
X47625000Y-58180000D03*
X44225000Y-58180000D03*
D18*
X83439000Y-74295000D03*
D19*
X85939000Y-74295000D03*
X88439000Y-74295000D03*
X90939000Y-74295000D03*
X93439000Y-74295000D03*
X95939000Y-74295000D03*
X98439000Y-74295000D03*
D20*
X52584360Y-65483740D03*
X50085000Y-70485000D03*
X45085000Y-70485000D03*
X47584360Y-65483740D03*
D21*
X67183000Y-40894000D03*
D22*
X64643000Y-40894000D03*
D21*
X56896000Y-40894000D03*
D22*
X54356000Y-40894000D03*
X51816000Y-40894000D03*
X49276000Y-40894000D03*
X46736000Y-40894000D03*
X44196000Y-40894000D03*
D21*
X75946000Y-40894000D03*
D22*
X73406000Y-40894000D03*
X70866000Y-40894000D03*
D23*
X60715000Y-50540000D03*
X60715000Y-45980000D03*
D24*
X54415000Y-48260000D03*
D25*
X52740000Y-46735000D03*
X56090000Y-49785000D03*
X52740000Y-49785000D03*
X56090000Y-46735000D03*
D23*
X60715000Y-58160000D03*
X60715000Y-53600000D03*
D24*
X54415000Y-55880000D03*
D25*
X52740000Y-54355000D03*
X56090000Y-57405000D03*
X52740000Y-57405000D03*
X56090000Y-54355000D03*
D26*
X81280000Y-71172000D03*
X81280000Y-64972000D03*
X85344000Y-71172000D03*
X85344000Y-64972000D03*
X89408000Y-71172000D03*
X89408000Y-64972000D03*
X93472000Y-71172000D03*
X93472000Y-64972000D03*
X97536000Y-71172000D03*
X97536000Y-64972000D03*
X101600000Y-71172000D03*
X101600000Y-64972000D03*
D27*
X99314000Y-46216000D03*
X99314000Y-44716000D03*
X100584000Y-46216000D03*
X100584000Y-44716000D03*
X96774000Y-46216000D03*
X96774000Y-44716000D03*
X95504000Y-46216000D03*
X95504000Y-44716000D03*
X96774000Y-55384000D03*
X96774000Y-56884000D03*
X95250000Y-55384000D03*
X95250000Y-56884000D03*
X99060000Y-55384000D03*
X99060000Y-56884000D03*
X100584000Y-55384000D03*
X100584000Y-56884000D03*
X84582000Y-46216000D03*
X84582000Y-44716000D03*
X85852000Y-46216000D03*
X85852000Y-44716000D03*
X82042000Y-46216000D03*
X82042000Y-44716000D03*
X80772000Y-46216000D03*
X80772000Y-44716000D03*
D28*
X85610000Y-56896000D03*
X87110000Y-56896000D03*
D27*
X89408000Y-55360000D03*
X89408000Y-53860000D03*
D28*
X87110000Y-55372000D03*
X85610000Y-55372000D03*
D27*
X71755000Y-69481000D03*
X71755000Y-70981000D03*
X67056000Y-63361000D03*
X67056000Y-61861000D03*
X67056000Y-59321000D03*
X67056000Y-60821000D03*
D28*
X70854000Y-55626000D03*
X69354000Y-55626000D03*
X64758000Y-61976000D03*
X63258000Y-61976000D03*
X64758000Y-63500000D03*
X63258000Y-63500000D03*
D29*
X58420000Y-64950000D03*
X58420000Y-62050000D03*
X60325000Y-64950000D03*
X60325000Y-62050000D03*
X56515000Y-64950000D03*
X56515000Y-62050000D03*
D28*
X66560000Y-43561000D03*
X68060000Y-43561000D03*
X69862000Y-43561000D03*
X71362000Y-43561000D03*
D27*
X64516000Y-70346000D03*
X64516000Y-68846000D03*
D30*
X74173000Y-76302000D03*
X74173000Y-70002000D03*
X77973000Y-76302000D03*
X77973000Y-70002000D03*
D31*
X101854000Y-48100000D03*
X100584000Y-48100000D03*
X99314000Y-48100000D03*
X98044000Y-48100000D03*
X96774000Y-48100000D03*
X95504000Y-48100000D03*
X94234000Y-48100000D03*
X94234000Y-53500000D03*
X95504000Y-53500000D03*
X96774000Y-53500000D03*
X98044000Y-53500000D03*
X99314000Y-53500000D03*
X100584000Y-53500000D03*
X101854000Y-53500000D03*
X87122000Y-48100000D03*
X85852000Y-48100000D03*
X84582000Y-48100000D03*
X83312000Y-48100000D03*
X82042000Y-48100000D03*
X80772000Y-48100000D03*
X79502000Y-48100000D03*
X79502000Y-53500000D03*
X80772000Y-53500000D03*
X82042000Y-53500000D03*
X83312000Y-53500000D03*
X84582000Y-53500000D03*
X85852000Y-53500000D03*
X87122000Y-53500000D03*
D32*
X55438000Y-71204000D03*
X56388000Y-71204000D03*
X57338000Y-71204000D03*
X57338000Y-69004000D03*
X55438000Y-69004000D03*
D33*
X69342000Y-47034000D03*
X66802000Y-47034000D03*
X66802000Y-52534000D03*
X69342000Y-52534000D03*
D34*
X68648000Y-58668000D03*
X68648000Y-59468000D03*
X68648000Y-60268000D03*
X68648000Y-61068000D03*
X68648000Y-61868000D03*
X68648000Y-62668000D03*
X68648000Y-63468000D03*
X68648000Y-64268000D03*
D35*
X70098000Y-65718000D03*
X70898000Y-65718000D03*
X71698000Y-65718000D03*
X72498000Y-65718000D03*
X73298000Y-65718000D03*
X74098000Y-65718000D03*
X74898000Y-65718000D03*
X75698000Y-65718000D03*
D34*
X77148000Y-64268000D03*
X77148000Y-63468000D03*
X77148000Y-62668000D03*
X77148000Y-61868000D03*
X77148000Y-61068000D03*
X77148000Y-60268000D03*
X77148000Y-59468000D03*
X77148000Y-58668000D03*
D35*
X75698000Y-57218000D03*
X74898000Y-57218000D03*
X74098000Y-57218000D03*
X73298000Y-57218000D03*
X72498000Y-57218000D03*
X71698000Y-57218000D03*
X70898000Y-57218000D03*
X70098000Y-57218000D03*
D36*
X99314000Y-46736000D03*
X90678000Y-48768000D03*
X68580000Y-67056000D03*
X98806000Y-61468000D03*
X64516000Y-67310000D03*
X61341000Y-68834000D03*
X77978000Y-74930000D03*
X77978000Y-71628000D03*
X80518000Y-67310000D03*
X80772000Y-43942000D03*
X98044000Y-54864000D03*
X57531000Y-75184000D03*
X68326000Y-56642000D03*
X64770000Y-59690000D03*
X100584000Y-46736000D03*
X96774000Y-46736000D03*
X95504000Y-46736000D03*
X96774000Y-54864000D03*
X95250000Y-54864000D03*
X99060000Y-54864000D03*
X100584000Y-54864000D03*
X84582000Y-46990000D03*
X85852000Y-46990000D03*
X82042000Y-46736000D03*
X80772000Y-46736000D03*
X82042000Y-51308000D03*
X98806000Y-50800000D03*
X73660000Y-64389000D03*
X73817603Y-63297005D03*
X77470000Y-68326000D03*
X76640021Y-68326000D03*
X73406000Y-62611000D03*
X105664000Y-44958000D03*
X104902000Y-42291000D03*
X72517000Y-62484000D03*
X57404000Y-72390000D03*
X55118000Y-72390000D03*
X63258000Y-59690000D03*
X67310000Y-50927000D03*
X67056000Y-58801000D03*
X70866000Y-58928000D03*
X66421000Y-65405000D03*
X63627000Y-65659000D03*
X73533000Y-44069000D03*
X69342000Y-45974000D03*
X61722000Y-70358000D03*
X63246000Y-58039000D03*
X70485000Y-62230000D03*
X70485000Y-60833000D03*
X102489000Y-59690000D03*
X91948000Y-59563000D03*
X103898341Y-61146021D03*
X99314000Y-43815000D03*
X90297000Y-55118000D03*
X90297000Y-54102000D03*
X72771000Y-45085000D03*
X72517000Y-50292000D03*
X71628000Y-45085000D03*
X68961000Y-44196000D03*
X72516984Y-61595000D03*
X50165000Y-49403000D03*
X50165000Y-47244000D03*
X50165000Y-48260000D03*
X50165000Y-50419000D03*
X50165000Y-46228000D03*
X96774000Y-59045010D03*
X103698118Y-59045010D03*
X104521000Y-58928000D03*
X99060000Y-58420000D03*
X95250000Y-57912000D03*
X100584000Y-57785000D03*
X105029000Y-58293000D03*
X59436000Y-66548000D03*
X60198000Y-66548000D03*
X57531000Y-66548000D03*
X56642000Y-66548000D03*
X58547000Y-66548000D03*
X76708000Y-57658000D03*
X87757000Y-57150000D03*
X84328000Y-55118000D03*
X58928000Y-58420000D03*
X58928000Y-50800000D03*
X61468000Y-54991000D03*
X60452000Y-54991000D03*
X62103000Y-44958000D03*
X62738000Y-45593000D03*
X61341000Y-44196000D03*
X60452000Y-44196000D03*
X59436000Y-44196000D03*
X62357000Y-54356000D03*
X63240000Y-53600000D03*
X59436000Y-54991000D03*
X59309000Y-45974000D03*
X59436000Y-53594000D03*
X52324000Y-60706000D03*
X60325000Y-60706000D03*
X58420000Y-60706000D03*
X56642000Y-60706000D03*
X54415000Y-60706000D03*
X98806000Y-62738000D03*
X80264000Y-60198000D03*
X78232000Y-60198000D03*
X96266000Y-62738000D03*
X80264000Y-61087000D03*
X78232000Y-61087000D03*
X75311000Y-53340000D03*
X75311000Y-54356000D03*
X88138000Y-62738000D03*
X79248000Y-67310000D03*
X81306592Y-65754306D03*
X85344000Y-66802000D03*
X89408000Y-66802000D03*
X93472000Y-66802000D03*
X97536000Y-66802000D03*
X101600000Y-66802000D03*
X102108000Y-45212000D03*
X93980000Y-45212000D03*
X93980000Y-56388000D03*
X102108000Y-56388000D03*
X87376000Y-45212000D03*
X79248000Y-45212000D03*
X66802000Y-48514000D03*
X68326000Y-50927000D03*
X71755000Y-68707000D03*
X75311000Y-55499000D03*
X65341500Y-57594500D03*
X64770000Y-65024000D03*
X65786000Y-70358000D03*
X75112999Y-64446921D03*
X72898000Y-76327000D03*
X72898000Y-69977000D03*
X70358000Y-59563000D03*
X85852000Y-43816032D03*
X82042000Y-43816032D03*
D37*
X99314000Y-48100000D02*
X99314000Y-46736000D01*
X99314000Y-46216000D02*
X99314000Y-48100000D01*
X68879999Y-67355999D02*
X68580000Y-67056000D01*
X75565000Y-68453000D02*
X72771000Y-68453000D01*
X77114000Y-70002000D02*
X75565000Y-68453000D01*
X77973000Y-70002000D02*
X77114000Y-70002000D01*
X72771000Y-68453000D02*
X72263000Y-67945000D01*
X69469000Y-67945000D02*
X68879999Y-67355999D01*
X72263000Y-67945000D02*
X69469000Y-67945000D01*
X98044000Y-54864000D02*
X98044000Y-60706000D01*
X98044000Y-60706000D02*
X98806000Y-61468000D01*
X64516000Y-68846000D02*
X64516000Y-67310000D01*
X77973000Y-70002000D02*
X77978000Y-70007000D01*
X77978000Y-70007000D02*
X77978000Y-71628000D01*
X77978000Y-74930000D02*
X77978000Y-76297000D01*
X77978000Y-76297000D02*
X77973000Y-76302000D01*
X77973000Y-69855000D02*
X80518000Y-67310000D01*
X79180000Y-65718000D02*
X80518000Y-67056000D01*
X80518000Y-67056000D02*
X80518000Y-67310000D01*
X79180000Y-65718000D02*
X75698000Y-65718000D01*
X77973000Y-69855000D02*
X77973000Y-70002000D01*
X80772000Y-43815000D02*
X80772000Y-43942000D01*
X80772000Y-44716000D02*
X80772000Y-43815000D01*
X98044000Y-54864000D02*
X98044000Y-53500000D01*
X59468000Y-74676000D02*
X58960000Y-75184000D01*
X58960000Y-75184000D02*
X57531000Y-75184000D01*
X68326000Y-56642000D02*
X68961000Y-57277000D01*
X68961000Y-57277000D02*
X70039000Y-57277000D01*
X70039000Y-57277000D02*
X70098000Y-57218000D01*
X67056000Y-56654000D02*
X68314000Y-56654000D01*
X68314000Y-56654000D02*
X68326000Y-56642000D01*
X69354000Y-55626000D02*
X70098000Y-56370000D01*
X70098000Y-56370000D02*
X70098000Y-57218000D01*
D38*
X56630000Y-75184000D02*
X58960000Y-75184000D01*
X57338000Y-69004000D02*
X58770000Y-69004000D01*
X58770000Y-69004000D02*
X58928000Y-68846000D01*
X56388000Y-71204000D02*
X56388000Y-73418000D01*
X56388000Y-73418000D02*
X56630000Y-73660000D01*
D37*
X100584000Y-46216000D02*
X100584000Y-46736000D01*
X100584000Y-46216000D02*
X100584000Y-48100000D01*
X96774000Y-46216000D02*
X96774000Y-46736000D01*
X96774000Y-48100000D02*
X96774000Y-46736000D01*
X95504000Y-46216000D02*
X95504000Y-46736000D01*
X95504000Y-48100000D02*
X95504000Y-46736000D01*
X96774000Y-53500000D02*
X96774000Y-55880000D01*
X96774000Y-55880000D02*
X96774000Y-54864000D01*
X96774000Y-53500000D02*
X96774000Y-55384000D01*
X95250000Y-54864000D02*
X95250000Y-55384000D01*
X95504000Y-53500000D02*
X95504000Y-55130000D01*
X95504000Y-55130000D02*
X95250000Y-55384000D01*
X95504000Y-55130000D02*
X95250000Y-55384000D01*
X99060000Y-54864000D02*
X99060000Y-55384000D01*
X99314000Y-53500000D02*
X99314000Y-54610000D01*
X99314000Y-54610000D02*
X99060000Y-54864000D01*
X99314000Y-54610000D02*
X99060000Y-54864000D01*
X100584000Y-55384000D02*
X100584000Y-54864000D01*
X100584000Y-53500000D02*
X100584000Y-54864000D01*
X84582000Y-46990000D02*
X84582000Y-48100000D01*
X84582000Y-48100000D02*
X84582000Y-46216000D01*
X85852000Y-48100000D02*
X85852000Y-46990000D01*
X85852000Y-46990000D02*
X85852000Y-46216000D01*
X82042000Y-46216000D02*
X82042000Y-48100000D01*
X82042000Y-48100000D02*
X82042000Y-46736000D01*
X82042000Y-46736000D02*
X82042000Y-46216000D01*
X80772000Y-48100000D02*
X80772000Y-46736000D01*
X80772000Y-46736000D02*
X80772000Y-46216000D01*
X98806000Y-50800000D02*
X82550000Y-50800000D01*
X82550000Y-50800000D02*
X82042000Y-51308000D01*
X83312000Y-48100000D02*
X83312000Y-50038000D01*
X83312000Y-50038000D02*
X82042000Y-51308000D01*
X98044000Y-48100000D02*
X98044000Y-49403000D01*
X98806000Y-50165000D02*
X98806000Y-50800000D01*
X98044000Y-49403000D02*
X98806000Y-50165000D01*
X72977000Y-64389000D02*
X73235736Y-64389000D01*
X72498000Y-65718000D02*
X72498000Y-64868000D01*
X72498000Y-64868000D02*
X72977000Y-64389000D01*
X73235736Y-64389000D02*
X73660000Y-64389000D01*
X73268995Y-63297005D02*
X73393339Y-63297005D01*
X71698000Y-64868000D02*
X73268995Y-63297005D01*
X73393339Y-63297005D02*
X73817603Y-63297005D01*
X71698000Y-65718000D02*
X71698000Y-64868000D01*
X71189500Y-66859500D02*
X72828500Y-66859500D01*
X72828500Y-66859500D02*
X73336989Y-67367989D01*
X73336989Y-67367989D02*
X76936253Y-67367989D01*
X76936253Y-67367989D02*
X77470000Y-67901736D01*
X70898000Y-66568000D02*
X71189500Y-66859500D01*
X70898000Y-65718000D02*
X70898000Y-66568000D01*
X77470000Y-67901736D02*
X77470000Y-68326000D01*
X70980000Y-67450000D02*
X72657000Y-67450000D01*
X72657000Y-67450000D02*
X73025000Y-67818000D01*
X73025000Y-67818000D02*
X76200000Y-67818000D01*
X76640021Y-68258021D02*
X76640021Y-68326000D01*
X70098000Y-65718000D02*
X70098000Y-66568000D01*
X70098000Y-66568000D02*
X70980000Y-67450000D01*
X76200000Y-67818000D02*
X76640021Y-68258021D01*
X73279000Y-62611000D02*
X73406000Y-62611000D01*
X68648000Y-64268000D02*
X71622000Y-64268000D01*
X71622000Y-64268000D02*
X73279000Y-62611000D01*
X105664000Y-44958000D02*
X105664000Y-43307000D01*
X104902000Y-42291000D02*
X105664000Y-43053000D01*
X105664000Y-43053000D02*
X105664000Y-43307000D01*
X71528127Y-63472873D02*
X70099479Y-63472873D01*
X72517000Y-62484000D02*
X71528127Y-63472873D01*
X68648000Y-63468000D02*
X70094606Y-63468000D01*
X70094606Y-63468000D02*
X70099479Y-63472873D01*
X63468000Y-74676000D02*
X63749000Y-74957000D01*
X63749000Y-74957000D02*
X68453000Y-74957000D01*
X55130000Y-73660000D02*
X55130000Y-72402000D01*
X55130000Y-72402000D02*
X55118000Y-72390000D01*
X55130000Y-75184000D02*
X55130000Y-73660000D01*
D38*
X57338000Y-71204000D02*
X57338000Y-72324000D01*
X57338000Y-72324000D02*
X57404000Y-72390000D01*
X55118000Y-72390000D02*
X55130000Y-72390000D01*
X55438000Y-71204000D02*
X55130000Y-71512000D01*
X55130000Y-71512000D02*
X55130000Y-72390000D01*
X55130000Y-72390000D02*
X55130000Y-73152000D01*
X55880000Y-76708000D02*
X55130000Y-75958000D01*
X61436000Y-76708000D02*
X55880000Y-76708000D01*
X63468000Y-74676000D02*
X61436000Y-76708000D01*
X55130000Y-75958000D02*
X55130000Y-74676000D01*
X55130000Y-74676000D02*
X55130000Y-73152000D01*
D37*
X77148000Y-64268000D02*
X77148000Y-64262000D01*
X77148000Y-64262000D02*
X76327000Y-64262000D01*
X76327000Y-64262000D02*
X75565000Y-63500000D01*
X75565000Y-63500000D02*
X75565000Y-59690000D01*
X75565000Y-59690000D02*
X74803000Y-58928000D01*
X74803000Y-58928000D02*
X70866000Y-58928000D01*
X63258000Y-59690000D02*
X63258000Y-61976000D01*
X69342000Y-47034000D02*
X67564000Y-48812000D01*
X67564000Y-50673000D02*
X67310000Y-50927000D01*
X67564000Y-48812000D02*
X67564000Y-50673000D01*
X67056000Y-58801000D02*
X67062000Y-58801000D01*
X67062000Y-58801000D02*
X67056000Y-58801000D01*
X67056000Y-58801000D02*
X67062000Y-58801000D01*
X67056000Y-63361000D02*
X67056000Y-64770000D01*
X67056000Y-64770000D02*
X66421000Y-65405000D01*
X73345000Y-43881000D02*
X73345000Y-43069000D01*
X73533000Y-44069000D02*
X73345000Y-43881000D01*
X69342000Y-47034000D02*
X69342000Y-45974000D01*
X61084180Y-40894000D02*
X65921200Y-45731022D01*
X65921200Y-45731022D02*
X67514022Y-45731022D01*
X67514022Y-45731022D02*
X68817000Y-47034000D01*
X56896000Y-40894000D02*
X61084180Y-40894000D01*
X68817000Y-47034000D02*
X69342000Y-47034000D01*
X67062000Y-58668000D02*
X67062000Y-58801000D01*
X67062000Y-58801000D02*
X67062000Y-59315000D01*
X67062000Y-59315000D02*
X67056000Y-59321000D01*
X68648000Y-58668000D02*
X67062000Y-58668000D01*
X67056000Y-58662000D02*
X67056000Y-58154000D01*
X67062000Y-58668000D02*
X67056000Y-58662000D01*
X63258000Y-63500000D02*
X63627000Y-63869000D01*
X63627000Y-69457000D02*
X62738000Y-70346000D01*
X63627000Y-63869000D02*
X63627000Y-65659000D01*
X63627000Y-65659000D02*
X63627000Y-69457000D01*
X61722000Y-70219000D02*
X61849000Y-70346000D01*
X61226000Y-70358000D02*
X61297736Y-70358000D01*
X61214000Y-70346000D02*
X61226000Y-70358000D01*
X61297736Y-70358000D02*
X61722000Y-70358000D01*
X63258000Y-61976000D02*
X63258000Y-63500000D01*
X63875000Y-58668000D02*
X63246000Y-58039000D01*
X61214000Y-70346000D02*
X61214000Y-70358000D01*
X61214000Y-70358000D02*
X61214000Y-70346000D01*
X62992000Y-70346000D02*
X61849000Y-70346000D01*
X61849000Y-70346000D02*
X61214000Y-70346000D01*
X61214000Y-70346000D02*
X60198000Y-70346000D01*
D38*
X58928000Y-70346000D02*
X60198000Y-70346000D01*
X55438000Y-69004000D02*
X55438000Y-69662000D01*
X55880000Y-70104000D02*
X58686000Y-70104000D01*
X55438000Y-69662000D02*
X55880000Y-70104000D01*
X58686000Y-70104000D02*
X58928000Y-70346000D01*
D37*
X67056000Y-61861000D02*
X68641000Y-61861000D01*
X68641000Y-61861000D02*
X68648000Y-61868000D01*
X70612000Y-62230000D02*
X70485000Y-62230000D01*
X70250000Y-61868000D02*
X70612000Y-62230000D01*
X68648000Y-61868000D02*
X70250000Y-61868000D01*
X68648000Y-61068000D02*
X67303000Y-61068000D01*
X67303000Y-61068000D02*
X67056000Y-60821000D01*
X68648000Y-61068000D02*
X70250000Y-61068000D01*
X70250000Y-61068000D02*
X70485000Y-60833000D01*
X103898341Y-61099341D02*
X102489000Y-59690000D01*
X103898341Y-61146021D02*
X103898341Y-61099341D01*
X90297000Y-57912000D02*
X90297000Y-55118000D01*
X91948000Y-59563000D02*
X90297000Y-57912000D01*
X103898341Y-61146021D02*
X104070998Y-61318678D01*
X104070998Y-65855011D02*
X104070998Y-65855002D01*
X104070998Y-61318678D02*
X104070998Y-65855011D01*
X103898341Y-61146021D02*
X103906573Y-61146021D01*
X102498998Y-67427002D02*
X104070998Y-65855002D01*
X82380000Y-71172000D02*
X86124998Y-67427002D01*
X86124998Y-67427002D02*
X102498998Y-67427002D01*
X104070998Y-65855002D02*
X104070989Y-65855011D01*
X81280000Y-71172000D02*
X82380000Y-71172000D01*
X99314000Y-44716000D02*
X99314000Y-43815000D01*
X90055000Y-55360000D02*
X89408000Y-55360000D01*
X90297000Y-55118000D02*
X90055000Y-55360000D01*
D38*
X81280000Y-71172000D02*
X81280000Y-74676000D01*
X81280000Y-74676000D02*
X83058000Y-74676000D01*
X83058000Y-74676000D02*
X83439000Y-74295000D01*
D37*
X87110000Y-55372000D02*
X87896000Y-55372000D01*
X87896000Y-55372000D02*
X89408000Y-53860000D01*
X90055000Y-53860000D02*
X89408000Y-53860000D01*
X90297000Y-54102000D02*
X90055000Y-53860000D01*
X71755000Y-72352000D02*
X71755000Y-70981000D01*
X72263000Y-51054000D02*
X72136000Y-51054000D01*
X76710822Y-51054000D02*
X72263000Y-51054000D01*
X78243022Y-52586200D02*
X76710822Y-51054000D01*
X78243022Y-54873612D02*
X78243022Y-52586200D01*
X78867000Y-55497590D02*
X78243022Y-54873612D01*
X78867000Y-61595000D02*
X78867000Y-55497590D01*
X78594000Y-61868000D02*
X78867000Y-61595000D01*
X77148000Y-61868000D02*
X78594000Y-61868000D01*
X71501000Y-46355000D02*
X72771000Y-45085000D01*
X71501000Y-50419000D02*
X71501000Y-46355000D01*
X72136000Y-51054000D02*
X71501000Y-50419000D01*
X72771000Y-45085000D02*
X74279000Y-45085000D01*
X74279000Y-45085000D02*
X74295000Y-45069000D01*
X72771000Y-50546000D02*
X73195264Y-50546000D01*
X72517000Y-50292000D02*
X72771000Y-50546000D01*
X71628000Y-45085000D02*
X71628000Y-43827000D01*
X71628000Y-43827000D02*
X71362000Y-43561000D01*
X77148000Y-62668000D02*
X78810000Y-62668000D01*
X78693033Y-52399800D02*
X76839233Y-50546000D01*
X78693033Y-54687211D02*
X78693033Y-52399800D01*
X79502000Y-55496178D02*
X78693033Y-54687211D01*
X79502000Y-61976000D02*
X79502000Y-55496178D01*
X78810000Y-62668000D02*
X79502000Y-61976000D01*
X76839233Y-50546000D02*
X73195264Y-50546000D01*
X68060000Y-43561000D02*
X68695000Y-44196000D01*
X68695000Y-44196000D02*
X68961000Y-44196000D01*
X74098000Y-64868000D02*
X74442605Y-64523395D01*
X72941248Y-61595000D02*
X72516984Y-61595000D01*
X74098000Y-65718000D02*
X74098000Y-64868000D01*
X74442605Y-64523395D02*
X74442605Y-62377605D01*
X73660000Y-61595000D02*
X72941248Y-61595000D01*
X74442605Y-62377605D02*
X73660000Y-61595000D01*
D39*
X50165000Y-48260000D02*
X50165000Y-49403000D01*
X50165000Y-49403000D02*
X50165000Y-47244000D01*
X54415000Y-48260000D02*
X50165000Y-48260000D01*
X54415000Y-48260000D02*
X52256000Y-50419000D01*
X52256000Y-50419000D02*
X50165000Y-50419000D01*
X54415000Y-48260000D02*
X52383000Y-46228000D01*
X52383000Y-46228000D02*
X50165000Y-46228000D01*
X50165000Y-48260000D02*
X50165000Y-50419000D01*
X50165000Y-48260000D02*
X50165000Y-46228000D01*
X47625000Y-48260000D02*
X50165000Y-48260000D01*
X50165000Y-48260000D02*
X54415000Y-48260000D01*
X44225000Y-48260000D02*
X47625000Y-48260000D01*
X44225000Y-58180000D02*
X47625000Y-58180000D01*
X47584360Y-65483740D02*
X47584360Y-67985640D01*
X47584360Y-67985640D02*
X45085000Y-70485000D01*
X47625000Y-58180000D02*
X47625000Y-65443100D01*
X47625000Y-65443100D02*
X47584360Y-65483740D01*
D37*
X87349415Y-70422000D02*
X89894402Y-67877013D01*
X87194000Y-70422000D02*
X87349415Y-70422000D01*
X103308989Y-57600011D02*
X103308989Y-43750219D01*
X104521000Y-66167000D02*
X104521000Y-61443047D01*
X102810987Y-67877013D02*
X104521000Y-66167000D01*
X104521000Y-61443047D02*
X104523342Y-61440705D01*
X85344000Y-71172000D02*
X86444000Y-71172000D01*
X89894402Y-67877013D02*
X102810987Y-67877013D01*
X104523342Y-61440705D02*
X104523342Y-60795236D01*
X104523342Y-60795236D02*
X103073117Y-59345011D01*
X103073117Y-59345011D02*
X103073117Y-57835883D01*
X103073117Y-57835883D02*
X103308989Y-57600011D01*
X86444000Y-71172000D02*
X87194000Y-70422000D01*
X103308989Y-43750219D02*
X102738770Y-43180000D01*
X102738770Y-43180000D02*
X100584000Y-43180000D01*
X100584000Y-43180000D02*
X97409000Y-43180000D01*
X96774000Y-43815000D02*
X96774000Y-44716000D01*
X97409000Y-43180000D02*
X96774000Y-43815000D01*
X100584000Y-44716000D02*
X100584000Y-43180000D01*
D38*
X85939000Y-74295000D02*
X85939000Y-71767000D01*
X85939000Y-71767000D02*
X85344000Y-71172000D01*
D37*
X102997387Y-68327024D02*
X104971011Y-66353400D01*
X104973353Y-60320245D02*
X103998117Y-59345009D01*
X90508000Y-71172000D02*
X93352976Y-68327024D01*
X93352976Y-68327024D02*
X102997387Y-68327024D01*
X104971011Y-61629447D02*
X104973353Y-61627105D01*
X103998117Y-59345009D02*
X103698118Y-59045010D01*
X104971011Y-66353400D02*
X104971011Y-61629447D01*
X104973353Y-61627105D02*
X104973353Y-60320245D01*
X89408000Y-71172000D02*
X90508000Y-71172000D01*
X95504000Y-44216000D02*
X97036978Y-42683022D01*
X103759008Y-43563828D02*
X103759008Y-58559856D01*
X102878202Y-42683022D02*
X103759008Y-43563828D01*
X103759008Y-58559856D02*
X103698118Y-58620746D01*
X97036978Y-42683022D02*
X102878202Y-42683022D01*
X103698118Y-58620746D02*
X103698118Y-59045010D01*
X95504000Y-44716000D02*
X95504000Y-44216000D01*
X96774000Y-56884000D02*
X96774000Y-59045010D01*
D38*
X88439000Y-74295000D02*
X88439000Y-72141000D01*
X88439000Y-72141000D02*
X89408000Y-71172000D01*
D37*
X105421022Y-61815847D02*
X105423364Y-61813505D01*
X94572000Y-71172000D02*
X96966965Y-68777035D01*
X93472000Y-71172000D02*
X94572000Y-71172000D01*
X105421022Y-66539800D02*
X105421022Y-61815847D01*
X96966965Y-68777035D02*
X103183787Y-68777035D01*
X103183787Y-68777035D02*
X105421022Y-66539800D01*
X105423364Y-61813505D02*
X105423364Y-59830364D01*
X104820999Y-59227999D02*
X104521000Y-58928000D01*
X105423364Y-59830364D02*
X104820999Y-59227999D01*
X99060000Y-56884000D02*
X99060000Y-58420000D01*
X95250000Y-57912000D02*
X95250000Y-56884000D01*
D38*
X90939000Y-74295000D02*
X90939000Y-73705000D01*
X90939000Y-73705000D02*
X93472000Y-71172000D01*
D37*
X105328999Y-58592999D02*
X105029000Y-58293000D01*
X105918000Y-66679220D02*
X105918000Y-59182000D01*
X103370174Y-69227046D02*
X105918000Y-66679220D01*
X100580954Y-69227046D02*
X103370174Y-69227046D01*
X97536000Y-71172000D02*
X98636000Y-71172000D01*
X98636000Y-71172000D02*
X100580954Y-69227046D01*
X105918000Y-59182000D02*
X105328999Y-58592999D01*
X84582000Y-44216000D02*
X84582000Y-44716000D01*
X103064601Y-42233011D02*
X86163989Y-42233011D01*
X84582000Y-43815000D02*
X84582000Y-44216000D01*
X86163989Y-42233011D02*
X84582000Y-43815000D01*
X104267000Y-43435410D02*
X103064601Y-42233011D01*
X104267000Y-57531000D02*
X104267000Y-43435410D01*
X105029000Y-58293000D02*
X104267000Y-57531000D01*
X100584000Y-57785000D02*
X100584000Y-56884000D01*
D38*
X93439000Y-74295000D02*
X93439000Y-73693000D01*
X93439000Y-73693000D02*
X94488000Y-72644000D01*
X94488000Y-72644000D02*
X96064000Y-72644000D01*
X96064000Y-72644000D02*
X97536000Y-71172000D01*
D39*
X60325000Y-64950000D02*
X60198000Y-65077000D01*
X60198000Y-65077000D02*
X60198000Y-66548000D01*
X60198000Y-66548000D02*
X59436000Y-66548000D01*
X59436000Y-66548000D02*
X60198000Y-66548000D01*
X60198000Y-66548000D02*
X60198000Y-65077000D01*
X60198000Y-65077000D02*
X60325000Y-64950000D01*
X56515000Y-64950000D02*
X56642000Y-65077000D01*
X56642000Y-65077000D02*
X56642000Y-66548000D01*
X56642000Y-66548000D02*
X57531000Y-66548000D01*
X57531000Y-66548000D02*
X58547000Y-66548000D01*
X58547000Y-66548000D02*
X59436000Y-66548000D01*
X59436000Y-66548000D02*
X60198000Y-66548000D01*
X60198000Y-66548000D02*
X60198000Y-65077000D01*
X60198000Y-65077000D02*
X60325000Y-64950000D01*
X58420000Y-64950000D02*
X56515000Y-64950000D01*
X60325000Y-64950000D02*
X58420000Y-64950000D01*
X52584360Y-65483740D02*
X53118100Y-64950000D01*
X53118100Y-64950000D02*
X60325000Y-64950000D01*
X50085000Y-70485000D02*
X52584360Y-67985640D01*
X52584360Y-67985640D02*
X52584360Y-65483740D01*
D37*
X67183000Y-40894000D02*
X66560000Y-41517000D01*
X66560000Y-41517000D02*
X66560000Y-43561000D01*
X71628705Y-52070705D02*
X76454705Y-52070705D01*
X77343000Y-52959000D02*
X77343000Y-57923000D01*
X70358000Y-45975410D02*
X70358000Y-50800000D01*
X70358000Y-50800000D02*
X71628705Y-52070705D01*
X66107600Y-45281011D02*
X69663601Y-45281011D01*
X76454705Y-52070705D02*
X77343000Y-52959000D01*
X60196590Y-39370000D02*
X66107600Y-45281011D01*
X54356000Y-40894000D02*
X55880000Y-39370000D01*
X77148000Y-58118000D02*
X77148000Y-58668000D01*
X69663601Y-45281011D02*
X70358000Y-45975410D01*
X77343000Y-57923000D02*
X77148000Y-58118000D01*
X55880000Y-39370000D02*
X60196590Y-39370000D01*
X49276000Y-40894000D02*
X51308000Y-38862000D01*
X69850000Y-44831000D02*
X70866000Y-45847000D01*
X70866000Y-50546000D02*
X71882000Y-51562000D01*
X51308000Y-38862000D02*
X60325000Y-38862000D01*
X71882000Y-51562000D02*
X76582411Y-51562000D01*
X60325000Y-38862000D02*
X66294000Y-44831000D01*
X66294000Y-44831000D02*
X69850000Y-44831000D01*
X78105000Y-59361000D02*
X77998000Y-59468000D01*
X70866000Y-45847000D02*
X70866000Y-50546000D01*
X77793011Y-52772600D02*
X77793011Y-55060011D01*
X76582411Y-51562000D02*
X77793011Y-52772600D01*
X77793011Y-55060011D02*
X78105000Y-55372000D01*
X78105000Y-55372000D02*
X78105000Y-59361000D01*
X77998000Y-59468000D02*
X77148000Y-59468000D01*
X69862000Y-43561000D02*
X70878000Y-42545000D01*
X71755000Y-42545000D02*
X73406000Y-40894000D01*
X70878000Y-42545000D02*
X71755000Y-42545000D01*
X68648000Y-59468000D02*
X69437000Y-59468000D01*
X70612000Y-58293000D02*
X76073000Y-58293000D01*
X69437000Y-59468000D02*
X70612000Y-58293000D01*
X76073000Y-58293000D02*
X76708000Y-57658000D01*
X87110000Y-56896000D02*
X87503000Y-56896000D01*
X87503000Y-56896000D02*
X87757000Y-57150000D01*
X84328000Y-55118000D02*
X84582000Y-55372000D01*
X84582000Y-55372000D02*
X85610000Y-55372000D01*
D38*
X60715000Y-58160000D02*
X61728000Y-58160000D01*
X65976500Y-53911500D02*
X67964500Y-53911500D01*
X61728000Y-58160000D02*
X65976500Y-53911500D01*
X67964500Y-53911500D02*
X69342000Y-52534000D01*
X60715000Y-50540000D02*
X59188000Y-50540000D01*
X59188000Y-58160000D02*
X60715000Y-58160000D01*
X58928000Y-58420000D02*
X59188000Y-58160000D01*
X59188000Y-50540000D02*
X58928000Y-50800000D01*
X66802000Y-52534000D02*
X64135000Y-52534000D01*
X64516000Y-52324000D02*
X64135000Y-52324000D01*
X64345000Y-52324000D02*
X64516000Y-52324000D01*
X64135000Y-52534000D02*
X64345000Y-52324000D01*
D39*
X59436000Y-54991000D02*
X60452000Y-54991000D01*
X62103000Y-44958000D02*
X62103000Y-45980000D01*
X60715000Y-45980000D02*
X62103000Y-45980000D01*
X62103000Y-45980000D02*
X62351000Y-45980000D01*
X62351000Y-45980000D02*
X62738000Y-45593000D01*
X60452000Y-44196000D02*
X59309000Y-44196000D01*
X59309000Y-45974000D02*
X59309000Y-44196000D01*
X59309000Y-44196000D02*
X59309000Y-44323000D01*
X59309000Y-44323000D02*
X59309000Y-44196000D01*
X59436000Y-45847000D02*
X59309000Y-45974000D01*
X60709000Y-45974000D02*
X59309000Y-45974000D01*
X59436000Y-44196000D02*
X59309000Y-44196000D01*
X59309000Y-44196000D02*
X61341000Y-44196000D01*
X61341000Y-44196000D02*
X64135000Y-46990000D01*
X59436000Y-44196000D02*
X59436000Y-45847000D01*
X62357000Y-54356000D02*
X61087000Y-54356000D01*
X61087000Y-53972000D02*
X61087000Y-54356000D01*
X61087000Y-54356000D02*
X61087000Y-54864000D01*
X60325000Y-54991000D02*
X61468000Y-54991000D01*
X61849000Y-54991000D02*
X62738000Y-54102000D01*
X59436000Y-54991000D02*
X60325000Y-54991000D01*
X60325000Y-54991000D02*
X61595000Y-54991000D01*
X61214000Y-54864000D02*
X61087000Y-54991000D01*
X59436000Y-54991000D02*
X61087000Y-54991000D01*
X60715000Y-53600000D02*
X61087000Y-53972000D01*
X61087000Y-53972000D02*
X61087000Y-54991000D01*
X59436000Y-54991000D02*
X59436000Y-53594000D01*
X60715000Y-45980000D02*
X60709000Y-45974000D01*
X59436000Y-53594000D02*
X60709000Y-53594000D01*
X60709000Y-53594000D02*
X60715000Y-53600000D01*
X60715000Y-53600000D02*
X63240000Y-53600000D01*
X63125000Y-45980000D02*
X60715000Y-45980000D01*
X64135000Y-46990000D02*
X63125000Y-45980000D01*
X64135000Y-52705000D02*
X64135000Y-52324000D01*
X64135000Y-52324000D02*
X64135000Y-52705000D01*
X64135000Y-52705000D02*
X64135000Y-46990000D01*
X63240000Y-53600000D02*
X64135000Y-52705000D01*
X58420000Y-62050000D02*
X56515000Y-62050000D01*
X60325000Y-62050000D02*
X58420000Y-62050000D01*
X52324000Y-60706000D02*
X54415000Y-60706000D01*
X54415000Y-60706000D02*
X56642000Y-60706000D01*
X56642000Y-60706000D02*
X58420000Y-60706000D01*
X58420000Y-60706000D02*
X60325000Y-60706000D01*
X60325000Y-60706000D02*
X60325000Y-62050000D01*
X52324000Y-60706000D02*
X55171000Y-60706000D01*
X52324000Y-60706000D02*
X52324000Y-57971000D01*
X52324000Y-57971000D02*
X54415000Y-55880000D01*
X54415000Y-55880000D02*
X56642000Y-58107000D01*
X56642000Y-58107000D02*
X56642000Y-60706000D01*
X54415000Y-55880000D02*
X54415000Y-60706000D01*
X56642000Y-60706000D02*
X55171000Y-60706000D01*
X55171000Y-60706000D02*
X54415000Y-59950000D01*
X58420000Y-60706000D02*
X60325000Y-60706000D01*
X56642000Y-60706000D02*
X58420000Y-60706000D01*
X54415000Y-59950000D02*
X54415000Y-55880000D01*
D37*
X98806000Y-62738000D02*
X96266000Y-60198000D01*
X80264000Y-60198000D02*
X81407000Y-60198000D01*
X81831264Y-60198000D02*
X81407000Y-60198000D01*
X96266000Y-60198000D02*
X81831264Y-60198000D01*
X78162000Y-60268000D02*
X78232000Y-60198000D01*
X77148000Y-60268000D02*
X78162000Y-60268000D01*
X78232000Y-60211000D02*
X78232000Y-60198000D01*
X78289000Y-60268000D02*
X78232000Y-60211000D01*
X81407000Y-61087000D02*
X81788000Y-60706000D01*
X81788000Y-60706000D02*
X94234000Y-60706000D01*
X94234000Y-60706000D02*
X96139000Y-62611000D01*
X96139000Y-62611000D02*
X96266000Y-62738000D01*
X80264000Y-61087000D02*
X81407000Y-61087000D01*
X78213000Y-61068000D02*
X77148000Y-61068000D01*
X78213000Y-61068000D02*
X78232000Y-61087000D01*
X75011001Y-53639999D02*
X75311000Y-53340000D01*
X73298000Y-55353000D02*
X75011001Y-53639999D01*
X73298000Y-57218000D02*
X73298000Y-55353000D01*
X74098000Y-55569000D02*
X75011001Y-54655999D01*
X74098000Y-57218000D02*
X74098000Y-55569000D01*
X75011001Y-54655999D02*
X75311000Y-54356000D01*
X77148000Y-63468000D02*
X77998000Y-63468000D01*
X82595989Y-63346971D02*
X82596004Y-63346986D01*
X78119029Y-63346971D02*
X82595989Y-63346971D01*
X87529014Y-63346986D02*
X87838001Y-63037999D01*
X82596004Y-63346986D02*
X87529014Y-63346986D01*
X77998000Y-63468000D02*
X78119029Y-63346971D01*
X87838001Y-63037999D02*
X88138000Y-62738000D01*
X73532000Y-66802000D02*
X78740000Y-66802000D01*
X73298000Y-66568000D02*
X73532000Y-66802000D01*
X73298000Y-65718000D02*
X73298000Y-66568000D01*
X78740000Y-66802000D02*
X78948001Y-67010001D01*
X78948001Y-67010001D02*
X79248000Y-67310000D01*
D38*
X81306592Y-64998592D02*
X81306592Y-65330042D01*
X81280000Y-64972000D02*
X81306592Y-64998592D01*
X81306592Y-65330042D02*
X81306592Y-65754306D01*
X85344000Y-64972000D02*
X85344000Y-66802000D01*
X89408000Y-64972000D02*
X89408000Y-66802000D01*
X93472000Y-64972000D02*
X93472000Y-66802000D01*
X97536000Y-64972000D02*
X97536000Y-66802000D01*
X101600000Y-64972000D02*
X101600000Y-66802000D01*
D37*
X101854000Y-48100000D02*
X102108000Y-47846000D01*
X102108000Y-47846000D02*
X102108000Y-45212000D01*
X94234000Y-48100000D02*
X93980000Y-47846000D01*
X93980000Y-47846000D02*
X93980000Y-45212000D01*
X94234000Y-53500000D02*
X94234000Y-55880000D01*
X94234000Y-55880000D02*
X93980000Y-56388000D01*
X101854000Y-53500000D02*
X101854000Y-56134000D01*
X101854000Y-56134000D02*
X102108000Y-56388000D01*
X87122000Y-48100000D02*
X87122000Y-45466000D01*
X87122000Y-45466000D02*
X87376000Y-45212000D01*
X79502000Y-48100000D02*
X79502000Y-45466000D01*
X79502000Y-45466000D02*
X79248000Y-45212000D01*
X66802000Y-47034000D02*
X66802000Y-48514000D01*
X75698000Y-57218000D02*
X76259000Y-57218000D01*
X76259000Y-57218000D02*
X76835000Y-56642000D01*
X76200000Y-52578000D02*
X71374000Y-52578000D01*
X76835000Y-56642000D02*
X76835000Y-53213000D01*
X76835000Y-53213000D02*
X76200000Y-52578000D01*
X71374000Y-52578000D02*
X69722295Y-50926295D01*
X69722295Y-50926295D02*
X68326705Y-50926295D01*
X68326705Y-50926295D02*
X68326000Y-50927000D01*
X75698000Y-57218000D02*
X75692000Y-57224000D01*
X71755000Y-69481000D02*
X71755000Y-68707000D01*
X74898000Y-57218000D02*
X74898000Y-55912000D01*
X74898000Y-55912000D02*
X75311000Y-55499000D01*
X70898000Y-57218000D02*
X70898000Y-55670000D01*
X70898000Y-55670000D02*
X70854000Y-55626000D01*
X65722500Y-58039000D02*
X65722500Y-55562500D01*
X68135500Y-54673500D02*
X68707000Y-54102000D01*
X65722500Y-55562500D02*
X66611500Y-54673500D01*
X66611500Y-54673500D02*
X68135500Y-54673500D01*
X68707000Y-54102000D02*
X71374000Y-54102000D01*
X71374000Y-54102000D02*
X72498000Y-55226000D01*
X72498000Y-55226000D02*
X72498000Y-55607000D01*
X72498000Y-55607000D02*
X72498000Y-57218000D01*
X65341500Y-57594500D02*
X65722500Y-57975500D01*
X65722500Y-57975500D02*
X65722500Y-58039000D01*
X65278000Y-61976000D02*
X64758000Y-61976000D01*
X65722500Y-61531500D02*
X65278000Y-61976000D01*
X65722500Y-58039000D02*
X65722500Y-61531500D01*
X64758000Y-63500000D02*
X64758000Y-63300000D01*
X66797899Y-55123511D02*
X68453000Y-55123511D01*
X64758000Y-63300000D02*
X66230500Y-61827500D01*
X66230500Y-61827500D02*
X66230500Y-55690910D01*
X71120000Y-54610000D02*
X71698000Y-55188000D01*
X66230500Y-55690910D02*
X66797899Y-55123511D01*
X68453000Y-55123511D02*
X68966511Y-54610000D01*
X68966511Y-54610000D02*
X71120000Y-54610000D01*
X71698000Y-55188000D02*
X71698000Y-57218000D01*
X64758000Y-65012000D02*
X64758000Y-63500000D01*
X64770000Y-65024000D02*
X64758000Y-65012000D01*
X68648000Y-62668000D02*
X66110000Y-62668000D01*
X65786000Y-64516000D02*
X65786000Y-70358000D01*
X65786000Y-62992000D02*
X65786000Y-64516000D01*
X66110000Y-62668000D02*
X65786000Y-62992000D01*
X65786000Y-70358000D02*
X65786000Y-70346000D01*
X65786000Y-70346000D02*
X65786000Y-70358000D01*
X65786000Y-70358000D02*
X65786000Y-70346000D01*
X65786000Y-70346000D02*
X64516000Y-70346000D01*
X74898000Y-65718000D02*
X74898000Y-64661920D01*
X74898000Y-64661920D02*
X75112999Y-64446921D01*
X72923000Y-76302000D02*
X74173000Y-76302000D01*
X72898000Y-76327000D02*
X72923000Y-76302000D01*
X72898000Y-69977000D02*
X74148000Y-69977000D01*
X74148000Y-69977000D02*
X74173000Y-70002000D01*
X69653000Y-60268000D02*
X70358000Y-59563000D01*
X69653000Y-60268000D02*
X68648000Y-60268000D01*
X103251000Y-41783000D02*
X84075032Y-41783000D01*
X84075032Y-41783000D02*
X82341999Y-43516033D01*
X104902000Y-57277000D02*
X104902000Y-43434000D01*
X102700000Y-71172000D02*
X106426000Y-67446000D01*
X101600000Y-71172000D02*
X102700000Y-71172000D01*
X106426000Y-58801000D02*
X104902000Y-57277000D01*
X82341999Y-43516033D02*
X82042000Y-43816032D01*
X106426000Y-67446000D02*
X106426000Y-58801000D01*
X104902000Y-43434000D02*
X103251000Y-41783000D01*
X82042000Y-44716000D02*
X82042000Y-43816032D01*
X85852000Y-44716000D02*
X85852000Y-43816032D01*
X94070500Y-76163500D02*
X81243500Y-76163500D01*
X81243500Y-76163500D02*
X78232000Y-73152000D01*
X78232000Y-73152000D02*
X69750000Y-73152000D01*
X69750000Y-73152000D02*
X68453000Y-71855000D01*
X68453000Y-71855000D02*
X68453000Y-70077000D01*
X95939000Y-74295000D02*
X94070500Y-76163500D01*
X94070500Y-76163500D02*
X94034000Y-76200000D01*
D38*
X95939000Y-74295000D02*
X95939000Y-74241000D01*
X95939000Y-74241000D02*
X97536000Y-72644000D01*
X97536000Y-72644000D02*
X100128000Y-72644000D01*
X100128000Y-72644000D02*
X101600000Y-71172000D01*
D40*
G36*
X105970000Y-76760000D02*
X94537579Y-76760000D01*
X94571401Y-76737401D01*
X95504910Y-75803892D01*
X95627336Y-75854728D01*
X96247942Y-75855270D01*
X96821514Y-75618275D01*
X97046926Y-75393256D01*
X97520349Y-75393256D01*
X97609821Y-75652332D01*
X98192368Y-75866325D01*
X98812461Y-75841097D01*
X99268179Y-75652332D01*
X99357651Y-75393256D01*
X98439000Y-74474605D01*
X97520349Y-75393256D01*
X97046926Y-75393256D01*
X97256121Y-75184426D01*
X97340744Y-75213651D01*
X98259395Y-74295000D01*
X98245253Y-74280858D01*
X98424858Y-74101253D01*
X98439000Y-74115395D01*
X98453143Y-74101253D01*
X98632748Y-74280858D01*
X98618605Y-74295000D01*
X99537256Y-75213651D01*
X99796332Y-75124179D01*
X100010325Y-74541632D01*
X99985097Y-73921539D01*
X99822502Y-73529000D01*
X100127995Y-73529000D01*
X100128000Y-73529001D01*
X100410484Y-73472810D01*
X100466675Y-73461633D01*
X100753790Y-73269790D01*
X101704139Y-72319440D01*
X103200000Y-72319440D01*
X103435317Y-72275162D01*
X103651441Y-72136090D01*
X103796431Y-71923890D01*
X103847440Y-71672000D01*
X103847440Y-71099362D01*
X105970000Y-68976802D01*
X105970000Y-76760000D01*
X105970000Y-76760000D01*
G37*
X105970000Y-76760000D02*
X94537579Y-76760000D01*
X94571401Y-76737401D01*
X95504910Y-75803892D01*
X95627336Y-75854728D01*
X96247942Y-75855270D01*
X96821514Y-75618275D01*
X97046926Y-75393256D01*
X97520349Y-75393256D01*
X97609821Y-75652332D01*
X98192368Y-75866325D01*
X98812461Y-75841097D01*
X99268179Y-75652332D01*
X99357651Y-75393256D01*
X98439000Y-74474605D01*
X97520349Y-75393256D01*
X97046926Y-75393256D01*
X97256121Y-75184426D01*
X97340744Y-75213651D01*
X98259395Y-74295000D01*
X98245253Y-74280858D01*
X98424858Y-74101253D01*
X98439000Y-74115395D01*
X98453143Y-74101253D01*
X98632748Y-74280858D01*
X98618605Y-74295000D01*
X99537256Y-75213651D01*
X99796332Y-75124179D01*
X100010325Y-74541632D01*
X99985097Y-73921539D01*
X99822502Y-73529000D01*
X100127995Y-73529000D01*
X100128000Y-73529001D01*
X100410484Y-73472810D01*
X100466675Y-73461633D01*
X100753790Y-73269790D01*
X101704139Y-72319440D01*
X103200000Y-72319440D01*
X103435317Y-72275162D01*
X103651441Y-72136090D01*
X103796431Y-71923890D01*
X103847440Y-71672000D01*
X103847440Y-71099362D01*
X105970000Y-68976802D01*
X105970000Y-76760000D01*
G36*
X80706099Y-76700901D02*
X80794547Y-76760000D01*
X79108000Y-76760000D01*
X79108000Y-76587750D01*
X78949250Y-76429000D01*
X78100000Y-76429000D01*
X78100000Y-76449000D01*
X77846000Y-76449000D01*
X77846000Y-76429000D01*
X76996750Y-76429000D01*
X76838000Y-76587750D01*
X76838000Y-76760000D01*
X75320440Y-76760000D01*
X75320440Y-75452000D01*
X75296674Y-75325691D01*
X76838000Y-75325691D01*
X76838000Y-76016250D01*
X76996750Y-76175000D01*
X77846000Y-76175000D01*
X77846000Y-74975750D01*
X78100000Y-74975750D01*
X78100000Y-76175000D01*
X78949250Y-76175000D01*
X79108000Y-76016250D01*
X79108000Y-75325691D01*
X79011327Y-75092302D01*
X78832699Y-74913673D01*
X78599310Y-74817000D01*
X78258750Y-74817000D01*
X78100000Y-74975750D01*
X77846000Y-74975750D01*
X77687250Y-74817000D01*
X77346690Y-74817000D01*
X77113301Y-74913673D01*
X76934673Y-75092302D01*
X76838000Y-75325691D01*
X75296674Y-75325691D01*
X75276162Y-75216683D01*
X75137090Y-75000559D01*
X74924890Y-74855569D01*
X74673000Y-74804560D01*
X73673000Y-74804560D01*
X73437683Y-74848838D01*
X73221559Y-74987910D01*
X73076569Y-75200110D01*
X73037686Y-75392121D01*
X72712833Y-75391838D01*
X72369057Y-75533883D01*
X72105808Y-75796673D01*
X71963162Y-76140201D01*
X71962838Y-76512167D01*
X72065240Y-76760000D01*
X62635580Y-76760000D01*
X63172139Y-76223440D01*
X64718000Y-76223440D01*
X64953317Y-76179162D01*
X65169441Y-76040090D01*
X65314431Y-75827890D01*
X65336887Y-75717000D01*
X66055560Y-75717000D01*
X66055560Y-75757000D01*
X66099838Y-75992317D01*
X66238910Y-76208441D01*
X66451110Y-76353431D01*
X66703000Y-76404440D01*
X70203000Y-76404440D01*
X70438317Y-76360162D01*
X70654441Y-76221090D01*
X70799431Y-76008890D01*
X70850440Y-75757000D01*
X70850440Y-74745465D01*
X70995301Y-74890327D01*
X71228690Y-74987000D01*
X71469250Y-74987000D01*
X71628000Y-74828250D01*
X71628000Y-74079000D01*
X71882000Y-74079000D01*
X71882000Y-74828250D01*
X72040750Y-74987000D01*
X72281310Y-74987000D01*
X72514699Y-74890327D01*
X72693327Y-74711698D01*
X72790000Y-74478309D01*
X72790000Y-74237750D01*
X72631250Y-74079000D01*
X71882000Y-74079000D01*
X71628000Y-74079000D01*
X71608000Y-74079000D01*
X71608000Y-73912000D01*
X77917198Y-73912000D01*
X80706099Y-76700901D01*
X80706099Y-76700901D01*
G37*
X80706099Y-76700901D02*
X80794547Y-76760000D01*
X79108000Y-76760000D01*
X79108000Y-76587750D01*
X78949250Y-76429000D01*
X78100000Y-76429000D01*
X78100000Y-76449000D01*
X77846000Y-76449000D01*
X77846000Y-76429000D01*
X76996750Y-76429000D01*
X76838000Y-76587750D01*
X76838000Y-76760000D01*
X75320440Y-76760000D01*
X75320440Y-75452000D01*
X75296674Y-75325691D01*
X76838000Y-75325691D01*
X76838000Y-76016250D01*
X76996750Y-76175000D01*
X77846000Y-76175000D01*
X77846000Y-74975750D01*
X78100000Y-74975750D01*
X78100000Y-76175000D01*
X78949250Y-76175000D01*
X79108000Y-76016250D01*
X79108000Y-75325691D01*
X79011327Y-75092302D01*
X78832699Y-74913673D01*
X78599310Y-74817000D01*
X78258750Y-74817000D01*
X78100000Y-74975750D01*
X77846000Y-74975750D01*
X77687250Y-74817000D01*
X77346690Y-74817000D01*
X77113301Y-74913673D01*
X76934673Y-75092302D01*
X76838000Y-75325691D01*
X75296674Y-75325691D01*
X75276162Y-75216683D01*
X75137090Y-75000559D01*
X74924890Y-74855569D01*
X74673000Y-74804560D01*
X73673000Y-74804560D01*
X73437683Y-74848838D01*
X73221559Y-74987910D01*
X73076569Y-75200110D01*
X73037686Y-75392121D01*
X72712833Y-75391838D01*
X72369057Y-75533883D01*
X72105808Y-75796673D01*
X71963162Y-76140201D01*
X71962838Y-76512167D01*
X72065240Y-76760000D01*
X62635580Y-76760000D01*
X63172139Y-76223440D01*
X64718000Y-76223440D01*
X64953317Y-76179162D01*
X65169441Y-76040090D01*
X65314431Y-75827890D01*
X65336887Y-75717000D01*
X66055560Y-75717000D01*
X66055560Y-75757000D01*
X66099838Y-75992317D01*
X66238910Y-76208441D01*
X66451110Y-76353431D01*
X66703000Y-76404440D01*
X70203000Y-76404440D01*
X70438317Y-76360162D01*
X70654441Y-76221090D01*
X70799431Y-76008890D01*
X70850440Y-75757000D01*
X70850440Y-74745465D01*
X70995301Y-74890327D01*
X71228690Y-74987000D01*
X71469250Y-74987000D01*
X71628000Y-74828250D01*
X71628000Y-74079000D01*
X71882000Y-74079000D01*
X71882000Y-74828250D01*
X72040750Y-74987000D01*
X72281310Y-74987000D01*
X72514699Y-74890327D01*
X72693327Y-74711698D01*
X72790000Y-74478309D01*
X72790000Y-74237750D01*
X72631250Y-74079000D01*
X71882000Y-74079000D01*
X71628000Y-74079000D01*
X71608000Y-74079000D01*
X71608000Y-73912000D01*
X77917198Y-73912000D01*
X80706099Y-76700901D01*
G36*
X63814110Y-71192431D02*
X64066000Y-71243440D01*
X64966000Y-71243440D01*
X65201317Y-71199162D01*
X65268890Y-71155680D01*
X65599201Y-71292838D01*
X65971167Y-71293162D01*
X66164741Y-71213179D01*
X66238910Y-71328441D01*
X66451110Y-71473431D01*
X66703000Y-71524440D01*
X67693000Y-71524440D01*
X67693000Y-71855000D01*
X67750852Y-72145839D01*
X67915599Y-72392401D01*
X69032758Y-73509560D01*
X66703000Y-73509560D01*
X66467683Y-73553838D01*
X66251559Y-73692910D01*
X66106569Y-73905110D01*
X66055560Y-74157000D01*
X66055560Y-74197000D01*
X65365440Y-74197000D01*
X65365440Y-73776000D01*
X65321162Y-73540683D01*
X65182090Y-73324559D01*
X64969890Y-73179569D01*
X64718000Y-73128560D01*
X62218000Y-73128560D01*
X61982683Y-73172838D01*
X61766559Y-73311910D01*
X61621569Y-73524110D01*
X61570560Y-73776000D01*
X61570560Y-75321860D01*
X61353000Y-75539420D01*
X61353000Y-74961750D01*
X61194250Y-74803000D01*
X59595000Y-74803000D01*
X59595000Y-74823000D01*
X59341000Y-74823000D01*
X59341000Y-74803000D01*
X59321000Y-74803000D01*
X59321000Y-74549000D01*
X59341000Y-74549000D01*
X59341000Y-73299750D01*
X59595000Y-73299750D01*
X59595000Y-74549000D01*
X61194250Y-74549000D01*
X61353000Y-74390250D01*
X61353000Y-73649690D01*
X61256327Y-73416301D01*
X61077698Y-73237673D01*
X60844309Y-73141000D01*
X59753750Y-73141000D01*
X59595000Y-73299750D01*
X59341000Y-73299750D01*
X59182250Y-73141000D01*
X58091691Y-73141000D01*
X57858302Y-73237673D01*
X57679673Y-73416301D01*
X57631335Y-73532998D01*
X57506252Y-73532998D01*
X57665000Y-73374250D01*
X57665000Y-73293829D01*
X57932943Y-73183117D01*
X58196192Y-72920327D01*
X58338838Y-72576799D01*
X58339162Y-72204833D01*
X58252742Y-71995680D01*
X58259431Y-71985890D01*
X58310440Y-71734000D01*
X58310440Y-71344320D01*
X58553000Y-71393440D01*
X59303000Y-71393440D01*
X59538317Y-71349162D01*
X59560279Y-71335030D01*
X59571110Y-71342431D01*
X59823000Y-71393440D01*
X60573000Y-71393440D01*
X60808317Y-71349162D01*
X61024441Y-71210090D01*
X61095563Y-71106000D01*
X61147558Y-71106000D01*
X61191673Y-71150192D01*
X61535201Y-71292838D01*
X61907167Y-71293162D01*
X61989322Y-71259217D01*
X62111110Y-71342431D01*
X62363000Y-71393440D01*
X63113000Y-71393440D01*
X63348317Y-71349162D01*
X63564441Y-71210090D01*
X63652129Y-71081754D01*
X63814110Y-71192431D01*
X63814110Y-71192431D01*
G37*
X63814110Y-71192431D02*
X64066000Y-71243440D01*
X64966000Y-71243440D01*
X65201317Y-71199162D01*
X65268890Y-71155680D01*
X65599201Y-71292838D01*
X65971167Y-71293162D01*
X66164741Y-71213179D01*
X66238910Y-71328441D01*
X66451110Y-71473431D01*
X66703000Y-71524440D01*
X67693000Y-71524440D01*
X67693000Y-71855000D01*
X67750852Y-72145839D01*
X67915599Y-72392401D01*
X69032758Y-73509560D01*
X66703000Y-73509560D01*
X66467683Y-73553838D01*
X66251559Y-73692910D01*
X66106569Y-73905110D01*
X66055560Y-74157000D01*
X66055560Y-74197000D01*
X65365440Y-74197000D01*
X65365440Y-73776000D01*
X65321162Y-73540683D01*
X65182090Y-73324559D01*
X64969890Y-73179569D01*
X64718000Y-73128560D01*
X62218000Y-73128560D01*
X61982683Y-73172838D01*
X61766559Y-73311910D01*
X61621569Y-73524110D01*
X61570560Y-73776000D01*
X61570560Y-75321860D01*
X61353000Y-75539420D01*
X61353000Y-74961750D01*
X61194250Y-74803000D01*
X59595000Y-74803000D01*
X59595000Y-74823000D01*
X59341000Y-74823000D01*
X59341000Y-74803000D01*
X59321000Y-74803000D01*
X59321000Y-74549000D01*
X59341000Y-74549000D01*
X59341000Y-73299750D01*
X59595000Y-73299750D01*
X59595000Y-74549000D01*
X61194250Y-74549000D01*
X61353000Y-74390250D01*
X61353000Y-73649690D01*
X61256327Y-73416301D01*
X61077698Y-73237673D01*
X60844309Y-73141000D01*
X59753750Y-73141000D01*
X59595000Y-73299750D01*
X59341000Y-73299750D01*
X59182250Y-73141000D01*
X58091691Y-73141000D01*
X57858302Y-73237673D01*
X57679673Y-73416301D01*
X57631335Y-73532998D01*
X57506252Y-73532998D01*
X57665000Y-73374250D01*
X57665000Y-73293829D01*
X57932943Y-73183117D01*
X58196192Y-72920327D01*
X58338838Y-72576799D01*
X58339162Y-72204833D01*
X58252742Y-71995680D01*
X58259431Y-71985890D01*
X58310440Y-71734000D01*
X58310440Y-71344320D01*
X58553000Y-71393440D01*
X59303000Y-71393440D01*
X59538317Y-71349162D01*
X59560279Y-71335030D01*
X59571110Y-71342431D01*
X59823000Y-71393440D01*
X60573000Y-71393440D01*
X60808317Y-71349162D01*
X61024441Y-71210090D01*
X61095563Y-71106000D01*
X61147558Y-71106000D01*
X61191673Y-71150192D01*
X61535201Y-71292838D01*
X61907167Y-71293162D01*
X61989322Y-71259217D01*
X62111110Y-71342431D01*
X62363000Y-71393440D01*
X63113000Y-71393440D01*
X63348317Y-71349162D01*
X63564441Y-71210090D01*
X63652129Y-71081754D01*
X63814110Y-71192431D01*
G36*
X56757000Y-73533000D02*
X56777000Y-73533000D01*
X56777000Y-73787000D01*
X56757000Y-73787000D01*
X56757000Y-75057000D01*
X56777000Y-75057000D01*
X56777000Y-75311000D01*
X56757000Y-75311000D01*
X56757000Y-75331000D01*
X56503000Y-75331000D01*
X56503000Y-75311000D01*
X56483000Y-75311000D01*
X56483000Y-75057000D01*
X56503000Y-75057000D01*
X56503000Y-73787000D01*
X56483000Y-73787000D01*
X56483000Y-73533000D01*
X56503000Y-73533000D01*
X56503000Y-73513000D01*
X56757000Y-73513000D01*
X56757000Y-73533000D01*
X56757000Y-73533000D01*
G37*
X56757000Y-73533000D02*
X56777000Y-73533000D01*
X56777000Y-73787000D01*
X56757000Y-73787000D01*
X56757000Y-75057000D01*
X56777000Y-75057000D01*
X56777000Y-75311000D01*
X56757000Y-75311000D01*
X56757000Y-75331000D01*
X56503000Y-75331000D01*
X56503000Y-75311000D01*
X56483000Y-75311000D01*
X56483000Y-75057000D01*
X56503000Y-75057000D01*
X56503000Y-73787000D01*
X56483000Y-73787000D01*
X56483000Y-73533000D01*
X56503000Y-73533000D01*
X56503000Y-73513000D01*
X56757000Y-73513000D01*
X56757000Y-73533000D01*
G36*
X79083569Y-64220110D02*
X79032560Y-64472000D01*
X79032560Y-65472000D01*
X79076838Y-65707317D01*
X79215910Y-65923441D01*
X79428110Y-66068431D01*
X79680000Y-66119440D01*
X80445791Y-66119440D01*
X80513475Y-66283249D01*
X80776265Y-66546498D01*
X81119793Y-66689144D01*
X81491759Y-66689468D01*
X81835535Y-66547423D01*
X82098784Y-66284633D01*
X82167378Y-66119440D01*
X82880000Y-66119440D01*
X83115317Y-66075162D01*
X83314437Y-65947032D01*
X83492110Y-66068431D01*
X83744000Y-66119440D01*
X84459000Y-66119440D01*
X84459000Y-66495178D01*
X84409162Y-66615201D01*
X84408838Y-66987167D01*
X84550883Y-67330943D01*
X84813673Y-67594192D01*
X84862663Y-67614535D01*
X82452638Y-70024560D01*
X79680000Y-70024560D01*
X79444683Y-70068838D01*
X79228559Y-70207910D01*
X79108000Y-70384354D01*
X79108000Y-70287750D01*
X78949250Y-70129000D01*
X78100000Y-70129000D01*
X78100000Y-71328250D01*
X78258750Y-71487000D01*
X78599310Y-71487000D01*
X78832699Y-71390327D01*
X79011327Y-71211698D01*
X79032560Y-71160437D01*
X79032560Y-71672000D01*
X79076838Y-71907317D01*
X79215910Y-72123441D01*
X79428110Y-72268431D01*
X79680000Y-72319440D01*
X80395000Y-72319440D01*
X80395000Y-74240198D01*
X78769401Y-72614599D01*
X78522839Y-72449852D01*
X78232000Y-72392000D01*
X72802440Y-72392000D01*
X72802440Y-71952000D01*
X72758162Y-71716683D01*
X72701671Y-71628894D01*
X72801431Y-71482890D01*
X72852440Y-71231000D01*
X72852440Y-70911961D01*
X73036873Y-70912122D01*
X73069838Y-71087317D01*
X73208910Y-71303441D01*
X73421110Y-71448431D01*
X73673000Y-71499440D01*
X74673000Y-71499440D01*
X74908317Y-71455162D01*
X75124441Y-71316090D01*
X75269431Y-71103890D01*
X75320440Y-70852000D01*
X75320440Y-70287750D01*
X76838000Y-70287750D01*
X76838000Y-70978309D01*
X76934673Y-71211698D01*
X77113301Y-71390327D01*
X77346690Y-71487000D01*
X77687250Y-71487000D01*
X77846000Y-71328250D01*
X77846000Y-70129000D01*
X76996750Y-70129000D01*
X76838000Y-70287750D01*
X75320440Y-70287750D01*
X75320440Y-69152000D01*
X75276162Y-68916683D01*
X75137090Y-68700559D01*
X74957719Y-68578000D01*
X75732474Y-68578000D01*
X75846904Y-68854943D01*
X76109694Y-69118192D01*
X76453222Y-69260838D01*
X76825188Y-69261162D01*
X76838000Y-69255868D01*
X76838000Y-69716250D01*
X76996750Y-69875000D01*
X77846000Y-69875000D01*
X77846000Y-69855000D01*
X78100000Y-69855000D01*
X78100000Y-69875000D01*
X78949250Y-69875000D01*
X79108000Y-69716250D01*
X79108000Y-69025691D01*
X79011327Y-68792302D01*
X78832699Y-68613673D01*
X78599310Y-68517000D01*
X78403094Y-68517000D01*
X78404838Y-68512799D01*
X78405162Y-68140833D01*
X78263117Y-67797057D01*
X78195755Y-67729578D01*
X78172148Y-67610896D01*
X78139477Y-67562000D01*
X78340453Y-67562000D01*
X78454883Y-67838943D01*
X78717673Y-68102192D01*
X79061201Y-68244838D01*
X79433167Y-68245162D01*
X79776943Y-68103117D01*
X80040192Y-67840327D01*
X80182838Y-67496799D01*
X80183162Y-67124833D01*
X80041117Y-66781057D01*
X79778327Y-66517808D01*
X79434799Y-66375162D01*
X79387923Y-66375121D01*
X79277401Y-66264599D01*
X79030839Y-66099852D01*
X78740000Y-66042000D01*
X76633000Y-66042000D01*
X76633000Y-66003750D01*
X76474250Y-65845000D01*
X75845440Y-65845000D01*
X75845440Y-65591000D01*
X76474250Y-65591000D01*
X76633000Y-65432250D01*
X76633000Y-65215440D01*
X77748000Y-65215440D01*
X77983317Y-65171162D01*
X78199441Y-65032090D01*
X78344431Y-64819890D01*
X78395440Y-64568000D01*
X78395440Y-64106971D01*
X79160874Y-64106971D01*
X79083569Y-64220110D01*
X79083569Y-64220110D01*
G37*
X79083569Y-64220110D02*
X79032560Y-64472000D01*
X79032560Y-65472000D01*
X79076838Y-65707317D01*
X79215910Y-65923441D01*
X79428110Y-66068431D01*
X79680000Y-66119440D01*
X80445791Y-66119440D01*
X80513475Y-66283249D01*
X80776265Y-66546498D01*
X81119793Y-66689144D01*
X81491759Y-66689468D01*
X81835535Y-66547423D01*
X82098784Y-66284633D01*
X82167378Y-66119440D01*
X82880000Y-66119440D01*
X83115317Y-66075162D01*
X83314437Y-65947032D01*
X83492110Y-66068431D01*
X83744000Y-66119440D01*
X84459000Y-66119440D01*
X84459000Y-66495178D01*
X84409162Y-66615201D01*
X84408838Y-66987167D01*
X84550883Y-67330943D01*
X84813673Y-67594192D01*
X84862663Y-67614535D01*
X82452638Y-70024560D01*
X79680000Y-70024560D01*
X79444683Y-70068838D01*
X79228559Y-70207910D01*
X79108000Y-70384354D01*
X79108000Y-70287750D01*
X78949250Y-70129000D01*
X78100000Y-70129000D01*
X78100000Y-71328250D01*
X78258750Y-71487000D01*
X78599310Y-71487000D01*
X78832699Y-71390327D01*
X79011327Y-71211698D01*
X79032560Y-71160437D01*
X79032560Y-71672000D01*
X79076838Y-71907317D01*
X79215910Y-72123441D01*
X79428110Y-72268431D01*
X79680000Y-72319440D01*
X80395000Y-72319440D01*
X80395000Y-74240198D01*
X78769401Y-72614599D01*
X78522839Y-72449852D01*
X78232000Y-72392000D01*
X72802440Y-72392000D01*
X72802440Y-71952000D01*
X72758162Y-71716683D01*
X72701671Y-71628894D01*
X72801431Y-71482890D01*
X72852440Y-71231000D01*
X72852440Y-70911961D01*
X73036873Y-70912122D01*
X73069838Y-71087317D01*
X73208910Y-71303441D01*
X73421110Y-71448431D01*
X73673000Y-71499440D01*
X74673000Y-71499440D01*
X74908317Y-71455162D01*
X75124441Y-71316090D01*
X75269431Y-71103890D01*
X75320440Y-70852000D01*
X75320440Y-70287750D01*
X76838000Y-70287750D01*
X76838000Y-70978309D01*
X76934673Y-71211698D01*
X77113301Y-71390327D01*
X77346690Y-71487000D01*
X77687250Y-71487000D01*
X77846000Y-71328250D01*
X77846000Y-70129000D01*
X76996750Y-70129000D01*
X76838000Y-70287750D01*
X75320440Y-70287750D01*
X75320440Y-69152000D01*
X75276162Y-68916683D01*
X75137090Y-68700559D01*
X74957719Y-68578000D01*
X75732474Y-68578000D01*
X75846904Y-68854943D01*
X76109694Y-69118192D01*
X76453222Y-69260838D01*
X76825188Y-69261162D01*
X76838000Y-69255868D01*
X76838000Y-69716250D01*
X76996750Y-69875000D01*
X77846000Y-69875000D01*
X77846000Y-69855000D01*
X78100000Y-69855000D01*
X78100000Y-69875000D01*
X78949250Y-69875000D01*
X79108000Y-69716250D01*
X79108000Y-69025691D01*
X79011327Y-68792302D01*
X78832699Y-68613673D01*
X78599310Y-68517000D01*
X78403094Y-68517000D01*
X78404838Y-68512799D01*
X78405162Y-68140833D01*
X78263117Y-67797057D01*
X78195755Y-67729578D01*
X78172148Y-67610896D01*
X78139477Y-67562000D01*
X78340453Y-67562000D01*
X78454883Y-67838943D01*
X78717673Y-68102192D01*
X79061201Y-68244838D01*
X79433167Y-68245162D01*
X79776943Y-68103117D01*
X80040192Y-67840327D01*
X80182838Y-67496799D01*
X80183162Y-67124833D01*
X80041117Y-66781057D01*
X79778327Y-66517808D01*
X79434799Y-66375162D01*
X79387923Y-66375121D01*
X79277401Y-66264599D01*
X79030839Y-66099852D01*
X78740000Y-66042000D01*
X76633000Y-66042000D01*
X76633000Y-66003750D01*
X76474250Y-65845000D01*
X75845440Y-65845000D01*
X75845440Y-65591000D01*
X76474250Y-65591000D01*
X76633000Y-65432250D01*
X76633000Y-65215440D01*
X77748000Y-65215440D01*
X77983317Y-65171162D01*
X78199441Y-65032090D01*
X78344431Y-64819890D01*
X78395440Y-64568000D01*
X78395440Y-64106971D01*
X79160874Y-64106971D01*
X79083569Y-64220110D01*
G36*
X62715673Y-58831192D02*
X62801644Y-58866891D01*
X62729057Y-58896883D01*
X62465808Y-59159673D01*
X62323162Y-59503201D01*
X62322838Y-59875167D01*
X62464883Y-60218943D01*
X62498000Y-60252118D01*
X62498000Y-61147614D01*
X62411569Y-61274110D01*
X62360560Y-61526000D01*
X62360560Y-62426000D01*
X62404838Y-62661317D01*
X62453434Y-62736838D01*
X62411569Y-62798110D01*
X62360560Y-63050000D01*
X62360560Y-63950000D01*
X62404838Y-64185317D01*
X62543910Y-64401441D01*
X62756110Y-64546431D01*
X62867000Y-64568887D01*
X62867000Y-65096537D01*
X62834808Y-65128673D01*
X62692162Y-65472201D01*
X62691838Y-65844167D01*
X62833883Y-66187943D01*
X62867000Y-66221118D01*
X62867000Y-67967750D01*
X62865000Y-67969750D01*
X62865000Y-68719000D01*
X62867000Y-68719000D01*
X62867000Y-68973000D01*
X62865000Y-68973000D01*
X62865000Y-68993000D01*
X62611000Y-68993000D01*
X62611000Y-68973000D01*
X61886750Y-68973000D01*
X61728000Y-69131750D01*
X61728000Y-69372309D01*
X61749006Y-69423023D01*
X61536833Y-69422838D01*
X61193057Y-69564883D01*
X61171903Y-69586000D01*
X61119486Y-69586000D01*
X61208000Y-69372309D01*
X61208000Y-69131750D01*
X61049250Y-68973000D01*
X60325000Y-68973000D01*
X60325000Y-68993000D01*
X60071000Y-68993000D01*
X60071000Y-68973000D01*
X59055000Y-68973000D01*
X59055000Y-68993000D01*
X58801000Y-68993000D01*
X58801000Y-68973000D01*
X58781000Y-68973000D01*
X58781000Y-68719000D01*
X58801000Y-68719000D01*
X58801000Y-68699000D01*
X59055000Y-68699000D01*
X59055000Y-68719000D01*
X60071000Y-68719000D01*
X60071000Y-68699000D01*
X60325000Y-68699000D01*
X60325000Y-68719000D01*
X61049250Y-68719000D01*
X61208000Y-68560250D01*
X61208000Y-68319691D01*
X61728000Y-68319691D01*
X61728000Y-68560250D01*
X61886750Y-68719000D01*
X62611000Y-68719000D01*
X62611000Y-67969750D01*
X62452250Y-67811000D01*
X62236690Y-67811000D01*
X62003301Y-67907673D01*
X61824673Y-68086302D01*
X61728000Y-68319691D01*
X61208000Y-68319691D01*
X61143294Y-68163476D01*
X61545038Y-67895038D01*
X61957991Y-67277012D01*
X62103000Y-66548000D01*
X62103000Y-65588474D01*
X62230000Y-64950000D01*
X62084991Y-64220988D01*
X61672038Y-63602962D01*
X61517945Y-63500000D01*
X61672038Y-63397038D01*
X62084991Y-62779012D01*
X62230000Y-62050000D01*
X62230000Y-60706000D01*
X62084991Y-59976988D01*
X61704430Y-59407440D01*
X61815000Y-59407440D01*
X62050317Y-59363162D01*
X62266441Y-59224090D01*
X62411431Y-59011890D01*
X62462440Y-58760000D01*
X62462440Y-58677140D01*
X62512208Y-58627372D01*
X62715673Y-58831192D01*
X62715673Y-58831192D01*
G37*
X62715673Y-58831192D02*
X62801644Y-58866891D01*
X62729057Y-58896883D01*
X62465808Y-59159673D01*
X62323162Y-59503201D01*
X62322838Y-59875167D01*
X62464883Y-60218943D01*
X62498000Y-60252118D01*
X62498000Y-61147614D01*
X62411569Y-61274110D01*
X62360560Y-61526000D01*
X62360560Y-62426000D01*
X62404838Y-62661317D01*
X62453434Y-62736838D01*
X62411569Y-62798110D01*
X62360560Y-63050000D01*
X62360560Y-63950000D01*
X62404838Y-64185317D01*
X62543910Y-64401441D01*
X62756110Y-64546431D01*
X62867000Y-64568887D01*
X62867000Y-65096537D01*
X62834808Y-65128673D01*
X62692162Y-65472201D01*
X62691838Y-65844167D01*
X62833883Y-66187943D01*
X62867000Y-66221118D01*
X62867000Y-67967750D01*
X62865000Y-67969750D01*
X62865000Y-68719000D01*
X62867000Y-68719000D01*
X62867000Y-68973000D01*
X62865000Y-68973000D01*
X62865000Y-68993000D01*
X62611000Y-68993000D01*
X62611000Y-68973000D01*
X61886750Y-68973000D01*
X61728000Y-69131750D01*
X61728000Y-69372309D01*
X61749006Y-69423023D01*
X61536833Y-69422838D01*
X61193057Y-69564883D01*
X61171903Y-69586000D01*
X61119486Y-69586000D01*
X61208000Y-69372309D01*
X61208000Y-69131750D01*
X61049250Y-68973000D01*
X60325000Y-68973000D01*
X60325000Y-68993000D01*
X60071000Y-68993000D01*
X60071000Y-68973000D01*
X59055000Y-68973000D01*
X59055000Y-68993000D01*
X58801000Y-68993000D01*
X58801000Y-68973000D01*
X58781000Y-68973000D01*
X58781000Y-68719000D01*
X58801000Y-68719000D01*
X58801000Y-68699000D01*
X59055000Y-68699000D01*
X59055000Y-68719000D01*
X60071000Y-68719000D01*
X60071000Y-68699000D01*
X60325000Y-68699000D01*
X60325000Y-68719000D01*
X61049250Y-68719000D01*
X61208000Y-68560250D01*
X61208000Y-68319691D01*
X61728000Y-68319691D01*
X61728000Y-68560250D01*
X61886750Y-68719000D01*
X62611000Y-68719000D01*
X62611000Y-67969750D01*
X62452250Y-67811000D01*
X62236690Y-67811000D01*
X62003301Y-67907673D01*
X61824673Y-68086302D01*
X61728000Y-68319691D01*
X61208000Y-68319691D01*
X61143294Y-68163476D01*
X61545038Y-67895038D01*
X61957991Y-67277012D01*
X62103000Y-66548000D01*
X62103000Y-65588474D01*
X62230000Y-64950000D01*
X62084991Y-64220988D01*
X61672038Y-63602962D01*
X61517945Y-63500000D01*
X61672038Y-63397038D01*
X62084991Y-62779012D01*
X62230000Y-62050000D01*
X62230000Y-60706000D01*
X62084991Y-59976988D01*
X61704430Y-59407440D01*
X61815000Y-59407440D01*
X62050317Y-59363162D01*
X62266441Y-59224090D01*
X62411431Y-59011890D01*
X62462440Y-58760000D01*
X62462440Y-58677140D01*
X62512208Y-58627372D01*
X62715673Y-58831192D01*
G36*
X57465000Y-68877000D02*
X57485000Y-68877000D01*
X57485000Y-69131000D01*
X57465000Y-69131000D01*
X57465000Y-69151000D01*
X57211000Y-69151000D01*
X57211000Y-69131000D01*
X57191000Y-69131000D01*
X57191000Y-68877000D01*
X57211000Y-68877000D01*
X57211000Y-68857000D01*
X57465000Y-68857000D01*
X57465000Y-68877000D01*
X57465000Y-68877000D01*
G37*
X57465000Y-68877000D02*
X57485000Y-68877000D01*
X57485000Y-69131000D01*
X57465000Y-69131000D01*
X57465000Y-69151000D01*
X57211000Y-69151000D01*
X57211000Y-69131000D01*
X57191000Y-69131000D01*
X57191000Y-68877000D01*
X57211000Y-68877000D01*
X57211000Y-68857000D01*
X57465000Y-68857000D01*
X57465000Y-68877000D01*
G36*
X65026000Y-67961000D02*
X64801750Y-67961000D01*
X64643000Y-68119750D01*
X64643000Y-68721000D01*
X64663000Y-68721000D01*
X64663000Y-68971000D01*
X64643000Y-68971000D01*
X64643000Y-68993000D01*
X64389000Y-68993000D01*
X64389000Y-68971000D01*
X64387000Y-68971000D01*
X64387000Y-68721000D01*
X64389000Y-68721000D01*
X64389000Y-68119750D01*
X64387000Y-68117750D01*
X64387000Y-66221463D01*
X64419192Y-66189327D01*
X64524945Y-65934648D01*
X64583201Y-65958838D01*
X64955167Y-65959162D01*
X65026000Y-65929894D01*
X65026000Y-67961000D01*
X65026000Y-67961000D01*
G37*
X65026000Y-67961000D02*
X64801750Y-67961000D01*
X64643000Y-68119750D01*
X64643000Y-68721000D01*
X64663000Y-68721000D01*
X64663000Y-68971000D01*
X64643000Y-68971000D01*
X64643000Y-68993000D01*
X64389000Y-68993000D01*
X64389000Y-68971000D01*
X64387000Y-68971000D01*
X64387000Y-68721000D01*
X64389000Y-68721000D01*
X64389000Y-68119750D01*
X64387000Y-68117750D01*
X64387000Y-66221463D01*
X64419192Y-66189327D01*
X64524945Y-65934648D01*
X64583201Y-65958838D01*
X64955167Y-65959162D01*
X65026000Y-65929894D01*
X65026000Y-67961000D01*
G36*
X67796110Y-65164431D02*
X68048000Y-65215440D01*
X69150560Y-65215440D01*
X69150560Y-66318000D01*
X69194838Y-66553317D01*
X69333910Y-66769441D01*
X69385015Y-66804360D01*
X69395852Y-66858839D01*
X69560599Y-67105401D01*
X70442599Y-67987401D01*
X70689160Y-68152148D01*
X70951337Y-68204299D01*
X70820162Y-68520201D01*
X70819904Y-68816165D01*
X70738093Y-68935900D01*
X70667090Y-68825559D01*
X70454890Y-68680569D01*
X70203000Y-68629560D01*
X66703000Y-68629560D01*
X66546000Y-68659102D01*
X66546000Y-66340110D01*
X66606167Y-66340162D01*
X66949943Y-66198117D01*
X67213192Y-65935327D01*
X67355838Y-65591799D01*
X67355879Y-65544923D01*
X67593401Y-65307401D01*
X67722525Y-65114153D01*
X67796110Y-65164431D01*
X67796110Y-65164431D01*
G37*
X67796110Y-65164431D02*
X68048000Y-65215440D01*
X69150560Y-65215440D01*
X69150560Y-66318000D01*
X69194838Y-66553317D01*
X69333910Y-66769441D01*
X69385015Y-66804360D01*
X69395852Y-66858839D01*
X69560599Y-67105401D01*
X70442599Y-67987401D01*
X70689160Y-68152148D01*
X70951337Y-68204299D01*
X70820162Y-68520201D01*
X70819904Y-68816165D01*
X70738093Y-68935900D01*
X70667090Y-68825559D01*
X70454890Y-68680569D01*
X70203000Y-68629560D01*
X66703000Y-68629560D01*
X66546000Y-68659102D01*
X66546000Y-66340110D01*
X66606167Y-66340162D01*
X66949943Y-66198117D01*
X67213192Y-65935327D01*
X67355838Y-65591799D01*
X67355879Y-65544923D01*
X67593401Y-65307401D01*
X67722525Y-65114153D01*
X67796110Y-65164431D01*
G36*
X97916998Y-54885000D02*
X98012984Y-54885000D01*
X97962560Y-55134000D01*
X97962560Y-55634000D01*
X98006838Y-55869317D01*
X98145910Y-56085441D01*
X98215711Y-56133134D01*
X98158559Y-56169910D01*
X98013569Y-56382110D01*
X97962560Y-56634000D01*
X97962560Y-57134000D01*
X98006838Y-57369317D01*
X98145910Y-57585441D01*
X98300000Y-57690726D01*
X98300000Y-57857537D01*
X98267808Y-57889673D01*
X98125162Y-58233201D01*
X98124838Y-58605167D01*
X98266883Y-58948943D01*
X98529673Y-59212192D01*
X98873201Y-59354838D01*
X99245167Y-59355162D01*
X99588943Y-59213117D01*
X99852192Y-58950327D01*
X99994838Y-58606799D01*
X99994915Y-58518331D01*
X100053673Y-58577192D01*
X100397201Y-58719838D01*
X100769167Y-58720162D01*
X101112943Y-58578117D01*
X101376192Y-58315327D01*
X101518838Y-57971799D01*
X101519162Y-57599833D01*
X101506006Y-57567992D01*
X101630431Y-57385890D01*
X101664763Y-57216355D01*
X101921201Y-57322838D01*
X102293167Y-57323162D01*
X102548989Y-57217459D01*
X102548989Y-57285209D01*
X102535716Y-57298482D01*
X102370969Y-57545044D01*
X102313117Y-57835883D01*
X102313117Y-58754846D01*
X102303833Y-58754838D01*
X101960057Y-58896883D01*
X101696808Y-59159673D01*
X101554162Y-59503201D01*
X101553838Y-59875167D01*
X101695883Y-60218943D01*
X101958673Y-60482192D01*
X102302201Y-60624838D01*
X102349077Y-60624879D01*
X102963259Y-61239061D01*
X102963179Y-61331188D01*
X103105224Y-61674964D01*
X103310998Y-61881097D01*
X103310998Y-63847038D01*
X103200000Y-63824560D01*
X100000000Y-63824560D01*
X99764683Y-63868838D01*
X99565563Y-63996968D01*
X99387890Y-63875569D01*
X99136000Y-63824560D01*
X95936000Y-63824560D01*
X95700683Y-63868838D01*
X95501563Y-63996968D01*
X95323890Y-63875569D01*
X95072000Y-63824560D01*
X91872000Y-63824560D01*
X91636683Y-63868838D01*
X91437563Y-63996968D01*
X91259890Y-63875569D01*
X91008000Y-63824560D01*
X88126242Y-63824560D01*
X88277680Y-63673122D01*
X88323167Y-63673162D01*
X88666943Y-63531117D01*
X88930192Y-63268327D01*
X89072838Y-62924799D01*
X89073162Y-62552833D01*
X88931117Y-62209057D01*
X88668327Y-61945808D01*
X88324799Y-61803162D01*
X87952833Y-61802838D01*
X87609057Y-61944883D01*
X87345808Y-62207673D01*
X87203162Y-62551201D01*
X87203131Y-62586986D01*
X82596064Y-62586986D01*
X82595989Y-62586971D01*
X79965831Y-62586971D01*
X80039401Y-62513401D01*
X80204148Y-62266839D01*
X80252852Y-62021991D01*
X80449167Y-62022162D01*
X80792943Y-61880117D01*
X80826118Y-61847000D01*
X81407000Y-61847000D01*
X81697839Y-61789148D01*
X81944401Y-61624401D01*
X82102802Y-61466000D01*
X93919198Y-61466000D01*
X95330878Y-62877680D01*
X95330838Y-62923167D01*
X95472883Y-63266943D01*
X95735673Y-63530192D01*
X96079201Y-63672838D01*
X96451167Y-63673162D01*
X96794943Y-63531117D01*
X97058192Y-63268327D01*
X97200838Y-62924799D01*
X97201162Y-62552833D01*
X97059117Y-62209057D01*
X96796327Y-61945808D01*
X96452799Y-61803162D01*
X96405923Y-61803121D01*
X95560802Y-60958000D01*
X95951198Y-60958000D01*
X97870878Y-62877680D01*
X97870838Y-62923167D01*
X98012883Y-63266943D01*
X98275673Y-63530192D01*
X98619201Y-63672838D01*
X98991167Y-63673162D01*
X99334943Y-63531117D01*
X99598192Y-63268327D01*
X99740838Y-62924799D01*
X99741162Y-62552833D01*
X99599117Y-62209057D01*
X99336327Y-61945808D01*
X98992799Y-61803162D01*
X98945923Y-61803121D01*
X97075080Y-59932278D01*
X97302943Y-59838127D01*
X97566192Y-59575337D01*
X97708838Y-59231809D01*
X97709162Y-58859843D01*
X97567117Y-58516067D01*
X97534000Y-58482892D01*
X97534000Y-57689105D01*
X97675441Y-57598090D01*
X97820431Y-57385890D01*
X97871440Y-57134000D01*
X97871440Y-56634000D01*
X97827162Y-56398683D01*
X97688090Y-56182559D01*
X97618289Y-56134866D01*
X97675441Y-56098090D01*
X97820431Y-55885890D01*
X97871440Y-55634000D01*
X97871440Y-55134000D01*
X97827162Y-54898683D01*
X97794823Y-54848427D01*
X97916998Y-54726252D01*
X97916998Y-54885000D01*
X97916998Y-54885000D01*
G37*
X97916998Y-54885000D02*
X98012984Y-54885000D01*
X97962560Y-55134000D01*
X97962560Y-55634000D01*
X98006838Y-55869317D01*
X98145910Y-56085441D01*
X98215711Y-56133134D01*
X98158559Y-56169910D01*
X98013569Y-56382110D01*
X97962560Y-56634000D01*
X97962560Y-57134000D01*
X98006838Y-57369317D01*
X98145910Y-57585441D01*
X98300000Y-57690726D01*
X98300000Y-57857537D01*
X98267808Y-57889673D01*
X98125162Y-58233201D01*
X98124838Y-58605167D01*
X98266883Y-58948943D01*
X98529673Y-59212192D01*
X98873201Y-59354838D01*
X99245167Y-59355162D01*
X99588943Y-59213117D01*
X99852192Y-58950327D01*
X99994838Y-58606799D01*
X99994915Y-58518331D01*
X100053673Y-58577192D01*
X100397201Y-58719838D01*
X100769167Y-58720162D01*
X101112943Y-58578117D01*
X101376192Y-58315327D01*
X101518838Y-57971799D01*
X101519162Y-57599833D01*
X101506006Y-57567992D01*
X101630431Y-57385890D01*
X101664763Y-57216355D01*
X101921201Y-57322838D01*
X102293167Y-57323162D01*
X102548989Y-57217459D01*
X102548989Y-57285209D01*
X102535716Y-57298482D01*
X102370969Y-57545044D01*
X102313117Y-57835883D01*
X102313117Y-58754846D01*
X102303833Y-58754838D01*
X101960057Y-58896883D01*
X101696808Y-59159673D01*
X101554162Y-59503201D01*
X101553838Y-59875167D01*
X101695883Y-60218943D01*
X101958673Y-60482192D01*
X102302201Y-60624838D01*
X102349077Y-60624879D01*
X102963259Y-61239061D01*
X102963179Y-61331188D01*
X103105224Y-61674964D01*
X103310998Y-61881097D01*
X103310998Y-63847038D01*
X103200000Y-63824560D01*
X100000000Y-63824560D01*
X99764683Y-63868838D01*
X99565563Y-63996968D01*
X99387890Y-63875569D01*
X99136000Y-63824560D01*
X95936000Y-63824560D01*
X95700683Y-63868838D01*
X95501563Y-63996968D01*
X95323890Y-63875569D01*
X95072000Y-63824560D01*
X91872000Y-63824560D01*
X91636683Y-63868838D01*
X91437563Y-63996968D01*
X91259890Y-63875569D01*
X91008000Y-63824560D01*
X88126242Y-63824560D01*
X88277680Y-63673122D01*
X88323167Y-63673162D01*
X88666943Y-63531117D01*
X88930192Y-63268327D01*
X89072838Y-62924799D01*
X89073162Y-62552833D01*
X88931117Y-62209057D01*
X88668327Y-61945808D01*
X88324799Y-61803162D01*
X87952833Y-61802838D01*
X87609057Y-61944883D01*
X87345808Y-62207673D01*
X87203162Y-62551201D01*
X87203131Y-62586986D01*
X82596064Y-62586986D01*
X82595989Y-62586971D01*
X79965831Y-62586971D01*
X80039401Y-62513401D01*
X80204148Y-62266839D01*
X80252852Y-62021991D01*
X80449167Y-62022162D01*
X80792943Y-61880117D01*
X80826118Y-61847000D01*
X81407000Y-61847000D01*
X81697839Y-61789148D01*
X81944401Y-61624401D01*
X82102802Y-61466000D01*
X93919198Y-61466000D01*
X95330878Y-62877680D01*
X95330838Y-62923167D01*
X95472883Y-63266943D01*
X95735673Y-63530192D01*
X96079201Y-63672838D01*
X96451167Y-63673162D01*
X96794943Y-63531117D01*
X97058192Y-63268327D01*
X97200838Y-62924799D01*
X97201162Y-62552833D01*
X97059117Y-62209057D01*
X96796327Y-61945808D01*
X96452799Y-61803162D01*
X96405923Y-61803121D01*
X95560802Y-60958000D01*
X95951198Y-60958000D01*
X97870878Y-62877680D01*
X97870838Y-62923167D01*
X98012883Y-63266943D01*
X98275673Y-63530192D01*
X98619201Y-63672838D01*
X98991167Y-63673162D01*
X99334943Y-63531117D01*
X99598192Y-63268327D01*
X99740838Y-62924799D01*
X99741162Y-62552833D01*
X99599117Y-62209057D01*
X99336327Y-61945808D01*
X98992799Y-61803162D01*
X98945923Y-61803121D01*
X97075080Y-59932278D01*
X97302943Y-59838127D01*
X97566192Y-59575337D01*
X97708838Y-59231809D01*
X97709162Y-58859843D01*
X97567117Y-58516067D01*
X97534000Y-58482892D01*
X97534000Y-57689105D01*
X97675441Y-57598090D01*
X97820431Y-57385890D01*
X97871440Y-57134000D01*
X97871440Y-56634000D01*
X97827162Y-56398683D01*
X97688090Y-56182559D01*
X97618289Y-56134866D01*
X97675441Y-56098090D01*
X97820431Y-55885890D01*
X97871440Y-55634000D01*
X97871440Y-55134000D01*
X97827162Y-54898683D01*
X97794823Y-54848427D01*
X97916998Y-54726252D01*
X97916998Y-54885000D01*
G36*
X64962500Y-56739428D02*
X64812557Y-56801383D01*
X64549308Y-57064173D01*
X64406662Y-57407701D01*
X64406338Y-57779667D01*
X64548383Y-58123443D01*
X64811173Y-58386692D01*
X64962500Y-58449529D01*
X64962500Y-60878560D01*
X64508000Y-60878560D01*
X64272683Y-60922838D01*
X64056559Y-61061910D01*
X64018000Y-61118343D01*
X64018000Y-60252463D01*
X64050192Y-60220327D01*
X64192838Y-59876799D01*
X64193162Y-59504833D01*
X64139663Y-59375355D01*
X64165839Y-59370148D01*
X64412401Y-59205401D01*
X64577148Y-58958839D01*
X64635000Y-58668000D01*
X64577148Y-58377160D01*
X64412401Y-58130599D01*
X64181122Y-57899320D01*
X64181162Y-57853833D01*
X64039117Y-57510057D01*
X63834499Y-57305081D01*
X64962500Y-56177079D01*
X64962500Y-56739428D01*
X64962500Y-56739428D01*
G37*
X64962500Y-56739428D02*
X64812557Y-56801383D01*
X64549308Y-57064173D01*
X64406662Y-57407701D01*
X64406338Y-57779667D01*
X64548383Y-58123443D01*
X64811173Y-58386692D01*
X64962500Y-58449529D01*
X64962500Y-60878560D01*
X64508000Y-60878560D01*
X64272683Y-60922838D01*
X64056559Y-61061910D01*
X64018000Y-61118343D01*
X64018000Y-60252463D01*
X64050192Y-60220327D01*
X64192838Y-59876799D01*
X64193162Y-59504833D01*
X64139663Y-59375355D01*
X64165839Y-59370148D01*
X64412401Y-59205401D01*
X64577148Y-58958839D01*
X64635000Y-58668000D01*
X64577148Y-58377160D01*
X64412401Y-58130599D01*
X64181122Y-57899320D01*
X64181162Y-57853833D01*
X64039117Y-57510057D01*
X63834499Y-57305081D01*
X64962500Y-56177079D01*
X64962500Y-56739428D01*
G36*
X102548989Y-52251344D02*
X102405890Y-52153569D01*
X102154000Y-52102560D01*
X101554000Y-52102560D01*
X101318683Y-52146838D01*
X101219472Y-52210678D01*
X101135890Y-52153569D01*
X100884000Y-52102560D01*
X100284000Y-52102560D01*
X100048683Y-52146838D01*
X99949472Y-52210678D01*
X99865890Y-52153569D01*
X99614000Y-52102560D01*
X99014000Y-52102560D01*
X98778683Y-52146838D01*
X98688020Y-52205178D01*
X98470310Y-52115000D01*
X98329750Y-52115000D01*
X98171000Y-52273750D01*
X98171000Y-53373000D01*
X98191000Y-53373000D01*
X98191000Y-53627000D01*
X98171000Y-53627000D01*
X98171000Y-53647000D01*
X97917000Y-53647000D01*
X97917000Y-53627000D01*
X97897000Y-53627000D01*
X97897000Y-53373000D01*
X97917000Y-53373000D01*
X97917000Y-52273750D01*
X97758250Y-52115000D01*
X97617690Y-52115000D01*
X97400878Y-52204806D01*
X97325890Y-52153569D01*
X97074000Y-52102560D01*
X96474000Y-52102560D01*
X96238683Y-52146838D01*
X96139472Y-52210678D01*
X96055890Y-52153569D01*
X95804000Y-52102560D01*
X95204000Y-52102560D01*
X94968683Y-52146838D01*
X94869472Y-52210678D01*
X94785890Y-52153569D01*
X94534000Y-52102560D01*
X93934000Y-52102560D01*
X93698683Y-52146838D01*
X93482559Y-52285910D01*
X93337569Y-52498110D01*
X93286560Y-52750000D01*
X93286560Y-54250000D01*
X93330838Y-54485317D01*
X93469910Y-54701441D01*
X93474000Y-54704236D01*
X93474000Y-55585403D01*
X93451057Y-55594883D01*
X93187808Y-55857673D01*
X93045162Y-56201201D01*
X93044838Y-56573167D01*
X93186883Y-56916943D01*
X93449673Y-57180192D01*
X93793201Y-57322838D01*
X94165167Y-57323162D01*
X94186495Y-57314349D01*
X94196838Y-57369317D01*
X94335910Y-57585441D01*
X94364955Y-57605287D01*
X94315162Y-57725201D01*
X94314838Y-58097167D01*
X94456883Y-58440943D01*
X94719673Y-58704192D01*
X95063201Y-58846838D01*
X95435167Y-58847162D01*
X95778943Y-58705117D01*
X96014000Y-58470470D01*
X96014000Y-58482547D01*
X95981808Y-58514683D01*
X95839162Y-58858211D01*
X95838838Y-59230177D01*
X95924709Y-59438000D01*
X92883110Y-59438000D01*
X92883162Y-59377833D01*
X92741117Y-59034057D01*
X92478327Y-58770808D01*
X92134799Y-58628162D01*
X92087923Y-58628121D01*
X91057000Y-57597198D01*
X91057000Y-55680463D01*
X91089192Y-55648327D01*
X91231838Y-55304799D01*
X91232162Y-54932833D01*
X91098617Y-54609629D01*
X91231838Y-54288799D01*
X91232162Y-53916833D01*
X91090117Y-53573057D01*
X90827327Y-53309808D01*
X90483799Y-53167162D01*
X90359611Y-53167054D01*
X90345839Y-53157852D01*
X90310877Y-53150898D01*
X90109890Y-53013569D01*
X89858000Y-52962560D01*
X88958000Y-52962560D01*
X88722683Y-53006838D01*
X88506559Y-53145910D01*
X88361569Y-53358110D01*
X88310560Y-53610000D01*
X88310560Y-53882638D01*
X88069440Y-54123758D01*
X88069440Y-52750000D01*
X88025162Y-52514683D01*
X87886090Y-52298559D01*
X87673890Y-52153569D01*
X87422000Y-52102560D01*
X86822000Y-52102560D01*
X86586683Y-52146838D01*
X86487472Y-52210678D01*
X86403890Y-52153569D01*
X86152000Y-52102560D01*
X85552000Y-52102560D01*
X85316683Y-52146838D01*
X85217472Y-52210678D01*
X85133890Y-52153569D01*
X84882000Y-52102560D01*
X84282000Y-52102560D01*
X84046683Y-52146838D01*
X83956020Y-52205178D01*
X83738310Y-52115000D01*
X83597750Y-52115000D01*
X83439000Y-52273750D01*
X83439000Y-53373000D01*
X83459000Y-53373000D01*
X83459000Y-53627000D01*
X83439000Y-53627000D01*
X83439000Y-54726250D01*
X83466745Y-54753995D01*
X83393162Y-54931201D01*
X83392838Y-55303167D01*
X83534883Y-55646943D01*
X83797673Y-55910192D01*
X84141201Y-56052838D01*
X84259421Y-56052941D01*
X84291160Y-56074148D01*
X84582000Y-56132000D01*
X84802744Y-56132000D01*
X84725000Y-56319690D01*
X84725000Y-56610250D01*
X84883750Y-56769000D01*
X85485000Y-56769000D01*
X85485000Y-56749000D01*
X85735000Y-56749000D01*
X85735000Y-56769000D01*
X85757000Y-56769000D01*
X85757000Y-57023000D01*
X85735000Y-57023000D01*
X85735000Y-57822250D01*
X85893750Y-57981000D01*
X85986309Y-57981000D01*
X86219698Y-57884327D01*
X86360936Y-57743090D01*
X86395910Y-57797441D01*
X86608110Y-57942431D01*
X86860000Y-57993440D01*
X87350091Y-57993440D01*
X87570201Y-58084838D01*
X87942167Y-58085162D01*
X88285943Y-57943117D01*
X88549192Y-57680327D01*
X88691838Y-57336799D01*
X88692162Y-56964833D01*
X88550117Y-56621057D01*
X88287327Y-56357808D01*
X87965717Y-56224263D01*
X87963162Y-56210683D01*
X87914566Y-56135162D01*
X87919986Y-56127229D01*
X88186839Y-56074148D01*
X88407298Y-55926842D01*
X88493910Y-56061441D01*
X88706110Y-56206431D01*
X88958000Y-56257440D01*
X89537000Y-56257440D01*
X89537000Y-57912000D01*
X89594852Y-58202839D01*
X89759599Y-58449401D01*
X90748198Y-59438000D01*
X80826463Y-59438000D01*
X80794327Y-59405808D01*
X80450799Y-59263162D01*
X80262000Y-59262998D01*
X80262000Y-57181750D01*
X84725000Y-57181750D01*
X84725000Y-57472310D01*
X84821673Y-57705699D01*
X85000302Y-57884327D01*
X85233691Y-57981000D01*
X85326250Y-57981000D01*
X85485000Y-57822250D01*
X85485000Y-57023000D01*
X84883750Y-57023000D01*
X84725000Y-57181750D01*
X80262000Y-57181750D01*
X80262000Y-55496178D01*
X80204148Y-55205339D01*
X80039401Y-54958777D01*
X79950182Y-54869558D01*
X80037317Y-54853162D01*
X80136528Y-54789322D01*
X80220110Y-54846431D01*
X80472000Y-54897440D01*
X81072000Y-54897440D01*
X81307317Y-54853162D01*
X81406528Y-54789322D01*
X81490110Y-54846431D01*
X81742000Y-54897440D01*
X82342000Y-54897440D01*
X82577317Y-54853162D01*
X82667980Y-54794822D01*
X82885690Y-54885000D01*
X83026250Y-54885000D01*
X83185000Y-54726250D01*
X83185000Y-53627000D01*
X83165000Y-53627000D01*
X83165000Y-53373000D01*
X83185000Y-53373000D01*
X83185000Y-52273750D01*
X83026250Y-52115000D01*
X82885690Y-52115000D01*
X82668878Y-52204806D01*
X82593890Y-52153569D01*
X82493299Y-52133199D01*
X82570943Y-52101117D01*
X82834192Y-51838327D01*
X82949764Y-51560000D01*
X98243537Y-51560000D01*
X98275673Y-51592192D01*
X98619201Y-51734838D01*
X98991167Y-51735162D01*
X99334943Y-51593117D01*
X99598192Y-51330327D01*
X99740838Y-50986799D01*
X99741162Y-50614833D01*
X99599117Y-50271057D01*
X99566000Y-50237882D01*
X99566000Y-50165000D01*
X99508148Y-49874161D01*
X99343401Y-49627599D01*
X99213242Y-49497440D01*
X99614000Y-49497440D01*
X99849317Y-49453162D01*
X99948528Y-49389322D01*
X100032110Y-49446431D01*
X100284000Y-49497440D01*
X100884000Y-49497440D01*
X101119317Y-49453162D01*
X101218528Y-49389322D01*
X101302110Y-49446431D01*
X101554000Y-49497440D01*
X102154000Y-49497440D01*
X102389317Y-49453162D01*
X102548989Y-49350416D01*
X102548989Y-52251344D01*
X102548989Y-52251344D01*
G37*
X102548989Y-52251344D02*
X102405890Y-52153569D01*
X102154000Y-52102560D01*
X101554000Y-52102560D01*
X101318683Y-52146838D01*
X101219472Y-52210678D01*
X101135890Y-52153569D01*
X100884000Y-52102560D01*
X100284000Y-52102560D01*
X100048683Y-52146838D01*
X99949472Y-52210678D01*
X99865890Y-52153569D01*
X99614000Y-52102560D01*
X99014000Y-52102560D01*
X98778683Y-52146838D01*
X98688020Y-52205178D01*
X98470310Y-52115000D01*
X98329750Y-52115000D01*
X98171000Y-52273750D01*
X98171000Y-53373000D01*
X98191000Y-53373000D01*
X98191000Y-53627000D01*
X98171000Y-53627000D01*
X98171000Y-53647000D01*
X97917000Y-53647000D01*
X97917000Y-53627000D01*
X97897000Y-53627000D01*
X97897000Y-53373000D01*
X97917000Y-53373000D01*
X97917000Y-52273750D01*
X97758250Y-52115000D01*
X97617690Y-52115000D01*
X97400878Y-52204806D01*
X97325890Y-52153569D01*
X97074000Y-52102560D01*
X96474000Y-52102560D01*
X96238683Y-52146838D01*
X96139472Y-52210678D01*
X96055890Y-52153569D01*
X95804000Y-52102560D01*
X95204000Y-52102560D01*
X94968683Y-52146838D01*
X94869472Y-52210678D01*
X94785890Y-52153569D01*
X94534000Y-52102560D01*
X93934000Y-52102560D01*
X93698683Y-52146838D01*
X93482559Y-52285910D01*
X93337569Y-52498110D01*
X93286560Y-52750000D01*
X93286560Y-54250000D01*
X93330838Y-54485317D01*
X93469910Y-54701441D01*
X93474000Y-54704236D01*
X93474000Y-55585403D01*
X93451057Y-55594883D01*
X93187808Y-55857673D01*
X93045162Y-56201201D01*
X93044838Y-56573167D01*
X93186883Y-56916943D01*
X93449673Y-57180192D01*
X93793201Y-57322838D01*
X94165167Y-57323162D01*
X94186495Y-57314349D01*
X94196838Y-57369317D01*
X94335910Y-57585441D01*
X94364955Y-57605287D01*
X94315162Y-57725201D01*
X94314838Y-58097167D01*
X94456883Y-58440943D01*
X94719673Y-58704192D01*
X95063201Y-58846838D01*
X95435167Y-58847162D01*
X95778943Y-58705117D01*
X96014000Y-58470470D01*
X96014000Y-58482547D01*
X95981808Y-58514683D01*
X95839162Y-58858211D01*
X95838838Y-59230177D01*
X95924709Y-59438000D01*
X92883110Y-59438000D01*
X92883162Y-59377833D01*
X92741117Y-59034057D01*
X92478327Y-58770808D01*
X92134799Y-58628162D01*
X92087923Y-58628121D01*
X91057000Y-57597198D01*
X91057000Y-55680463D01*
X91089192Y-55648327D01*
X91231838Y-55304799D01*
X91232162Y-54932833D01*
X91098617Y-54609629D01*
X91231838Y-54288799D01*
X91232162Y-53916833D01*
X91090117Y-53573057D01*
X90827327Y-53309808D01*
X90483799Y-53167162D01*
X90359611Y-53167054D01*
X90345839Y-53157852D01*
X90310877Y-53150898D01*
X90109890Y-53013569D01*
X89858000Y-52962560D01*
X88958000Y-52962560D01*
X88722683Y-53006838D01*
X88506559Y-53145910D01*
X88361569Y-53358110D01*
X88310560Y-53610000D01*
X88310560Y-53882638D01*
X88069440Y-54123758D01*
X88069440Y-52750000D01*
X88025162Y-52514683D01*
X87886090Y-52298559D01*
X87673890Y-52153569D01*
X87422000Y-52102560D01*
X86822000Y-52102560D01*
X86586683Y-52146838D01*
X86487472Y-52210678D01*
X86403890Y-52153569D01*
X86152000Y-52102560D01*
X85552000Y-52102560D01*
X85316683Y-52146838D01*
X85217472Y-52210678D01*
X85133890Y-52153569D01*
X84882000Y-52102560D01*
X84282000Y-52102560D01*
X84046683Y-52146838D01*
X83956020Y-52205178D01*
X83738310Y-52115000D01*
X83597750Y-52115000D01*
X83439000Y-52273750D01*
X83439000Y-53373000D01*
X83459000Y-53373000D01*
X83459000Y-53627000D01*
X83439000Y-53627000D01*
X83439000Y-54726250D01*
X83466745Y-54753995D01*
X83393162Y-54931201D01*
X83392838Y-55303167D01*
X83534883Y-55646943D01*
X83797673Y-55910192D01*
X84141201Y-56052838D01*
X84259421Y-56052941D01*
X84291160Y-56074148D01*
X84582000Y-56132000D01*
X84802744Y-56132000D01*
X84725000Y-56319690D01*
X84725000Y-56610250D01*
X84883750Y-56769000D01*
X85485000Y-56769000D01*
X85485000Y-56749000D01*
X85735000Y-56749000D01*
X85735000Y-56769000D01*
X85757000Y-56769000D01*
X85757000Y-57023000D01*
X85735000Y-57023000D01*
X85735000Y-57822250D01*
X85893750Y-57981000D01*
X85986309Y-57981000D01*
X86219698Y-57884327D01*
X86360936Y-57743090D01*
X86395910Y-57797441D01*
X86608110Y-57942431D01*
X86860000Y-57993440D01*
X87350091Y-57993440D01*
X87570201Y-58084838D01*
X87942167Y-58085162D01*
X88285943Y-57943117D01*
X88549192Y-57680327D01*
X88691838Y-57336799D01*
X88692162Y-56964833D01*
X88550117Y-56621057D01*
X88287327Y-56357808D01*
X87965717Y-56224263D01*
X87963162Y-56210683D01*
X87914566Y-56135162D01*
X87919986Y-56127229D01*
X88186839Y-56074148D01*
X88407298Y-55926842D01*
X88493910Y-56061441D01*
X88706110Y-56206431D01*
X88958000Y-56257440D01*
X89537000Y-56257440D01*
X89537000Y-57912000D01*
X89594852Y-58202839D01*
X89759599Y-58449401D01*
X90748198Y-59438000D01*
X80826463Y-59438000D01*
X80794327Y-59405808D01*
X80450799Y-59263162D01*
X80262000Y-59262998D01*
X80262000Y-57181750D01*
X84725000Y-57181750D01*
X84725000Y-57472310D01*
X84821673Y-57705699D01*
X85000302Y-57884327D01*
X85233691Y-57981000D01*
X85326250Y-57981000D01*
X85485000Y-57822250D01*
X85485000Y-57023000D01*
X84883750Y-57023000D01*
X84725000Y-57181750D01*
X80262000Y-57181750D01*
X80262000Y-55496178D01*
X80204148Y-55205339D01*
X80039401Y-54958777D01*
X79950182Y-54869558D01*
X80037317Y-54853162D01*
X80136528Y-54789322D01*
X80220110Y-54846431D01*
X80472000Y-54897440D01*
X81072000Y-54897440D01*
X81307317Y-54853162D01*
X81406528Y-54789322D01*
X81490110Y-54846431D01*
X81742000Y-54897440D01*
X82342000Y-54897440D01*
X82577317Y-54853162D01*
X82667980Y-54794822D01*
X82885690Y-54885000D01*
X83026250Y-54885000D01*
X83185000Y-54726250D01*
X83185000Y-53627000D01*
X83165000Y-53627000D01*
X83165000Y-53373000D01*
X83185000Y-53373000D01*
X83185000Y-52273750D01*
X83026250Y-52115000D01*
X82885690Y-52115000D01*
X82668878Y-52204806D01*
X82593890Y-52153569D01*
X82493299Y-52133199D01*
X82570943Y-52101117D01*
X82834192Y-51838327D01*
X82949764Y-51560000D01*
X98243537Y-51560000D01*
X98275673Y-51592192D01*
X98619201Y-51734838D01*
X98991167Y-51735162D01*
X99334943Y-51593117D01*
X99598192Y-51330327D01*
X99740838Y-50986799D01*
X99741162Y-50614833D01*
X99599117Y-50271057D01*
X99566000Y-50237882D01*
X99566000Y-50165000D01*
X99508148Y-49874161D01*
X99343401Y-49627599D01*
X99213242Y-49497440D01*
X99614000Y-49497440D01*
X99849317Y-49453162D01*
X99948528Y-49389322D01*
X100032110Y-49446431D01*
X100284000Y-49497440D01*
X100884000Y-49497440D01*
X101119317Y-49453162D01*
X101218528Y-49389322D01*
X101302110Y-49446431D01*
X101554000Y-49497440D01*
X102154000Y-49497440D01*
X102389317Y-49453162D01*
X102548989Y-49350416D01*
X102548989Y-52251344D01*
G36*
X68469000Y-55911750D02*
X68469000Y-56202310D01*
X68565673Y-56435699D01*
X68744302Y-56614327D01*
X68977691Y-56711000D01*
X69070250Y-56711000D01*
X69163000Y-56618250D01*
X69163000Y-56932250D01*
X69321750Y-57091000D01*
X69950560Y-57091000D01*
X69950560Y-57345000D01*
X69321750Y-57345000D01*
X69163000Y-57503750D01*
X69163000Y-57720560D01*
X68072148Y-57720560D01*
X68034162Y-57518683D01*
X67967671Y-57415354D01*
X67969327Y-57413698D01*
X68066000Y-57180309D01*
X68066000Y-56939750D01*
X67907250Y-56781000D01*
X67183000Y-56781000D01*
X67183000Y-56801000D01*
X66990500Y-56801000D01*
X66990500Y-56507000D01*
X67183000Y-56507000D01*
X67183000Y-56527000D01*
X67907250Y-56527000D01*
X68066000Y-56368250D01*
X68066000Y-56127691D01*
X67969327Y-55894302D01*
X67958536Y-55883511D01*
X68453000Y-55883511D01*
X68508224Y-55872526D01*
X68469000Y-55911750D01*
X68469000Y-55911750D01*
G37*
X68469000Y-55911750D02*
X68469000Y-56202310D01*
X68565673Y-56435699D01*
X68744302Y-56614327D01*
X68977691Y-56711000D01*
X69070250Y-56711000D01*
X69163000Y-56618250D01*
X69163000Y-56932250D01*
X69321750Y-57091000D01*
X69950560Y-57091000D01*
X69950560Y-57345000D01*
X69321750Y-57345000D01*
X69163000Y-57503750D01*
X69163000Y-57720560D01*
X68072148Y-57720560D01*
X68034162Y-57518683D01*
X67967671Y-57415354D01*
X67969327Y-57413698D01*
X68066000Y-57180309D01*
X68066000Y-56939750D01*
X67907250Y-56781000D01*
X67183000Y-56781000D01*
X67183000Y-56801000D01*
X66990500Y-56801000D01*
X66990500Y-56507000D01*
X67183000Y-56507000D01*
X67183000Y-56527000D01*
X67907250Y-56527000D01*
X68066000Y-56368250D01*
X68066000Y-56127691D01*
X67969327Y-55894302D01*
X67958536Y-55883511D01*
X68453000Y-55883511D01*
X68508224Y-55872526D01*
X68469000Y-55911750D01*
G36*
X69479000Y-55499000D02*
X69501000Y-55499000D01*
X69501000Y-55753000D01*
X69479000Y-55753000D01*
X69479000Y-55773000D01*
X69229000Y-55773000D01*
X69229000Y-55753000D01*
X69207000Y-55753000D01*
X69207000Y-55499000D01*
X69229000Y-55499000D01*
X69229000Y-55479000D01*
X69479000Y-55479000D01*
X69479000Y-55499000D01*
X69479000Y-55499000D01*
G37*
X69479000Y-55499000D02*
X69501000Y-55499000D01*
X69501000Y-55753000D01*
X69479000Y-55753000D01*
X69479000Y-55773000D01*
X69229000Y-55773000D01*
X69229000Y-55753000D01*
X69207000Y-55753000D01*
X69207000Y-55499000D01*
X69229000Y-55499000D01*
X69229000Y-55479000D01*
X69479000Y-55479000D01*
X69479000Y-55499000D01*
G36*
X105970000Y-42284198D02*
X105837122Y-42151320D01*
X105837162Y-42105833D01*
X105695117Y-41762057D01*
X105432327Y-41498808D01*
X105088799Y-41356162D01*
X104716833Y-41355838D01*
X104373057Y-41497883D01*
X104206726Y-41663924D01*
X103788401Y-41245599D01*
X103541839Y-41080852D01*
X103251000Y-41023000D01*
X84075032Y-41023000D01*
X83784193Y-41080852D01*
X83537631Y-41245599D01*
X81902320Y-42880910D01*
X81856833Y-42880870D01*
X81513057Y-43022915D01*
X81249808Y-43285705D01*
X81107162Y-43629233D01*
X81106986Y-43831000D01*
X81057750Y-43831000D01*
X80899000Y-43989750D01*
X80899000Y-44591000D01*
X80919000Y-44591000D01*
X80919000Y-44841000D01*
X80899000Y-44841000D01*
X80899000Y-44863000D01*
X80645000Y-44863000D01*
X80645000Y-44841000D01*
X80625000Y-44841000D01*
X80625000Y-44591000D01*
X80645000Y-44591000D01*
X80645000Y-43989750D01*
X80486250Y-43831000D01*
X80195690Y-43831000D01*
X79962301Y-43927673D01*
X79783673Y-44106302D01*
X79687000Y-44339691D01*
X79687000Y-44381886D01*
X79434799Y-44277162D01*
X79062833Y-44276838D01*
X78719057Y-44418883D01*
X78455808Y-44681673D01*
X78313162Y-45025201D01*
X78312838Y-45397167D01*
X78454883Y-45740943D01*
X78717673Y-46004192D01*
X78742000Y-46014294D01*
X78742000Y-46898437D01*
X78605569Y-47098110D01*
X78554560Y-47350000D01*
X78554560Y-48850000D01*
X78598838Y-49085317D01*
X78737910Y-49301441D01*
X78950110Y-49446431D01*
X79202000Y-49497440D01*
X79802000Y-49497440D01*
X80037317Y-49453162D01*
X80136528Y-49389322D01*
X80220110Y-49446431D01*
X80472000Y-49497440D01*
X81072000Y-49497440D01*
X81307317Y-49453162D01*
X81406528Y-49389322D01*
X81490110Y-49446431D01*
X81742000Y-49497440D01*
X82342000Y-49497440D01*
X82552000Y-49457926D01*
X82552000Y-49723198D01*
X81902320Y-50372878D01*
X81856833Y-50372838D01*
X81513057Y-50514883D01*
X81249808Y-50777673D01*
X81107162Y-51121201D01*
X81106838Y-51493167D01*
X81248883Y-51836943D01*
X81511673Y-52100192D01*
X81587422Y-52131646D01*
X81506683Y-52146838D01*
X81407472Y-52210678D01*
X81323890Y-52153569D01*
X81072000Y-52102560D01*
X80472000Y-52102560D01*
X80236683Y-52146838D01*
X80137472Y-52210678D01*
X80053890Y-52153569D01*
X79802000Y-52102560D01*
X79390904Y-52102560D01*
X79230434Y-51862399D01*
X77376634Y-50008599D01*
X77130072Y-49843852D01*
X76839233Y-49786000D01*
X73319597Y-49786000D01*
X73310117Y-49763057D01*
X73047327Y-49499808D01*
X72703799Y-49357162D01*
X72331833Y-49356838D01*
X72261000Y-49386106D01*
X72261000Y-46669802D01*
X72910680Y-46020122D01*
X72956167Y-46020162D01*
X73299943Y-45878117D01*
X73333118Y-45845000D01*
X73350191Y-45845000D01*
X73430910Y-45970441D01*
X73643110Y-46115431D01*
X73895000Y-46166440D01*
X74695000Y-46166440D01*
X74930317Y-46122162D01*
X75146441Y-45983090D01*
X75291431Y-45770890D01*
X75342440Y-45519000D01*
X75342440Y-44619000D01*
X75298162Y-44383683D01*
X75159090Y-44167559D01*
X75032314Y-44080936D01*
X75118000Y-43995250D01*
X75118000Y-43196000D01*
X75372000Y-43196000D01*
X75372000Y-43995250D01*
X75530750Y-44154000D01*
X75771310Y-44154000D01*
X76004699Y-44057327D01*
X76183327Y-43878698D01*
X76280000Y-43645309D01*
X76280000Y-43354750D01*
X76121250Y-43196000D01*
X75372000Y-43196000D01*
X75118000Y-43196000D01*
X75098000Y-43196000D01*
X75098000Y-42942000D01*
X75118000Y-42942000D01*
X75118000Y-42922000D01*
X75372000Y-42922000D01*
X75372000Y-42942000D01*
X76121250Y-42942000D01*
X76280000Y-42783250D01*
X76280000Y-42492691D01*
X76238060Y-42391440D01*
X76796000Y-42391440D01*
X77031317Y-42347162D01*
X77247441Y-42208090D01*
X77392431Y-41995890D01*
X77443440Y-41744000D01*
X77443440Y-40044000D01*
X77399162Y-39808683D01*
X77260090Y-39592559D01*
X77047890Y-39447569D01*
X76796000Y-39396560D01*
X75096000Y-39396560D01*
X74860683Y-39440838D01*
X74644559Y-39579910D01*
X74499569Y-39792110D01*
X74485914Y-39859541D01*
X74456054Y-39814853D01*
X73974285Y-39492946D01*
X73406000Y-39379907D01*
X72837715Y-39492946D01*
X72355946Y-39814853D01*
X72128298Y-40155553D01*
X72061183Y-40012642D01*
X71632924Y-39622355D01*
X71222890Y-39452524D01*
X70993000Y-39573845D01*
X70993000Y-40767000D01*
X71013000Y-40767000D01*
X71013000Y-41021000D01*
X70993000Y-41021000D01*
X70993000Y-41041000D01*
X70739000Y-41041000D01*
X70739000Y-41021000D01*
X69545181Y-41021000D01*
X69424514Y-41250892D01*
X69670817Y-41775358D01*
X70099076Y-42165645D01*
X70158104Y-42190094D01*
X69884638Y-42463560D01*
X69612000Y-42463560D01*
X69376683Y-42507838D01*
X69160559Y-42646910D01*
X69015569Y-42859110D01*
X68964560Y-43111000D01*
X68964560Y-43261002D01*
X68957440Y-43260996D01*
X68957440Y-43111000D01*
X68913162Y-42875683D01*
X68774090Y-42659559D01*
X68561890Y-42514569D01*
X68310000Y-42463560D01*
X67810000Y-42463560D01*
X67574683Y-42507838D01*
X67358559Y-42646910D01*
X67320000Y-42703343D01*
X67320000Y-42391440D01*
X68033000Y-42391440D01*
X68268317Y-42347162D01*
X68484441Y-42208090D01*
X68629431Y-41995890D01*
X68680440Y-41744000D01*
X68680440Y-40537108D01*
X69424514Y-40537108D01*
X69545181Y-40767000D01*
X70739000Y-40767000D01*
X70739000Y-39573845D01*
X70509110Y-39452524D01*
X70099076Y-39622355D01*
X69670817Y-40012642D01*
X69424514Y-40537108D01*
X68680440Y-40537108D01*
X68680440Y-40044000D01*
X68636162Y-39808683D01*
X68497090Y-39592559D01*
X68284890Y-39447569D01*
X68033000Y-39396560D01*
X66333000Y-39396560D01*
X66097683Y-39440838D01*
X65881559Y-39579910D01*
X65736569Y-39792110D01*
X65714699Y-39900107D01*
X65409924Y-39622355D01*
X64999890Y-39452524D01*
X64770000Y-39573845D01*
X64770000Y-40767000D01*
X64790000Y-40767000D01*
X64790000Y-41021000D01*
X64770000Y-41021000D01*
X64770000Y-41041000D01*
X64516000Y-41041000D01*
X64516000Y-41021000D01*
X64496000Y-41021000D01*
X64496000Y-40767000D01*
X64516000Y-40767000D01*
X64516000Y-39573845D01*
X64286110Y-39452524D01*
X63876076Y-39622355D01*
X63447817Y-40012642D01*
X63201514Y-40537108D01*
X63322180Y-40766998D01*
X63304800Y-40766998D01*
X61347802Y-38810000D01*
X105970000Y-38810000D01*
X105970000Y-42284198D01*
X105970000Y-42284198D01*
G37*
X105970000Y-42284198D02*
X105837122Y-42151320D01*
X105837162Y-42105833D01*
X105695117Y-41762057D01*
X105432327Y-41498808D01*
X105088799Y-41356162D01*
X104716833Y-41355838D01*
X104373057Y-41497883D01*
X104206726Y-41663924D01*
X103788401Y-41245599D01*
X103541839Y-41080852D01*
X103251000Y-41023000D01*
X84075032Y-41023000D01*
X83784193Y-41080852D01*
X83537631Y-41245599D01*
X81902320Y-42880910D01*
X81856833Y-42880870D01*
X81513057Y-43022915D01*
X81249808Y-43285705D01*
X81107162Y-43629233D01*
X81106986Y-43831000D01*
X81057750Y-43831000D01*
X80899000Y-43989750D01*
X80899000Y-44591000D01*
X80919000Y-44591000D01*
X80919000Y-44841000D01*
X80899000Y-44841000D01*
X80899000Y-44863000D01*
X80645000Y-44863000D01*
X80645000Y-44841000D01*
X80625000Y-44841000D01*
X80625000Y-44591000D01*
X80645000Y-44591000D01*
X80645000Y-43989750D01*
X80486250Y-43831000D01*
X80195690Y-43831000D01*
X79962301Y-43927673D01*
X79783673Y-44106302D01*
X79687000Y-44339691D01*
X79687000Y-44381886D01*
X79434799Y-44277162D01*
X79062833Y-44276838D01*
X78719057Y-44418883D01*
X78455808Y-44681673D01*
X78313162Y-45025201D01*
X78312838Y-45397167D01*
X78454883Y-45740943D01*
X78717673Y-46004192D01*
X78742000Y-46014294D01*
X78742000Y-46898437D01*
X78605569Y-47098110D01*
X78554560Y-47350000D01*
X78554560Y-48850000D01*
X78598838Y-49085317D01*
X78737910Y-49301441D01*
X78950110Y-49446431D01*
X79202000Y-49497440D01*
X79802000Y-49497440D01*
X80037317Y-49453162D01*
X80136528Y-49389322D01*
X80220110Y-49446431D01*
X80472000Y-49497440D01*
X81072000Y-49497440D01*
X81307317Y-49453162D01*
X81406528Y-49389322D01*
X81490110Y-49446431D01*
X81742000Y-49497440D01*
X82342000Y-49497440D01*
X82552000Y-49457926D01*
X82552000Y-49723198D01*
X81902320Y-50372878D01*
X81856833Y-50372838D01*
X81513057Y-50514883D01*
X81249808Y-50777673D01*
X81107162Y-51121201D01*
X81106838Y-51493167D01*
X81248883Y-51836943D01*
X81511673Y-52100192D01*
X81587422Y-52131646D01*
X81506683Y-52146838D01*
X81407472Y-52210678D01*
X81323890Y-52153569D01*
X81072000Y-52102560D01*
X80472000Y-52102560D01*
X80236683Y-52146838D01*
X80137472Y-52210678D01*
X80053890Y-52153569D01*
X79802000Y-52102560D01*
X79390904Y-52102560D01*
X79230434Y-51862399D01*
X77376634Y-50008599D01*
X77130072Y-49843852D01*
X76839233Y-49786000D01*
X73319597Y-49786000D01*
X73310117Y-49763057D01*
X73047327Y-49499808D01*
X72703799Y-49357162D01*
X72331833Y-49356838D01*
X72261000Y-49386106D01*
X72261000Y-46669802D01*
X72910680Y-46020122D01*
X72956167Y-46020162D01*
X73299943Y-45878117D01*
X73333118Y-45845000D01*
X73350191Y-45845000D01*
X73430910Y-45970441D01*
X73643110Y-46115431D01*
X73895000Y-46166440D01*
X74695000Y-46166440D01*
X74930317Y-46122162D01*
X75146441Y-45983090D01*
X75291431Y-45770890D01*
X75342440Y-45519000D01*
X75342440Y-44619000D01*
X75298162Y-44383683D01*
X75159090Y-44167559D01*
X75032314Y-44080936D01*
X75118000Y-43995250D01*
X75118000Y-43196000D01*
X75372000Y-43196000D01*
X75372000Y-43995250D01*
X75530750Y-44154000D01*
X75771310Y-44154000D01*
X76004699Y-44057327D01*
X76183327Y-43878698D01*
X76280000Y-43645309D01*
X76280000Y-43354750D01*
X76121250Y-43196000D01*
X75372000Y-43196000D01*
X75118000Y-43196000D01*
X75098000Y-43196000D01*
X75098000Y-42942000D01*
X75118000Y-42942000D01*
X75118000Y-42922000D01*
X75372000Y-42922000D01*
X75372000Y-42942000D01*
X76121250Y-42942000D01*
X76280000Y-42783250D01*
X76280000Y-42492691D01*
X76238060Y-42391440D01*
X76796000Y-42391440D01*
X77031317Y-42347162D01*
X77247441Y-42208090D01*
X77392431Y-41995890D01*
X77443440Y-41744000D01*
X77443440Y-40044000D01*
X77399162Y-39808683D01*
X77260090Y-39592559D01*
X77047890Y-39447569D01*
X76796000Y-39396560D01*
X75096000Y-39396560D01*
X74860683Y-39440838D01*
X74644559Y-39579910D01*
X74499569Y-39792110D01*
X74485914Y-39859541D01*
X74456054Y-39814853D01*
X73974285Y-39492946D01*
X73406000Y-39379907D01*
X72837715Y-39492946D01*
X72355946Y-39814853D01*
X72128298Y-40155553D01*
X72061183Y-40012642D01*
X71632924Y-39622355D01*
X71222890Y-39452524D01*
X70993000Y-39573845D01*
X70993000Y-40767000D01*
X71013000Y-40767000D01*
X71013000Y-41021000D01*
X70993000Y-41021000D01*
X70993000Y-41041000D01*
X70739000Y-41041000D01*
X70739000Y-41021000D01*
X69545181Y-41021000D01*
X69424514Y-41250892D01*
X69670817Y-41775358D01*
X70099076Y-42165645D01*
X70158104Y-42190094D01*
X69884638Y-42463560D01*
X69612000Y-42463560D01*
X69376683Y-42507838D01*
X69160559Y-42646910D01*
X69015569Y-42859110D01*
X68964560Y-43111000D01*
X68964560Y-43261002D01*
X68957440Y-43260996D01*
X68957440Y-43111000D01*
X68913162Y-42875683D01*
X68774090Y-42659559D01*
X68561890Y-42514569D01*
X68310000Y-42463560D01*
X67810000Y-42463560D01*
X67574683Y-42507838D01*
X67358559Y-42646910D01*
X67320000Y-42703343D01*
X67320000Y-42391440D01*
X68033000Y-42391440D01*
X68268317Y-42347162D01*
X68484441Y-42208090D01*
X68629431Y-41995890D01*
X68680440Y-41744000D01*
X68680440Y-40537108D01*
X69424514Y-40537108D01*
X69545181Y-40767000D01*
X70739000Y-40767000D01*
X70739000Y-39573845D01*
X70509110Y-39452524D01*
X70099076Y-39622355D01*
X69670817Y-40012642D01*
X69424514Y-40537108D01*
X68680440Y-40537108D01*
X68680440Y-40044000D01*
X68636162Y-39808683D01*
X68497090Y-39592559D01*
X68284890Y-39447569D01*
X68033000Y-39396560D01*
X66333000Y-39396560D01*
X66097683Y-39440838D01*
X65881559Y-39579910D01*
X65736569Y-39792110D01*
X65714699Y-39900107D01*
X65409924Y-39622355D01*
X64999890Y-39452524D01*
X64770000Y-39573845D01*
X64770000Y-40767000D01*
X64790000Y-40767000D01*
X64790000Y-41021000D01*
X64770000Y-41021000D01*
X64770000Y-41041000D01*
X64516000Y-41041000D01*
X64516000Y-41021000D01*
X64496000Y-41021000D01*
X64496000Y-40767000D01*
X64516000Y-40767000D01*
X64516000Y-39573845D01*
X64286110Y-39452524D01*
X63876076Y-39622355D01*
X63447817Y-40012642D01*
X63201514Y-40537108D01*
X63322180Y-40766998D01*
X63304800Y-40766998D01*
X61347802Y-38810000D01*
X105970000Y-38810000D01*
X105970000Y-42284198D01*
G36*
X94966599Y-43678599D02*
X94847063Y-43857498D01*
X94818683Y-43862838D01*
X94602559Y-44001910D01*
X94457569Y-44214110D01*
X94423237Y-44383645D01*
X94166799Y-44277162D01*
X93794833Y-44276838D01*
X93451057Y-44418883D01*
X93187808Y-44681673D01*
X93045162Y-45025201D01*
X93044838Y-45397167D01*
X93186883Y-45740943D01*
X93220000Y-45774118D01*
X93220000Y-47846000D01*
X93277852Y-48136839D01*
X93286560Y-48149871D01*
X93286560Y-48850000D01*
X93330838Y-49085317D01*
X93469910Y-49301441D01*
X93682110Y-49446431D01*
X93934000Y-49497440D01*
X94534000Y-49497440D01*
X94769317Y-49453162D01*
X94868528Y-49389322D01*
X94952110Y-49446431D01*
X95204000Y-49497440D01*
X95804000Y-49497440D01*
X96039317Y-49453162D01*
X96138528Y-49389322D01*
X96222110Y-49446431D01*
X96474000Y-49497440D01*
X97074000Y-49497440D01*
X97294531Y-49455944D01*
X97341852Y-49693839D01*
X97506599Y-49940401D01*
X97606198Y-50040000D01*
X84071602Y-50040000D01*
X84072000Y-50038000D01*
X84072000Y-49454914D01*
X84282000Y-49497440D01*
X84882000Y-49497440D01*
X85117317Y-49453162D01*
X85216528Y-49389322D01*
X85300110Y-49446431D01*
X85552000Y-49497440D01*
X86152000Y-49497440D01*
X86387317Y-49453162D01*
X86486528Y-49389322D01*
X86570110Y-49446431D01*
X86822000Y-49497440D01*
X87422000Y-49497440D01*
X87657317Y-49453162D01*
X87873441Y-49314090D01*
X88018431Y-49101890D01*
X88069440Y-48850000D01*
X88069440Y-47350000D01*
X88025162Y-47114683D01*
X87886090Y-46898559D01*
X87882000Y-46895764D01*
X87882000Y-46014597D01*
X87904943Y-46005117D01*
X88168192Y-45742327D01*
X88310838Y-45398799D01*
X88311162Y-45026833D01*
X88169117Y-44683057D01*
X87906327Y-44419808D01*
X87562799Y-44277162D01*
X87190833Y-44276838D01*
X86933828Y-44383030D01*
X86905162Y-44230683D01*
X86775741Y-44029556D01*
X86786838Y-44002831D01*
X86787162Y-43630865D01*
X86645117Y-43287089D01*
X86415116Y-43056686D01*
X86478791Y-42993011D01*
X95652187Y-42993011D01*
X94966599Y-43678599D01*
X94966599Y-43678599D01*
G37*
X94966599Y-43678599D02*
X94847063Y-43857498D01*
X94818683Y-43862838D01*
X94602559Y-44001910D01*
X94457569Y-44214110D01*
X94423237Y-44383645D01*
X94166799Y-44277162D01*
X93794833Y-44276838D01*
X93451057Y-44418883D01*
X93187808Y-44681673D01*
X93045162Y-45025201D01*
X93044838Y-45397167D01*
X93186883Y-45740943D01*
X93220000Y-45774118D01*
X93220000Y-47846000D01*
X93277852Y-48136839D01*
X93286560Y-48149871D01*
X93286560Y-48850000D01*
X93330838Y-49085317D01*
X93469910Y-49301441D01*
X93682110Y-49446431D01*
X93934000Y-49497440D01*
X94534000Y-49497440D01*
X94769317Y-49453162D01*
X94868528Y-49389322D01*
X94952110Y-49446431D01*
X95204000Y-49497440D01*
X95804000Y-49497440D01*
X96039317Y-49453162D01*
X96138528Y-49389322D01*
X96222110Y-49446431D01*
X96474000Y-49497440D01*
X97074000Y-49497440D01*
X97294531Y-49455944D01*
X97341852Y-49693839D01*
X97506599Y-49940401D01*
X97606198Y-50040000D01*
X84071602Y-50040000D01*
X84072000Y-50038000D01*
X84072000Y-49454914D01*
X84282000Y-49497440D01*
X84882000Y-49497440D01*
X85117317Y-49453162D01*
X85216528Y-49389322D01*
X85300110Y-49446431D01*
X85552000Y-49497440D01*
X86152000Y-49497440D01*
X86387317Y-49453162D01*
X86486528Y-49389322D01*
X86570110Y-49446431D01*
X86822000Y-49497440D01*
X87422000Y-49497440D01*
X87657317Y-49453162D01*
X87873441Y-49314090D01*
X88018431Y-49101890D01*
X88069440Y-48850000D01*
X88069440Y-47350000D01*
X88025162Y-47114683D01*
X87886090Y-46898559D01*
X87882000Y-46895764D01*
X87882000Y-46014597D01*
X87904943Y-46005117D01*
X88168192Y-45742327D01*
X88310838Y-45398799D01*
X88311162Y-45026833D01*
X88169117Y-44683057D01*
X87906327Y-44419808D01*
X87562799Y-44277162D01*
X87190833Y-44276838D01*
X86933828Y-44383030D01*
X86905162Y-44230683D01*
X86775741Y-44029556D01*
X86786838Y-44002831D01*
X86787162Y-43630865D01*
X86645117Y-43287089D01*
X86415116Y-43056686D01*
X86478791Y-42993011D01*
X95652187Y-42993011D01*
X94966599Y-43678599D01*
G36*
X49642408Y-39452790D02*
X49276000Y-39379907D01*
X48707715Y-39492946D01*
X48225946Y-39814853D01*
X48006000Y-40144026D01*
X47786054Y-39814853D01*
X47304285Y-39492946D01*
X46736000Y-39379907D01*
X46167715Y-39492946D01*
X45685946Y-39814853D01*
X45466000Y-40144026D01*
X45246054Y-39814853D01*
X44764285Y-39492946D01*
X44196000Y-39379907D01*
X43627715Y-39492946D01*
X43145946Y-39814853D01*
X42824039Y-40296622D01*
X42711000Y-40864907D01*
X42711000Y-40923093D01*
X42824039Y-41491378D01*
X43145946Y-41973147D01*
X43627715Y-42295054D01*
X44196000Y-42408093D01*
X44764285Y-42295054D01*
X45246054Y-41973147D01*
X45466000Y-41643974D01*
X45685946Y-41973147D01*
X46167715Y-42295054D01*
X46736000Y-42408093D01*
X47304285Y-42295054D01*
X47786054Y-41973147D01*
X48006000Y-41643974D01*
X48225946Y-41973147D01*
X48707715Y-42295054D01*
X49276000Y-42408093D01*
X49844285Y-42295054D01*
X50326054Y-41973147D01*
X50553702Y-41632447D01*
X50620817Y-41775358D01*
X51049076Y-42165645D01*
X51459110Y-42335476D01*
X51689000Y-42214155D01*
X51689000Y-41021000D01*
X51669000Y-41021000D01*
X51669000Y-40767000D01*
X51689000Y-40767000D01*
X51689000Y-40747000D01*
X51943000Y-40747000D01*
X51943000Y-40767000D01*
X51963000Y-40767000D01*
X51963000Y-41021000D01*
X51943000Y-41021000D01*
X51943000Y-42214155D01*
X52172890Y-42335476D01*
X52582924Y-42165645D01*
X53011183Y-41775358D01*
X53078298Y-41632447D01*
X53305946Y-41973147D01*
X53787715Y-42295054D01*
X54356000Y-42408093D01*
X54924285Y-42295054D01*
X55406054Y-41973147D01*
X55433850Y-41931548D01*
X55442838Y-41979317D01*
X55581910Y-42195441D01*
X55794110Y-42340431D01*
X56046000Y-42391440D01*
X57746000Y-42391440D01*
X57981317Y-42347162D01*
X58197441Y-42208090D01*
X58342431Y-41995890D01*
X58393440Y-41744000D01*
X58393440Y-41654000D01*
X60769378Y-41654000D01*
X61422611Y-42307233D01*
X61341000Y-42291000D01*
X59309000Y-42291000D01*
X58579988Y-42436009D01*
X57961962Y-42848962D01*
X57549009Y-43466988D01*
X57404000Y-44196000D01*
X57404000Y-44712560D01*
X53478007Y-44712560D01*
X53112012Y-44468009D01*
X53101912Y-44466000D01*
X52383000Y-44323000D01*
X50165000Y-44323000D01*
X49435988Y-44468009D01*
X48817962Y-44880962D01*
X48405009Y-45498988D01*
X48260000Y-46228000D01*
X48260000Y-46331037D01*
X48029565Y-46235352D01*
X47223970Y-46234649D01*
X46932699Y-46355000D01*
X44917708Y-46355000D01*
X44629565Y-46235352D01*
X43823970Y-46234649D01*
X43079428Y-46542288D01*
X42620000Y-47000915D01*
X42620000Y-38810000D01*
X50285198Y-38810000D01*
X49642408Y-39452790D01*
X49642408Y-39452790D01*
G37*
X49642408Y-39452790D02*
X49276000Y-39379907D01*
X48707715Y-39492946D01*
X48225946Y-39814853D01*
X48006000Y-40144026D01*
X47786054Y-39814853D01*
X47304285Y-39492946D01*
X46736000Y-39379907D01*
X46167715Y-39492946D01*
X45685946Y-39814853D01*
X45466000Y-40144026D01*
X45246054Y-39814853D01*
X44764285Y-39492946D01*
X44196000Y-39379907D01*
X43627715Y-39492946D01*
X43145946Y-39814853D01*
X42824039Y-40296622D01*
X42711000Y-40864907D01*
X42711000Y-40923093D01*
X42824039Y-41491378D01*
X43145946Y-41973147D01*
X43627715Y-42295054D01*
X44196000Y-42408093D01*
X44764285Y-42295054D01*
X45246054Y-41973147D01*
X45466000Y-41643974D01*
X45685946Y-41973147D01*
X46167715Y-42295054D01*
X46736000Y-42408093D01*
X47304285Y-42295054D01*
X47786054Y-41973147D01*
X48006000Y-41643974D01*
X48225946Y-41973147D01*
X48707715Y-42295054D01*
X49276000Y-42408093D01*
X49844285Y-42295054D01*
X50326054Y-41973147D01*
X50553702Y-41632447D01*
X50620817Y-41775358D01*
X51049076Y-42165645D01*
X51459110Y-42335476D01*
X51689000Y-42214155D01*
X51689000Y-41021000D01*
X51669000Y-41021000D01*
X51669000Y-40767000D01*
X51689000Y-40767000D01*
X51689000Y-40747000D01*
X51943000Y-40747000D01*
X51943000Y-40767000D01*
X51963000Y-40767000D01*
X51963000Y-41021000D01*
X51943000Y-41021000D01*
X51943000Y-42214155D01*
X52172890Y-42335476D01*
X52582924Y-42165645D01*
X53011183Y-41775358D01*
X53078298Y-41632447D01*
X53305946Y-41973147D01*
X53787715Y-42295054D01*
X54356000Y-42408093D01*
X54924285Y-42295054D01*
X55406054Y-41973147D01*
X55433850Y-41931548D01*
X55442838Y-41979317D01*
X55581910Y-42195441D01*
X55794110Y-42340431D01*
X56046000Y-42391440D01*
X57746000Y-42391440D01*
X57981317Y-42347162D01*
X58197441Y-42208090D01*
X58342431Y-41995890D01*
X58393440Y-41744000D01*
X58393440Y-41654000D01*
X60769378Y-41654000D01*
X61422611Y-42307233D01*
X61341000Y-42291000D01*
X59309000Y-42291000D01*
X58579988Y-42436009D01*
X57961962Y-42848962D01*
X57549009Y-43466988D01*
X57404000Y-44196000D01*
X57404000Y-44712560D01*
X53478007Y-44712560D01*
X53112012Y-44468009D01*
X53101912Y-44466000D01*
X52383000Y-44323000D01*
X50165000Y-44323000D01*
X49435988Y-44468009D01*
X48817962Y-44880962D01*
X48405009Y-45498988D01*
X48260000Y-46228000D01*
X48260000Y-46331037D01*
X48029565Y-46235352D01*
X47223970Y-46234649D01*
X46932699Y-46355000D01*
X44917708Y-46355000D01*
X44629565Y-46235352D01*
X43823970Y-46234649D01*
X43079428Y-46542288D01*
X42620000Y-47000915D01*
X42620000Y-38810000D01*
X50285198Y-38810000D01*
X49642408Y-39452790D01*
M02*
