G04 #@! TF.FileFunction,Legend,Bot*
%FSLAX46Y46*%
G04 Gerber Fmt 4.6, Leading zero omitted, Abs format (unit mm)*
G04 Created by KiCad (PCBNEW 4.0.7) date 05/04/18 22:28:11*
%MOMM*%
%LPD*%
G01*
G04 APERTURE LIST*
%ADD10C,0.100000*%
%ADD11C,0.200000*%
%ADD12C,0.250000*%
%ADD13C,0.300000*%
%ADD14C,0.120000*%
%ADD15C,0.150000*%
G04 APERTURE END LIST*
D10*
D11*
X93472000Y-60960000D02*
X92964000Y-60960000D01*
X96774000Y-57658000D02*
X93472000Y-60960000D01*
X93472000Y-59436000D02*
X92964000Y-59436000D01*
X95250000Y-57658000D02*
X93472000Y-59436000D01*
X93726000Y-57912000D02*
X92964000Y-57912000D01*
X93980000Y-57658000D02*
X93726000Y-57912000D01*
X62992000Y-40894000D02*
X62484000Y-40386000D01*
X62992000Y-40894000D02*
X62484000Y-41402000D01*
X62992000Y-40894000D02*
X62230000Y-40132000D01*
X59182000Y-40894000D02*
X62992000Y-40894000D01*
X59182000Y-46482000D02*
X59182000Y-40894000D01*
D12*
X79599811Y-66442857D02*
X79547430Y-66495238D01*
X79599811Y-66547619D01*
X79652192Y-66495238D01*
X79599811Y-66442857D01*
X79599811Y-66547619D01*
X79599811Y-66128571D02*
X79652192Y-65500000D01*
X79599811Y-65447619D01*
X79547430Y-65500000D01*
X79599811Y-66128571D01*
X79599811Y-65447619D01*
X79076001Y-66442857D02*
X79023620Y-66495238D01*
X79076001Y-66547619D01*
X79128382Y-66495238D01*
X79076001Y-66442857D01*
X79076001Y-66547619D01*
X79076001Y-66128571D02*
X79128382Y-65500000D01*
X79076001Y-65447619D01*
X79023620Y-65500000D01*
X79076001Y-66128571D01*
X79076001Y-65447619D01*
X78552191Y-66442857D02*
X78499810Y-66495238D01*
X78552191Y-66547619D01*
X78604572Y-66495238D01*
X78552191Y-66442857D01*
X78552191Y-66547619D01*
X78552191Y-66128571D02*
X78604572Y-65500000D01*
X78552191Y-65447619D01*
X78499810Y-65500000D01*
X78552191Y-66128571D01*
X78552191Y-65447619D01*
X78133143Y-65447619D02*
X77871238Y-66547619D01*
X77661715Y-65761905D01*
X77452191Y-66547619D01*
X77190286Y-65447619D01*
X76823619Y-66233333D02*
X76299810Y-66233333D01*
X76928381Y-66547619D02*
X76561714Y-65447619D01*
X76195048Y-66547619D01*
X75199810Y-66547619D02*
X75566476Y-66023810D01*
X75828381Y-66547619D02*
X75828381Y-65447619D01*
X75409334Y-65447619D01*
X75304572Y-65500000D01*
X75252191Y-65552381D01*
X75199810Y-65657143D01*
X75199810Y-65814286D01*
X75252191Y-65919048D01*
X75304572Y-65971429D01*
X75409334Y-66023810D01*
X75828381Y-66023810D01*
X74728381Y-66547619D02*
X74728381Y-65447619D01*
X74099810Y-66547619D01*
X74099810Y-65447619D01*
X73576000Y-66547619D02*
X73576000Y-65447619D01*
X73052190Y-66547619D02*
X73052190Y-65447619D01*
X72423619Y-66547619D01*
X72423619Y-65447619D01*
X71323619Y-65500000D02*
X71428381Y-65447619D01*
X71585524Y-65447619D01*
X71742666Y-65500000D01*
X71847428Y-65604762D01*
X71899809Y-65709524D01*
X71952190Y-65919048D01*
X71952190Y-66076190D01*
X71899809Y-66285714D01*
X71847428Y-66390476D01*
X71742666Y-66495238D01*
X71585524Y-66547619D01*
X71480762Y-66547619D01*
X71323619Y-66495238D01*
X71271238Y-66442857D01*
X71271238Y-66076190D01*
X71480762Y-66076190D01*
X70799809Y-66442857D02*
X70747428Y-66495238D01*
X70799809Y-66547619D01*
X70852190Y-66495238D01*
X70799809Y-66442857D01*
X70799809Y-66547619D01*
X70799809Y-66128571D02*
X70852190Y-65500000D01*
X70799809Y-65447619D01*
X70747428Y-65500000D01*
X70799809Y-66128571D01*
X70799809Y-65447619D01*
X70275999Y-66442857D02*
X70223618Y-66495238D01*
X70275999Y-66547619D01*
X70328380Y-66495238D01*
X70275999Y-66442857D01*
X70275999Y-66547619D01*
X70275999Y-66128571D02*
X70328380Y-65500000D01*
X70275999Y-65447619D01*
X70223618Y-65500000D01*
X70275999Y-66128571D01*
X70275999Y-65447619D01*
X69752189Y-66442857D02*
X69699808Y-66495238D01*
X69752189Y-66547619D01*
X69804570Y-66495238D01*
X69752189Y-66442857D01*
X69752189Y-66547619D01*
X69752189Y-66128571D02*
X69804570Y-65500000D01*
X69752189Y-65447619D01*
X69699808Y-65500000D01*
X69752189Y-66128571D01*
X69752189Y-65447619D01*
X81616475Y-68342857D02*
X81668856Y-68395238D01*
X81825999Y-68447619D01*
X81930761Y-68447619D01*
X82087903Y-68395238D01*
X82192665Y-68290476D01*
X82245046Y-68185714D01*
X82297427Y-67976190D01*
X82297427Y-67819048D01*
X82245046Y-67609524D01*
X82192665Y-67504762D01*
X82087903Y-67400000D01*
X81930761Y-67347619D01*
X81825999Y-67347619D01*
X81668856Y-67400000D01*
X81616475Y-67452381D01*
X80987903Y-68447619D02*
X81092665Y-68395238D01*
X81145046Y-68342857D01*
X81197427Y-68238095D01*
X81197427Y-67923810D01*
X81145046Y-67819048D01*
X81092665Y-67766667D01*
X80987903Y-67714286D01*
X80830761Y-67714286D01*
X80725999Y-67766667D01*
X80673618Y-67819048D01*
X80621237Y-67923810D01*
X80621237Y-68238095D01*
X80673618Y-68342857D01*
X80725999Y-68395238D01*
X80830761Y-68447619D01*
X80987903Y-68447619D01*
X80149808Y-67714286D02*
X80149808Y-68447619D01*
X80149808Y-67819048D02*
X80097427Y-67766667D01*
X79992665Y-67714286D01*
X79835523Y-67714286D01*
X79730761Y-67766667D01*
X79678380Y-67871429D01*
X79678380Y-68447619D01*
X79154570Y-67714286D02*
X79154570Y-68447619D01*
X79154570Y-67819048D02*
X79102189Y-67766667D01*
X78997427Y-67714286D01*
X78840285Y-67714286D01*
X78735523Y-67766667D01*
X78683142Y-67871429D01*
X78683142Y-68447619D01*
X77740285Y-68395238D02*
X77845047Y-68447619D01*
X78054570Y-68447619D01*
X78159332Y-68395238D01*
X78211713Y-68290476D01*
X78211713Y-67871429D01*
X78159332Y-67766667D01*
X78054570Y-67714286D01*
X77845047Y-67714286D01*
X77740285Y-67766667D01*
X77687904Y-67871429D01*
X77687904Y-67976190D01*
X78211713Y-68080952D01*
X76745047Y-68395238D02*
X76849809Y-68447619D01*
X77059332Y-68447619D01*
X77164094Y-68395238D01*
X77216475Y-68342857D01*
X77268856Y-68238095D01*
X77268856Y-67923810D01*
X77216475Y-67819048D01*
X77164094Y-67766667D01*
X77059332Y-67714286D01*
X76849809Y-67714286D01*
X76745047Y-67766667D01*
X76430761Y-67714286D02*
X76011713Y-67714286D01*
X76273618Y-67347619D02*
X76273618Y-68290476D01*
X76221237Y-68395238D01*
X76116475Y-68447619D01*
X76011713Y-68447619D01*
X75645047Y-68447619D02*
X75645047Y-67714286D01*
X75645047Y-67347619D02*
X75697428Y-67400000D01*
X75645047Y-67452381D01*
X75592666Y-67400000D01*
X75645047Y-67347619D01*
X75645047Y-67452381D01*
X75121237Y-67714286D02*
X75121237Y-68447619D01*
X75121237Y-67819048D02*
X75068856Y-67766667D01*
X74964094Y-67714286D01*
X74806952Y-67714286D01*
X74702190Y-67766667D01*
X74649809Y-67871429D01*
X74649809Y-68447619D01*
X73654571Y-67714286D02*
X73654571Y-68604762D01*
X73706952Y-68709524D01*
X73759333Y-68761905D01*
X73864094Y-68814286D01*
X74021237Y-68814286D01*
X74125999Y-68761905D01*
X73654571Y-68395238D02*
X73759333Y-68447619D01*
X73968856Y-68447619D01*
X74073618Y-68395238D01*
X74125999Y-68342857D01*
X74178380Y-68238095D01*
X74178380Y-67923810D01*
X74125999Y-67819048D01*
X74073618Y-67766667D01*
X73968856Y-67714286D01*
X73759333Y-67714286D01*
X73654571Y-67766667D01*
X72292666Y-68447619D02*
X72292666Y-67347619D01*
X72292666Y-67766667D02*
X72187904Y-67714286D01*
X71978381Y-67714286D01*
X71873619Y-67766667D01*
X71821238Y-67819048D01*
X71768857Y-67923810D01*
X71768857Y-68238095D01*
X71821238Y-68342857D01*
X71873619Y-68395238D01*
X71978381Y-68447619D01*
X72187904Y-68447619D01*
X72292666Y-68395238D01*
X70826000Y-68447619D02*
X70826000Y-67871429D01*
X70878381Y-67766667D01*
X70983143Y-67714286D01*
X71192666Y-67714286D01*
X71297428Y-67766667D01*
X70826000Y-68395238D02*
X70930762Y-68447619D01*
X71192666Y-68447619D01*
X71297428Y-68395238D01*
X71349809Y-68290476D01*
X71349809Y-68185714D01*
X71297428Y-68080952D01*
X71192666Y-68028571D01*
X70930762Y-68028571D01*
X70826000Y-67976190D01*
X70459333Y-67714286D02*
X70040285Y-67714286D01*
X70302190Y-67347619D02*
X70302190Y-68290476D01*
X70249809Y-68395238D01*
X70145047Y-68447619D01*
X70040285Y-68447619D01*
X69830762Y-67714286D02*
X69411714Y-67714286D01*
X69673619Y-67347619D02*
X69673619Y-68290476D01*
X69621238Y-68395238D01*
X69516476Y-68447619D01*
X69411714Y-68447619D01*
X68626001Y-68395238D02*
X68730763Y-68447619D01*
X68940286Y-68447619D01*
X69045048Y-68395238D01*
X69097429Y-68290476D01*
X69097429Y-67871429D01*
X69045048Y-67766667D01*
X68940286Y-67714286D01*
X68730763Y-67714286D01*
X68626001Y-67766667D01*
X68573620Y-67871429D01*
X68573620Y-67976190D01*
X69097429Y-68080952D01*
X68102191Y-68447619D02*
X68102191Y-67714286D01*
X68102191Y-67923810D02*
X68049810Y-67819048D01*
X67997429Y-67766667D01*
X67892667Y-67714286D01*
X67787906Y-67714286D01*
X67526001Y-67714286D02*
X67264096Y-68447619D01*
X67002192Y-67714286D02*
X67264096Y-68447619D01*
X67368858Y-68709524D01*
X67421239Y-68761905D01*
X67526001Y-68814286D01*
X80673617Y-70347619D02*
X80673617Y-69614286D01*
X80673617Y-69247619D02*
X80725998Y-69300000D01*
X80673617Y-69352381D01*
X80621236Y-69300000D01*
X80673617Y-69247619D01*
X80673617Y-69352381D01*
X80149807Y-69614286D02*
X80149807Y-70347619D01*
X80149807Y-69719048D02*
X80097426Y-69666667D01*
X79992664Y-69614286D01*
X79835522Y-69614286D01*
X79730760Y-69666667D01*
X79678379Y-69771429D01*
X79678379Y-70347619D01*
X78683141Y-70295238D02*
X78787903Y-70347619D01*
X78997426Y-70347619D01*
X79102188Y-70295238D01*
X79154569Y-70242857D01*
X79206950Y-70138095D01*
X79206950Y-69823810D01*
X79154569Y-69719048D01*
X79102188Y-69666667D01*
X78997426Y-69614286D01*
X78787903Y-69614286D01*
X78683141Y-69666667D01*
X78054569Y-70347619D02*
X78159331Y-70295238D01*
X78211712Y-70242857D01*
X78264093Y-70138095D01*
X78264093Y-69823810D01*
X78211712Y-69719048D01*
X78159331Y-69666667D01*
X78054569Y-69614286D01*
X77897427Y-69614286D01*
X77792665Y-69666667D01*
X77740284Y-69719048D01*
X77687903Y-69823810D01*
X77687903Y-70138095D01*
X77740284Y-70242857D01*
X77792665Y-70295238D01*
X77897427Y-70347619D01*
X78054569Y-70347619D01*
X77216474Y-70347619D02*
X77216474Y-69614286D01*
X77216474Y-69823810D02*
X77164093Y-69719048D01*
X77111712Y-69666667D01*
X77006950Y-69614286D01*
X76902189Y-69614286D01*
X76535522Y-70347619D02*
X76535522Y-69614286D01*
X76535522Y-69823810D02*
X76483141Y-69719048D01*
X76430760Y-69666667D01*
X76325998Y-69614286D01*
X76221237Y-69614286D01*
X75435523Y-70295238D02*
X75540285Y-70347619D01*
X75749808Y-70347619D01*
X75854570Y-70295238D01*
X75906951Y-70190476D01*
X75906951Y-69771429D01*
X75854570Y-69666667D01*
X75749808Y-69614286D01*
X75540285Y-69614286D01*
X75435523Y-69666667D01*
X75383142Y-69771429D01*
X75383142Y-69876190D01*
X75906951Y-69980952D01*
X74440285Y-70295238D02*
X74545047Y-70347619D01*
X74754570Y-70347619D01*
X74859332Y-70295238D01*
X74911713Y-70242857D01*
X74964094Y-70138095D01*
X74964094Y-69823810D01*
X74911713Y-69719048D01*
X74859332Y-69666667D01*
X74754570Y-69614286D01*
X74545047Y-69614286D01*
X74440285Y-69666667D01*
X74125999Y-69614286D02*
X73706951Y-69614286D01*
X73968856Y-69247619D02*
X73968856Y-70190476D01*
X73916475Y-70295238D01*
X73811713Y-70347619D01*
X73706951Y-70347619D01*
X73183142Y-70347619D02*
X73287904Y-70295238D01*
X73340285Y-70190476D01*
X73340285Y-69247619D01*
X72868857Y-69614286D02*
X72606952Y-70347619D01*
X72345048Y-69614286D02*
X72606952Y-70347619D01*
X72711714Y-70609524D01*
X72764095Y-70661905D01*
X72868857Y-70714286D01*
X70616477Y-70295238D02*
X70721239Y-70347619D01*
X70930762Y-70347619D01*
X71035524Y-70295238D01*
X71087905Y-70242857D01*
X71140286Y-70138095D01*
X71140286Y-69823810D01*
X71087905Y-69719048D01*
X71035524Y-69666667D01*
X70930762Y-69614286D01*
X70721239Y-69614286D01*
X70616477Y-69666667D01*
X69673620Y-70347619D02*
X69673620Y-69771429D01*
X69726001Y-69666667D01*
X69830763Y-69614286D01*
X70040286Y-69614286D01*
X70145048Y-69666667D01*
X69673620Y-70295238D02*
X69778382Y-70347619D01*
X70040286Y-70347619D01*
X70145048Y-70295238D01*
X70197429Y-70190476D01*
X70197429Y-70085714D01*
X70145048Y-69980952D01*
X70040286Y-69928571D01*
X69778382Y-69928571D01*
X69673620Y-69876190D01*
X69149810Y-69614286D02*
X69149810Y-70347619D01*
X69149810Y-69719048D02*
X69097429Y-69666667D01*
X68992667Y-69614286D01*
X68835525Y-69614286D01*
X68730763Y-69666667D01*
X68678382Y-69771429D01*
X68678382Y-70347619D01*
X81066475Y-72195238D02*
X81171237Y-72247619D01*
X81380760Y-72247619D01*
X81485522Y-72195238D01*
X81537903Y-72142857D01*
X81590284Y-72038095D01*
X81590284Y-71723810D01*
X81537903Y-71619048D01*
X81485522Y-71566667D01*
X81380760Y-71514286D01*
X81171237Y-71514286D01*
X81066475Y-71566667D01*
X80123618Y-72247619D02*
X80123618Y-71671429D01*
X80175999Y-71566667D01*
X80280761Y-71514286D01*
X80490284Y-71514286D01*
X80595046Y-71566667D01*
X80123618Y-72195238D02*
X80228380Y-72247619D01*
X80490284Y-72247619D01*
X80595046Y-72195238D01*
X80647427Y-72090476D01*
X80647427Y-71985714D01*
X80595046Y-71880952D01*
X80490284Y-71828571D01*
X80228380Y-71828571D01*
X80123618Y-71776190D01*
X79128380Y-71514286D02*
X79128380Y-72247619D01*
X79599808Y-71514286D02*
X79599808Y-72090476D01*
X79547427Y-72195238D01*
X79442665Y-72247619D01*
X79285523Y-72247619D01*
X79180761Y-72195238D01*
X79128380Y-72142857D01*
X78656951Y-72195238D02*
X78552189Y-72247619D01*
X78342665Y-72247619D01*
X78237904Y-72195238D01*
X78185523Y-72090476D01*
X78185523Y-72038095D01*
X78237904Y-71933333D01*
X78342665Y-71880952D01*
X78499808Y-71880952D01*
X78604570Y-71828571D01*
X78656951Y-71723810D01*
X78656951Y-71671429D01*
X78604570Y-71566667D01*
X78499808Y-71514286D01*
X78342665Y-71514286D01*
X78237904Y-71566667D01*
X77295047Y-72195238D02*
X77399809Y-72247619D01*
X77609332Y-72247619D01*
X77714094Y-72195238D01*
X77766475Y-72090476D01*
X77766475Y-71671429D01*
X77714094Y-71566667D01*
X77609332Y-71514286D01*
X77399809Y-71514286D01*
X77295047Y-71566667D01*
X77242666Y-71671429D01*
X77242666Y-71776190D01*
X77766475Y-71880952D01*
X75933142Y-71514286D02*
X75933142Y-72614286D01*
X75933142Y-71566667D02*
X75828380Y-71514286D01*
X75618857Y-71514286D01*
X75514095Y-71566667D01*
X75461714Y-71619048D01*
X75409333Y-71723810D01*
X75409333Y-72038095D01*
X75461714Y-72142857D01*
X75514095Y-72195238D01*
X75618857Y-72247619D01*
X75828380Y-72247619D01*
X75933142Y-72195238D01*
X74518857Y-72195238D02*
X74623619Y-72247619D01*
X74833142Y-72247619D01*
X74937904Y-72195238D01*
X74990285Y-72090476D01*
X74990285Y-71671429D01*
X74937904Y-71566667D01*
X74833142Y-71514286D01*
X74623619Y-71514286D01*
X74518857Y-71566667D01*
X74466476Y-71671429D01*
X74466476Y-71776190D01*
X74990285Y-71880952D01*
X73995047Y-72247619D02*
X73995047Y-71514286D01*
X73995047Y-71723810D02*
X73942666Y-71619048D01*
X73890285Y-71566667D01*
X73785523Y-71514286D01*
X73680762Y-71514286D01*
X73314095Y-72247619D02*
X73314095Y-71514286D01*
X73314095Y-71619048D02*
X73261714Y-71566667D01*
X73156952Y-71514286D01*
X72999810Y-71514286D01*
X72895048Y-71566667D01*
X72842667Y-71671429D01*
X72842667Y-72247619D01*
X72842667Y-71671429D02*
X72790286Y-71566667D01*
X72685524Y-71514286D01*
X72528381Y-71514286D01*
X72423619Y-71566667D01*
X72371238Y-71671429D01*
X72371238Y-72247619D01*
X71376000Y-72247619D02*
X71376000Y-71671429D01*
X71428381Y-71566667D01*
X71533143Y-71514286D01*
X71742666Y-71514286D01*
X71847428Y-71566667D01*
X71376000Y-72195238D02*
X71480762Y-72247619D01*
X71742666Y-72247619D01*
X71847428Y-72195238D01*
X71899809Y-72090476D01*
X71899809Y-71985714D01*
X71847428Y-71880952D01*
X71742666Y-71828571D01*
X71480762Y-71828571D01*
X71376000Y-71776190D01*
X70852190Y-71514286D02*
X70852190Y-72247619D01*
X70852190Y-71619048D02*
X70799809Y-71566667D01*
X70695047Y-71514286D01*
X70537905Y-71514286D01*
X70433143Y-71566667D01*
X70380762Y-71671429D01*
X70380762Y-72247619D01*
X69437905Y-72195238D02*
X69542667Y-72247619D01*
X69752190Y-72247619D01*
X69856952Y-72195238D01*
X69909333Y-72090476D01*
X69909333Y-71671429D01*
X69856952Y-71566667D01*
X69752190Y-71514286D01*
X69542667Y-71514286D01*
X69437905Y-71566667D01*
X69385524Y-71671429D01*
X69385524Y-71776190D01*
X69909333Y-71880952D01*
X68914095Y-71514286D02*
X68914095Y-72247619D01*
X68914095Y-71619048D02*
X68861714Y-71566667D01*
X68756952Y-71514286D01*
X68599810Y-71514286D01*
X68495048Y-71566667D01*
X68442667Y-71671429D01*
X68442667Y-72247619D01*
X68076000Y-71514286D02*
X67656952Y-71514286D01*
X67918857Y-71147619D02*
X67918857Y-72090476D01*
X67866476Y-72195238D01*
X67761714Y-72247619D01*
X67656952Y-72247619D01*
X77399810Y-74147619D02*
X77399810Y-73047619D01*
X77399810Y-74095238D02*
X77504572Y-74147619D01*
X77714095Y-74147619D01*
X77818857Y-74095238D01*
X77871238Y-74042857D01*
X77923619Y-73938095D01*
X77923619Y-73623810D01*
X77871238Y-73519048D01*
X77818857Y-73466667D01*
X77714095Y-73414286D01*
X77504572Y-73414286D01*
X77399810Y-73466667D01*
X76404572Y-74147619D02*
X76404572Y-73571429D01*
X76456953Y-73466667D01*
X76561715Y-73414286D01*
X76771238Y-73414286D01*
X76876000Y-73466667D01*
X76404572Y-74095238D02*
X76509334Y-74147619D01*
X76771238Y-74147619D01*
X76876000Y-74095238D01*
X76928381Y-73990476D01*
X76928381Y-73885714D01*
X76876000Y-73780952D01*
X76771238Y-73728571D01*
X76509334Y-73728571D01*
X76404572Y-73676190D01*
X75880762Y-74147619D02*
X75880762Y-73414286D01*
X75880762Y-73519048D02*
X75828381Y-73466667D01*
X75723619Y-73414286D01*
X75566477Y-73414286D01*
X75461715Y-73466667D01*
X75409334Y-73571429D01*
X75409334Y-74147619D01*
X75409334Y-73571429D02*
X75356953Y-73466667D01*
X75252191Y-73414286D01*
X75095048Y-73414286D01*
X74990286Y-73466667D01*
X74937905Y-73571429D01*
X74937905Y-74147619D01*
X73942667Y-74147619D02*
X73942667Y-73571429D01*
X73995048Y-73466667D01*
X74099810Y-73414286D01*
X74309333Y-73414286D01*
X74414095Y-73466667D01*
X73942667Y-74095238D02*
X74047429Y-74147619D01*
X74309333Y-74147619D01*
X74414095Y-74095238D01*
X74466476Y-73990476D01*
X74466476Y-73885714D01*
X74414095Y-73780952D01*
X74309333Y-73728571D01*
X74047429Y-73728571D01*
X73942667Y-73676190D01*
X72947429Y-73414286D02*
X72947429Y-74304762D01*
X72999810Y-74409524D01*
X73052191Y-74461905D01*
X73156952Y-74514286D01*
X73314095Y-74514286D01*
X73418857Y-74461905D01*
X72947429Y-74095238D02*
X73052191Y-74147619D01*
X73261714Y-74147619D01*
X73366476Y-74095238D01*
X73418857Y-74042857D01*
X73471238Y-73938095D01*
X73471238Y-73623810D01*
X73418857Y-73519048D01*
X73366476Y-73466667D01*
X73261714Y-73414286D01*
X73052191Y-73414286D01*
X72947429Y-73466667D01*
X72004572Y-74095238D02*
X72109334Y-74147619D01*
X72318857Y-74147619D01*
X72423619Y-74095238D01*
X72476000Y-73990476D01*
X72476000Y-73571429D01*
X72423619Y-73466667D01*
X72318857Y-73414286D01*
X72109334Y-73414286D01*
X72004572Y-73466667D01*
X71952191Y-73571429D01*
X71952191Y-73676190D01*
X72476000Y-73780952D01*
X71480762Y-74042857D02*
X71428381Y-74095238D01*
X71480762Y-74147619D01*
X71533143Y-74095238D01*
X71480762Y-74042857D01*
X71480762Y-74147619D01*
X71480762Y-73728571D02*
X71533143Y-73100000D01*
X71480762Y-73047619D01*
X71428381Y-73100000D01*
X71480762Y-73728571D01*
X71480762Y-73047619D01*
D11*
X56134000Y-43942000D02*
X55880000Y-43688000D01*
X56388000Y-43942000D02*
X56134000Y-43942000D01*
X56134000Y-43688000D02*
X56388000Y-43942000D01*
X56388000Y-43434000D02*
X56134000Y-43688000D01*
X56896000Y-43942000D02*
X56388000Y-43434000D01*
X56642000Y-43942000D02*
X56896000Y-43942000D01*
X56134000Y-43434000D02*
X56642000Y-43942000D01*
X56388000Y-43180000D02*
X56134000Y-43434000D01*
X57150000Y-43942000D02*
X56388000Y-43180000D01*
X57404000Y-43942000D02*
X57150000Y-43942000D01*
X56642000Y-43180000D02*
X57404000Y-43942000D01*
X56896000Y-42926000D02*
X56642000Y-43180000D01*
X57912000Y-43942000D02*
X56896000Y-42926000D01*
X57658000Y-43942000D02*
X57912000Y-43942000D01*
X56642000Y-42926000D02*
X57658000Y-43942000D01*
X56896000Y-42672000D02*
X56642000Y-42926000D01*
X58166000Y-43942000D02*
X56896000Y-42672000D01*
X55626000Y-43942000D02*
X58166000Y-43942000D01*
X56896000Y-42672000D02*
X55626000Y-43942000D01*
D13*
X55121714Y-44295143D02*
X54907428Y-44366571D01*
X54550285Y-44366571D01*
X54407428Y-44295143D01*
X54335999Y-44223714D01*
X54264571Y-44080857D01*
X54264571Y-43938000D01*
X54335999Y-43795143D01*
X54407428Y-43723714D01*
X54550285Y-43652286D01*
X54835999Y-43580857D01*
X54978857Y-43509429D01*
X55050285Y-43438000D01*
X55121714Y-43295143D01*
X55121714Y-43152286D01*
X55050285Y-43009429D01*
X54978857Y-42938000D01*
X54835999Y-42866571D01*
X54478857Y-42866571D01*
X54264571Y-42938000D01*
X53764571Y-42866571D02*
X53407428Y-44366571D01*
X53121714Y-43295143D01*
X52836000Y-44366571D01*
X52478857Y-42866571D01*
X51907428Y-44366571D02*
X51907428Y-42866571D01*
X51550285Y-42866571D01*
X51336000Y-42938000D01*
X51193142Y-43080857D01*
X51121714Y-43223714D01*
X51050285Y-43509429D01*
X51050285Y-43723714D01*
X51121714Y-44009429D01*
X51193142Y-44152286D01*
X51336000Y-44295143D01*
X51550285Y-44366571D01*
X51907428Y-44366571D01*
X59007143Y-47748000D02*
X58292857Y-47748000D01*
X59150000Y-48176571D02*
X58650000Y-46676571D01*
X58150000Y-48176571D01*
X57650000Y-46676571D02*
X57650000Y-47890857D01*
X57578572Y-48033714D01*
X57507143Y-48105143D01*
X57364286Y-48176571D01*
X57078572Y-48176571D01*
X56935714Y-48105143D01*
X56864286Y-48033714D01*
X56792857Y-47890857D01*
X56792857Y-46676571D01*
X56221428Y-46676571D02*
X55221428Y-48176571D01*
X55221428Y-46676571D02*
X56221428Y-48176571D01*
D11*
X75692000Y-42926000D02*
X76200000Y-43434000D01*
X75692000Y-42926000D02*
X75184000Y-43434000D01*
X75692000Y-45466000D02*
X75692000Y-42926000D01*
X74168000Y-46990000D02*
X75692000Y-45466000D01*
D13*
X72528285Y-48176571D02*
X73028285Y-47462286D01*
X73385428Y-48176571D02*
X73385428Y-46676571D01*
X72814000Y-46676571D01*
X72671142Y-46748000D01*
X72599714Y-46819429D01*
X72528285Y-46962286D01*
X72528285Y-47176571D01*
X72599714Y-47319429D01*
X72671142Y-47390857D01*
X72814000Y-47462286D01*
X73385428Y-47462286D01*
X72028285Y-46676571D02*
X71028285Y-48176571D01*
X71028285Y-46676571D02*
X72028285Y-48176571D01*
X69528286Y-46676571D02*
X68671143Y-46676571D01*
X69099714Y-48176571D02*
X69099714Y-46676571D01*
X68314000Y-46676571D02*
X67314000Y-48176571D01*
X67314000Y-46676571D02*
X68314000Y-48176571D01*
X64814001Y-46748000D02*
X64956858Y-46676571D01*
X65171144Y-46676571D01*
X65385429Y-46748000D01*
X65528287Y-46890857D01*
X65599715Y-47033714D01*
X65671144Y-47319429D01*
X65671144Y-47533714D01*
X65599715Y-47819429D01*
X65528287Y-47962286D01*
X65385429Y-48105143D01*
X65171144Y-48176571D01*
X65028287Y-48176571D01*
X64814001Y-48105143D01*
X64742572Y-48033714D01*
X64742572Y-47533714D01*
X65028287Y-47533714D01*
X64099715Y-48176571D02*
X64099715Y-46676571D01*
X63242572Y-48176571D01*
X63242572Y-46676571D01*
X62528286Y-48176571D02*
X62528286Y-46676571D01*
X62171143Y-46676571D01*
X61956858Y-46748000D01*
X61814000Y-46890857D01*
X61742572Y-47033714D01*
X61671143Y-47319429D01*
X61671143Y-47533714D01*
X61742572Y-47819429D01*
X61814000Y-47962286D01*
X61956858Y-48105143D01*
X62171143Y-48176571D01*
X62528286Y-48176571D01*
X79172000Y-76346857D02*
X78957714Y-76418286D01*
X78886286Y-76489714D01*
X78814857Y-76632571D01*
X78814857Y-76846857D01*
X78886286Y-76989714D01*
X78957714Y-77061143D01*
X79100572Y-77132571D01*
X79672000Y-77132571D01*
X79672000Y-75632571D01*
X79172000Y-75632571D01*
X79029143Y-75704000D01*
X78957714Y-75775429D01*
X78886286Y-75918286D01*
X78886286Y-76061143D01*
X78957714Y-76204000D01*
X79029143Y-76275429D01*
X79172000Y-76346857D01*
X79672000Y-76346857D01*
X78243429Y-76704000D02*
X77529143Y-76704000D01*
X78386286Y-77132571D02*
X77886286Y-75632571D01*
X77386286Y-77132571D01*
X76172000Y-77132571D02*
X76886286Y-77132571D01*
X76886286Y-75632571D01*
X75743429Y-76704000D02*
X75029143Y-76704000D01*
X75886286Y-77132571D02*
X75386286Y-75632571D01*
X74886286Y-77132571D01*
X74386286Y-77132571D02*
X74386286Y-75632571D01*
X73529143Y-77132571D01*
X73529143Y-75632571D01*
X71957714Y-76989714D02*
X72029143Y-77061143D01*
X72243429Y-77132571D01*
X72386286Y-77132571D01*
X72600571Y-77061143D01*
X72743429Y-76918286D01*
X72814857Y-76775429D01*
X72886286Y-76489714D01*
X72886286Y-76275429D01*
X72814857Y-75989714D01*
X72743429Y-75846857D01*
X72600571Y-75704000D01*
X72386286Y-75632571D01*
X72243429Y-75632571D01*
X72029143Y-75704000D01*
X71957714Y-75775429D01*
X71314857Y-76346857D02*
X70814857Y-76346857D01*
X70600571Y-77132571D02*
X71314857Y-77132571D01*
X71314857Y-75632571D01*
X70600571Y-75632571D01*
X69100571Y-77132571D02*
X69600571Y-76418286D01*
X69957714Y-77132571D02*
X69957714Y-75632571D01*
X69386286Y-75632571D01*
X69243428Y-75704000D01*
X69172000Y-75775429D01*
X69100571Y-75918286D01*
X69100571Y-76132571D01*
X69172000Y-76275429D01*
X69243428Y-76346857D01*
X69386286Y-76418286D01*
X69957714Y-76418286D01*
X99384284Y-76561143D02*
X98241427Y-76561143D01*
X95598570Y-77132571D02*
X96455713Y-77132571D01*
X96027141Y-77132571D02*
X96027141Y-75632571D01*
X96169998Y-75846857D01*
X96312856Y-75989714D01*
X96455713Y-76061143D01*
X93884285Y-75775429D02*
X93812856Y-75704000D01*
X93669999Y-75632571D01*
X93312856Y-75632571D01*
X93169999Y-75704000D01*
X93098570Y-75775429D01*
X93027142Y-75918286D01*
X93027142Y-76061143D01*
X93098570Y-76275429D01*
X93955713Y-77132571D01*
X93027142Y-77132571D01*
X91384285Y-75632571D02*
X90455714Y-75632571D01*
X90955714Y-76204000D01*
X90741428Y-76204000D01*
X90598571Y-76275429D01*
X90527142Y-76346857D01*
X90455714Y-76489714D01*
X90455714Y-76846857D01*
X90527142Y-76989714D01*
X90598571Y-77061143D01*
X90741428Y-77132571D01*
X91170000Y-77132571D01*
X91312857Y-77061143D01*
X91384285Y-76989714D01*
X88027143Y-76132571D02*
X88027143Y-77132571D01*
X88384286Y-75561143D02*
X88741429Y-76632571D01*
X87812857Y-76632571D01*
X85384286Y-75632571D02*
X86098572Y-75632571D01*
X86170001Y-76346857D01*
X86098572Y-76275429D01*
X85955715Y-76204000D01*
X85598572Y-76204000D01*
X85455715Y-76275429D01*
X85384286Y-76346857D01*
X85312858Y-76489714D01*
X85312858Y-76846857D01*
X85384286Y-76989714D01*
X85455715Y-77061143D01*
X85598572Y-77132571D01*
X85955715Y-77132571D01*
X86098572Y-77061143D01*
X86170001Y-76989714D01*
X82884287Y-75632571D02*
X83170001Y-75632571D01*
X83312858Y-75704000D01*
X83384287Y-75775429D01*
X83527144Y-75989714D01*
X83598573Y-76275429D01*
X83598573Y-76846857D01*
X83527144Y-76989714D01*
X83455716Y-77061143D01*
X83312858Y-77132571D01*
X83027144Y-77132571D01*
X82884287Y-77061143D01*
X82812858Y-76989714D01*
X82741430Y-76846857D01*
X82741430Y-76489714D01*
X82812858Y-76346857D01*
X82884287Y-76275429D01*
X83027144Y-76204000D01*
X83312858Y-76204000D01*
X83455716Y-76275429D01*
X83527144Y-76346857D01*
X83598573Y-76489714D01*
X82098573Y-76561143D02*
X80955716Y-76561143D01*
X81527145Y-77132571D02*
X81527145Y-75989714D01*
X52807715Y-74108571D02*
X52522001Y-74108571D01*
X52379143Y-74180000D01*
X52236286Y-74322857D01*
X52164858Y-74608571D01*
X52164858Y-75108571D01*
X52236286Y-75394286D01*
X52379143Y-75537143D01*
X52522001Y-75608571D01*
X52807715Y-75608571D01*
X52950572Y-75537143D01*
X53093429Y-75394286D01*
X53164858Y-75108571D01*
X53164858Y-74608571D01*
X53093429Y-74322857D01*
X52950572Y-74180000D01*
X52807715Y-74108571D01*
X51522000Y-74108571D02*
X51522000Y-75322857D01*
X51450572Y-75465714D01*
X51379143Y-75537143D01*
X51236286Y-75608571D01*
X50950572Y-75608571D01*
X50807714Y-75537143D01*
X50736286Y-75465714D01*
X50664857Y-75322857D01*
X50664857Y-74108571D01*
X50164857Y-74108571D02*
X49307714Y-74108571D01*
X49736285Y-75608571D02*
X49736285Y-74108571D01*
X46522000Y-75608571D02*
X46522000Y-74108571D01*
X45807714Y-75608571D02*
X45807714Y-74108571D01*
X44950571Y-75608571D01*
X44950571Y-74108571D01*
D14*
X98714000Y-47910000D02*
X98714000Y-48610000D01*
X99914000Y-48610000D02*
X99914000Y-47910000D01*
X101184000Y-48610000D02*
X101184000Y-47910000D01*
X99984000Y-47910000D02*
X99984000Y-48610000D01*
X96174000Y-47910000D02*
X96174000Y-48610000D01*
X97374000Y-48610000D02*
X97374000Y-47910000D01*
X96104000Y-48610000D02*
X96104000Y-47910000D01*
X94904000Y-47910000D02*
X94904000Y-48610000D01*
X97374000Y-53690000D02*
X97374000Y-52990000D01*
X96174000Y-52990000D02*
X96174000Y-53690000D01*
X94904000Y-52990000D02*
X94904000Y-53690000D01*
X96104000Y-53690000D02*
X96104000Y-52990000D01*
X99914000Y-53690000D02*
X99914000Y-52990000D01*
X98714000Y-52990000D02*
X98714000Y-53690000D01*
X99984000Y-52990000D02*
X99984000Y-53690000D01*
X101184000Y-53690000D02*
X101184000Y-52990000D01*
X83982000Y-47910000D02*
X83982000Y-48610000D01*
X85182000Y-48610000D02*
X85182000Y-47910000D01*
X86452000Y-48610000D02*
X86452000Y-47910000D01*
X85252000Y-47910000D02*
X85252000Y-48610000D01*
X81442000Y-47910000D02*
X81442000Y-48610000D01*
X82642000Y-48610000D02*
X82642000Y-47910000D01*
X81372000Y-48610000D02*
X81372000Y-47910000D01*
X80172000Y-47910000D02*
X80172000Y-48610000D01*
X98394000Y-50835000D02*
X97694000Y-50835000D01*
X97694000Y-52035000D02*
X98394000Y-52035000D01*
X81630000Y-51470000D02*
X80930000Y-51470000D01*
X80930000Y-52670000D02*
X81630000Y-52670000D01*
X97694000Y-50765000D02*
X98394000Y-50765000D01*
X98394000Y-49565000D02*
X97694000Y-49565000D01*
X80930000Y-51146000D02*
X81630000Y-51146000D01*
X81630000Y-49946000D02*
X80930000Y-49946000D01*
X102708000Y-48610000D02*
X102708000Y-47910000D01*
X101508000Y-47910000D02*
X101508000Y-48610000D01*
X94580000Y-48610000D02*
X94580000Y-47910000D01*
X93380000Y-47910000D02*
X93380000Y-48610000D01*
X93380000Y-52990000D02*
X93380000Y-53690000D01*
X94580000Y-53690000D02*
X94580000Y-52990000D01*
X101508000Y-52990000D02*
X101508000Y-53690000D01*
X102708000Y-53690000D02*
X102708000Y-52990000D01*
X87976000Y-48610000D02*
X87976000Y-47910000D01*
X86776000Y-47910000D02*
X86776000Y-48610000D01*
X79848000Y-48610000D02*
X79848000Y-47910000D01*
X78648000Y-47910000D02*
X78648000Y-48610000D01*
X71089000Y-61630000D02*
X70389000Y-61630000D01*
X70389000Y-62830000D02*
X71089000Y-62830000D01*
X71089000Y-60233000D02*
X70389000Y-60233000D01*
X70389000Y-61433000D02*
X71089000Y-61433000D01*
X64358000Y-59852000D02*
X63658000Y-59852000D01*
X63658000Y-61052000D02*
X64358000Y-61052000D01*
X63658000Y-59528000D02*
X64358000Y-59528000D01*
X64358000Y-58328000D02*
X63658000Y-58328000D01*
X90408000Y-52860000D02*
X90408000Y-57160000D01*
X90408000Y-57160000D02*
X88408000Y-57160000D01*
X88408000Y-57160000D02*
X88408000Y-52860000D01*
X103140000Y-48740000D02*
X103140000Y-44440000D01*
X103140000Y-44440000D02*
X105140000Y-44440000D01*
X105140000Y-44440000D02*
X105140000Y-48740000D01*
X90948000Y-48740000D02*
X90948000Y-44440000D01*
X90948000Y-44440000D02*
X92948000Y-44440000D01*
X92948000Y-44440000D02*
X92948000Y-48740000D01*
X92948000Y-52860000D02*
X92948000Y-57160000D01*
X92948000Y-57160000D02*
X90948000Y-57160000D01*
X90948000Y-57160000D02*
X90948000Y-52860000D01*
X105140000Y-52860000D02*
X105140000Y-57160000D01*
X105140000Y-57160000D02*
X103140000Y-57160000D01*
X103140000Y-57160000D02*
X103140000Y-52860000D01*
X88408000Y-48740000D02*
X88408000Y-44440000D01*
X88408000Y-44440000D02*
X90408000Y-44440000D01*
X90408000Y-44440000D02*
X90408000Y-48740000D01*
X76216000Y-48740000D02*
X76216000Y-44440000D01*
X76216000Y-44440000D02*
X78216000Y-44440000D01*
X78216000Y-44440000D02*
X78216000Y-48740000D01*
X72192000Y-44829000D02*
X71262000Y-44829000D01*
X69032000Y-44829000D02*
X69962000Y-44829000D01*
X69032000Y-44829000D02*
X69032000Y-42669000D01*
X72192000Y-44829000D02*
X72192000Y-43369000D01*
X68509000Y-44829000D02*
X67579000Y-44829000D01*
X65349000Y-44829000D02*
X66279000Y-44829000D01*
X65349000Y-44829000D02*
X65349000Y-42669000D01*
X68509000Y-44829000D02*
X68509000Y-43369000D01*
X84780000Y-54358000D02*
X85710000Y-54358000D01*
X87940000Y-54358000D02*
X87010000Y-54358000D01*
X87940000Y-54358000D02*
X87940000Y-56518000D01*
X84780000Y-54358000D02*
X84780000Y-55818000D01*
X85600000Y-53142000D02*
X85600000Y-52212000D01*
X85600000Y-49982000D02*
X85600000Y-50912000D01*
X85600000Y-49982000D02*
X87760000Y-49982000D01*
X85600000Y-53142000D02*
X87060000Y-53142000D01*
X85844000Y-62058000D02*
X84844000Y-62058000D01*
X84844000Y-63418000D02*
X85844000Y-63418000D01*
X88384000Y-62058000D02*
X87384000Y-62058000D01*
X87384000Y-63418000D02*
X88384000Y-63418000D01*
X90924000Y-62058000D02*
X89924000Y-62058000D01*
X89924000Y-63418000D02*
X90924000Y-63418000D01*
X93464000Y-62058000D02*
X92464000Y-62058000D01*
X92464000Y-63418000D02*
X93464000Y-63418000D01*
X96512000Y-62058000D02*
X95512000Y-62058000D01*
X95512000Y-63418000D02*
X96512000Y-63418000D01*
X99052000Y-62058000D02*
X98052000Y-62058000D01*
X98052000Y-63418000D02*
X99052000Y-63418000D01*
X99994000Y-45966000D02*
X99994000Y-44966000D01*
X98634000Y-44966000D02*
X98634000Y-45966000D01*
X97454000Y-45966000D02*
X97454000Y-44966000D01*
X96094000Y-44966000D02*
X96094000Y-45966000D01*
X96094000Y-55634000D02*
X96094000Y-56634000D01*
X97454000Y-56634000D02*
X97454000Y-55634000D01*
X98380000Y-55634000D02*
X98380000Y-56634000D01*
X99740000Y-56634000D02*
X99740000Y-55634000D01*
X85262000Y-45966000D02*
X85262000Y-44966000D01*
X83902000Y-44966000D02*
X83902000Y-45966000D01*
X82722000Y-45966000D02*
X82722000Y-44966000D01*
X81362000Y-44966000D02*
X81362000Y-45966000D01*
X101264000Y-45966000D02*
X101264000Y-44966000D01*
X99904000Y-44966000D02*
X99904000Y-45966000D01*
X96184000Y-45966000D02*
X96184000Y-44966000D01*
X94824000Y-44966000D02*
X94824000Y-45966000D01*
X94570000Y-55634000D02*
X94570000Y-56634000D01*
X95930000Y-56634000D02*
X95930000Y-55634000D01*
X99904000Y-55634000D02*
X99904000Y-56634000D01*
X101264000Y-56634000D02*
X101264000Y-55634000D01*
X86786000Y-45966000D02*
X86786000Y-44966000D01*
X85426000Y-44966000D02*
X85426000Y-45966000D01*
X81452000Y-45966000D02*
X81452000Y-44966000D01*
X80092000Y-44966000D02*
X80092000Y-45966000D01*
X101428000Y-44966000D02*
X101428000Y-45966000D01*
X102788000Y-45966000D02*
X102788000Y-44966000D01*
X93300000Y-44966000D02*
X93300000Y-45966000D01*
X94660000Y-45966000D02*
X94660000Y-44966000D01*
X94660000Y-56634000D02*
X94660000Y-55634000D01*
X93300000Y-55634000D02*
X93300000Y-56634000D01*
X102788000Y-56634000D02*
X102788000Y-55634000D01*
X101428000Y-55634000D02*
X101428000Y-56634000D01*
X86696000Y-44966000D02*
X86696000Y-45966000D01*
X88056000Y-45966000D02*
X88056000Y-44966000D01*
X78568000Y-44966000D02*
X78568000Y-45966000D01*
X79928000Y-45966000D02*
X79928000Y-44966000D01*
X68064000Y-48977000D02*
X67064000Y-48977000D01*
X67064000Y-50337000D02*
X68064000Y-50337000D01*
X52152000Y-52332000D02*
X52152000Y-53332000D01*
X53512000Y-53332000D02*
X53512000Y-52332000D01*
X73287000Y-43733000D02*
X74287000Y-43733000D01*
X74287000Y-42373000D02*
X73287000Y-42373000D01*
X83627000Y-65291000D02*
X84027000Y-65291000D01*
X84027000Y-65291000D02*
X84027000Y-63891000D01*
X83627000Y-65291000D02*
X83627000Y-70091000D01*
X94427000Y-65291000D02*
X94427000Y-70091000D01*
X94676000Y-65291000D02*
X95076000Y-65291000D01*
X95076000Y-65291000D02*
X95076000Y-63891000D01*
X94676000Y-65291000D02*
X94676000Y-70091000D01*
X105476000Y-65291000D02*
X105476000Y-70091000D01*
X63108000Y-61382000D02*
X64908000Y-61382000D01*
X64908000Y-64602000D02*
X62458000Y-64602000D01*
X61890000Y-70496000D02*
X61890000Y-68696000D01*
X65110000Y-68696000D02*
X65110000Y-71146000D01*
D15*
X99671143Y-42251334D02*
X99718762Y-42203715D01*
X99766381Y-42060858D01*
X99766381Y-41965620D01*
X99718762Y-41822762D01*
X99623524Y-41727524D01*
X99528286Y-41679905D01*
X99337810Y-41632286D01*
X99194952Y-41632286D01*
X99004476Y-41679905D01*
X98909238Y-41727524D01*
X98814000Y-41822762D01*
X98766381Y-41965620D01*
X98766381Y-42060858D01*
X98814000Y-42203715D01*
X98861619Y-42251334D01*
X99766381Y-43203715D02*
X99766381Y-42632286D01*
X99766381Y-42918000D02*
X98766381Y-42918000D01*
X98909238Y-42822762D01*
X99004476Y-42727524D01*
X99052095Y-42632286D01*
X100941143Y-42251334D02*
X100988762Y-42203715D01*
X101036381Y-42060858D01*
X101036381Y-41965620D01*
X100988762Y-41822762D01*
X100893524Y-41727524D01*
X100798286Y-41679905D01*
X100607810Y-41632286D01*
X100464952Y-41632286D01*
X100274476Y-41679905D01*
X100179238Y-41727524D01*
X100084000Y-41822762D01*
X100036381Y-41965620D01*
X100036381Y-42060858D01*
X100084000Y-42203715D01*
X100131619Y-42251334D01*
X100131619Y-42632286D02*
X100084000Y-42679905D01*
X100036381Y-42775143D01*
X100036381Y-43013239D01*
X100084000Y-43108477D01*
X100131619Y-43156096D01*
X100226857Y-43203715D01*
X100322095Y-43203715D01*
X100464952Y-43156096D01*
X101036381Y-42584667D01*
X101036381Y-43203715D01*
X97385143Y-42251334D02*
X97432762Y-42203715D01*
X97480381Y-42060858D01*
X97480381Y-41965620D01*
X97432762Y-41822762D01*
X97337524Y-41727524D01*
X97242286Y-41679905D01*
X97051810Y-41632286D01*
X96908952Y-41632286D01*
X96718476Y-41679905D01*
X96623238Y-41727524D01*
X96528000Y-41822762D01*
X96480381Y-41965620D01*
X96480381Y-42060858D01*
X96528000Y-42203715D01*
X96575619Y-42251334D01*
X96480381Y-42584667D02*
X96480381Y-43203715D01*
X96861333Y-42870381D01*
X96861333Y-43013239D01*
X96908952Y-43108477D01*
X96956571Y-43156096D01*
X97051810Y-43203715D01*
X97289905Y-43203715D01*
X97385143Y-43156096D01*
X97432762Y-43108477D01*
X97480381Y-43013239D01*
X97480381Y-42727524D01*
X97432762Y-42632286D01*
X97385143Y-42584667D01*
X95861143Y-42251334D02*
X95908762Y-42203715D01*
X95956381Y-42060858D01*
X95956381Y-41965620D01*
X95908762Y-41822762D01*
X95813524Y-41727524D01*
X95718286Y-41679905D01*
X95527810Y-41632286D01*
X95384952Y-41632286D01*
X95194476Y-41679905D01*
X95099238Y-41727524D01*
X95004000Y-41822762D01*
X94956381Y-41965620D01*
X94956381Y-42060858D01*
X95004000Y-42203715D01*
X95051619Y-42251334D01*
X95289714Y-43108477D02*
X95956381Y-43108477D01*
X94908762Y-42870381D02*
X95623048Y-42632286D01*
X95623048Y-43251334D01*
X92114666Y-61317143D02*
X92162285Y-61364762D01*
X92305142Y-61412381D01*
X92400380Y-61412381D01*
X92543238Y-61364762D01*
X92638476Y-61269524D01*
X92686095Y-61174286D01*
X92733714Y-60983810D01*
X92733714Y-60840952D01*
X92686095Y-60650476D01*
X92638476Y-60555238D01*
X92543238Y-60460000D01*
X92400380Y-60412381D01*
X92305142Y-60412381D01*
X92162285Y-60460000D01*
X92114666Y-60507619D01*
X91209904Y-60412381D02*
X91686095Y-60412381D01*
X91733714Y-60888571D01*
X91686095Y-60840952D01*
X91590857Y-60793333D01*
X91352761Y-60793333D01*
X91257523Y-60840952D01*
X91209904Y-60888571D01*
X91162285Y-60983810D01*
X91162285Y-61221905D01*
X91209904Y-61317143D01*
X91257523Y-61364762D01*
X91352761Y-61412381D01*
X91590857Y-61412381D01*
X91686095Y-61364762D01*
X91733714Y-61317143D01*
X92114666Y-59793143D02*
X92162285Y-59840762D01*
X92305142Y-59888381D01*
X92400380Y-59888381D01*
X92543238Y-59840762D01*
X92638476Y-59745524D01*
X92686095Y-59650286D01*
X92733714Y-59459810D01*
X92733714Y-59316952D01*
X92686095Y-59126476D01*
X92638476Y-59031238D01*
X92543238Y-58936000D01*
X92400380Y-58888381D01*
X92305142Y-58888381D01*
X92162285Y-58936000D01*
X92114666Y-58983619D01*
X91257523Y-58888381D02*
X91448000Y-58888381D01*
X91543238Y-58936000D01*
X91590857Y-58983619D01*
X91686095Y-59126476D01*
X91733714Y-59316952D01*
X91733714Y-59697905D01*
X91686095Y-59793143D01*
X91638476Y-59840762D01*
X91543238Y-59888381D01*
X91352761Y-59888381D01*
X91257523Y-59840762D01*
X91209904Y-59793143D01*
X91162285Y-59697905D01*
X91162285Y-59459810D01*
X91209904Y-59364571D01*
X91257523Y-59316952D01*
X91352761Y-59269333D01*
X91543238Y-59269333D01*
X91638476Y-59316952D01*
X91686095Y-59364571D01*
X91733714Y-59459810D01*
X98972666Y-58523143D02*
X99020285Y-58570762D01*
X99163142Y-58618381D01*
X99258380Y-58618381D01*
X99401238Y-58570762D01*
X99496476Y-58475524D01*
X99544095Y-58380286D01*
X99591714Y-58189810D01*
X99591714Y-58046952D01*
X99544095Y-57856476D01*
X99496476Y-57761238D01*
X99401238Y-57666000D01*
X99258380Y-57618381D01*
X99163142Y-57618381D01*
X99020285Y-57666000D01*
X98972666Y-57713619D01*
X98639333Y-57618381D02*
X97972666Y-57618381D01*
X98401238Y-58618381D01*
X100941143Y-57999334D02*
X100988762Y-57951715D01*
X101036381Y-57808858D01*
X101036381Y-57713620D01*
X100988762Y-57570762D01*
X100893524Y-57475524D01*
X100798286Y-57427905D01*
X100607810Y-57380286D01*
X100464952Y-57380286D01*
X100274476Y-57427905D01*
X100179238Y-57475524D01*
X100084000Y-57570762D01*
X100036381Y-57713620D01*
X100036381Y-57808858D01*
X100084000Y-57951715D01*
X100131619Y-57999334D01*
X100464952Y-58570762D02*
X100417333Y-58475524D01*
X100369714Y-58427905D01*
X100274476Y-58380286D01*
X100226857Y-58380286D01*
X100131619Y-58427905D01*
X100084000Y-58475524D01*
X100036381Y-58570762D01*
X100036381Y-58761239D01*
X100084000Y-58856477D01*
X100131619Y-58904096D01*
X100226857Y-58951715D01*
X100274476Y-58951715D01*
X100369714Y-58904096D01*
X100417333Y-58856477D01*
X100464952Y-58761239D01*
X100464952Y-58570762D01*
X100512571Y-58475524D01*
X100560190Y-58427905D01*
X100655429Y-58380286D01*
X100845905Y-58380286D01*
X100941143Y-58427905D01*
X100988762Y-58475524D01*
X101036381Y-58570762D01*
X101036381Y-58761239D01*
X100988762Y-58856477D01*
X100941143Y-58904096D01*
X100845905Y-58951715D01*
X100655429Y-58951715D01*
X100560190Y-58904096D01*
X100512571Y-58856477D01*
X100464952Y-58761239D01*
X84939143Y-42251334D02*
X84986762Y-42203715D01*
X85034381Y-42060858D01*
X85034381Y-41965620D01*
X84986762Y-41822762D01*
X84891524Y-41727524D01*
X84796286Y-41679905D01*
X84605810Y-41632286D01*
X84462952Y-41632286D01*
X84272476Y-41679905D01*
X84177238Y-41727524D01*
X84082000Y-41822762D01*
X84034381Y-41965620D01*
X84034381Y-42060858D01*
X84082000Y-42203715D01*
X84129619Y-42251334D01*
X85034381Y-42727524D02*
X85034381Y-42918000D01*
X84986762Y-43013239D01*
X84939143Y-43060858D01*
X84796286Y-43156096D01*
X84605810Y-43203715D01*
X84224857Y-43203715D01*
X84129619Y-43156096D01*
X84082000Y-43108477D01*
X84034381Y-43013239D01*
X84034381Y-42822762D01*
X84082000Y-42727524D01*
X84129619Y-42679905D01*
X84224857Y-42632286D01*
X84462952Y-42632286D01*
X84558190Y-42679905D01*
X84605810Y-42727524D01*
X84653429Y-42822762D01*
X84653429Y-43013239D01*
X84605810Y-43108477D01*
X84558190Y-43156096D01*
X84462952Y-43203715D01*
X86463143Y-42283143D02*
X86510762Y-42235524D01*
X86558381Y-42092667D01*
X86558381Y-41997429D01*
X86510762Y-41854571D01*
X86415524Y-41759333D01*
X86320286Y-41711714D01*
X86129810Y-41664095D01*
X85986952Y-41664095D01*
X85796476Y-41711714D01*
X85701238Y-41759333D01*
X85606000Y-41854571D01*
X85558381Y-41997429D01*
X85558381Y-42092667D01*
X85606000Y-42235524D01*
X85653619Y-42283143D01*
X86558381Y-43235524D02*
X86558381Y-42664095D01*
X86558381Y-42949809D02*
X85558381Y-42949809D01*
X85701238Y-42854571D01*
X85796476Y-42759333D01*
X85844095Y-42664095D01*
X85558381Y-43854571D02*
X85558381Y-43949810D01*
X85606000Y-44045048D01*
X85653619Y-44092667D01*
X85748857Y-44140286D01*
X85939333Y-44187905D01*
X86177429Y-44187905D01*
X86367905Y-44140286D01*
X86463143Y-44092667D01*
X86510762Y-44045048D01*
X86558381Y-43949810D01*
X86558381Y-43854571D01*
X86510762Y-43759333D01*
X86463143Y-43711714D01*
X86367905Y-43664095D01*
X86177429Y-43616476D01*
X85939333Y-43616476D01*
X85748857Y-43664095D01*
X85653619Y-43711714D01*
X85606000Y-43759333D01*
X85558381Y-43854571D01*
X82653143Y-42283143D02*
X82700762Y-42235524D01*
X82748381Y-42092667D01*
X82748381Y-41997429D01*
X82700762Y-41854571D01*
X82605524Y-41759333D01*
X82510286Y-41711714D01*
X82319810Y-41664095D01*
X82176952Y-41664095D01*
X81986476Y-41711714D01*
X81891238Y-41759333D01*
X81796000Y-41854571D01*
X81748381Y-41997429D01*
X81748381Y-42092667D01*
X81796000Y-42235524D01*
X81843619Y-42283143D01*
X82748381Y-43235524D02*
X82748381Y-42664095D01*
X82748381Y-42949809D02*
X81748381Y-42949809D01*
X81891238Y-42854571D01*
X81986476Y-42759333D01*
X82034095Y-42664095D01*
X82748381Y-44187905D02*
X82748381Y-43616476D01*
X82748381Y-43902190D02*
X81748381Y-43902190D01*
X81891238Y-43806952D01*
X81986476Y-43711714D01*
X82034095Y-43616476D01*
X81129143Y-42283143D02*
X81176762Y-42235524D01*
X81224381Y-42092667D01*
X81224381Y-41997429D01*
X81176762Y-41854571D01*
X81081524Y-41759333D01*
X80986286Y-41711714D01*
X80795810Y-41664095D01*
X80652952Y-41664095D01*
X80462476Y-41711714D01*
X80367238Y-41759333D01*
X80272000Y-41854571D01*
X80224381Y-41997429D01*
X80224381Y-42092667D01*
X80272000Y-42235524D01*
X80319619Y-42283143D01*
X81224381Y-43235524D02*
X81224381Y-42664095D01*
X81224381Y-42949809D02*
X80224381Y-42949809D01*
X80367238Y-42854571D01*
X80462476Y-42759333D01*
X80510095Y-42664095D01*
X80319619Y-43616476D02*
X80272000Y-43664095D01*
X80224381Y-43759333D01*
X80224381Y-43997429D01*
X80272000Y-44092667D01*
X80319619Y-44140286D01*
X80414857Y-44187905D01*
X80510095Y-44187905D01*
X80652952Y-44140286D01*
X81224381Y-43568857D01*
X81224381Y-44187905D01*
X95892857Y-51665143D02*
X95940476Y-51712762D01*
X96083333Y-51760381D01*
X96178571Y-51760381D01*
X96321429Y-51712762D01*
X96416667Y-51617524D01*
X96464286Y-51522286D01*
X96511905Y-51331810D01*
X96511905Y-51188952D01*
X96464286Y-50998476D01*
X96416667Y-50903238D01*
X96321429Y-50808000D01*
X96178571Y-50760381D01*
X96083333Y-50760381D01*
X95940476Y-50808000D01*
X95892857Y-50855619D01*
X94940476Y-51760381D02*
X95511905Y-51760381D01*
X95226191Y-51760381D02*
X95226191Y-50760381D01*
X95321429Y-50903238D01*
X95416667Y-50998476D01*
X95511905Y-51046095D01*
X94607143Y-50760381D02*
X93988095Y-50760381D01*
X94321429Y-51141333D01*
X94178571Y-51141333D01*
X94083333Y-51188952D01*
X94035714Y-51236571D01*
X93988095Y-51331810D01*
X93988095Y-51569905D01*
X94035714Y-51665143D01*
X94083333Y-51712762D01*
X94178571Y-51760381D01*
X94464286Y-51760381D01*
X94559524Y-51712762D01*
X94607143Y-51665143D01*
X79128857Y-52427143D02*
X79176476Y-52474762D01*
X79319333Y-52522381D01*
X79414571Y-52522381D01*
X79557429Y-52474762D01*
X79652667Y-52379524D01*
X79700286Y-52284286D01*
X79747905Y-52093810D01*
X79747905Y-51950952D01*
X79700286Y-51760476D01*
X79652667Y-51665238D01*
X79557429Y-51570000D01*
X79414571Y-51522381D01*
X79319333Y-51522381D01*
X79176476Y-51570000D01*
X79128857Y-51617619D01*
X78176476Y-52522381D02*
X78747905Y-52522381D01*
X78462191Y-52522381D02*
X78462191Y-51522381D01*
X78557429Y-51665238D01*
X78652667Y-51760476D01*
X78747905Y-51808095D01*
X77319333Y-51855714D02*
X77319333Y-52522381D01*
X77557429Y-51474762D02*
X77795524Y-52189048D01*
X77176476Y-52189048D01*
X101480857Y-50649143D02*
X101528476Y-50696762D01*
X101671333Y-50744381D01*
X101766571Y-50744381D01*
X101909429Y-50696762D01*
X102004667Y-50601524D01*
X102052286Y-50506286D01*
X102099905Y-50315810D01*
X102099905Y-50172952D01*
X102052286Y-49982476D01*
X102004667Y-49887238D01*
X101909429Y-49792000D01*
X101766571Y-49744381D01*
X101671333Y-49744381D01*
X101528476Y-49792000D01*
X101480857Y-49839619D01*
X100528476Y-50744381D02*
X101099905Y-50744381D01*
X100814191Y-50744381D02*
X100814191Y-49744381D01*
X100909429Y-49887238D01*
X101004667Y-49982476D01*
X101099905Y-50030095D01*
X99623714Y-49744381D02*
X100099905Y-49744381D01*
X100147524Y-50220571D01*
X100099905Y-50172952D01*
X100004667Y-50125333D01*
X99766571Y-50125333D01*
X99671333Y-50172952D01*
X99623714Y-50220571D01*
X99576095Y-50315810D01*
X99576095Y-50553905D01*
X99623714Y-50649143D01*
X99671333Y-50696762D01*
X99766571Y-50744381D01*
X100004667Y-50744381D01*
X100099905Y-50696762D01*
X100147524Y-50649143D01*
X79128857Y-50903143D02*
X79176476Y-50950762D01*
X79319333Y-50998381D01*
X79414571Y-50998381D01*
X79557429Y-50950762D01*
X79652667Y-50855524D01*
X79700286Y-50760286D01*
X79747905Y-50569810D01*
X79747905Y-50426952D01*
X79700286Y-50236476D01*
X79652667Y-50141238D01*
X79557429Y-50046000D01*
X79414571Y-49998381D01*
X79319333Y-49998381D01*
X79176476Y-50046000D01*
X79128857Y-50093619D01*
X78176476Y-50998381D02*
X78747905Y-50998381D01*
X78462191Y-50998381D02*
X78462191Y-49998381D01*
X78557429Y-50141238D01*
X78652667Y-50236476D01*
X78747905Y-50284095D01*
X77319333Y-49998381D02*
X77509810Y-49998381D01*
X77605048Y-50046000D01*
X77652667Y-50093619D01*
X77747905Y-50236476D01*
X77795524Y-50426952D01*
X77795524Y-50807905D01*
X77747905Y-50903143D01*
X77700286Y-50950762D01*
X77605048Y-50998381D01*
X77414571Y-50998381D01*
X77319333Y-50950762D01*
X77271714Y-50903143D01*
X77224095Y-50807905D01*
X77224095Y-50569810D01*
X77271714Y-50474571D01*
X77319333Y-50426952D01*
X77414571Y-50379333D01*
X77605048Y-50379333D01*
X77700286Y-50426952D01*
X77747905Y-50474571D01*
X77795524Y-50569810D01*
X102465143Y-42283143D02*
X102512762Y-42235524D01*
X102560381Y-42092667D01*
X102560381Y-41997429D01*
X102512762Y-41854571D01*
X102417524Y-41759333D01*
X102322286Y-41711714D01*
X102131810Y-41664095D01*
X101988952Y-41664095D01*
X101798476Y-41711714D01*
X101703238Y-41759333D01*
X101608000Y-41854571D01*
X101560381Y-41997429D01*
X101560381Y-42092667D01*
X101608000Y-42235524D01*
X101655619Y-42283143D01*
X102560381Y-43235524D02*
X102560381Y-42664095D01*
X102560381Y-42949809D02*
X101560381Y-42949809D01*
X101703238Y-42854571D01*
X101798476Y-42759333D01*
X101846095Y-42664095D01*
X101560381Y-43568857D02*
X101560381Y-44235524D01*
X102560381Y-43806952D01*
X94337143Y-42283143D02*
X94384762Y-42235524D01*
X94432381Y-42092667D01*
X94432381Y-41997429D01*
X94384762Y-41854571D01*
X94289524Y-41759333D01*
X94194286Y-41711714D01*
X94003810Y-41664095D01*
X93860952Y-41664095D01*
X93670476Y-41711714D01*
X93575238Y-41759333D01*
X93480000Y-41854571D01*
X93432381Y-41997429D01*
X93432381Y-42092667D01*
X93480000Y-42235524D01*
X93527619Y-42283143D01*
X94432381Y-43235524D02*
X94432381Y-42664095D01*
X94432381Y-42949809D02*
X93432381Y-42949809D01*
X93575238Y-42854571D01*
X93670476Y-42759333D01*
X93718095Y-42664095D01*
X93860952Y-43806952D02*
X93813333Y-43711714D01*
X93765714Y-43664095D01*
X93670476Y-43616476D01*
X93622857Y-43616476D01*
X93527619Y-43664095D01*
X93480000Y-43711714D01*
X93432381Y-43806952D01*
X93432381Y-43997429D01*
X93480000Y-44092667D01*
X93527619Y-44140286D01*
X93622857Y-44187905D01*
X93670476Y-44187905D01*
X93765714Y-44140286D01*
X93813333Y-44092667D01*
X93860952Y-43997429D01*
X93860952Y-43806952D01*
X93908571Y-43711714D01*
X93956190Y-43664095D01*
X94051429Y-43616476D01*
X94241905Y-43616476D01*
X94337143Y-43664095D01*
X94384762Y-43711714D01*
X94432381Y-43806952D01*
X94432381Y-43997429D01*
X94384762Y-44092667D01*
X94337143Y-44140286D01*
X94241905Y-44187905D01*
X94051429Y-44187905D01*
X93956190Y-44140286D01*
X93908571Y-44092667D01*
X93860952Y-43997429D01*
X92082857Y-58269143D02*
X92130476Y-58316762D01*
X92273333Y-58364381D01*
X92368571Y-58364381D01*
X92511429Y-58316762D01*
X92606667Y-58221524D01*
X92654286Y-58126286D01*
X92701905Y-57935810D01*
X92701905Y-57792952D01*
X92654286Y-57602476D01*
X92606667Y-57507238D01*
X92511429Y-57412000D01*
X92368571Y-57364381D01*
X92273333Y-57364381D01*
X92130476Y-57412000D01*
X92082857Y-57459619D01*
X91130476Y-58364381D02*
X91701905Y-58364381D01*
X91416191Y-58364381D02*
X91416191Y-57364381D01*
X91511429Y-57507238D01*
X91606667Y-57602476D01*
X91701905Y-57650095D01*
X90654286Y-58364381D02*
X90463810Y-58364381D01*
X90368571Y-58316762D01*
X90320952Y-58269143D01*
X90225714Y-58126286D01*
X90178095Y-57935810D01*
X90178095Y-57554857D01*
X90225714Y-57459619D01*
X90273333Y-57412000D01*
X90368571Y-57364381D01*
X90559048Y-57364381D01*
X90654286Y-57412000D01*
X90701905Y-57459619D01*
X90749524Y-57554857D01*
X90749524Y-57792952D01*
X90701905Y-57888190D01*
X90654286Y-57935810D01*
X90559048Y-57983429D01*
X90368571Y-57983429D01*
X90273333Y-57935810D01*
X90225714Y-57888190D01*
X90178095Y-57792952D01*
X102465143Y-58031143D02*
X102512762Y-57983524D01*
X102560381Y-57840667D01*
X102560381Y-57745429D01*
X102512762Y-57602571D01*
X102417524Y-57507333D01*
X102322286Y-57459714D01*
X102131810Y-57412095D01*
X101988952Y-57412095D01*
X101798476Y-57459714D01*
X101703238Y-57507333D01*
X101608000Y-57602571D01*
X101560381Y-57745429D01*
X101560381Y-57840667D01*
X101608000Y-57983524D01*
X101655619Y-58031143D01*
X101655619Y-58412095D02*
X101608000Y-58459714D01*
X101560381Y-58554952D01*
X101560381Y-58793048D01*
X101608000Y-58888286D01*
X101655619Y-58935905D01*
X101750857Y-58983524D01*
X101846095Y-58983524D01*
X101988952Y-58935905D01*
X102560381Y-58364476D01*
X102560381Y-58983524D01*
X101560381Y-59602571D02*
X101560381Y-59697810D01*
X101608000Y-59793048D01*
X101655619Y-59840667D01*
X101750857Y-59888286D01*
X101941333Y-59935905D01*
X102179429Y-59935905D01*
X102369905Y-59888286D01*
X102465143Y-59840667D01*
X102512762Y-59793048D01*
X102560381Y-59697810D01*
X102560381Y-59602571D01*
X102512762Y-59507333D01*
X102465143Y-59459714D01*
X102369905Y-59412095D01*
X102179429Y-59364476D01*
X101941333Y-59364476D01*
X101750857Y-59412095D01*
X101655619Y-59459714D01*
X101608000Y-59507333D01*
X101560381Y-59602571D01*
X87987143Y-42283143D02*
X88034762Y-42235524D01*
X88082381Y-42092667D01*
X88082381Y-41997429D01*
X88034762Y-41854571D01*
X87939524Y-41759333D01*
X87844286Y-41711714D01*
X87653810Y-41664095D01*
X87510952Y-41664095D01*
X87320476Y-41711714D01*
X87225238Y-41759333D01*
X87130000Y-41854571D01*
X87082381Y-41997429D01*
X87082381Y-42092667D01*
X87130000Y-42235524D01*
X87177619Y-42283143D01*
X87177619Y-42664095D02*
X87130000Y-42711714D01*
X87082381Y-42806952D01*
X87082381Y-43045048D01*
X87130000Y-43140286D01*
X87177619Y-43187905D01*
X87272857Y-43235524D01*
X87368095Y-43235524D01*
X87510952Y-43187905D01*
X88082381Y-42616476D01*
X88082381Y-43235524D01*
X88082381Y-44187905D02*
X88082381Y-43616476D01*
X88082381Y-43902190D02*
X87082381Y-43902190D01*
X87225238Y-43806952D01*
X87320476Y-43711714D01*
X87368095Y-43616476D01*
X79605143Y-42283143D02*
X79652762Y-42235524D01*
X79700381Y-42092667D01*
X79700381Y-41997429D01*
X79652762Y-41854571D01*
X79557524Y-41759333D01*
X79462286Y-41711714D01*
X79271810Y-41664095D01*
X79128952Y-41664095D01*
X78938476Y-41711714D01*
X78843238Y-41759333D01*
X78748000Y-41854571D01*
X78700381Y-41997429D01*
X78700381Y-42092667D01*
X78748000Y-42235524D01*
X78795619Y-42283143D01*
X78795619Y-42664095D02*
X78748000Y-42711714D01*
X78700381Y-42806952D01*
X78700381Y-43045048D01*
X78748000Y-43140286D01*
X78795619Y-43187905D01*
X78890857Y-43235524D01*
X78986095Y-43235524D01*
X79128952Y-43187905D01*
X79700381Y-42616476D01*
X79700381Y-43235524D01*
X78795619Y-43616476D02*
X78748000Y-43664095D01*
X78700381Y-43759333D01*
X78700381Y-43997429D01*
X78748000Y-44092667D01*
X78795619Y-44140286D01*
X78890857Y-44187905D01*
X78986095Y-44187905D01*
X79128952Y-44140286D01*
X79700381Y-43568857D01*
X79700381Y-44187905D01*
X68460857Y-62587143D02*
X68508476Y-62634762D01*
X68651333Y-62682381D01*
X68746571Y-62682381D01*
X68889429Y-62634762D01*
X68984667Y-62539524D01*
X69032286Y-62444286D01*
X69079905Y-62253810D01*
X69079905Y-62110952D01*
X69032286Y-61920476D01*
X68984667Y-61825238D01*
X68889429Y-61730000D01*
X68746571Y-61682381D01*
X68651333Y-61682381D01*
X68508476Y-61730000D01*
X68460857Y-61777619D01*
X68079905Y-61777619D02*
X68032286Y-61730000D01*
X67937048Y-61682381D01*
X67698952Y-61682381D01*
X67603714Y-61730000D01*
X67556095Y-61777619D01*
X67508476Y-61872857D01*
X67508476Y-61968095D01*
X67556095Y-62110952D01*
X68127524Y-62682381D01*
X67508476Y-62682381D01*
X67175143Y-61682381D02*
X66508476Y-61682381D01*
X66937048Y-62682381D01*
X68460857Y-61317143D02*
X68508476Y-61364762D01*
X68651333Y-61412381D01*
X68746571Y-61412381D01*
X68889429Y-61364762D01*
X68984667Y-61269524D01*
X69032286Y-61174286D01*
X69079905Y-60983810D01*
X69079905Y-60840952D01*
X69032286Y-60650476D01*
X68984667Y-60555238D01*
X68889429Y-60460000D01*
X68746571Y-60412381D01*
X68651333Y-60412381D01*
X68508476Y-60460000D01*
X68460857Y-60507619D01*
X68079905Y-60507619D02*
X68032286Y-60460000D01*
X67937048Y-60412381D01*
X67698952Y-60412381D01*
X67603714Y-60460000D01*
X67556095Y-60507619D01*
X67508476Y-60602857D01*
X67508476Y-60698095D01*
X67556095Y-60840952D01*
X68127524Y-61412381D01*
X67508476Y-61412381D01*
X66937048Y-60840952D02*
X67032286Y-60793333D01*
X67079905Y-60745714D01*
X67127524Y-60650476D01*
X67127524Y-60602857D01*
X67079905Y-60507619D01*
X67032286Y-60460000D01*
X66937048Y-60412381D01*
X66746571Y-60412381D01*
X66651333Y-60460000D01*
X66603714Y-60507619D01*
X66556095Y-60602857D01*
X66556095Y-60650476D01*
X66603714Y-60745714D01*
X66651333Y-60793333D01*
X66746571Y-60840952D01*
X66937048Y-60840952D01*
X67032286Y-60888571D01*
X67079905Y-60936190D01*
X67127524Y-61031429D01*
X67127524Y-61221905D01*
X67079905Y-61317143D01*
X67032286Y-61364762D01*
X66937048Y-61412381D01*
X66746571Y-61412381D01*
X66651333Y-61364762D01*
X66603714Y-61317143D01*
X66556095Y-61221905D01*
X66556095Y-61031429D01*
X66603714Y-60936190D01*
X66651333Y-60888571D01*
X66746571Y-60840952D01*
X61856857Y-60809143D02*
X61904476Y-60856762D01*
X62047333Y-60904381D01*
X62142571Y-60904381D01*
X62285429Y-60856762D01*
X62380667Y-60761524D01*
X62428286Y-60666286D01*
X62475905Y-60475810D01*
X62475905Y-60332952D01*
X62428286Y-60142476D01*
X62380667Y-60047238D01*
X62285429Y-59952000D01*
X62142571Y-59904381D01*
X62047333Y-59904381D01*
X61904476Y-59952000D01*
X61856857Y-59999619D01*
X61475905Y-59999619D02*
X61428286Y-59952000D01*
X61333048Y-59904381D01*
X61094952Y-59904381D01*
X60999714Y-59952000D01*
X60952095Y-59999619D01*
X60904476Y-60094857D01*
X60904476Y-60190095D01*
X60952095Y-60332952D01*
X61523524Y-60904381D01*
X60904476Y-60904381D01*
X60428286Y-60904381D02*
X60237810Y-60904381D01*
X60142571Y-60856762D01*
X60094952Y-60809143D01*
X59999714Y-60666286D01*
X59952095Y-60475810D01*
X59952095Y-60094857D01*
X59999714Y-59999619D01*
X60047333Y-59952000D01*
X60142571Y-59904381D01*
X60333048Y-59904381D01*
X60428286Y-59952000D01*
X60475905Y-59999619D01*
X60523524Y-60094857D01*
X60523524Y-60332952D01*
X60475905Y-60428190D01*
X60428286Y-60475810D01*
X60333048Y-60523429D01*
X60142571Y-60523429D01*
X60047333Y-60475810D01*
X59999714Y-60428190D01*
X59952095Y-60332952D01*
X61856857Y-59285143D02*
X61904476Y-59332762D01*
X62047333Y-59380381D01*
X62142571Y-59380381D01*
X62285429Y-59332762D01*
X62380667Y-59237524D01*
X62428286Y-59142286D01*
X62475905Y-58951810D01*
X62475905Y-58808952D01*
X62428286Y-58618476D01*
X62380667Y-58523238D01*
X62285429Y-58428000D01*
X62142571Y-58380381D01*
X62047333Y-58380381D01*
X61904476Y-58428000D01*
X61856857Y-58475619D01*
X61523524Y-58380381D02*
X60904476Y-58380381D01*
X61237810Y-58761333D01*
X61094952Y-58761333D01*
X60999714Y-58808952D01*
X60952095Y-58856571D01*
X60904476Y-58951810D01*
X60904476Y-59189905D01*
X60952095Y-59285143D01*
X60999714Y-59332762D01*
X61094952Y-59380381D01*
X61380667Y-59380381D01*
X61475905Y-59332762D01*
X61523524Y-59285143D01*
X59952095Y-59380381D02*
X60523524Y-59380381D01*
X60237810Y-59380381D02*
X60237810Y-58380381D01*
X60333048Y-58523238D01*
X60428286Y-58618476D01*
X60523524Y-58666095D01*
X89860381Y-50315905D02*
X88860381Y-50315905D01*
X88860381Y-50554000D01*
X88908000Y-50696858D01*
X89003238Y-50792096D01*
X89098476Y-50839715D01*
X89288952Y-50887334D01*
X89431810Y-50887334D01*
X89622286Y-50839715D01*
X89717524Y-50792096D01*
X89812762Y-50696858D01*
X89860381Y-50554000D01*
X89860381Y-50315905D01*
X89860381Y-51839715D02*
X89860381Y-51268286D01*
X89860381Y-51554000D02*
X88860381Y-51554000D01*
X89003238Y-51458762D01*
X89098476Y-51363524D01*
X89146095Y-51268286D01*
X104878095Y-44140381D02*
X104878095Y-43140381D01*
X104640000Y-43140381D01*
X104497142Y-43188000D01*
X104401904Y-43283238D01*
X104354285Y-43378476D01*
X104306666Y-43568952D01*
X104306666Y-43711810D01*
X104354285Y-43902286D01*
X104401904Y-43997524D01*
X104497142Y-44092762D01*
X104640000Y-44140381D01*
X104878095Y-44140381D01*
X103925714Y-43235619D02*
X103878095Y-43188000D01*
X103782857Y-43140381D01*
X103544761Y-43140381D01*
X103449523Y-43188000D01*
X103401904Y-43235619D01*
X103354285Y-43330857D01*
X103354285Y-43426095D01*
X103401904Y-43568952D01*
X103973333Y-44140381D01*
X103354285Y-44140381D01*
X92146381Y-41679905D02*
X91146381Y-41679905D01*
X91146381Y-41918000D01*
X91194000Y-42060858D01*
X91289238Y-42156096D01*
X91384476Y-42203715D01*
X91574952Y-42251334D01*
X91717810Y-42251334D01*
X91908286Y-42203715D01*
X92003524Y-42156096D01*
X92098762Y-42060858D01*
X92146381Y-41918000D01*
X92146381Y-41679905D01*
X91146381Y-42584667D02*
X91146381Y-43203715D01*
X91527333Y-42870381D01*
X91527333Y-43013239D01*
X91574952Y-43108477D01*
X91622571Y-43156096D01*
X91717810Y-43203715D01*
X91955905Y-43203715D01*
X92051143Y-43156096D01*
X92098762Y-43108477D01*
X92146381Y-43013239D01*
X92146381Y-42727524D01*
X92098762Y-42632286D01*
X92051143Y-42584667D01*
X92400381Y-50315905D02*
X91400381Y-50315905D01*
X91400381Y-50554000D01*
X91448000Y-50696858D01*
X91543238Y-50792096D01*
X91638476Y-50839715D01*
X91828952Y-50887334D01*
X91971810Y-50887334D01*
X92162286Y-50839715D01*
X92257524Y-50792096D01*
X92352762Y-50696858D01*
X92400381Y-50554000D01*
X92400381Y-50315905D01*
X91733714Y-51744477D02*
X92400381Y-51744477D01*
X91352762Y-51506381D02*
X92067048Y-51268286D01*
X92067048Y-51887334D01*
X104878095Y-51760381D02*
X104878095Y-50760381D01*
X104640000Y-50760381D01*
X104497142Y-50808000D01*
X104401904Y-50903238D01*
X104354285Y-50998476D01*
X104306666Y-51188952D01*
X104306666Y-51331810D01*
X104354285Y-51522286D01*
X104401904Y-51617524D01*
X104497142Y-51712762D01*
X104640000Y-51760381D01*
X104878095Y-51760381D01*
X103401904Y-50760381D02*
X103878095Y-50760381D01*
X103925714Y-51236571D01*
X103878095Y-51188952D01*
X103782857Y-51141333D01*
X103544761Y-51141333D01*
X103449523Y-51188952D01*
X103401904Y-51236571D01*
X103354285Y-51331810D01*
X103354285Y-51569905D01*
X103401904Y-51665143D01*
X103449523Y-51712762D01*
X103544761Y-51760381D01*
X103782857Y-51760381D01*
X103878095Y-51712762D01*
X103925714Y-51665143D01*
X89860381Y-41679905D02*
X88860381Y-41679905D01*
X88860381Y-41918000D01*
X88908000Y-42060858D01*
X89003238Y-42156096D01*
X89098476Y-42203715D01*
X89288952Y-42251334D01*
X89431810Y-42251334D01*
X89622286Y-42203715D01*
X89717524Y-42156096D01*
X89812762Y-42060858D01*
X89860381Y-41918000D01*
X89860381Y-41679905D01*
X88860381Y-43108477D02*
X88860381Y-42918000D01*
X88908000Y-42822762D01*
X88955619Y-42775143D01*
X89098476Y-42679905D01*
X89288952Y-42632286D01*
X89669905Y-42632286D01*
X89765143Y-42679905D01*
X89812762Y-42727524D01*
X89860381Y-42822762D01*
X89860381Y-43013239D01*
X89812762Y-43108477D01*
X89765143Y-43156096D01*
X89669905Y-43203715D01*
X89431810Y-43203715D01*
X89336571Y-43156096D01*
X89288952Y-43108477D01*
X89241333Y-43013239D01*
X89241333Y-42822762D01*
X89288952Y-42727524D01*
X89336571Y-42679905D01*
X89431810Y-42632286D01*
X75922095Y-49474381D02*
X75922095Y-48474381D01*
X75684000Y-48474381D01*
X75541142Y-48522000D01*
X75445904Y-48617238D01*
X75398285Y-48712476D01*
X75350666Y-48902952D01*
X75350666Y-49045810D01*
X75398285Y-49236286D01*
X75445904Y-49331524D01*
X75541142Y-49426762D01*
X75684000Y-49474381D01*
X75922095Y-49474381D01*
X75017333Y-48474381D02*
X74350666Y-48474381D01*
X74779238Y-49474381D01*
X64968286Y-43378381D02*
X64968286Y-42378381D01*
X64730191Y-42378381D01*
X64587333Y-42426000D01*
X64492095Y-42521238D01*
X64444476Y-42616476D01*
X64396857Y-42806952D01*
X64396857Y-42949810D01*
X64444476Y-43140286D01*
X64492095Y-43235524D01*
X64587333Y-43330762D01*
X64730191Y-43378381D01*
X64968286Y-43378381D01*
X63444476Y-43378381D02*
X64015905Y-43378381D01*
X63730191Y-43378381D02*
X63730191Y-42378381D01*
X63825429Y-42521238D01*
X63920667Y-42616476D01*
X64015905Y-42664095D01*
X63111143Y-42378381D02*
X62492095Y-42378381D01*
X62825429Y-42759333D01*
X62682571Y-42759333D01*
X62587333Y-42806952D01*
X62539714Y-42854571D01*
X62492095Y-42949810D01*
X62492095Y-43187905D01*
X62539714Y-43283143D01*
X62587333Y-43330762D01*
X62682571Y-43378381D01*
X62968286Y-43378381D01*
X63063524Y-43330762D01*
X63111143Y-43283143D01*
X61920286Y-43378381D02*
X61920286Y-42378381D01*
X61682191Y-42378381D01*
X61539333Y-42426000D01*
X61444095Y-42521238D01*
X61396476Y-42616476D01*
X61348857Y-42806952D01*
X61348857Y-42949810D01*
X61396476Y-43140286D01*
X61444095Y-43235524D01*
X61539333Y-43330762D01*
X61682191Y-43378381D01*
X61920286Y-43378381D01*
X60396476Y-43378381D02*
X60967905Y-43378381D01*
X60682191Y-43378381D02*
X60682191Y-42378381D01*
X60777429Y-42521238D01*
X60872667Y-42616476D01*
X60967905Y-42664095D01*
X59539333Y-42711714D02*
X59539333Y-43378381D01*
X59777429Y-42330762D02*
X60015524Y-43045048D01*
X59396476Y-43045048D01*
X83407238Y-55665619D02*
X83502476Y-55618000D01*
X83597714Y-55522762D01*
X83740571Y-55379905D01*
X83835810Y-55332286D01*
X83931048Y-55332286D01*
X83883429Y-55570381D02*
X83978667Y-55522762D01*
X84073905Y-55427524D01*
X84121524Y-55237048D01*
X84121524Y-54903714D01*
X84073905Y-54713238D01*
X83978667Y-54618000D01*
X83883429Y-54570381D01*
X83692952Y-54570381D01*
X83597714Y-54618000D01*
X83502476Y-54713238D01*
X83454857Y-54903714D01*
X83454857Y-55237048D01*
X83502476Y-55427524D01*
X83597714Y-55522762D01*
X83692952Y-55570381D01*
X83883429Y-55570381D01*
X82502476Y-55570381D02*
X83073905Y-55570381D01*
X82788191Y-55570381D02*
X82788191Y-54570381D01*
X82883429Y-54713238D01*
X82978667Y-54808476D01*
X83073905Y-54856095D01*
X83661238Y-52109619D02*
X83756476Y-52062000D01*
X83851714Y-51966762D01*
X83994571Y-51823905D01*
X84089810Y-51776286D01*
X84185048Y-51776286D01*
X84137429Y-52014381D02*
X84232667Y-51966762D01*
X84327905Y-51871524D01*
X84375524Y-51681048D01*
X84375524Y-51347714D01*
X84327905Y-51157238D01*
X84232667Y-51062000D01*
X84137429Y-51014381D01*
X83946952Y-51014381D01*
X83851714Y-51062000D01*
X83756476Y-51157238D01*
X83708857Y-51347714D01*
X83708857Y-51681048D01*
X83756476Y-51871524D01*
X83851714Y-51966762D01*
X83946952Y-52014381D01*
X84137429Y-52014381D01*
X83327905Y-51109619D02*
X83280286Y-51062000D01*
X83185048Y-51014381D01*
X82946952Y-51014381D01*
X82851714Y-51062000D01*
X82804095Y-51109619D01*
X82756476Y-51204857D01*
X82756476Y-51300095D01*
X82804095Y-51442952D01*
X83375524Y-52014381D01*
X82756476Y-52014381D01*
X85510666Y-72842381D02*
X85844000Y-72366190D01*
X86082095Y-72842381D02*
X86082095Y-71842381D01*
X85701142Y-71842381D01*
X85605904Y-71890000D01*
X85558285Y-71937619D01*
X85510666Y-72032857D01*
X85510666Y-72175714D01*
X85558285Y-72270952D01*
X85605904Y-72318571D01*
X85701142Y-72366190D01*
X86082095Y-72366190D01*
X84558285Y-72842381D02*
X85129714Y-72842381D01*
X84844000Y-72842381D02*
X84844000Y-71842381D01*
X84939238Y-71985238D01*
X85034476Y-72080476D01*
X85129714Y-72128095D01*
X88050666Y-72842381D02*
X88384000Y-72366190D01*
X88622095Y-72842381D02*
X88622095Y-71842381D01*
X88241142Y-71842381D01*
X88145904Y-71890000D01*
X88098285Y-71937619D01*
X88050666Y-72032857D01*
X88050666Y-72175714D01*
X88098285Y-72270952D01*
X88145904Y-72318571D01*
X88241142Y-72366190D01*
X88622095Y-72366190D01*
X87669714Y-71937619D02*
X87622095Y-71890000D01*
X87526857Y-71842381D01*
X87288761Y-71842381D01*
X87193523Y-71890000D01*
X87145904Y-71937619D01*
X87098285Y-72032857D01*
X87098285Y-72128095D01*
X87145904Y-72270952D01*
X87717333Y-72842381D01*
X87098285Y-72842381D01*
X90590666Y-72842381D02*
X90924000Y-72366190D01*
X91162095Y-72842381D02*
X91162095Y-71842381D01*
X90781142Y-71842381D01*
X90685904Y-71890000D01*
X90638285Y-71937619D01*
X90590666Y-72032857D01*
X90590666Y-72175714D01*
X90638285Y-72270952D01*
X90685904Y-72318571D01*
X90781142Y-72366190D01*
X91162095Y-72366190D01*
X90257333Y-71842381D02*
X89638285Y-71842381D01*
X89971619Y-72223333D01*
X89828761Y-72223333D01*
X89733523Y-72270952D01*
X89685904Y-72318571D01*
X89638285Y-72413810D01*
X89638285Y-72651905D01*
X89685904Y-72747143D01*
X89733523Y-72794762D01*
X89828761Y-72842381D01*
X90114476Y-72842381D01*
X90209714Y-72794762D01*
X90257333Y-72747143D01*
X93130666Y-72842381D02*
X93464000Y-72366190D01*
X93702095Y-72842381D02*
X93702095Y-71842381D01*
X93321142Y-71842381D01*
X93225904Y-71890000D01*
X93178285Y-71937619D01*
X93130666Y-72032857D01*
X93130666Y-72175714D01*
X93178285Y-72270952D01*
X93225904Y-72318571D01*
X93321142Y-72366190D01*
X93702095Y-72366190D01*
X92273523Y-72175714D02*
X92273523Y-72842381D01*
X92511619Y-71794762D02*
X92749714Y-72509048D01*
X92130666Y-72509048D01*
X96178666Y-72842381D02*
X96512000Y-72366190D01*
X96750095Y-72842381D02*
X96750095Y-71842381D01*
X96369142Y-71842381D01*
X96273904Y-71890000D01*
X96226285Y-71937619D01*
X96178666Y-72032857D01*
X96178666Y-72175714D01*
X96226285Y-72270952D01*
X96273904Y-72318571D01*
X96369142Y-72366190D01*
X96750095Y-72366190D01*
X95273904Y-71842381D02*
X95750095Y-71842381D01*
X95797714Y-72318571D01*
X95750095Y-72270952D01*
X95654857Y-72223333D01*
X95416761Y-72223333D01*
X95321523Y-72270952D01*
X95273904Y-72318571D01*
X95226285Y-72413810D01*
X95226285Y-72651905D01*
X95273904Y-72747143D01*
X95321523Y-72794762D01*
X95416761Y-72842381D01*
X95654857Y-72842381D01*
X95750095Y-72794762D01*
X95797714Y-72747143D01*
X98718666Y-72842381D02*
X99052000Y-72366190D01*
X99290095Y-72842381D02*
X99290095Y-71842381D01*
X98909142Y-71842381D01*
X98813904Y-71890000D01*
X98766285Y-71937619D01*
X98718666Y-72032857D01*
X98718666Y-72175714D01*
X98766285Y-72270952D01*
X98813904Y-72318571D01*
X98909142Y-72366190D01*
X99290095Y-72366190D01*
X97861523Y-71842381D02*
X98052000Y-71842381D01*
X98147238Y-71890000D01*
X98194857Y-71937619D01*
X98290095Y-72080476D01*
X98337714Y-72270952D01*
X98337714Y-72651905D01*
X98290095Y-72747143D01*
X98242476Y-72794762D01*
X98147238Y-72842381D01*
X97956761Y-72842381D01*
X97861523Y-72794762D01*
X97813904Y-72747143D01*
X97766285Y-72651905D01*
X97766285Y-72413810D01*
X97813904Y-72318571D01*
X97861523Y-72270952D01*
X97956761Y-72223333D01*
X98147238Y-72223333D01*
X98242476Y-72270952D01*
X98290095Y-72318571D01*
X98337714Y-72413810D01*
X99766381Y-39235143D02*
X99290190Y-38901809D01*
X99766381Y-38663714D02*
X98766381Y-38663714D01*
X98766381Y-39044667D01*
X98814000Y-39139905D01*
X98861619Y-39187524D01*
X98956857Y-39235143D01*
X99099714Y-39235143D01*
X99194952Y-39187524D01*
X99242571Y-39139905D01*
X99290190Y-39044667D01*
X99290190Y-38663714D01*
X98861619Y-39616095D02*
X98814000Y-39663714D01*
X98766381Y-39758952D01*
X98766381Y-39997048D01*
X98814000Y-40092286D01*
X98861619Y-40139905D01*
X98956857Y-40187524D01*
X99052095Y-40187524D01*
X99194952Y-40139905D01*
X99766381Y-39568476D01*
X99766381Y-40187524D01*
X98766381Y-41092286D02*
X98766381Y-40616095D01*
X99242571Y-40568476D01*
X99194952Y-40616095D01*
X99147333Y-40711333D01*
X99147333Y-40949429D01*
X99194952Y-41044667D01*
X99242571Y-41092286D01*
X99337810Y-41139905D01*
X99575905Y-41139905D01*
X99671143Y-41092286D01*
X99718762Y-41044667D01*
X99766381Y-40949429D01*
X99766381Y-40711333D01*
X99718762Y-40616095D01*
X99671143Y-40568476D01*
X97226381Y-39235143D02*
X96750190Y-38901809D01*
X97226381Y-38663714D02*
X96226381Y-38663714D01*
X96226381Y-39044667D01*
X96274000Y-39139905D01*
X96321619Y-39187524D01*
X96416857Y-39235143D01*
X96559714Y-39235143D01*
X96654952Y-39187524D01*
X96702571Y-39139905D01*
X96750190Y-39044667D01*
X96750190Y-38663714D01*
X96321619Y-39616095D02*
X96274000Y-39663714D01*
X96226381Y-39758952D01*
X96226381Y-39997048D01*
X96274000Y-40092286D01*
X96321619Y-40139905D01*
X96416857Y-40187524D01*
X96512095Y-40187524D01*
X96654952Y-40139905D01*
X97226381Y-39568476D01*
X97226381Y-40187524D01*
X96226381Y-41044667D02*
X96226381Y-40854190D01*
X96274000Y-40758952D01*
X96321619Y-40711333D01*
X96464476Y-40616095D01*
X96654952Y-40568476D01*
X97035905Y-40568476D01*
X97131143Y-40616095D01*
X97178762Y-40663714D01*
X97226381Y-40758952D01*
X97226381Y-40949429D01*
X97178762Y-41044667D01*
X97131143Y-41092286D01*
X97035905Y-41139905D01*
X96797810Y-41139905D01*
X96702571Y-41092286D01*
X96654952Y-41044667D01*
X96607333Y-40949429D01*
X96607333Y-40758952D01*
X96654952Y-40663714D01*
X96702571Y-40616095D01*
X96797810Y-40568476D01*
X88780857Y-61412381D02*
X89114191Y-60936190D01*
X89352286Y-61412381D02*
X89352286Y-60412381D01*
X88971333Y-60412381D01*
X88876095Y-60460000D01*
X88828476Y-60507619D01*
X88780857Y-60602857D01*
X88780857Y-60745714D01*
X88828476Y-60840952D01*
X88876095Y-60888571D01*
X88971333Y-60936190D01*
X89352286Y-60936190D01*
X88399905Y-60507619D02*
X88352286Y-60460000D01*
X88257048Y-60412381D01*
X88018952Y-60412381D01*
X87923714Y-60460000D01*
X87876095Y-60507619D01*
X87828476Y-60602857D01*
X87828476Y-60698095D01*
X87876095Y-60840952D01*
X88447524Y-61412381D01*
X87828476Y-61412381D01*
X87495143Y-60412381D02*
X86828476Y-60412381D01*
X87257048Y-61412381D01*
X98940857Y-60142381D02*
X99274191Y-59666190D01*
X99512286Y-60142381D02*
X99512286Y-59142381D01*
X99131333Y-59142381D01*
X99036095Y-59190000D01*
X98988476Y-59237619D01*
X98940857Y-59332857D01*
X98940857Y-59475714D01*
X98988476Y-59570952D01*
X99036095Y-59618571D01*
X99131333Y-59666190D01*
X99512286Y-59666190D01*
X98559905Y-59237619D02*
X98512286Y-59190000D01*
X98417048Y-59142381D01*
X98178952Y-59142381D01*
X98083714Y-59190000D01*
X98036095Y-59237619D01*
X97988476Y-59332857D01*
X97988476Y-59428095D01*
X98036095Y-59570952D01*
X98607524Y-60142381D01*
X97988476Y-60142381D01*
X97417048Y-59570952D02*
X97512286Y-59523333D01*
X97559905Y-59475714D01*
X97607524Y-59380476D01*
X97607524Y-59332857D01*
X97559905Y-59237619D01*
X97512286Y-59190000D01*
X97417048Y-59142381D01*
X97226571Y-59142381D01*
X97131333Y-59190000D01*
X97083714Y-59237619D01*
X97036095Y-59332857D01*
X97036095Y-59380476D01*
X97083714Y-59475714D01*
X97131333Y-59523333D01*
X97226571Y-59570952D01*
X97417048Y-59570952D01*
X97512286Y-59618571D01*
X97559905Y-59666190D01*
X97607524Y-59761429D01*
X97607524Y-59951905D01*
X97559905Y-60047143D01*
X97512286Y-60094762D01*
X97417048Y-60142381D01*
X97226571Y-60142381D01*
X97131333Y-60094762D01*
X97083714Y-60047143D01*
X97036095Y-59951905D01*
X97036095Y-59761429D01*
X97083714Y-59666190D01*
X97131333Y-59618571D01*
X97226571Y-59570952D01*
X85034381Y-39235143D02*
X84558190Y-38901809D01*
X85034381Y-38663714D02*
X84034381Y-38663714D01*
X84034381Y-39044667D01*
X84082000Y-39139905D01*
X84129619Y-39187524D01*
X84224857Y-39235143D01*
X84367714Y-39235143D01*
X84462952Y-39187524D01*
X84510571Y-39139905D01*
X84558190Y-39044667D01*
X84558190Y-38663714D01*
X84129619Y-39616095D02*
X84082000Y-39663714D01*
X84034381Y-39758952D01*
X84034381Y-39997048D01*
X84082000Y-40092286D01*
X84129619Y-40139905D01*
X84224857Y-40187524D01*
X84320095Y-40187524D01*
X84462952Y-40139905D01*
X85034381Y-39568476D01*
X85034381Y-40187524D01*
X85034381Y-40663714D02*
X85034381Y-40854190D01*
X84986762Y-40949429D01*
X84939143Y-40997048D01*
X84796286Y-41092286D01*
X84605810Y-41139905D01*
X84224857Y-41139905D01*
X84129619Y-41092286D01*
X84082000Y-41044667D01*
X84034381Y-40949429D01*
X84034381Y-40758952D01*
X84082000Y-40663714D01*
X84129619Y-40616095D01*
X84224857Y-40568476D01*
X84462952Y-40568476D01*
X84558190Y-40616095D01*
X84605810Y-40663714D01*
X84653429Y-40758952D01*
X84653429Y-40949429D01*
X84605810Y-41044667D01*
X84558190Y-41092286D01*
X84462952Y-41139905D01*
X82748381Y-39235143D02*
X82272190Y-38901809D01*
X82748381Y-38663714D02*
X81748381Y-38663714D01*
X81748381Y-39044667D01*
X81796000Y-39139905D01*
X81843619Y-39187524D01*
X81938857Y-39235143D01*
X82081714Y-39235143D01*
X82176952Y-39187524D01*
X82224571Y-39139905D01*
X82272190Y-39044667D01*
X82272190Y-38663714D01*
X81748381Y-39568476D02*
X81748381Y-40187524D01*
X82129333Y-39854190D01*
X82129333Y-39997048D01*
X82176952Y-40092286D01*
X82224571Y-40139905D01*
X82319810Y-40187524D01*
X82557905Y-40187524D01*
X82653143Y-40139905D01*
X82700762Y-40092286D01*
X82748381Y-39997048D01*
X82748381Y-39711333D01*
X82700762Y-39616095D01*
X82653143Y-39568476D01*
X81748381Y-40806571D02*
X81748381Y-40901810D01*
X81796000Y-40997048D01*
X81843619Y-41044667D01*
X81938857Y-41092286D01*
X82129333Y-41139905D01*
X82367429Y-41139905D01*
X82557905Y-41092286D01*
X82653143Y-41044667D01*
X82700762Y-40997048D01*
X82748381Y-40901810D01*
X82748381Y-40806571D01*
X82700762Y-40711333D01*
X82653143Y-40663714D01*
X82557905Y-40616095D01*
X82367429Y-40568476D01*
X82129333Y-40568476D01*
X81938857Y-40616095D01*
X81843619Y-40663714D01*
X81796000Y-40711333D01*
X81748381Y-40806571D01*
X101036381Y-39235143D02*
X100560190Y-38901809D01*
X101036381Y-38663714D02*
X100036381Y-38663714D01*
X100036381Y-39044667D01*
X100084000Y-39139905D01*
X100131619Y-39187524D01*
X100226857Y-39235143D01*
X100369714Y-39235143D01*
X100464952Y-39187524D01*
X100512571Y-39139905D01*
X100560190Y-39044667D01*
X100560190Y-38663714D01*
X100036381Y-39568476D02*
X100036381Y-40187524D01*
X100417333Y-39854190D01*
X100417333Y-39997048D01*
X100464952Y-40092286D01*
X100512571Y-40139905D01*
X100607810Y-40187524D01*
X100845905Y-40187524D01*
X100941143Y-40139905D01*
X100988762Y-40092286D01*
X101036381Y-39997048D01*
X101036381Y-39711333D01*
X100988762Y-39616095D01*
X100941143Y-39568476D01*
X100369714Y-41044667D02*
X101036381Y-41044667D01*
X99988762Y-40806571D02*
X100703048Y-40568476D01*
X100703048Y-41187524D01*
X95956381Y-39235143D02*
X95480190Y-38901809D01*
X95956381Y-38663714D02*
X94956381Y-38663714D01*
X94956381Y-39044667D01*
X95004000Y-39139905D01*
X95051619Y-39187524D01*
X95146857Y-39235143D01*
X95289714Y-39235143D01*
X95384952Y-39187524D01*
X95432571Y-39139905D01*
X95480190Y-39044667D01*
X95480190Y-38663714D01*
X94956381Y-39568476D02*
X94956381Y-40187524D01*
X95337333Y-39854190D01*
X95337333Y-39997048D01*
X95384952Y-40092286D01*
X95432571Y-40139905D01*
X95527810Y-40187524D01*
X95765905Y-40187524D01*
X95861143Y-40139905D01*
X95908762Y-40092286D01*
X95956381Y-39997048D01*
X95956381Y-39711333D01*
X95908762Y-39616095D01*
X95861143Y-39568476D01*
X94956381Y-41092286D02*
X94956381Y-40616095D01*
X95432571Y-40568476D01*
X95384952Y-40616095D01*
X95337333Y-40711333D01*
X95337333Y-40949429D01*
X95384952Y-41044667D01*
X95432571Y-41092286D01*
X95527810Y-41139905D01*
X95765905Y-41139905D01*
X95861143Y-41092286D01*
X95908762Y-41044667D01*
X95956381Y-40949429D01*
X95956381Y-40711333D01*
X95908762Y-40616095D01*
X95861143Y-40568476D01*
X88780857Y-59888381D02*
X89114191Y-59412190D01*
X89352286Y-59888381D02*
X89352286Y-58888381D01*
X88971333Y-58888381D01*
X88876095Y-58936000D01*
X88828476Y-58983619D01*
X88780857Y-59078857D01*
X88780857Y-59221714D01*
X88828476Y-59316952D01*
X88876095Y-59364571D01*
X88971333Y-59412190D01*
X89352286Y-59412190D01*
X88447524Y-58888381D02*
X87828476Y-58888381D01*
X88161810Y-59269333D01*
X88018952Y-59269333D01*
X87923714Y-59316952D01*
X87876095Y-59364571D01*
X87828476Y-59459810D01*
X87828476Y-59697905D01*
X87876095Y-59793143D01*
X87923714Y-59840762D01*
X88018952Y-59888381D01*
X88304667Y-59888381D01*
X88399905Y-59840762D01*
X88447524Y-59793143D01*
X86971333Y-58888381D02*
X87161810Y-58888381D01*
X87257048Y-58936000D01*
X87304667Y-58983619D01*
X87399905Y-59126476D01*
X87447524Y-59316952D01*
X87447524Y-59697905D01*
X87399905Y-59793143D01*
X87352286Y-59840762D01*
X87257048Y-59888381D01*
X87066571Y-59888381D01*
X86971333Y-59840762D01*
X86923714Y-59793143D01*
X86876095Y-59697905D01*
X86876095Y-59459810D01*
X86923714Y-59364571D01*
X86971333Y-59316952D01*
X87066571Y-59269333D01*
X87257048Y-59269333D01*
X87352286Y-59316952D01*
X87399905Y-59364571D01*
X87447524Y-59459810D01*
X101036381Y-61079143D02*
X100560190Y-60745809D01*
X101036381Y-60507714D02*
X100036381Y-60507714D01*
X100036381Y-60888667D01*
X100084000Y-60983905D01*
X100131619Y-61031524D01*
X100226857Y-61079143D01*
X100369714Y-61079143D01*
X100464952Y-61031524D01*
X100512571Y-60983905D01*
X100560190Y-60888667D01*
X100560190Y-60507714D01*
X100036381Y-61412476D02*
X100036381Y-62031524D01*
X100417333Y-61698190D01*
X100417333Y-61841048D01*
X100464952Y-61936286D01*
X100512571Y-61983905D01*
X100607810Y-62031524D01*
X100845905Y-62031524D01*
X100941143Y-61983905D01*
X100988762Y-61936286D01*
X101036381Y-61841048D01*
X101036381Y-61555333D01*
X100988762Y-61460095D01*
X100941143Y-61412476D01*
X100036381Y-62364857D02*
X100036381Y-63031524D01*
X101036381Y-62602952D01*
X86558381Y-39235143D02*
X86082190Y-38901809D01*
X86558381Y-38663714D02*
X85558381Y-38663714D01*
X85558381Y-39044667D01*
X85606000Y-39139905D01*
X85653619Y-39187524D01*
X85748857Y-39235143D01*
X85891714Y-39235143D01*
X85986952Y-39187524D01*
X86034571Y-39139905D01*
X86082190Y-39044667D01*
X86082190Y-38663714D01*
X85558381Y-39568476D02*
X85558381Y-40187524D01*
X85939333Y-39854190D01*
X85939333Y-39997048D01*
X85986952Y-40092286D01*
X86034571Y-40139905D01*
X86129810Y-40187524D01*
X86367905Y-40187524D01*
X86463143Y-40139905D01*
X86510762Y-40092286D01*
X86558381Y-39997048D01*
X86558381Y-39711333D01*
X86510762Y-39616095D01*
X86463143Y-39568476D01*
X85986952Y-40758952D02*
X85939333Y-40663714D01*
X85891714Y-40616095D01*
X85796476Y-40568476D01*
X85748857Y-40568476D01*
X85653619Y-40616095D01*
X85606000Y-40663714D01*
X85558381Y-40758952D01*
X85558381Y-40949429D01*
X85606000Y-41044667D01*
X85653619Y-41092286D01*
X85748857Y-41139905D01*
X85796476Y-41139905D01*
X85891714Y-41092286D01*
X85939333Y-41044667D01*
X85986952Y-40949429D01*
X85986952Y-40758952D01*
X86034571Y-40663714D01*
X86082190Y-40616095D01*
X86177429Y-40568476D01*
X86367905Y-40568476D01*
X86463143Y-40616095D01*
X86510762Y-40663714D01*
X86558381Y-40758952D01*
X86558381Y-40949429D01*
X86510762Y-41044667D01*
X86463143Y-41092286D01*
X86367905Y-41139905D01*
X86177429Y-41139905D01*
X86082190Y-41092286D01*
X86034571Y-41044667D01*
X85986952Y-40949429D01*
X81224381Y-39235143D02*
X80748190Y-38901809D01*
X81224381Y-38663714D02*
X80224381Y-38663714D01*
X80224381Y-39044667D01*
X80272000Y-39139905D01*
X80319619Y-39187524D01*
X80414857Y-39235143D01*
X80557714Y-39235143D01*
X80652952Y-39187524D01*
X80700571Y-39139905D01*
X80748190Y-39044667D01*
X80748190Y-38663714D01*
X80224381Y-39568476D02*
X80224381Y-40187524D01*
X80605333Y-39854190D01*
X80605333Y-39997048D01*
X80652952Y-40092286D01*
X80700571Y-40139905D01*
X80795810Y-40187524D01*
X81033905Y-40187524D01*
X81129143Y-40139905D01*
X81176762Y-40092286D01*
X81224381Y-39997048D01*
X81224381Y-39711333D01*
X81176762Y-39616095D01*
X81129143Y-39568476D01*
X81224381Y-40663714D02*
X81224381Y-40854190D01*
X81176762Y-40949429D01*
X81129143Y-40997048D01*
X80986286Y-41092286D01*
X80795810Y-41139905D01*
X80414857Y-41139905D01*
X80319619Y-41092286D01*
X80272000Y-41044667D01*
X80224381Y-40949429D01*
X80224381Y-40758952D01*
X80272000Y-40663714D01*
X80319619Y-40616095D01*
X80414857Y-40568476D01*
X80652952Y-40568476D01*
X80748190Y-40616095D01*
X80795810Y-40663714D01*
X80843429Y-40758952D01*
X80843429Y-40949429D01*
X80795810Y-41044667D01*
X80748190Y-41092286D01*
X80652952Y-41139905D01*
X102560381Y-39235143D02*
X102084190Y-38901809D01*
X102560381Y-38663714D02*
X101560381Y-38663714D01*
X101560381Y-39044667D01*
X101608000Y-39139905D01*
X101655619Y-39187524D01*
X101750857Y-39235143D01*
X101893714Y-39235143D01*
X101988952Y-39187524D01*
X102036571Y-39139905D01*
X102084190Y-39044667D01*
X102084190Y-38663714D01*
X101893714Y-40092286D02*
X102560381Y-40092286D01*
X101512762Y-39854190D02*
X102227048Y-39616095D01*
X102227048Y-40235143D01*
X101560381Y-40806571D02*
X101560381Y-40901810D01*
X101608000Y-40997048D01*
X101655619Y-41044667D01*
X101750857Y-41092286D01*
X101941333Y-41139905D01*
X102179429Y-41139905D01*
X102369905Y-41092286D01*
X102465143Y-41044667D01*
X102512762Y-40997048D01*
X102560381Y-40901810D01*
X102560381Y-40806571D01*
X102512762Y-40711333D01*
X102465143Y-40663714D01*
X102369905Y-40616095D01*
X102179429Y-40568476D01*
X101941333Y-40568476D01*
X101750857Y-40616095D01*
X101655619Y-40663714D01*
X101608000Y-40711333D01*
X101560381Y-40806571D01*
X94432381Y-39235143D02*
X93956190Y-38901809D01*
X94432381Y-38663714D02*
X93432381Y-38663714D01*
X93432381Y-39044667D01*
X93480000Y-39139905D01*
X93527619Y-39187524D01*
X93622857Y-39235143D01*
X93765714Y-39235143D01*
X93860952Y-39187524D01*
X93908571Y-39139905D01*
X93956190Y-39044667D01*
X93956190Y-38663714D01*
X93765714Y-40092286D02*
X94432381Y-40092286D01*
X93384762Y-39854190D02*
X94099048Y-39616095D01*
X94099048Y-40235143D01*
X94432381Y-41139905D02*
X94432381Y-40568476D01*
X94432381Y-40854190D02*
X93432381Y-40854190D01*
X93575238Y-40758952D01*
X93670476Y-40663714D01*
X93718095Y-40568476D01*
X88780857Y-58364381D02*
X89114191Y-57888190D01*
X89352286Y-58364381D02*
X89352286Y-57364381D01*
X88971333Y-57364381D01*
X88876095Y-57412000D01*
X88828476Y-57459619D01*
X88780857Y-57554857D01*
X88780857Y-57697714D01*
X88828476Y-57792952D01*
X88876095Y-57840571D01*
X88971333Y-57888190D01*
X89352286Y-57888190D01*
X87923714Y-57697714D02*
X87923714Y-58364381D01*
X88161810Y-57316762D02*
X88399905Y-58031048D01*
X87780857Y-58031048D01*
X87447524Y-57459619D02*
X87399905Y-57412000D01*
X87304667Y-57364381D01*
X87066571Y-57364381D01*
X86971333Y-57412000D01*
X86923714Y-57459619D01*
X86876095Y-57554857D01*
X86876095Y-57650095D01*
X86923714Y-57792952D01*
X87495143Y-58364381D01*
X86876095Y-58364381D01*
X102560381Y-61079143D02*
X102084190Y-60745809D01*
X102560381Y-60507714D02*
X101560381Y-60507714D01*
X101560381Y-60888667D01*
X101608000Y-60983905D01*
X101655619Y-61031524D01*
X101750857Y-61079143D01*
X101893714Y-61079143D01*
X101988952Y-61031524D01*
X102036571Y-60983905D01*
X102084190Y-60888667D01*
X102084190Y-60507714D01*
X101893714Y-61936286D02*
X102560381Y-61936286D01*
X101512762Y-61698190D02*
X102227048Y-61460095D01*
X102227048Y-62079143D01*
X101560381Y-62364857D02*
X101560381Y-62983905D01*
X101941333Y-62650571D01*
X101941333Y-62793429D01*
X101988952Y-62888667D01*
X102036571Y-62936286D01*
X102131810Y-62983905D01*
X102369905Y-62983905D01*
X102465143Y-62936286D01*
X102512762Y-62888667D01*
X102560381Y-62793429D01*
X102560381Y-62507714D01*
X102512762Y-62412476D01*
X102465143Y-62364857D01*
X87828381Y-39235143D02*
X87352190Y-38901809D01*
X87828381Y-38663714D02*
X86828381Y-38663714D01*
X86828381Y-39044667D01*
X86876000Y-39139905D01*
X86923619Y-39187524D01*
X87018857Y-39235143D01*
X87161714Y-39235143D01*
X87256952Y-39187524D01*
X87304571Y-39139905D01*
X87352190Y-39044667D01*
X87352190Y-38663714D01*
X87161714Y-40092286D02*
X87828381Y-40092286D01*
X86780762Y-39854190D02*
X87495048Y-39616095D01*
X87495048Y-40235143D01*
X87161714Y-41044667D02*
X87828381Y-41044667D01*
X86780762Y-40806571D02*
X87495048Y-40568476D01*
X87495048Y-41187524D01*
X79700381Y-39235143D02*
X79224190Y-38901809D01*
X79700381Y-38663714D02*
X78700381Y-38663714D01*
X78700381Y-39044667D01*
X78748000Y-39139905D01*
X78795619Y-39187524D01*
X78890857Y-39235143D01*
X79033714Y-39235143D01*
X79128952Y-39187524D01*
X79176571Y-39139905D01*
X79224190Y-39044667D01*
X79224190Y-38663714D01*
X79033714Y-40092286D02*
X79700381Y-40092286D01*
X78652762Y-39854190D02*
X79367048Y-39616095D01*
X79367048Y-40235143D01*
X78700381Y-41092286D02*
X78700381Y-40616095D01*
X79176571Y-40568476D01*
X79128952Y-40616095D01*
X79081333Y-40711333D01*
X79081333Y-40949429D01*
X79128952Y-41044667D01*
X79176571Y-41092286D01*
X79271810Y-41139905D01*
X79509905Y-41139905D01*
X79605143Y-41092286D01*
X79652762Y-41044667D01*
X79700381Y-40949429D01*
X79700381Y-40711333D01*
X79652762Y-40616095D01*
X79605143Y-40568476D01*
X68206857Y-51559381D02*
X68540191Y-51083190D01*
X68778286Y-51559381D02*
X68778286Y-50559381D01*
X68397333Y-50559381D01*
X68302095Y-50607000D01*
X68254476Y-50654619D01*
X68206857Y-50749857D01*
X68206857Y-50892714D01*
X68254476Y-50987952D01*
X68302095Y-51035571D01*
X68397333Y-51083190D01*
X68778286Y-51083190D01*
X67349714Y-50892714D02*
X67349714Y-51559381D01*
X67587810Y-50511762D02*
X67825905Y-51226048D01*
X67206857Y-51226048D01*
X66397333Y-50559381D02*
X66587810Y-50559381D01*
X66683048Y-50607000D01*
X66730667Y-50654619D01*
X66825905Y-50797476D01*
X66873524Y-50987952D01*
X66873524Y-51368905D01*
X66825905Y-51464143D01*
X66778286Y-51511762D01*
X66683048Y-51559381D01*
X66492571Y-51559381D01*
X66397333Y-51511762D01*
X66349714Y-51464143D01*
X66302095Y-51368905D01*
X66302095Y-51130810D01*
X66349714Y-51035571D01*
X66397333Y-50987952D01*
X66492571Y-50940333D01*
X66683048Y-50940333D01*
X66778286Y-50987952D01*
X66825905Y-51035571D01*
X66873524Y-51130810D01*
X53474857Y-55570381D02*
X53808191Y-55094190D01*
X54046286Y-55570381D02*
X54046286Y-54570381D01*
X53665333Y-54570381D01*
X53570095Y-54618000D01*
X53522476Y-54665619D01*
X53474857Y-54760857D01*
X53474857Y-54903714D01*
X53522476Y-54998952D01*
X53570095Y-55046571D01*
X53665333Y-55094190D01*
X54046286Y-55094190D01*
X52570095Y-54570381D02*
X53046286Y-54570381D01*
X53093905Y-55046571D01*
X53046286Y-54998952D01*
X52951048Y-54951333D01*
X52712952Y-54951333D01*
X52617714Y-54998952D01*
X52570095Y-55046571D01*
X52522476Y-55141810D01*
X52522476Y-55379905D01*
X52570095Y-55475143D01*
X52617714Y-55522762D01*
X52712952Y-55570381D01*
X52951048Y-55570381D01*
X53046286Y-55522762D01*
X53093905Y-55475143D01*
X52189143Y-54570381D02*
X51570095Y-54570381D01*
X51903429Y-54951333D01*
X51760571Y-54951333D01*
X51665333Y-54998952D01*
X51617714Y-55046571D01*
X51570095Y-55141810D01*
X51570095Y-55379905D01*
X51617714Y-55475143D01*
X51665333Y-55522762D01*
X51760571Y-55570381D01*
X52046286Y-55570381D01*
X52141524Y-55522762D01*
X52189143Y-55475143D01*
X74302857Y-45156381D02*
X74636191Y-44680190D01*
X74874286Y-45156381D02*
X74874286Y-44156381D01*
X74493333Y-44156381D01*
X74398095Y-44204000D01*
X74350476Y-44251619D01*
X74302857Y-44346857D01*
X74302857Y-44489714D01*
X74350476Y-44584952D01*
X74398095Y-44632571D01*
X74493333Y-44680190D01*
X74874286Y-44680190D01*
X73445714Y-44156381D02*
X73636191Y-44156381D01*
X73731429Y-44204000D01*
X73779048Y-44251619D01*
X73874286Y-44394476D01*
X73921905Y-44584952D01*
X73921905Y-44965905D01*
X73874286Y-45061143D01*
X73826667Y-45108762D01*
X73731429Y-45156381D01*
X73540952Y-45156381D01*
X73445714Y-45108762D01*
X73398095Y-45061143D01*
X73350476Y-44965905D01*
X73350476Y-44727810D01*
X73398095Y-44632571D01*
X73445714Y-44584952D01*
X73540952Y-44537333D01*
X73731429Y-44537333D01*
X73826667Y-44584952D01*
X73874286Y-44632571D01*
X73921905Y-44727810D01*
X72731429Y-44156381D02*
X72636190Y-44156381D01*
X72540952Y-44204000D01*
X72493333Y-44251619D01*
X72445714Y-44346857D01*
X72398095Y-44537333D01*
X72398095Y-44775429D01*
X72445714Y-44965905D01*
X72493333Y-45061143D01*
X72540952Y-45108762D01*
X72636190Y-45156381D01*
X72731429Y-45156381D01*
X72826667Y-45108762D01*
X72874286Y-45061143D01*
X72921905Y-44965905D01*
X72969524Y-44775429D01*
X72969524Y-44537333D01*
X72921905Y-44346857D01*
X72874286Y-44251619D01*
X72826667Y-44204000D01*
X72731429Y-44156381D01*
X83819905Y-62190381D02*
X83819905Y-62999905D01*
X83772286Y-63095143D01*
X83724667Y-63142762D01*
X83629429Y-63190381D01*
X83438952Y-63190381D01*
X83343714Y-63142762D01*
X83296095Y-63095143D01*
X83248476Y-62999905D01*
X83248476Y-62190381D01*
X82248476Y-63190381D02*
X82819905Y-63190381D01*
X82534191Y-63190381D02*
X82534191Y-62190381D01*
X82629429Y-62333238D01*
X82724667Y-62428476D01*
X82819905Y-62476095D01*
X105409905Y-62190381D02*
X105409905Y-62999905D01*
X105362286Y-63095143D01*
X105314667Y-63142762D01*
X105219429Y-63190381D01*
X105028952Y-63190381D01*
X104933714Y-63142762D01*
X104886095Y-63095143D01*
X104838476Y-62999905D01*
X104838476Y-62190381D01*
X104409905Y-62285619D02*
X104362286Y-62238000D01*
X104267048Y-62190381D01*
X104028952Y-62190381D01*
X103933714Y-62238000D01*
X103886095Y-62285619D01*
X103838476Y-62380857D01*
X103838476Y-62476095D01*
X103886095Y-62618952D01*
X104457524Y-63190381D01*
X103838476Y-63190381D01*
X61721905Y-62444381D02*
X61721905Y-63253905D01*
X61674286Y-63349143D01*
X61626667Y-63396762D01*
X61531429Y-63444381D01*
X61340952Y-63444381D01*
X61245714Y-63396762D01*
X61198095Y-63349143D01*
X61150476Y-63253905D01*
X61150476Y-62444381D01*
X60531429Y-62872952D02*
X60626667Y-62825333D01*
X60674286Y-62777714D01*
X60721905Y-62682476D01*
X60721905Y-62634857D01*
X60674286Y-62539619D01*
X60626667Y-62492000D01*
X60531429Y-62444381D01*
X60340952Y-62444381D01*
X60245714Y-62492000D01*
X60198095Y-62539619D01*
X60150476Y-62634857D01*
X60150476Y-62682476D01*
X60198095Y-62777714D01*
X60245714Y-62825333D01*
X60340952Y-62872952D01*
X60531429Y-62872952D01*
X60626667Y-62920571D01*
X60674286Y-62968190D01*
X60721905Y-63063429D01*
X60721905Y-63253905D01*
X60674286Y-63349143D01*
X60626667Y-63396762D01*
X60531429Y-63444381D01*
X60340952Y-63444381D01*
X60245714Y-63396762D01*
X60198095Y-63349143D01*
X60150476Y-63253905D01*
X60150476Y-63063429D01*
X60198095Y-62968190D01*
X60245714Y-62920571D01*
X60340952Y-62872952D01*
X60959905Y-69302381D02*
X60959905Y-70111905D01*
X60912286Y-70207143D01*
X60864667Y-70254762D01*
X60769429Y-70302381D01*
X60578952Y-70302381D01*
X60483714Y-70254762D01*
X60436095Y-70207143D01*
X60388476Y-70111905D01*
X60388476Y-69302381D01*
X59864667Y-70302381D02*
X59674191Y-70302381D01*
X59578952Y-70254762D01*
X59531333Y-70207143D01*
X59436095Y-70064286D01*
X59388476Y-69873810D01*
X59388476Y-69492857D01*
X59436095Y-69397619D01*
X59483714Y-69350000D01*
X59578952Y-69302381D01*
X59769429Y-69302381D01*
X59864667Y-69350000D01*
X59912286Y-69397619D01*
X59959905Y-69492857D01*
X59959905Y-69730952D01*
X59912286Y-69826190D01*
X59864667Y-69873810D01*
X59769429Y-69921429D01*
X59578952Y-69921429D01*
X59483714Y-69873810D01*
X59436095Y-69826190D01*
X59388476Y-69730952D01*
M02*
