M48
;DRILL file {KiCad 4.0.7} date 05/04/18 22:28:13
;FORMAT={-:-/ absolute / inch / decimal}
FMAT,2
INCH,TZ
T1C0.016
T2C0.035
T3C0.039
T4C0.047
T5C0.070
%
G90
G05
M72
T1
X1.975Y-1.82
X1.975Y-1.86
X1.975Y-1.9
X1.975Y-1.945
X1.975Y-1.985
X2.06Y-2.39
X2.1423Y-2.39
X2.17Y-2.85
X2.23Y-2.39
X2.23Y-2.62
X2.26Y-2.85
X2.265Y-2.62
X2.265Y-2.96
X2.3Y-2.39
X2.305Y-2.62
X2.32Y-2.
X2.32Y-2.3
X2.335Y-1.81
X2.34Y-1.74
X2.34Y-2.11
X2.34Y-2.165
X2.34Y-2.62
X2.37Y-2.62
X2.375Y-2.39
X2.38Y-1.74
X2.38Y-2.165
X2.415Y-1.74
X2.415Y-2.71
X2.42Y-2.165
X2.43Y-2.77
X2.445Y-1.77
X2.455Y-2.14
X2.47Y-1.795
X2.4898Y-2.1102
X2.49Y-2.285
X2.4905Y-2.35
X2.505Y-2.585
X2.54Y-2.65
X2.55Y-2.35
X2.55Y-2.56
X2.5725Y-2.2675
X2.59Y-2.77
X2.615Y-2.575
X2.63Y-1.91
X2.64Y-2.315
X2.65Y-2.005
X2.69Y-2.005
X2.69Y-2.23
X2.7Y-2.64
X2.715Y-1.74
X2.73Y-1.81
X2.77Y-2.345
X2.775Y-2.395
X2.775Y-2.45
X2.79Y-2.32
X2.82Y-1.775
X2.825Y-2.705
X2.855Y-2.425
X2.855Y-1.98
X2.855Y-2.46
X2.865Y-1.775
X2.87Y-2.755
X2.87Y-3.005
X2.89Y-2.465
X2.895Y-1.735
X2.9Y-2.535
X2.9062Y-2.492
X2.9572Y-2.5373
X2.965Y-2.1
X2.965Y-2.14
X2.965Y-2.185
X3.0173Y-2.69
X3.02Y-2.27
X3.05Y-2.69
X3.07Y-2.82
X3.07Y-2.95
X3.08Y-2.37
X3.08Y-2.405
X3.12Y-1.78
X3.12Y-2.65
X3.16Y-2.37
X3.16Y-2.405
X3.17Y-2.65
X3.18Y-1.73
X3.18Y-1.84
X3.201Y-2.5888
X3.23Y-1.725
X3.23Y-1.84
X3.23Y-2.02
X3.32Y-2.17
X3.33Y-1.85
X3.36Y-2.63
X3.38Y-1.725
X3.38Y-1.85
X3.44Y-1.78
X3.455Y-2.25
X3.47Y-2.47
X3.52Y-2.63
X3.555Y-2.13
X3.555Y-2.17
X3.57Y-1.92
X3.62Y-2.345
X3.68Y-2.63
X3.7Y-1.78
X3.7Y-2.22
X3.75Y-2.16
X3.75Y-2.28
X3.76Y-1.84
X3.79Y-2.47
X3.81Y-1.84
X3.81Y-2.16
X3.81Y-2.3246
X3.84Y-2.63
X3.86Y-2.16
X3.89Y-2.
X3.89Y-2.42
X3.89Y-2.47
X3.9Y-2.16
X3.9Y-2.3
X3.91Y-1.725
X3.91Y-1.84
X3.96Y-1.84
X3.96Y-2.16
X3.96Y-2.275
X4.Y-2.63
X4.02Y-1.78
X4.02Y-2.22
X4.035Y-2.35
X4.0826Y-2.3246
X4.0905Y-2.4073
X4.115Y-2.32
X4.13Y-1.665
X4.135Y-2.295
X4.16Y-1.77
T2
X3.285Y-2.925
X3.3834Y-2.925
X3.4819Y-2.925
X3.5803Y-2.925
X3.6787Y-2.925
X3.7771Y-2.925
X3.8756Y-2.925
T3
X1.74Y-1.61
X1.84Y-1.61
X1.94Y-1.61
X2.04Y-1.61
X2.14Y-1.61
X2.24Y-1.61
X2.545Y-1.61
X2.645Y-1.61
X2.79Y-1.61
X2.89Y-1.61
X2.99Y-1.61
T4
X1.775Y-2.775
X1.8734Y-2.5781
X1.9719Y-2.775
X2.0703Y-2.5781
T5
X1.7411Y-1.9
X1.7411Y-2.2906
X1.875Y-1.9
X1.875Y-2.2906
T0
M30
