G04 #@! TF.FileFunction,Copper,L2,Bot,Signal*
%FSLAX46Y46*%
G04 Gerber Fmt 4.6, Leading zero omitted, Abs format (unit mm)*
G04 Created by KiCad (PCBNEW 4.0.7) date 05/04/18 22:17:41*
%MOMM*%
%LPD*%
G01*
G04 APERTURE LIST*
%ADD10C,0.100000*%
%ADD11R,0.750000X0.800000*%
%ADD12R,0.800000X0.750000*%
%ADD13R,1.700000X1.300000*%
%ADD14R,0.800000X0.900000*%
%ADD15C,2.780000*%
%ADD16R,1.850000X1.850000*%
%ADD17C,1.850000*%
%ADD18C,3.000000*%
%ADD19R,1.700000X1.700000*%
%ADD20O,1.700000X1.700000*%
%ADD21R,0.900000X0.800000*%
%ADD22R,0.500000X0.900000*%
%ADD23R,0.900000X0.500000*%
%ADD24R,0.800000X1.300000*%
%ADD25R,1.060000X0.400000*%
%ADD26R,0.650000X1.060000*%
%ADD27C,0.600000*%
%ADD28C,0.250000*%
%ADD29C,0.200000*%
%ADD30C,0.500000*%
%ADD31C,2.540000*%
%ADD32C,0.254000*%
G04 APERTURE END LIST*
D10*
D11*
X99314000Y-47510000D03*
X99314000Y-49010000D03*
X96774000Y-47510000D03*
X96774000Y-49010000D03*
X96774000Y-54090000D03*
X96774000Y-52590000D03*
X99314000Y-54090000D03*
X99314000Y-52590000D03*
X84582000Y-47510000D03*
X84582000Y-49010000D03*
X82042000Y-47510000D03*
X82042000Y-49010000D03*
D12*
X98794000Y-51435000D03*
X97294000Y-51435000D03*
X82030000Y-52070000D03*
X80530000Y-52070000D03*
X97294000Y-50165000D03*
X98794000Y-50165000D03*
X80530000Y-50546000D03*
X82030000Y-50546000D03*
D11*
X102108000Y-49010000D03*
X102108000Y-47510000D03*
X93980000Y-49010000D03*
X93980000Y-47510000D03*
X93980000Y-52590000D03*
X93980000Y-54090000D03*
X102108000Y-52590000D03*
X102108000Y-54090000D03*
X87376000Y-49010000D03*
X87376000Y-47510000D03*
X79248000Y-49010000D03*
X79248000Y-47510000D03*
D12*
X71489000Y-62230000D03*
X69989000Y-62230000D03*
X64758000Y-60452000D03*
X63258000Y-60452000D03*
X63258000Y-58928000D03*
X64758000Y-58928000D03*
D13*
X89408000Y-56360000D03*
X89408000Y-52860000D03*
D14*
X69662000Y-43069000D03*
X71562000Y-43069000D03*
X70612000Y-45069000D03*
X65979000Y-43069000D03*
X67879000Y-43069000D03*
X66929000Y-45069000D03*
D15*
X47625000Y-48260000D03*
X44225000Y-48260000D03*
X47625000Y-58180000D03*
X44225000Y-58180000D03*
D16*
X83439000Y-74295000D03*
D17*
X85939000Y-74295000D03*
X88439000Y-74295000D03*
X90939000Y-74295000D03*
X93439000Y-74295000D03*
X95939000Y-74295000D03*
X98439000Y-74295000D03*
D18*
X52584360Y-65483740D03*
X50085000Y-70485000D03*
X45085000Y-70485000D03*
X47584360Y-65483740D03*
D19*
X67183000Y-40894000D03*
D20*
X64643000Y-40894000D03*
D19*
X56896000Y-40894000D03*
D20*
X54356000Y-40894000D03*
X51816000Y-40894000D03*
X49276000Y-40894000D03*
X46736000Y-40894000D03*
X44196000Y-40894000D03*
D19*
X75946000Y-40894000D03*
D20*
X73406000Y-40894000D03*
X70866000Y-40894000D03*
D14*
X87310000Y-56118000D03*
X85410000Y-56118000D03*
X86360000Y-54118000D03*
D21*
X87360000Y-50612000D03*
X87360000Y-52512000D03*
X85360000Y-51562000D03*
D22*
X84594000Y-62738000D03*
X86094000Y-62738000D03*
X87134000Y-62738000D03*
X88634000Y-62738000D03*
X89674000Y-62738000D03*
X91174000Y-62738000D03*
X92214000Y-62738000D03*
X93714000Y-62738000D03*
X95262000Y-62738000D03*
X96762000Y-62738000D03*
X97802000Y-62738000D03*
X99302000Y-62738000D03*
D23*
X99314000Y-44716000D03*
X99314000Y-46216000D03*
X96774000Y-44716000D03*
X96774000Y-46216000D03*
X96774000Y-56884000D03*
X96774000Y-55384000D03*
X99060000Y-56884000D03*
X99060000Y-55384000D03*
X84582000Y-44716000D03*
X84582000Y-46216000D03*
X82042000Y-44716000D03*
X82042000Y-46216000D03*
X100584000Y-44716000D03*
X100584000Y-46216000D03*
X95504000Y-44716000D03*
X95504000Y-46216000D03*
X95250000Y-56884000D03*
X95250000Y-55384000D03*
X100584000Y-56884000D03*
X100584000Y-55384000D03*
X86106000Y-44716000D03*
X86106000Y-46216000D03*
X80772000Y-44716000D03*
X80772000Y-46216000D03*
X102108000Y-46216000D03*
X102108000Y-44716000D03*
X93980000Y-46216000D03*
X93980000Y-44716000D03*
X93980000Y-55384000D03*
X93980000Y-56884000D03*
X102108000Y-55384000D03*
X102108000Y-56884000D03*
X87376000Y-46216000D03*
X87376000Y-44716000D03*
X79248000Y-46216000D03*
X79248000Y-44716000D03*
D22*
X66814000Y-49657000D03*
X68314000Y-49657000D03*
D23*
X52832000Y-53582000D03*
X52832000Y-52082000D03*
D22*
X74537000Y-43053000D03*
X73037000Y-43053000D03*
D24*
X84577000Y-64541000D03*
X85857000Y-64541000D03*
X87117000Y-64541000D03*
X88387000Y-64541000D03*
X89667000Y-64541000D03*
X90937000Y-64541000D03*
X92197000Y-64541000D03*
X93477000Y-64541000D03*
X93477000Y-70841000D03*
X92197000Y-70841000D03*
X90937000Y-70841000D03*
X89667000Y-70841000D03*
X88387000Y-70841000D03*
X87117000Y-70841000D03*
X85857000Y-70841000D03*
X84577000Y-70841000D03*
X95626000Y-64541000D03*
X96906000Y-64541000D03*
X98166000Y-64541000D03*
X99436000Y-64541000D03*
X100716000Y-64541000D03*
X101986000Y-64541000D03*
X103246000Y-64541000D03*
X104526000Y-64541000D03*
X104526000Y-70841000D03*
X103246000Y-70841000D03*
X101986000Y-70841000D03*
X100716000Y-70841000D03*
X99436000Y-70841000D03*
X98166000Y-70841000D03*
X96906000Y-70841000D03*
X95626000Y-70841000D03*
D25*
X62908000Y-63972000D03*
X62908000Y-63322000D03*
X62908000Y-62662000D03*
X62908000Y-62012000D03*
X65108000Y-62012000D03*
X65108000Y-62662000D03*
X65108000Y-63322000D03*
X65108000Y-63972000D03*
D26*
X64450000Y-70696000D03*
X63500000Y-70696000D03*
X62550000Y-70696000D03*
X62550000Y-68496000D03*
X64450000Y-68496000D03*
D27*
X90678000Y-48768000D03*
X99314000Y-46736000D03*
X77216000Y-44069000D03*
X68580000Y-67056000D03*
X98806000Y-61468000D03*
X64516000Y-67310000D03*
X61341000Y-68834000D03*
X77978000Y-74930000D03*
X77978000Y-71628000D03*
X80518000Y-67310000D03*
X80772000Y-43942000D03*
X98044000Y-54864000D03*
X57531000Y-75184000D03*
X68326000Y-56642000D03*
X64770000Y-59690000D03*
X96774000Y-46736000D03*
X96774000Y-54864000D03*
X99060000Y-54864000D03*
X84582000Y-46990000D03*
X82042000Y-46736000D03*
X82042000Y-51308000D03*
X98806000Y-50800000D03*
X73660000Y-64389000D03*
X73817603Y-63297005D03*
X77470000Y-68326000D03*
X76640021Y-68326000D03*
X73406000Y-62611000D03*
X72517000Y-62484000D03*
X105664000Y-44958000D03*
X104902000Y-42291000D03*
X57404000Y-72390000D03*
X55118000Y-72390000D03*
X63258000Y-59690000D03*
X67310000Y-50927000D03*
X67056000Y-58801000D03*
X70866000Y-58928000D03*
X66421000Y-65405000D03*
X63627000Y-65659000D03*
X73533000Y-44069000D03*
X69342000Y-45974000D03*
X61722000Y-70358000D03*
X63246000Y-58039000D03*
X70485000Y-62230000D03*
X70485000Y-60833000D03*
X59563000Y-41656000D03*
X61468000Y-39624000D03*
X81026000Y-58420000D03*
X81026000Y-56769000D03*
X77724000Y-46863000D03*
X102489000Y-59690000D03*
X91948000Y-59563000D03*
X90297000Y-55118000D03*
X50165000Y-49403000D03*
X50165000Y-47244000D03*
X50165000Y-48260000D03*
X50165000Y-50419000D03*
X50165000Y-46228000D03*
X90297000Y-54102000D03*
X72771000Y-45085000D03*
X72517000Y-50292000D03*
X71628000Y-45085000D03*
X68961000Y-44196000D03*
X72516984Y-61595000D03*
X96774000Y-59045010D03*
X103698118Y-59045010D03*
X104521000Y-58928000D03*
X99060000Y-58420000D03*
X95250000Y-57912000D03*
X100584000Y-57785000D03*
X105029000Y-58293000D03*
X59436000Y-66548000D03*
X60198000Y-66548000D03*
X57531000Y-66548000D03*
X56642000Y-66548000D03*
X58547000Y-66548000D03*
X76708000Y-57658000D03*
X87757000Y-57150000D03*
X84328000Y-55118000D03*
X58928000Y-58420000D03*
X58928000Y-50800000D03*
X61468000Y-54991000D03*
X60452000Y-54991000D03*
X62103000Y-44958000D03*
X62738000Y-45593000D03*
X61341000Y-44196000D03*
X60452000Y-44196000D03*
X59436000Y-44196000D03*
X62357000Y-54356000D03*
X63240000Y-53600000D03*
X59436000Y-54991000D03*
X59309000Y-45974000D03*
X59436000Y-53594000D03*
X52324000Y-60706000D03*
X60325000Y-60706000D03*
X58420000Y-60706000D03*
X56642000Y-60706000D03*
X54415000Y-60706000D03*
X98806000Y-62738000D03*
X80264000Y-60198000D03*
X78232000Y-60198000D03*
X96266000Y-62738000D03*
X80264000Y-61087000D03*
X78232000Y-61087000D03*
X75311000Y-53340000D03*
X75311000Y-54356000D03*
X88138000Y-62738000D03*
X79248000Y-67310000D03*
X81306592Y-65754306D03*
X85344000Y-66802000D03*
X89408000Y-66802000D03*
X93472000Y-66802000D03*
X97536000Y-66802000D03*
X101600000Y-66802000D03*
X102108000Y-45212000D03*
X93980000Y-45212000D03*
X93980000Y-56388000D03*
X102108000Y-56388000D03*
X87376000Y-45212000D03*
X79248000Y-45212000D03*
X66802000Y-48514000D03*
X68326000Y-50927000D03*
X71755000Y-68707000D03*
X75311000Y-55499000D03*
X65341500Y-57594500D03*
X64770000Y-65024000D03*
X65786000Y-70358000D03*
X75112999Y-64446921D03*
X72898000Y-76327000D03*
X72898000Y-69977000D03*
X70358000Y-59563000D03*
X85852000Y-43816032D03*
X82042000Y-43816032D03*
X103898341Y-61146021D03*
X99314000Y-43815000D03*
X100584000Y-46736000D03*
X95504000Y-46736000D03*
X95250000Y-54864000D03*
X100584000Y-54864000D03*
X85852000Y-46990000D03*
X80772000Y-46736000D03*
D28*
X91948000Y-48740000D02*
X90706000Y-48740000D01*
X90706000Y-48740000D02*
X90678000Y-48768000D01*
X71489000Y-60833000D02*
X72136000Y-60186000D01*
X99314000Y-46736000D02*
X99314000Y-47510000D01*
X99314000Y-47510000D02*
X99314000Y-46216000D01*
D29*
X64643000Y-40894000D02*
X64643000Y-38989000D01*
X64516000Y-38862000D02*
X60325000Y-38862000D01*
X64643000Y-38989000D02*
X64516000Y-38862000D01*
X80772000Y-43942000D02*
X78359000Y-43942000D01*
X78359000Y-43942000D02*
X78232000Y-44069000D01*
X77216000Y-44069000D02*
X78232000Y-44069000D01*
D28*
X68280001Y-67355999D02*
X68580000Y-67056000D01*
X67140000Y-68496000D02*
X68280001Y-67355999D01*
X64450000Y-68496000D02*
X67140000Y-68496000D01*
X71489000Y-64147000D02*
X68879999Y-66756001D01*
X71489000Y-62230000D02*
X71489000Y-64147000D01*
X68879999Y-66756001D02*
X68580000Y-67056000D01*
X61341000Y-68834000D02*
X61341000Y-68199000D01*
X64450000Y-68496000D02*
X64450000Y-69154000D01*
X62230000Y-69723000D02*
X61341000Y-68834000D01*
X63881000Y-69723000D02*
X62230000Y-69723000D01*
X64450000Y-69154000D02*
X63881000Y-69723000D01*
X64008000Y-64262000D02*
X64008000Y-63754000D01*
X62357000Y-65913000D02*
X64008000Y-64262000D01*
X62357000Y-67183000D02*
X62357000Y-65913000D01*
X61341000Y-68199000D02*
X62357000Y-67183000D01*
X87376000Y-49010000D02*
X89138000Y-49010000D01*
X89138000Y-49010000D02*
X89408000Y-48740000D01*
X99436000Y-64541000D02*
X99436000Y-64013000D01*
X77978000Y-71628000D02*
X77978000Y-74930000D01*
X64008000Y-62865000D02*
X64008000Y-61202000D01*
X64008000Y-61202000D02*
X64758000Y-60452000D01*
X82042000Y-44716000D02*
X82042000Y-44704000D01*
X82042000Y-44704000D02*
X81280000Y-43942000D01*
X81280000Y-43942000D02*
X80772000Y-43942000D01*
X84582000Y-44716000D02*
X82042000Y-44716000D01*
X99314000Y-44716000D02*
X96774000Y-44716000D01*
X96774000Y-52590000D02*
X97675000Y-52590000D01*
X98044000Y-52959000D02*
X98044000Y-54864000D01*
X97675000Y-52590000D02*
X98044000Y-52959000D01*
X64770000Y-58293000D02*
X64262000Y-57785000D01*
X64262000Y-57785000D02*
X64262000Y-57277000D01*
X64262000Y-57277000D02*
X64897000Y-56642000D01*
X64897000Y-56642000D02*
X68326000Y-56642000D01*
X64770000Y-58293000D02*
X64770000Y-59690000D01*
X65108000Y-63972000D02*
X64044000Y-63972000D01*
X64008000Y-63936000D02*
X64008000Y-63754000D01*
X64008000Y-63754000D02*
X64008000Y-62865000D01*
X64044000Y-63972000D02*
X64008000Y-63936000D01*
X62908000Y-62662000D02*
X63957000Y-62662000D01*
X64059000Y-63322000D02*
X65108000Y-63322000D01*
X64008000Y-63373000D02*
X64059000Y-63322000D01*
X64008000Y-62713000D02*
X64008000Y-62865000D01*
X64008000Y-62865000D02*
X64008000Y-63373000D01*
X63957000Y-62662000D02*
X64008000Y-62713000D01*
X96774000Y-46216000D02*
X96774000Y-46736000D01*
X96774000Y-47510000D02*
X96774000Y-46216000D01*
X96774000Y-54864000D02*
X96774000Y-55384000D01*
X96774000Y-54090000D02*
X96774000Y-55384000D01*
X99060000Y-54864000D02*
X99314000Y-54610000D01*
X99314000Y-54610000D02*
X99314000Y-54090000D01*
X99060000Y-55384000D02*
X99060000Y-54864000D01*
X99060000Y-55384000D02*
X99060000Y-54864000D01*
X84582000Y-46216000D02*
X84582000Y-46990000D01*
X84582000Y-47510000D02*
X84582000Y-46990000D01*
X82042000Y-46216000D02*
X82042000Y-47510000D01*
X82042000Y-46736000D02*
X82042000Y-46216000D01*
X85360000Y-51562000D02*
X82296000Y-51562000D01*
X82296000Y-51562000D02*
X82042000Y-51308000D01*
X82042000Y-51308000D02*
X82042000Y-52058000D01*
X82042000Y-52058000D02*
X82030000Y-52070000D01*
X82030000Y-51296000D02*
X82030000Y-50546000D01*
X82042000Y-51308000D02*
X82030000Y-51296000D01*
X98806000Y-50800000D02*
X98806000Y-50177000D01*
X98806000Y-50177000D02*
X98794000Y-50165000D01*
X98794000Y-50812000D02*
X98794000Y-51435000D01*
X98806000Y-50800000D02*
X98794000Y-50812000D01*
D29*
X79172000Y-46140000D02*
X77216000Y-46140000D01*
D28*
X77216000Y-46140000D02*
X74549000Y-48807000D01*
X74549000Y-48807000D02*
X74549000Y-63490610D01*
X73660000Y-64379610D02*
X73660000Y-64389000D01*
X74549000Y-63490610D02*
X73660000Y-64379610D01*
D29*
X79172000Y-46140000D02*
X79248000Y-46216000D01*
D28*
X79248000Y-47510000D02*
X79248000Y-46216000D01*
X87376000Y-46216000D02*
X88432000Y-46216000D01*
X87376000Y-46216000D02*
X87376000Y-47510000D01*
X89408000Y-45240000D02*
X89208000Y-45240000D01*
X89208000Y-45240000D02*
X87159022Y-43191022D01*
X87159022Y-43191022D02*
X76991215Y-43191022D01*
X88432000Y-46216000D02*
X89408000Y-45240000D01*
X74098989Y-63015619D02*
X73817603Y-63297005D01*
X76991215Y-43191022D02*
X74098989Y-46083248D01*
X74098989Y-46083248D02*
X74098989Y-63015619D01*
X102108000Y-55384000D02*
X103164000Y-55384000D01*
X102108000Y-54090000D02*
X102108000Y-55384000D01*
X104070989Y-60521011D02*
X83625399Y-60521011D01*
X83625399Y-60521011D02*
X77470000Y-66676410D01*
X105791000Y-58801000D02*
X104070989Y-60521011D01*
X104140000Y-56360000D02*
X104340000Y-56360000D01*
X104340000Y-56360000D02*
X105791000Y-57811000D01*
X105791000Y-57811000D02*
X105791000Y-58801000D01*
X77470000Y-66676410D02*
X77470000Y-67901736D01*
X77470000Y-67901736D02*
X77470000Y-68326000D01*
X103164000Y-55384000D02*
X104140000Y-56360000D01*
X91948000Y-56360000D02*
X91948000Y-58547000D01*
X90874011Y-59620989D02*
X83889011Y-59620989D01*
X91948000Y-58547000D02*
X90874011Y-59620989D01*
X83889011Y-59620989D02*
X76640021Y-66869979D01*
X76640021Y-66869979D02*
X76640021Y-67901736D01*
X76640021Y-67901736D02*
X76640021Y-68326000D01*
X92924000Y-55384000D02*
X91948000Y-56360000D01*
X93980000Y-55384000D02*
X92924000Y-55384000D01*
X93980000Y-54090000D02*
X93980000Y-55130000D01*
X93980000Y-55130000D02*
X93726000Y-55384000D01*
X73648978Y-45896848D02*
X73648978Y-62368022D01*
X76804815Y-42741011D02*
X73648978Y-45896848D01*
X89249011Y-42741011D02*
X76804815Y-42741011D01*
X91748000Y-45240000D02*
X89249011Y-42741011D01*
X73648978Y-62368022D02*
X73406000Y-62611000D01*
X91948000Y-45240000D02*
X91748000Y-45240000D01*
X92924000Y-46216000D02*
X91948000Y-45240000D01*
X93980000Y-46216000D02*
X92924000Y-46216000D01*
X93980000Y-46216000D02*
X93980000Y-47510000D01*
X94234000Y-45986000D02*
X93980000Y-45986000D01*
X73198967Y-61802033D02*
X73198967Y-61929033D01*
X73198967Y-45677263D02*
X73198967Y-61802033D01*
X72644000Y-62484000D02*
X72517000Y-62484000D01*
X73198967Y-61929033D02*
X72644000Y-62484000D01*
X105382000Y-45240000D02*
X105664000Y-44958000D01*
X104140000Y-45240000D02*
X105382000Y-45240000D01*
X76585230Y-42291000D02*
X73198967Y-45677263D01*
X104140000Y-42291000D02*
X104902000Y-42291000D01*
X104140000Y-42291000D02*
X76585230Y-42291000D01*
X103164000Y-46216000D02*
X104140000Y-45240000D01*
X102108000Y-46216000D02*
X103164000Y-46216000D01*
X102108000Y-46216000D02*
X102108000Y-47510000D01*
D30*
X57404000Y-72390000D02*
X55118000Y-72390000D01*
D28*
X63500000Y-70696000D02*
X63500000Y-71628000D01*
X61722000Y-71501000D02*
X61722000Y-70358000D01*
X62103000Y-71882000D02*
X61722000Y-71501000D01*
X63246000Y-71882000D02*
X62103000Y-71882000D01*
X63500000Y-71628000D02*
X63246000Y-71882000D01*
X67056000Y-58801000D02*
X66802000Y-59055000D01*
X66802000Y-65024000D02*
X66421000Y-65405000D01*
X66802000Y-59055000D02*
X66802000Y-65024000D01*
X63119000Y-57912000D02*
X63246000Y-58039000D01*
X63119000Y-57277000D02*
X63119000Y-57912000D01*
X67310000Y-53086000D02*
X63119000Y-57277000D01*
X67310000Y-50927000D02*
X67310000Y-53086000D01*
X70739000Y-58801000D02*
X67056000Y-58801000D01*
X70866000Y-58928000D02*
X70739000Y-58801000D01*
X66421000Y-65405000D02*
X66167000Y-65659000D01*
X66167000Y-65659000D02*
X63627000Y-65659000D01*
X71562000Y-43069000D02*
X72467000Y-42164000D01*
X73787000Y-43815000D02*
X73533000Y-44069000D01*
X73787000Y-42418000D02*
X73787000Y-43815000D01*
X73533000Y-42164000D02*
X73787000Y-42418000D01*
X72467000Y-42164000D02*
X73533000Y-42164000D01*
X70993000Y-43180000D02*
X71451000Y-43180000D01*
X69342000Y-44831000D02*
X70993000Y-43180000D01*
X69342000Y-45974000D02*
X69342000Y-44831000D01*
X71451000Y-43180000D02*
X71562000Y-43069000D01*
X61722000Y-70231000D02*
X61722000Y-70358000D01*
X62944000Y-61976000D02*
X62908000Y-62012000D01*
X63258000Y-58051000D02*
X63258000Y-58928000D01*
X63246000Y-58039000D02*
X63258000Y-58051000D01*
X63258000Y-60452000D02*
X63258000Y-59690000D01*
X63258000Y-59690000D02*
X63258000Y-58928000D01*
X62908000Y-62012000D02*
X62908000Y-60802000D01*
X62908000Y-60802000D02*
X63258000Y-60452000D01*
X70485000Y-62230000D02*
X69989000Y-62230000D01*
X69989000Y-60833000D02*
X72263000Y-58559000D01*
X72263000Y-58559000D02*
X72263000Y-52070000D01*
X72263000Y-52070000D02*
X71374000Y-51181000D01*
X71374000Y-51181000D02*
X62611000Y-42418000D01*
X46736000Y-40894000D02*
X48260000Y-42418000D01*
X62611000Y-42418000D02*
X62484000Y-42418000D01*
X48260000Y-42418000D02*
X62611000Y-42418000D01*
X70485000Y-60833000D02*
X69989000Y-60833000D01*
D29*
X59563000Y-41656000D02*
X61468000Y-39751000D01*
X61468000Y-39751000D02*
X61468000Y-39624000D01*
X89408000Y-56360000D02*
X89408000Y-58293000D01*
X89408000Y-58293000D02*
X89281000Y-58420000D01*
X89281000Y-58420000D02*
X81026000Y-58420000D01*
X81026000Y-56769000D02*
X77724000Y-53467000D01*
X77724000Y-53467000D02*
X77724000Y-46863000D01*
D28*
X102489000Y-59690000D02*
X92075000Y-59690000D01*
X92075000Y-59690000D02*
X91948000Y-59563000D01*
X90297000Y-55118000D02*
X89408000Y-55118000D01*
X89408000Y-56360000D02*
X89408000Y-56007000D01*
X87360000Y-52512000D02*
X87360000Y-52943000D01*
X87360000Y-52943000D02*
X89408000Y-54991000D01*
X89408000Y-54991000D02*
X89408000Y-55118000D01*
X89408000Y-55118000D02*
X89408000Y-56360000D01*
D30*
X50165000Y-50419000D02*
X51169000Y-50419000D01*
X51169000Y-50419000D02*
X52832000Y-52082000D01*
D31*
X50165000Y-48260000D02*
X50165000Y-49403000D01*
X50165000Y-47244000D02*
X50165000Y-48260000D01*
X50165000Y-48260000D02*
X50165000Y-48260000D01*
X50165000Y-48260000D02*
X50101500Y-48196500D01*
X50101500Y-48196500D02*
X50165000Y-48260000D01*
X50165000Y-48260000D02*
X50165000Y-50419000D01*
X50038000Y-48260000D02*
X50101500Y-48196500D01*
X50101500Y-48196500D02*
X50165000Y-48133000D01*
X50165000Y-48133000D02*
X50165000Y-46228000D01*
X47625000Y-48260000D02*
X50038000Y-48260000D01*
X44225000Y-48260000D02*
X47625000Y-48260000D01*
D28*
X89408000Y-52860000D02*
X90297000Y-53749000D01*
X90297000Y-53749000D02*
X90297000Y-54102000D01*
X89408000Y-52860000D02*
X89408000Y-51435000D01*
X88585000Y-50612000D02*
X87360000Y-50612000D01*
X89408000Y-51435000D02*
X88585000Y-50612000D01*
X73037000Y-43053000D02*
X72771000Y-43319000D01*
X72771000Y-43319000D02*
X72771000Y-45085000D01*
X70612000Y-45069000D02*
X70612000Y-48387000D01*
X70612000Y-48387000D02*
X72517000Y-50292000D01*
X70612000Y-45069000D02*
X70628000Y-45085000D01*
X70628000Y-45085000D02*
X71628000Y-45085000D01*
X68707000Y-43897000D02*
X67879000Y-43069000D01*
X68707000Y-44196000D02*
X68707000Y-43897000D01*
X68961000Y-44196000D02*
X68707000Y-44196000D01*
X72748956Y-51815919D02*
X72748956Y-60938764D01*
X72748956Y-60938764D02*
X72516984Y-61170736D01*
X72516984Y-61170736D02*
X72516984Y-61595000D01*
X66929000Y-45069000D02*
X66929000Y-45995963D01*
X66929000Y-45995963D02*
X72748956Y-51815919D01*
X72748956Y-51815919D02*
X72748965Y-51815919D01*
X72748965Y-51815919D02*
X72748956Y-51815919D01*
D31*
X47625000Y-58180000D02*
X44225000Y-58180000D01*
X47584360Y-65483740D02*
X47584360Y-58220640D01*
X47584360Y-58220640D02*
X47625000Y-58180000D01*
X45085000Y-70485000D02*
X47625000Y-67945000D01*
X47625000Y-67945000D02*
X47625000Y-65524380D01*
X47625000Y-65524380D02*
X47584360Y-65483740D01*
D28*
X85857000Y-70841000D02*
X85857000Y-74213000D01*
X85857000Y-74213000D02*
X85939000Y-74295000D01*
X103698118Y-59045010D02*
X96774000Y-59045010D01*
X88387000Y-70841000D02*
X88387000Y-74243000D01*
X88387000Y-74243000D02*
X88439000Y-74295000D01*
X104221001Y-58628001D02*
X104521000Y-58928000D01*
X104013000Y-58420000D02*
X104221001Y-58628001D01*
X99060000Y-58420000D02*
X104013000Y-58420000D01*
X95758000Y-58420000D02*
X99060000Y-58420000D01*
X95250000Y-57912000D02*
X95758000Y-58420000D01*
X90937000Y-70841000D02*
X90937000Y-74293000D01*
X90937000Y-74293000D02*
X90939000Y-74295000D01*
X104521000Y-57785000D02*
X100584000Y-57785000D01*
X105029000Y-58293000D02*
X104521000Y-57785000D01*
X93477000Y-70841000D02*
X93477000Y-74257000D01*
X93477000Y-74257000D02*
X93439000Y-74295000D01*
D29*
X62908000Y-63972000D02*
X61559000Y-63972000D01*
X61559000Y-63972000D02*
X60583200Y-64947800D01*
X60583200Y-64947800D02*
X60325000Y-64947800D01*
D28*
X60325000Y-65405000D02*
X60325000Y-66548000D01*
D31*
X59436000Y-66548000D02*
X60325000Y-66548000D01*
X60325000Y-64947800D02*
X60325000Y-66548000D01*
X60325000Y-66548000D02*
X60325000Y-66294000D01*
X60325000Y-66294000D02*
X60198000Y-66548000D01*
X56769000Y-66548000D02*
X57531000Y-66548000D01*
X56642000Y-66548000D02*
X56769000Y-66548000D01*
X56769000Y-66548000D02*
X56515000Y-66548000D01*
X56515000Y-65659000D02*
X56515000Y-66548000D01*
X58547000Y-66548000D02*
X60198000Y-66548000D01*
X56642000Y-66548000D02*
X56515000Y-66548000D01*
X56515000Y-66548000D02*
X58547000Y-66548000D01*
X56642000Y-64947800D02*
X56642000Y-66548000D01*
X60325000Y-64947800D02*
X60325000Y-64947800D01*
X60198000Y-65074800D02*
X60198000Y-66548000D01*
X52584360Y-65483740D02*
X53120300Y-64947800D01*
X53120300Y-64947800D02*
X56642000Y-64947800D01*
X56642000Y-64947800D02*
X58547000Y-64947800D01*
X58547000Y-64947800D02*
X60325000Y-64947800D01*
X50085000Y-70485000D02*
X50165000Y-70485000D01*
X50165000Y-70485000D02*
X52584360Y-68065640D01*
X52584360Y-68065640D02*
X52584360Y-65483740D01*
D28*
X74537000Y-43053000D02*
X75946000Y-41644000D01*
X75946000Y-41644000D02*
X75946000Y-40894000D01*
X87249000Y-57658000D02*
X87757000Y-57150000D01*
X76708000Y-57658000D02*
X87249000Y-57658000D01*
X87310000Y-56703000D02*
X87310000Y-56118000D01*
X87757000Y-57150000D02*
X87310000Y-56703000D01*
X86360000Y-54118000D02*
X86344000Y-54118000D01*
X86344000Y-54118000D02*
X85344000Y-55118000D01*
X85344000Y-55118000D02*
X84328000Y-55118000D01*
D30*
X57404000Y-56896000D02*
X58928000Y-58420000D01*
X57404000Y-52324000D02*
X57404000Y-56896000D01*
X58928000Y-50800000D02*
X57404000Y-52324000D01*
D31*
X60452000Y-54991000D02*
X61468000Y-54991000D01*
X59309000Y-45847000D02*
X61214000Y-45847000D01*
X61214000Y-45847000D02*
X62103000Y-44958000D01*
X60452000Y-44196000D02*
X61214000Y-44196000D01*
X61214000Y-44196000D02*
X61341000Y-44196000D01*
X59436000Y-44196000D02*
X60452000Y-44196000D01*
X59309000Y-44323000D02*
X59309000Y-44196000D01*
X59309000Y-44450000D02*
X59309000Y-44196000D01*
X59309000Y-44196000D02*
X59309000Y-44323000D01*
X59309000Y-44577000D02*
X59309000Y-44323000D01*
X59309000Y-44323000D02*
X59309000Y-44450000D01*
X59309000Y-45974000D02*
X59309000Y-45847000D01*
X59309000Y-45847000D02*
X59309000Y-44577000D01*
X59309000Y-44577000D02*
X59309000Y-44450000D01*
X59309000Y-44450000D02*
X59436000Y-44196000D01*
X61087000Y-54991000D02*
X60452000Y-54991000D01*
X60452000Y-54991000D02*
X61722000Y-54991000D01*
X61722000Y-54991000D02*
X62357000Y-54356000D01*
X63240000Y-53600000D02*
X63246000Y-53594000D01*
X63246000Y-53594000D02*
X64135000Y-52705000D01*
X61087000Y-54991000D02*
X61849000Y-54991000D01*
X59436000Y-53594000D02*
X59436000Y-54991000D01*
X59436000Y-53594000D02*
X59436000Y-54991000D01*
X59309000Y-45974000D02*
X59436000Y-45847000D01*
X59436000Y-45847000D02*
X59436000Y-44196000D01*
X59436000Y-44196000D02*
X61341000Y-44196000D01*
X61341000Y-44196000D02*
X62738000Y-45593000D01*
X62738000Y-45593000D02*
X64135000Y-46990000D01*
X59436000Y-53594000D02*
X59436000Y-54991000D01*
X59436000Y-54991000D02*
X61849000Y-54991000D01*
X61849000Y-54991000D02*
X64135000Y-52705000D01*
X59309000Y-45974000D02*
X63119000Y-45974000D01*
X63119000Y-45974000D02*
X64135000Y-46990000D01*
X64135000Y-46990000D02*
X64135000Y-52705000D01*
X64135000Y-52705000D02*
X63246000Y-53594000D01*
X63246000Y-53594000D02*
X59436000Y-53594000D01*
D29*
X62908000Y-63322000D02*
X61544000Y-63322000D01*
X61544000Y-63322000D02*
X60325000Y-62103000D01*
D31*
X56642000Y-60706000D02*
X56515000Y-60833000D01*
X56515000Y-60833000D02*
X56515000Y-62103000D01*
X56515000Y-62103000D02*
X60325000Y-62103000D01*
X60325000Y-62103000D02*
X60325000Y-60706000D01*
D30*
X52832000Y-53582000D02*
X52832000Y-60198000D01*
X52832000Y-60198000D02*
X52324000Y-60706000D01*
D31*
X55245000Y-60706000D02*
X52324000Y-60706000D01*
X60325000Y-60706000D02*
X58420000Y-60706000D01*
X56642000Y-60706000D02*
X58420000Y-60706000D01*
X56642000Y-60706000D02*
X54415000Y-60706000D01*
X54415000Y-60706000D02*
X55245000Y-60706000D01*
D28*
X84594000Y-62738000D02*
X84594000Y-64524000D01*
X84594000Y-64524000D02*
X84577000Y-64541000D01*
X98806000Y-62738000D02*
X99302000Y-62738000D01*
X78232000Y-60198000D02*
X80264000Y-60198000D01*
X87134000Y-62738000D02*
X87134000Y-64524000D01*
X87134000Y-64524000D02*
X87117000Y-64541000D01*
X96762000Y-62738000D02*
X96266000Y-62738000D01*
X78232000Y-61087000D02*
X80264000Y-61087000D01*
X89674000Y-62738000D02*
X89674000Y-64534000D01*
X89674000Y-64534000D02*
X89667000Y-64541000D01*
X76015011Y-57023000D02*
X76581000Y-56457011D01*
X76581000Y-54610000D02*
X75610999Y-53639999D01*
X76581000Y-56457011D02*
X76581000Y-54610000D01*
X75610999Y-53639999D02*
X75311000Y-53340000D01*
X76188012Y-63960519D02*
X76015011Y-63787518D01*
X76188012Y-64933323D02*
X76188012Y-63960519D01*
X76015011Y-63787518D02*
X76015011Y-57023000D01*
X76015011Y-65106324D02*
X76188012Y-64933323D01*
X76015011Y-68647601D02*
X76015011Y-65106324D01*
X76640399Y-69272989D02*
X76015011Y-68647601D01*
X77537601Y-69272989D02*
X76640399Y-69272989D01*
X93714000Y-62738000D02*
X93714000Y-62538000D01*
X93714000Y-62538000D02*
X92147022Y-60971022D01*
X78172988Y-66609832D02*
X78172988Y-68637602D01*
X78172988Y-68637602D02*
X77537601Y-69272989D01*
X83811798Y-60971022D02*
X78172988Y-66609832D01*
X92147022Y-60971022D02*
X83811798Y-60971022D01*
X92214000Y-62738000D02*
X92214000Y-64524000D01*
X92214000Y-64524000D02*
X92197000Y-64541000D01*
X76073000Y-55118000D02*
X75610999Y-54655999D01*
X75565000Y-63973918D02*
X75565000Y-56515000D01*
X76073000Y-56007000D02*
X76073000Y-55118000D01*
X75738001Y-64146919D02*
X75565000Y-63973918D01*
X75565000Y-56515000D02*
X76073000Y-56007000D01*
X75610999Y-54655999D02*
X75311000Y-54356000D01*
X78622999Y-68824002D02*
X77724001Y-69723000D01*
X83998197Y-61421033D02*
X78622999Y-66796231D01*
X90057033Y-61421033D02*
X83998197Y-61421033D01*
X75738001Y-64746923D02*
X75738001Y-64146919D01*
X91174000Y-62538000D02*
X90057033Y-61421033D01*
X91174000Y-62738000D02*
X91174000Y-62538000D01*
X77724001Y-69723000D02*
X76453999Y-69723000D01*
X75565000Y-68834001D02*
X75565000Y-64919924D01*
X76453999Y-69723000D02*
X75565000Y-68834001D01*
X78622999Y-66796231D02*
X78622999Y-68824002D01*
X75565000Y-64919924D02*
X75738001Y-64746923D01*
X95262000Y-62738000D02*
X95262000Y-64177000D01*
X95262000Y-64177000D02*
X95626000Y-64541000D01*
X88138000Y-62738000D02*
X88634000Y-62738000D01*
X97802000Y-62738000D02*
X97802000Y-64177000D01*
X97802000Y-64177000D02*
X98166000Y-64541000D01*
X79248000Y-66885736D02*
X79248000Y-67310000D01*
X84262692Y-61871044D02*
X79248000Y-66885736D01*
X85427044Y-61871044D02*
X84262692Y-61871044D01*
X86094000Y-62538000D02*
X85427044Y-61871044D01*
X86094000Y-62738000D02*
X86094000Y-62538000D01*
D30*
X81606591Y-66054305D02*
X81306592Y-65754306D01*
X84577000Y-69024714D02*
X81606591Y-66054305D01*
X84577000Y-70841000D02*
X84577000Y-69024714D01*
X85643999Y-67101999D02*
X85344000Y-66802000D01*
X87117000Y-68575000D02*
X85643999Y-67101999D01*
X87117000Y-70841000D02*
X87117000Y-68575000D01*
X89667000Y-67061000D02*
X89408000Y-66802000D01*
X89667000Y-70841000D02*
X89667000Y-67061000D01*
X93172001Y-67101999D02*
X93472000Y-66802000D01*
X92197000Y-70841000D02*
X92197000Y-68077000D01*
X92197000Y-68077000D02*
X93172001Y-67101999D01*
X95626000Y-68712000D02*
X97236001Y-67101999D01*
X95626000Y-70841000D02*
X95626000Y-68712000D01*
X97236001Y-67101999D02*
X97536000Y-66802000D01*
X101175736Y-66802000D02*
X101600000Y-66802000D01*
X101055000Y-66802000D02*
X101175736Y-66802000D01*
X98166000Y-69691000D02*
X101055000Y-66802000D01*
X98166000Y-70841000D02*
X98166000Y-69691000D01*
D28*
X102108000Y-45212000D02*
X102108000Y-44716000D01*
X102108000Y-44716000D02*
X100584000Y-44716000D01*
X100584000Y-44716000D02*
X100596000Y-44704000D01*
X93980000Y-45212000D02*
X93980000Y-44716000D01*
X95504000Y-44716000D02*
X93980000Y-44716000D01*
X93980000Y-56388000D02*
X93726000Y-56884000D01*
X95250000Y-56884000D02*
X93726000Y-56884000D01*
X102108000Y-56388000D02*
X102108000Y-56884000D01*
X102108000Y-56884000D02*
X100584000Y-56884000D01*
X86106000Y-44716000D02*
X87376000Y-44716000D01*
X87376000Y-45212000D02*
X87376000Y-44716000D01*
X80772000Y-44716000D02*
X79248000Y-44716000D01*
X79248000Y-45212000D02*
X79248000Y-44716000D01*
X66814000Y-48526000D02*
X66814000Y-49657000D01*
X66802000Y-48514000D02*
X66814000Y-48526000D01*
X68314000Y-49657000D02*
X68314000Y-50915000D01*
X68314000Y-50915000D02*
X68326000Y-50927000D01*
X74285002Y-64391019D02*
X74285002Y-66176998D01*
X74285002Y-66176998D02*
X72054999Y-68407001D01*
X75011001Y-55798999D02*
X75011001Y-63665020D01*
X75011001Y-63665020D02*
X74285002Y-64391019D01*
X75311000Y-55499000D02*
X75011001Y-55798999D01*
X72054999Y-68407001D02*
X71755000Y-68707000D01*
X65108000Y-62012000D02*
X65242000Y-62012000D01*
X65242000Y-62012000D02*
X65722500Y-61531500D01*
X65722500Y-61531500D02*
X65722500Y-57975500D01*
X65722500Y-57975500D02*
X65341500Y-57594500D01*
X65108000Y-62662000D02*
X65964000Y-62662000D01*
X65786000Y-65024000D02*
X64770000Y-65024000D01*
X66294000Y-64516000D02*
X65786000Y-65024000D01*
X66294000Y-62992000D02*
X66294000Y-64516000D01*
X65964000Y-62662000D02*
X66294000Y-62992000D01*
X64788000Y-70358000D02*
X65786000Y-70358000D01*
X64450000Y-70696000D02*
X64788000Y-70358000D01*
X75112999Y-64871185D02*
X75112999Y-64446921D01*
X75112999Y-67762001D02*
X75112999Y-64871185D01*
X72898000Y-69977000D02*
X75112999Y-67762001D01*
X72898000Y-69977000D02*
X72898000Y-76327000D01*
X70358000Y-59563000D02*
X67437000Y-59563000D01*
X67437000Y-59563000D02*
X67437000Y-65532000D01*
X67437000Y-65532000D02*
X66548000Y-66421000D01*
X66548000Y-66421000D02*
X63881000Y-66421000D01*
X63881000Y-66421000D02*
X62550000Y-67752000D01*
X62550000Y-67752000D02*
X62550000Y-68496000D01*
X85427736Y-43816032D02*
X82042000Y-43816032D01*
X85852000Y-43816032D02*
X85427736Y-43816032D01*
X96906000Y-70841000D02*
X96906000Y-73328000D01*
X96906000Y-73328000D02*
X95939000Y-74295000D01*
X105537000Y-46228000D02*
X105537000Y-56769000D01*
X106299000Y-57531000D02*
X106299000Y-59169626D01*
X105537000Y-56769000D02*
X106299000Y-57531000D01*
X106426000Y-44323000D02*
X106426000Y-45339000D01*
X105918000Y-43815000D02*
X106426000Y-44323000D01*
X104322605Y-61146021D02*
X103898341Y-61146021D01*
X99314000Y-43815000D02*
X105918000Y-43815000D01*
X106426000Y-45339000D02*
X105537000Y-46228000D01*
X106299000Y-59169626D02*
X104322605Y-61146021D01*
X100584000Y-47510000D02*
X100584000Y-46736000D01*
X100596000Y-46216000D02*
X100584000Y-46228000D01*
X100584000Y-46736000D02*
X100584000Y-46228000D01*
X95504000Y-47510000D02*
X95504000Y-46736000D01*
X95504000Y-46736000D02*
X95504000Y-46216000D01*
X95492000Y-46724000D02*
X95504000Y-46736000D01*
X95504000Y-54090000D02*
X95504000Y-54610000D01*
X95504000Y-54610000D02*
X95250000Y-54864000D01*
X95504000Y-54090000D02*
X95504000Y-55130000D01*
X95504000Y-55130000D02*
X95250000Y-55384000D01*
X100584000Y-54090000D02*
X100584000Y-55384000D01*
X100584000Y-54864000D02*
X100584000Y-54090000D01*
X100584000Y-54864000D02*
X100584000Y-55384000D01*
X85852000Y-46990000D02*
X85852000Y-46470000D01*
X85852000Y-46990000D02*
X85852000Y-47510000D01*
X85852000Y-46470000D02*
X86106000Y-46216000D01*
X80772000Y-46736000D02*
X80772000Y-47510000D01*
X80772000Y-46216000D02*
X80772000Y-46736000D01*
D32*
G36*
X105970000Y-76760000D02*
X73730606Y-76760000D01*
X73832838Y-76513799D01*
X73833162Y-76141833D01*
X73691117Y-75798057D01*
X73658000Y-75764882D01*
X73658000Y-70539463D01*
X73690192Y-70507327D01*
X73832838Y-70163799D01*
X73832879Y-70116923D01*
X74856566Y-69093236D01*
X74862852Y-69124840D01*
X75027599Y-69371402D01*
X75916598Y-70260401D01*
X76163159Y-70425148D01*
X76211413Y-70434746D01*
X76453999Y-70483000D01*
X77724001Y-70483000D01*
X78014840Y-70425148D01*
X78261402Y-70260401D01*
X79160400Y-69361403D01*
X79325147Y-69114841D01*
X79382999Y-68824002D01*
X79382999Y-68245118D01*
X79433167Y-68245162D01*
X79776943Y-68103117D01*
X80040192Y-67840327D01*
X80182838Y-67496799D01*
X80183162Y-67124833D01*
X80154083Y-67054455D01*
X80719202Y-66489336D01*
X80776265Y-66546498D01*
X80897579Y-66596872D01*
X80980799Y-66680092D01*
X80980801Y-66680095D01*
X83692000Y-69391293D01*
X83692000Y-69776025D01*
X83580569Y-69939110D01*
X83529560Y-70191000D01*
X83529560Y-71491000D01*
X83573838Y-71726317D01*
X83712910Y-71942441D01*
X83925110Y-72087431D01*
X84177000Y-72138440D01*
X84977000Y-72138440D01*
X85097000Y-72115860D01*
X85097000Y-72954985D01*
X85056486Y-72971725D01*
X84938251Y-73089754D01*
X84828090Y-72918559D01*
X84615890Y-72773569D01*
X84364000Y-72722560D01*
X82514000Y-72722560D01*
X82278683Y-72766838D01*
X82062559Y-72905910D01*
X81917569Y-73118110D01*
X81866560Y-73370000D01*
X81866560Y-75220000D01*
X81910838Y-75455317D01*
X82049910Y-75671441D01*
X82262110Y-75816431D01*
X82514000Y-75867440D01*
X84364000Y-75867440D01*
X84599317Y-75823162D01*
X84815441Y-75684090D01*
X84939771Y-75502126D01*
X85054177Y-75616732D01*
X85627336Y-75854728D01*
X86247942Y-75855270D01*
X86821514Y-75618275D01*
X87189256Y-75251174D01*
X87554177Y-75616732D01*
X88127336Y-75854728D01*
X88747942Y-75855270D01*
X89321514Y-75618275D01*
X89689256Y-75251174D01*
X90054177Y-75616732D01*
X90627336Y-75854728D01*
X91247942Y-75855270D01*
X91821514Y-75618275D01*
X92189256Y-75251174D01*
X92554177Y-75616732D01*
X93127336Y-75854728D01*
X93747942Y-75855270D01*
X94321514Y-75618275D01*
X94689256Y-75251174D01*
X95054177Y-75616732D01*
X95627336Y-75854728D01*
X96247942Y-75855270D01*
X96821514Y-75618275D01*
X97046926Y-75393256D01*
X97520349Y-75393256D01*
X97609821Y-75652332D01*
X98192368Y-75866325D01*
X98812461Y-75841097D01*
X99268179Y-75652332D01*
X99357651Y-75393256D01*
X98439000Y-74474605D01*
X97520349Y-75393256D01*
X97046926Y-75393256D01*
X97256121Y-75184426D01*
X97340744Y-75213651D01*
X98259395Y-74295000D01*
X98618605Y-74295000D01*
X99537256Y-75213651D01*
X99796332Y-75124179D01*
X100010325Y-74541632D01*
X99985097Y-73921539D01*
X99796332Y-73465821D01*
X99537256Y-73376349D01*
X98618605Y-74295000D01*
X98259395Y-74295000D01*
X98245253Y-74280858D01*
X98424858Y-74101253D01*
X98439000Y-74115395D01*
X99357651Y-73196744D01*
X99268179Y-72937668D01*
X98685632Y-72723675D01*
X98065539Y-72748903D01*
X97666000Y-72914398D01*
X97666000Y-72118189D01*
X97766000Y-72138440D01*
X98566000Y-72138440D01*
X98801317Y-72094162D01*
X98813657Y-72086222D01*
X98909690Y-72126000D01*
X99150250Y-72126000D01*
X99309000Y-71967250D01*
X99309000Y-70968000D01*
X99289000Y-70968000D01*
X99289000Y-70714000D01*
X99309000Y-70714000D01*
X99309000Y-70694000D01*
X99563000Y-70694000D01*
X99563000Y-70714000D01*
X99583000Y-70714000D01*
X99583000Y-70968000D01*
X99563000Y-70968000D01*
X99563000Y-71967250D01*
X99721750Y-72126000D01*
X99962310Y-72126000D01*
X100060832Y-72085191D01*
X100064110Y-72087431D01*
X100316000Y-72138440D01*
X101116000Y-72138440D01*
X101351317Y-72094162D01*
X101355155Y-72091693D01*
X101586000Y-72138440D01*
X102386000Y-72138440D01*
X102621317Y-72094162D01*
X102622761Y-72093233D01*
X102846000Y-72138440D01*
X103646000Y-72138440D01*
X103881317Y-72094162D01*
X103887548Y-72090152D01*
X104126000Y-72138440D01*
X104926000Y-72138440D01*
X105161317Y-72094162D01*
X105377441Y-71955090D01*
X105522431Y-71742890D01*
X105573440Y-71491000D01*
X105573440Y-70191000D01*
X105529162Y-69955683D01*
X105390090Y-69739559D01*
X105177890Y-69594569D01*
X104926000Y-69543560D01*
X104126000Y-69543560D01*
X103890683Y-69587838D01*
X103884452Y-69591848D01*
X103646000Y-69543560D01*
X102846000Y-69543560D01*
X102610683Y-69587838D01*
X102609239Y-69588767D01*
X102386000Y-69543560D01*
X101586000Y-69543560D01*
X101350683Y-69587838D01*
X101346845Y-69590307D01*
X101116000Y-69543560D01*
X100316000Y-69543560D01*
X100080683Y-69587838D01*
X100064427Y-69598298D01*
X99962310Y-69556000D01*
X99721750Y-69556000D01*
X99563002Y-69714748D01*
X99563002Y-69556000D01*
X99552580Y-69556000D01*
X101383906Y-67724673D01*
X101413201Y-67736838D01*
X101785167Y-67737162D01*
X102128943Y-67595117D01*
X102392192Y-67332327D01*
X102534838Y-66988799D01*
X102535162Y-66616833D01*
X102393117Y-66273057D01*
X102130327Y-66009808D01*
X101786799Y-65867162D01*
X101414833Y-65866838D01*
X101293431Y-65917000D01*
X101055005Y-65917000D01*
X101055000Y-65916999D01*
X100772516Y-65973190D01*
X100716325Y-65984367D01*
X100429210Y-66176210D01*
X100429208Y-66176213D01*
X97540210Y-69065210D01*
X97348367Y-69352325D01*
X97348367Y-69352326D01*
X97310160Y-69544402D01*
X97306000Y-69543560D01*
X96511000Y-69543560D01*
X96511000Y-69078580D01*
X97861788Y-67727791D01*
X97861791Y-67727789D01*
X97944835Y-67644744D01*
X98064943Y-67595117D01*
X98328192Y-67332327D01*
X98470838Y-66988799D01*
X98471162Y-66616833D01*
X98329117Y-66273057D01*
X98066327Y-66009808D01*
X97722799Y-65867162D01*
X97350833Y-65866838D01*
X97007057Y-66008883D01*
X96743808Y-66271673D01*
X96693434Y-66392986D01*
X96610211Y-66476209D01*
X96610209Y-66476212D01*
X95000210Y-68086210D01*
X94808367Y-68373325D01*
X94808367Y-68373326D01*
X94740999Y-68712000D01*
X94741000Y-68712005D01*
X94741000Y-69776025D01*
X94629569Y-69939110D01*
X94578560Y-70191000D01*
X94578560Y-71491000D01*
X94622838Y-71726317D01*
X94761910Y-71942441D01*
X94974110Y-72087431D01*
X95226000Y-72138440D01*
X96026000Y-72138440D01*
X96146000Y-72115860D01*
X96146000Y-72735181D01*
X95630058Y-72734730D01*
X95056486Y-72971725D01*
X94688744Y-73338826D01*
X94323823Y-72973268D01*
X94237000Y-72937216D01*
X94237000Y-72013931D01*
X94328441Y-71955090D01*
X94473431Y-71742890D01*
X94524440Y-71491000D01*
X94524440Y-70191000D01*
X94480162Y-69955683D01*
X94341090Y-69739559D01*
X94128890Y-69594569D01*
X93877000Y-69543560D01*
X93082000Y-69543560D01*
X93082000Y-68443580D01*
X93797788Y-67727791D01*
X93797791Y-67727789D01*
X93880835Y-67644744D01*
X94000943Y-67595117D01*
X94264192Y-67332327D01*
X94406838Y-66988799D01*
X94407162Y-66616833D01*
X94265117Y-66273057D01*
X94002327Y-66009808D01*
X93658799Y-65867162D01*
X93286833Y-65866838D01*
X92943057Y-66008883D01*
X92679808Y-66271673D01*
X92629434Y-66392986D01*
X92546211Y-66476209D01*
X92546209Y-66476212D01*
X91571210Y-67451210D01*
X91379367Y-67738325D01*
X91379367Y-67738326D01*
X91311999Y-68077000D01*
X91312000Y-68077005D01*
X91312000Y-69543560D01*
X90552000Y-69543560D01*
X90552000Y-67061000D01*
X90484633Y-66722325D01*
X90292790Y-66435210D01*
X90292787Y-66435208D01*
X90250745Y-66393166D01*
X90201117Y-66273057D01*
X89938327Y-66009808D01*
X89594799Y-65867162D01*
X89222833Y-65866838D01*
X88879057Y-66008883D01*
X88615808Y-66271673D01*
X88473162Y-66615201D01*
X88472838Y-66987167D01*
X88614883Y-67330943D01*
X88782000Y-67498352D01*
X88782000Y-69543560D01*
X88002000Y-69543560D01*
X88002000Y-68575005D01*
X88002001Y-68575000D01*
X87934633Y-68236326D01*
X87934633Y-68236325D01*
X87742790Y-67949210D01*
X87742787Y-67949208D01*
X86269789Y-66476209D01*
X86269786Y-66476207D01*
X86186745Y-66393165D01*
X86137117Y-66273057D01*
X85874327Y-66009808D01*
X85530799Y-65867162D01*
X85158833Y-65866838D01*
X84815057Y-66008883D01*
X84551808Y-66271673D01*
X84409162Y-66615201D01*
X84408838Y-66987167D01*
X84550883Y-67330943D01*
X84813673Y-67594192D01*
X84934987Y-67644566D01*
X85018207Y-67727786D01*
X85018209Y-67727789D01*
X86232000Y-68941579D01*
X86232000Y-69543560D01*
X85462000Y-69543560D01*
X85462000Y-69024719D01*
X85462001Y-69024714D01*
X85394633Y-68686040D01*
X85394633Y-68686039D01*
X85202790Y-68398924D01*
X85202787Y-68398922D01*
X82232381Y-65428515D01*
X82232378Y-65428513D01*
X82149337Y-65345471D01*
X82099709Y-65225363D01*
X82041493Y-65167045D01*
X83604603Y-63603935D01*
X83580569Y-63639110D01*
X83529560Y-63891000D01*
X83529560Y-65191000D01*
X83573838Y-65426317D01*
X83712910Y-65642441D01*
X83925110Y-65787431D01*
X84177000Y-65838440D01*
X84977000Y-65838440D01*
X85212317Y-65794162D01*
X85228573Y-65783702D01*
X85330690Y-65826000D01*
X85571250Y-65826000D01*
X85730000Y-65667250D01*
X85730000Y-64668000D01*
X85710000Y-64668000D01*
X85710000Y-64414000D01*
X85730000Y-64414000D01*
X85730000Y-64394000D01*
X85984000Y-64394000D01*
X85984000Y-64414000D01*
X86004000Y-64414000D01*
X86004000Y-64668000D01*
X85984000Y-64668000D01*
X85984000Y-65667250D01*
X86142750Y-65826000D01*
X86383310Y-65826000D01*
X86472709Y-65788970D01*
X86717000Y-65838440D01*
X87517000Y-65838440D01*
X87752317Y-65794162D01*
X87764657Y-65786222D01*
X87860690Y-65826000D01*
X88101250Y-65826000D01*
X88260000Y-65667250D01*
X88260000Y-64668000D01*
X88240000Y-64668000D01*
X88240000Y-64414000D01*
X88260000Y-64414000D01*
X88260000Y-64394000D01*
X88514000Y-64394000D01*
X88514000Y-64414000D01*
X88534000Y-64414000D01*
X88534000Y-64668000D01*
X88514000Y-64668000D01*
X88514000Y-65667250D01*
X88672750Y-65826000D01*
X88913310Y-65826000D01*
X89011832Y-65785191D01*
X89015110Y-65787431D01*
X89267000Y-65838440D01*
X90067000Y-65838440D01*
X90302317Y-65794162D01*
X90314657Y-65786222D01*
X90410690Y-65826000D01*
X90651250Y-65826000D01*
X90810000Y-65667250D01*
X90810000Y-64668000D01*
X90790000Y-64668000D01*
X90790000Y-64414000D01*
X90810000Y-64414000D01*
X90810000Y-64394000D01*
X91064000Y-64394000D01*
X91064000Y-64414000D01*
X91084000Y-64414000D01*
X91084000Y-64668000D01*
X91064000Y-64668000D01*
X91064000Y-65667250D01*
X91222750Y-65826000D01*
X91463310Y-65826000D01*
X91552709Y-65788970D01*
X91797000Y-65838440D01*
X92597000Y-65838440D01*
X92832317Y-65794162D01*
X92848573Y-65783702D01*
X92950690Y-65826000D01*
X93191250Y-65826000D01*
X93350000Y-65667250D01*
X93350000Y-64668000D01*
X93604000Y-64668000D01*
X93604000Y-65667250D01*
X93762750Y-65826000D01*
X94003310Y-65826000D01*
X94236699Y-65729327D01*
X94415327Y-65550698D01*
X94512000Y-65317309D01*
X94512000Y-64826750D01*
X94353250Y-64668000D01*
X93604000Y-64668000D01*
X93350000Y-64668000D01*
X93330000Y-64668000D01*
X93330000Y-64414000D01*
X93350000Y-64414000D01*
X93350000Y-64394000D01*
X93604000Y-64394000D01*
X93604000Y-64414000D01*
X94353250Y-64414000D01*
X94512000Y-64255250D01*
X94512000Y-64227273D01*
X94559852Y-64467839D01*
X94578560Y-64495838D01*
X94578560Y-65191000D01*
X94622838Y-65426317D01*
X94761910Y-65642441D01*
X94974110Y-65787431D01*
X95226000Y-65838440D01*
X96026000Y-65838440D01*
X96261317Y-65794162D01*
X96277573Y-65783702D01*
X96379690Y-65826000D01*
X96620250Y-65826000D01*
X96779000Y-65667250D01*
X96779000Y-64668000D01*
X96759000Y-64668000D01*
X96759000Y-64414000D01*
X96779000Y-64414000D01*
X96779000Y-64394000D01*
X97033000Y-64394000D01*
X97033000Y-64414000D01*
X97053000Y-64414000D01*
X97053000Y-64668000D01*
X97033000Y-64668000D01*
X97033000Y-65667250D01*
X97191750Y-65826000D01*
X97432310Y-65826000D01*
X97521709Y-65788970D01*
X97766000Y-65838440D01*
X98566000Y-65838440D01*
X98801317Y-65794162D01*
X98813657Y-65786222D01*
X98909690Y-65826000D01*
X99150250Y-65826000D01*
X99309000Y-65667250D01*
X99309000Y-64668000D01*
X99289000Y-64668000D01*
X99289000Y-64414000D01*
X99309000Y-64414000D01*
X99309000Y-64394000D01*
X99563000Y-64394000D01*
X99563000Y-64414000D01*
X99583000Y-64414000D01*
X99583000Y-64668000D01*
X99563000Y-64668000D01*
X99563000Y-65667250D01*
X99721750Y-65826000D01*
X99962310Y-65826000D01*
X100060832Y-65785191D01*
X100064110Y-65787431D01*
X100316000Y-65838440D01*
X101116000Y-65838440D01*
X101351317Y-65794162D01*
X101355155Y-65791693D01*
X101586000Y-65838440D01*
X102386000Y-65838440D01*
X102621317Y-65794162D01*
X102622761Y-65793233D01*
X102846000Y-65838440D01*
X103646000Y-65838440D01*
X103881317Y-65794162D01*
X103887548Y-65790152D01*
X104126000Y-65838440D01*
X104926000Y-65838440D01*
X105161317Y-65794162D01*
X105377441Y-65655090D01*
X105522431Y-65442890D01*
X105573440Y-65191000D01*
X105573440Y-63891000D01*
X105529162Y-63655683D01*
X105390090Y-63439559D01*
X105177890Y-63294569D01*
X104926000Y-63243560D01*
X104126000Y-63243560D01*
X103890683Y-63287838D01*
X103884452Y-63291848D01*
X103646000Y-63243560D01*
X102846000Y-63243560D01*
X102610683Y-63287838D01*
X102609239Y-63288767D01*
X102386000Y-63243560D01*
X101586000Y-63243560D01*
X101350683Y-63287838D01*
X101346845Y-63290307D01*
X101116000Y-63243560D01*
X100316000Y-63243560D01*
X100183126Y-63268562D01*
X100199440Y-63188000D01*
X100199440Y-62288000D01*
X100155162Y-62052683D01*
X100016090Y-61836559D01*
X99803890Y-61691569D01*
X99552000Y-61640560D01*
X99052000Y-61640560D01*
X98816683Y-61684838D01*
X98633289Y-61802849D01*
X98620833Y-61802838D01*
X98520949Y-61844109D01*
X98516090Y-61836559D01*
X98303890Y-61691569D01*
X98052000Y-61640560D01*
X97552000Y-61640560D01*
X97316683Y-61684838D01*
X97284422Y-61705598D01*
X97263890Y-61691569D01*
X97012000Y-61640560D01*
X96512000Y-61640560D01*
X96276683Y-61684838D01*
X96093289Y-61802849D01*
X96080833Y-61802838D01*
X95980949Y-61844109D01*
X95976090Y-61836559D01*
X95763890Y-61691569D01*
X95512000Y-61640560D01*
X95012000Y-61640560D01*
X94776683Y-61684838D01*
X94560559Y-61823910D01*
X94488146Y-61929889D01*
X94428090Y-61836559D01*
X94215890Y-61691569D01*
X93964000Y-61640560D01*
X93891362Y-61640560D01*
X93531813Y-61281011D01*
X102963223Y-61281011D01*
X102963179Y-61331188D01*
X103105224Y-61674964D01*
X103368014Y-61938213D01*
X103711542Y-62080859D01*
X104083508Y-62081183D01*
X104427284Y-61939138D01*
X104494763Y-61871776D01*
X104613444Y-61848169D01*
X104860006Y-61683422D01*
X105970000Y-60573428D01*
X105970000Y-76760000D01*
X105970000Y-76760000D01*
G37*
X105970000Y-76760000D02*
X73730606Y-76760000D01*
X73832838Y-76513799D01*
X73833162Y-76141833D01*
X73691117Y-75798057D01*
X73658000Y-75764882D01*
X73658000Y-70539463D01*
X73690192Y-70507327D01*
X73832838Y-70163799D01*
X73832879Y-70116923D01*
X74856566Y-69093236D01*
X74862852Y-69124840D01*
X75027599Y-69371402D01*
X75916598Y-70260401D01*
X76163159Y-70425148D01*
X76211413Y-70434746D01*
X76453999Y-70483000D01*
X77724001Y-70483000D01*
X78014840Y-70425148D01*
X78261402Y-70260401D01*
X79160400Y-69361403D01*
X79325147Y-69114841D01*
X79382999Y-68824002D01*
X79382999Y-68245118D01*
X79433167Y-68245162D01*
X79776943Y-68103117D01*
X80040192Y-67840327D01*
X80182838Y-67496799D01*
X80183162Y-67124833D01*
X80154083Y-67054455D01*
X80719202Y-66489336D01*
X80776265Y-66546498D01*
X80897579Y-66596872D01*
X80980799Y-66680092D01*
X80980801Y-66680095D01*
X83692000Y-69391293D01*
X83692000Y-69776025D01*
X83580569Y-69939110D01*
X83529560Y-70191000D01*
X83529560Y-71491000D01*
X83573838Y-71726317D01*
X83712910Y-71942441D01*
X83925110Y-72087431D01*
X84177000Y-72138440D01*
X84977000Y-72138440D01*
X85097000Y-72115860D01*
X85097000Y-72954985D01*
X85056486Y-72971725D01*
X84938251Y-73089754D01*
X84828090Y-72918559D01*
X84615890Y-72773569D01*
X84364000Y-72722560D01*
X82514000Y-72722560D01*
X82278683Y-72766838D01*
X82062559Y-72905910D01*
X81917569Y-73118110D01*
X81866560Y-73370000D01*
X81866560Y-75220000D01*
X81910838Y-75455317D01*
X82049910Y-75671441D01*
X82262110Y-75816431D01*
X82514000Y-75867440D01*
X84364000Y-75867440D01*
X84599317Y-75823162D01*
X84815441Y-75684090D01*
X84939771Y-75502126D01*
X85054177Y-75616732D01*
X85627336Y-75854728D01*
X86247942Y-75855270D01*
X86821514Y-75618275D01*
X87189256Y-75251174D01*
X87554177Y-75616732D01*
X88127336Y-75854728D01*
X88747942Y-75855270D01*
X89321514Y-75618275D01*
X89689256Y-75251174D01*
X90054177Y-75616732D01*
X90627336Y-75854728D01*
X91247942Y-75855270D01*
X91821514Y-75618275D01*
X92189256Y-75251174D01*
X92554177Y-75616732D01*
X93127336Y-75854728D01*
X93747942Y-75855270D01*
X94321514Y-75618275D01*
X94689256Y-75251174D01*
X95054177Y-75616732D01*
X95627336Y-75854728D01*
X96247942Y-75855270D01*
X96821514Y-75618275D01*
X97046926Y-75393256D01*
X97520349Y-75393256D01*
X97609821Y-75652332D01*
X98192368Y-75866325D01*
X98812461Y-75841097D01*
X99268179Y-75652332D01*
X99357651Y-75393256D01*
X98439000Y-74474605D01*
X97520349Y-75393256D01*
X97046926Y-75393256D01*
X97256121Y-75184426D01*
X97340744Y-75213651D01*
X98259395Y-74295000D01*
X98618605Y-74295000D01*
X99537256Y-75213651D01*
X99796332Y-75124179D01*
X100010325Y-74541632D01*
X99985097Y-73921539D01*
X99796332Y-73465821D01*
X99537256Y-73376349D01*
X98618605Y-74295000D01*
X98259395Y-74295000D01*
X98245253Y-74280858D01*
X98424858Y-74101253D01*
X98439000Y-74115395D01*
X99357651Y-73196744D01*
X99268179Y-72937668D01*
X98685632Y-72723675D01*
X98065539Y-72748903D01*
X97666000Y-72914398D01*
X97666000Y-72118189D01*
X97766000Y-72138440D01*
X98566000Y-72138440D01*
X98801317Y-72094162D01*
X98813657Y-72086222D01*
X98909690Y-72126000D01*
X99150250Y-72126000D01*
X99309000Y-71967250D01*
X99309000Y-70968000D01*
X99289000Y-70968000D01*
X99289000Y-70714000D01*
X99309000Y-70714000D01*
X99309000Y-70694000D01*
X99563000Y-70694000D01*
X99563000Y-70714000D01*
X99583000Y-70714000D01*
X99583000Y-70968000D01*
X99563000Y-70968000D01*
X99563000Y-71967250D01*
X99721750Y-72126000D01*
X99962310Y-72126000D01*
X100060832Y-72085191D01*
X100064110Y-72087431D01*
X100316000Y-72138440D01*
X101116000Y-72138440D01*
X101351317Y-72094162D01*
X101355155Y-72091693D01*
X101586000Y-72138440D01*
X102386000Y-72138440D01*
X102621317Y-72094162D01*
X102622761Y-72093233D01*
X102846000Y-72138440D01*
X103646000Y-72138440D01*
X103881317Y-72094162D01*
X103887548Y-72090152D01*
X104126000Y-72138440D01*
X104926000Y-72138440D01*
X105161317Y-72094162D01*
X105377441Y-71955090D01*
X105522431Y-71742890D01*
X105573440Y-71491000D01*
X105573440Y-70191000D01*
X105529162Y-69955683D01*
X105390090Y-69739559D01*
X105177890Y-69594569D01*
X104926000Y-69543560D01*
X104126000Y-69543560D01*
X103890683Y-69587838D01*
X103884452Y-69591848D01*
X103646000Y-69543560D01*
X102846000Y-69543560D01*
X102610683Y-69587838D01*
X102609239Y-69588767D01*
X102386000Y-69543560D01*
X101586000Y-69543560D01*
X101350683Y-69587838D01*
X101346845Y-69590307D01*
X101116000Y-69543560D01*
X100316000Y-69543560D01*
X100080683Y-69587838D01*
X100064427Y-69598298D01*
X99962310Y-69556000D01*
X99721750Y-69556000D01*
X99563002Y-69714748D01*
X99563002Y-69556000D01*
X99552580Y-69556000D01*
X101383906Y-67724673D01*
X101413201Y-67736838D01*
X101785167Y-67737162D01*
X102128943Y-67595117D01*
X102392192Y-67332327D01*
X102534838Y-66988799D01*
X102535162Y-66616833D01*
X102393117Y-66273057D01*
X102130327Y-66009808D01*
X101786799Y-65867162D01*
X101414833Y-65866838D01*
X101293431Y-65917000D01*
X101055005Y-65917000D01*
X101055000Y-65916999D01*
X100772516Y-65973190D01*
X100716325Y-65984367D01*
X100429210Y-66176210D01*
X100429208Y-66176213D01*
X97540210Y-69065210D01*
X97348367Y-69352325D01*
X97348367Y-69352326D01*
X97310160Y-69544402D01*
X97306000Y-69543560D01*
X96511000Y-69543560D01*
X96511000Y-69078580D01*
X97861788Y-67727791D01*
X97861791Y-67727789D01*
X97944835Y-67644744D01*
X98064943Y-67595117D01*
X98328192Y-67332327D01*
X98470838Y-66988799D01*
X98471162Y-66616833D01*
X98329117Y-66273057D01*
X98066327Y-66009808D01*
X97722799Y-65867162D01*
X97350833Y-65866838D01*
X97007057Y-66008883D01*
X96743808Y-66271673D01*
X96693434Y-66392986D01*
X96610211Y-66476209D01*
X96610209Y-66476212D01*
X95000210Y-68086210D01*
X94808367Y-68373325D01*
X94808367Y-68373326D01*
X94740999Y-68712000D01*
X94741000Y-68712005D01*
X94741000Y-69776025D01*
X94629569Y-69939110D01*
X94578560Y-70191000D01*
X94578560Y-71491000D01*
X94622838Y-71726317D01*
X94761910Y-71942441D01*
X94974110Y-72087431D01*
X95226000Y-72138440D01*
X96026000Y-72138440D01*
X96146000Y-72115860D01*
X96146000Y-72735181D01*
X95630058Y-72734730D01*
X95056486Y-72971725D01*
X94688744Y-73338826D01*
X94323823Y-72973268D01*
X94237000Y-72937216D01*
X94237000Y-72013931D01*
X94328441Y-71955090D01*
X94473431Y-71742890D01*
X94524440Y-71491000D01*
X94524440Y-70191000D01*
X94480162Y-69955683D01*
X94341090Y-69739559D01*
X94128890Y-69594569D01*
X93877000Y-69543560D01*
X93082000Y-69543560D01*
X93082000Y-68443580D01*
X93797788Y-67727791D01*
X93797791Y-67727789D01*
X93880835Y-67644744D01*
X94000943Y-67595117D01*
X94264192Y-67332327D01*
X94406838Y-66988799D01*
X94407162Y-66616833D01*
X94265117Y-66273057D01*
X94002327Y-66009808D01*
X93658799Y-65867162D01*
X93286833Y-65866838D01*
X92943057Y-66008883D01*
X92679808Y-66271673D01*
X92629434Y-66392986D01*
X92546211Y-66476209D01*
X92546209Y-66476212D01*
X91571210Y-67451210D01*
X91379367Y-67738325D01*
X91379367Y-67738326D01*
X91311999Y-68077000D01*
X91312000Y-68077005D01*
X91312000Y-69543560D01*
X90552000Y-69543560D01*
X90552000Y-67061000D01*
X90484633Y-66722325D01*
X90292790Y-66435210D01*
X90292787Y-66435208D01*
X90250745Y-66393166D01*
X90201117Y-66273057D01*
X89938327Y-66009808D01*
X89594799Y-65867162D01*
X89222833Y-65866838D01*
X88879057Y-66008883D01*
X88615808Y-66271673D01*
X88473162Y-66615201D01*
X88472838Y-66987167D01*
X88614883Y-67330943D01*
X88782000Y-67498352D01*
X88782000Y-69543560D01*
X88002000Y-69543560D01*
X88002000Y-68575005D01*
X88002001Y-68575000D01*
X87934633Y-68236326D01*
X87934633Y-68236325D01*
X87742790Y-67949210D01*
X87742787Y-67949208D01*
X86269789Y-66476209D01*
X86269786Y-66476207D01*
X86186745Y-66393165D01*
X86137117Y-66273057D01*
X85874327Y-66009808D01*
X85530799Y-65867162D01*
X85158833Y-65866838D01*
X84815057Y-66008883D01*
X84551808Y-66271673D01*
X84409162Y-66615201D01*
X84408838Y-66987167D01*
X84550883Y-67330943D01*
X84813673Y-67594192D01*
X84934987Y-67644566D01*
X85018207Y-67727786D01*
X85018209Y-67727789D01*
X86232000Y-68941579D01*
X86232000Y-69543560D01*
X85462000Y-69543560D01*
X85462000Y-69024719D01*
X85462001Y-69024714D01*
X85394633Y-68686040D01*
X85394633Y-68686039D01*
X85202790Y-68398924D01*
X85202787Y-68398922D01*
X82232381Y-65428515D01*
X82232378Y-65428513D01*
X82149337Y-65345471D01*
X82099709Y-65225363D01*
X82041493Y-65167045D01*
X83604603Y-63603935D01*
X83580569Y-63639110D01*
X83529560Y-63891000D01*
X83529560Y-65191000D01*
X83573838Y-65426317D01*
X83712910Y-65642441D01*
X83925110Y-65787431D01*
X84177000Y-65838440D01*
X84977000Y-65838440D01*
X85212317Y-65794162D01*
X85228573Y-65783702D01*
X85330690Y-65826000D01*
X85571250Y-65826000D01*
X85730000Y-65667250D01*
X85730000Y-64668000D01*
X85710000Y-64668000D01*
X85710000Y-64414000D01*
X85730000Y-64414000D01*
X85730000Y-64394000D01*
X85984000Y-64394000D01*
X85984000Y-64414000D01*
X86004000Y-64414000D01*
X86004000Y-64668000D01*
X85984000Y-64668000D01*
X85984000Y-65667250D01*
X86142750Y-65826000D01*
X86383310Y-65826000D01*
X86472709Y-65788970D01*
X86717000Y-65838440D01*
X87517000Y-65838440D01*
X87752317Y-65794162D01*
X87764657Y-65786222D01*
X87860690Y-65826000D01*
X88101250Y-65826000D01*
X88260000Y-65667250D01*
X88260000Y-64668000D01*
X88240000Y-64668000D01*
X88240000Y-64414000D01*
X88260000Y-64414000D01*
X88260000Y-64394000D01*
X88514000Y-64394000D01*
X88514000Y-64414000D01*
X88534000Y-64414000D01*
X88534000Y-64668000D01*
X88514000Y-64668000D01*
X88514000Y-65667250D01*
X88672750Y-65826000D01*
X88913310Y-65826000D01*
X89011832Y-65785191D01*
X89015110Y-65787431D01*
X89267000Y-65838440D01*
X90067000Y-65838440D01*
X90302317Y-65794162D01*
X90314657Y-65786222D01*
X90410690Y-65826000D01*
X90651250Y-65826000D01*
X90810000Y-65667250D01*
X90810000Y-64668000D01*
X90790000Y-64668000D01*
X90790000Y-64414000D01*
X90810000Y-64414000D01*
X90810000Y-64394000D01*
X91064000Y-64394000D01*
X91064000Y-64414000D01*
X91084000Y-64414000D01*
X91084000Y-64668000D01*
X91064000Y-64668000D01*
X91064000Y-65667250D01*
X91222750Y-65826000D01*
X91463310Y-65826000D01*
X91552709Y-65788970D01*
X91797000Y-65838440D01*
X92597000Y-65838440D01*
X92832317Y-65794162D01*
X92848573Y-65783702D01*
X92950690Y-65826000D01*
X93191250Y-65826000D01*
X93350000Y-65667250D01*
X93350000Y-64668000D01*
X93604000Y-64668000D01*
X93604000Y-65667250D01*
X93762750Y-65826000D01*
X94003310Y-65826000D01*
X94236699Y-65729327D01*
X94415327Y-65550698D01*
X94512000Y-65317309D01*
X94512000Y-64826750D01*
X94353250Y-64668000D01*
X93604000Y-64668000D01*
X93350000Y-64668000D01*
X93330000Y-64668000D01*
X93330000Y-64414000D01*
X93350000Y-64414000D01*
X93350000Y-64394000D01*
X93604000Y-64394000D01*
X93604000Y-64414000D01*
X94353250Y-64414000D01*
X94512000Y-64255250D01*
X94512000Y-64227273D01*
X94559852Y-64467839D01*
X94578560Y-64495838D01*
X94578560Y-65191000D01*
X94622838Y-65426317D01*
X94761910Y-65642441D01*
X94974110Y-65787431D01*
X95226000Y-65838440D01*
X96026000Y-65838440D01*
X96261317Y-65794162D01*
X96277573Y-65783702D01*
X96379690Y-65826000D01*
X96620250Y-65826000D01*
X96779000Y-65667250D01*
X96779000Y-64668000D01*
X96759000Y-64668000D01*
X96759000Y-64414000D01*
X96779000Y-64414000D01*
X96779000Y-64394000D01*
X97033000Y-64394000D01*
X97033000Y-64414000D01*
X97053000Y-64414000D01*
X97053000Y-64668000D01*
X97033000Y-64668000D01*
X97033000Y-65667250D01*
X97191750Y-65826000D01*
X97432310Y-65826000D01*
X97521709Y-65788970D01*
X97766000Y-65838440D01*
X98566000Y-65838440D01*
X98801317Y-65794162D01*
X98813657Y-65786222D01*
X98909690Y-65826000D01*
X99150250Y-65826000D01*
X99309000Y-65667250D01*
X99309000Y-64668000D01*
X99289000Y-64668000D01*
X99289000Y-64414000D01*
X99309000Y-64414000D01*
X99309000Y-64394000D01*
X99563000Y-64394000D01*
X99563000Y-64414000D01*
X99583000Y-64414000D01*
X99583000Y-64668000D01*
X99563000Y-64668000D01*
X99563000Y-65667250D01*
X99721750Y-65826000D01*
X99962310Y-65826000D01*
X100060832Y-65785191D01*
X100064110Y-65787431D01*
X100316000Y-65838440D01*
X101116000Y-65838440D01*
X101351317Y-65794162D01*
X101355155Y-65791693D01*
X101586000Y-65838440D01*
X102386000Y-65838440D01*
X102621317Y-65794162D01*
X102622761Y-65793233D01*
X102846000Y-65838440D01*
X103646000Y-65838440D01*
X103881317Y-65794162D01*
X103887548Y-65790152D01*
X104126000Y-65838440D01*
X104926000Y-65838440D01*
X105161317Y-65794162D01*
X105377441Y-65655090D01*
X105522431Y-65442890D01*
X105573440Y-65191000D01*
X105573440Y-63891000D01*
X105529162Y-63655683D01*
X105390090Y-63439559D01*
X105177890Y-63294569D01*
X104926000Y-63243560D01*
X104126000Y-63243560D01*
X103890683Y-63287838D01*
X103884452Y-63291848D01*
X103646000Y-63243560D01*
X102846000Y-63243560D01*
X102610683Y-63287838D01*
X102609239Y-63288767D01*
X102386000Y-63243560D01*
X101586000Y-63243560D01*
X101350683Y-63287838D01*
X101346845Y-63290307D01*
X101116000Y-63243560D01*
X100316000Y-63243560D01*
X100183126Y-63268562D01*
X100199440Y-63188000D01*
X100199440Y-62288000D01*
X100155162Y-62052683D01*
X100016090Y-61836559D01*
X99803890Y-61691569D01*
X99552000Y-61640560D01*
X99052000Y-61640560D01*
X98816683Y-61684838D01*
X98633289Y-61802849D01*
X98620833Y-61802838D01*
X98520949Y-61844109D01*
X98516090Y-61836559D01*
X98303890Y-61691569D01*
X98052000Y-61640560D01*
X97552000Y-61640560D01*
X97316683Y-61684838D01*
X97284422Y-61705598D01*
X97263890Y-61691569D01*
X97012000Y-61640560D01*
X96512000Y-61640560D01*
X96276683Y-61684838D01*
X96093289Y-61802849D01*
X96080833Y-61802838D01*
X95980949Y-61844109D01*
X95976090Y-61836559D01*
X95763890Y-61691569D01*
X95512000Y-61640560D01*
X95012000Y-61640560D01*
X94776683Y-61684838D01*
X94560559Y-61823910D01*
X94488146Y-61929889D01*
X94428090Y-61836559D01*
X94215890Y-61691569D01*
X93964000Y-61640560D01*
X93891362Y-61640560D01*
X93531813Y-61281011D01*
X102963223Y-61281011D01*
X102963179Y-61331188D01*
X103105224Y-61674964D01*
X103368014Y-61938213D01*
X103711542Y-62080859D01*
X104083508Y-62081183D01*
X104427284Y-61939138D01*
X104494763Y-61871776D01*
X104613444Y-61848169D01*
X104860006Y-61683422D01*
X105970000Y-60573428D01*
X105970000Y-76760000D01*
G36*
X43076432Y-59895710D02*
X43820435Y-60204648D01*
X44626030Y-60205351D01*
X44917301Y-60085000D01*
X45679360Y-60085000D01*
X45679360Y-64504194D01*
X45449732Y-65057199D01*
X45448990Y-65906555D01*
X45720000Y-66562448D01*
X45720000Y-67155923D01*
X44430608Y-68445316D01*
X43877200Y-68673980D01*
X43276091Y-69274041D01*
X42950372Y-70058459D01*
X42949630Y-70907815D01*
X43273980Y-71692800D01*
X43874041Y-72293909D01*
X44658459Y-72619628D01*
X45507815Y-72620370D01*
X46292800Y-72296020D01*
X46893909Y-71695959D01*
X47125251Y-71138825D01*
X47950149Y-70313928D01*
X47949630Y-70907815D01*
X48273980Y-71692800D01*
X48874041Y-72293909D01*
X49658459Y-72619628D01*
X50507815Y-72620370D01*
X50617214Y-72575167D01*
X54182838Y-72575167D01*
X54324883Y-72918943D01*
X54587673Y-73182192D01*
X54931201Y-73324838D01*
X55303167Y-73325162D01*
X55424569Y-73275000D01*
X57097178Y-73275000D01*
X57217201Y-73324838D01*
X57589167Y-73325162D01*
X57932943Y-73183117D01*
X58196192Y-72920327D01*
X58338838Y-72576799D01*
X58339162Y-72204833D01*
X58197117Y-71861057D01*
X57934327Y-71597808D01*
X57590799Y-71455162D01*
X57218833Y-71454838D01*
X57097431Y-71505000D01*
X55424822Y-71505000D01*
X55304799Y-71455162D01*
X54932833Y-71454838D01*
X54589057Y-71596883D01*
X54325808Y-71859673D01*
X54183162Y-72203201D01*
X54182838Y-72575167D01*
X50617214Y-72575167D01*
X51292800Y-72296020D01*
X51893909Y-71695959D01*
X52068444Y-71275632D01*
X53931399Y-69412678D01*
X54344351Y-68794652D01*
X54489360Y-68065640D01*
X54489360Y-66852800D01*
X54670628Y-66852800D01*
X54755009Y-67277012D01*
X55167962Y-67895038D01*
X55785988Y-68307991D01*
X56515000Y-68453000D01*
X60325000Y-68453000D01*
X61054012Y-68307991D01*
X61579395Y-67956941D01*
X61577560Y-67966000D01*
X61577560Y-69026000D01*
X61621838Y-69261317D01*
X61725880Y-69423003D01*
X61536833Y-69422838D01*
X61193057Y-69564883D01*
X60929808Y-69827673D01*
X60787162Y-70171201D01*
X60786838Y-70543167D01*
X60928883Y-70886943D01*
X60962000Y-70920118D01*
X60962000Y-71501000D01*
X61019852Y-71791839D01*
X61184599Y-72038401D01*
X61565599Y-72419401D01*
X61812160Y-72584148D01*
X62103000Y-72642000D01*
X63246000Y-72642000D01*
X63536839Y-72584148D01*
X63783401Y-72419401D01*
X64037401Y-72165401D01*
X64202148Y-71918840D01*
X64211179Y-71873440D01*
X64775000Y-71873440D01*
X65010317Y-71829162D01*
X65226441Y-71690090D01*
X65371431Y-71477890D01*
X65422440Y-71226000D01*
X65422440Y-71219440D01*
X65599201Y-71292838D01*
X65971167Y-71293162D01*
X66314943Y-71151117D01*
X66578192Y-70888327D01*
X66720838Y-70544799D01*
X66721162Y-70172833D01*
X66579117Y-69829057D01*
X66316327Y-69565808D01*
X65972799Y-69423162D01*
X65600833Y-69422838D01*
X65257057Y-69564883D01*
X65223882Y-69598000D01*
X65068500Y-69598000D01*
X65062803Y-69594107D01*
X65134699Y-69564327D01*
X65313327Y-69385698D01*
X65410000Y-69152309D01*
X65410000Y-68781750D01*
X65251250Y-68623000D01*
X64577000Y-68623000D01*
X64577000Y-68643000D01*
X64323000Y-68643000D01*
X64323000Y-68623000D01*
X64303000Y-68623000D01*
X64303000Y-68369000D01*
X64323000Y-68369000D01*
X64323000Y-67489750D01*
X64577000Y-67489750D01*
X64577000Y-68369000D01*
X65251250Y-68369000D01*
X65410000Y-68210250D01*
X65410000Y-67839691D01*
X65313327Y-67606302D01*
X65134699Y-67427673D01*
X64901310Y-67331000D01*
X64735750Y-67331000D01*
X64577000Y-67489750D01*
X64323000Y-67489750D01*
X64164250Y-67331000D01*
X64045802Y-67331000D01*
X64195802Y-67181000D01*
X66548000Y-67181000D01*
X66838839Y-67123148D01*
X67085401Y-66958401D01*
X67974401Y-66069401D01*
X68139148Y-65822839D01*
X68197000Y-65532000D01*
X68197000Y-60323000D01*
X69433290Y-60323000D01*
X69286852Y-60542161D01*
X69229000Y-60833000D01*
X69286852Y-61123839D01*
X69370290Y-61248713D01*
X69353683Y-61251838D01*
X69137559Y-61390910D01*
X68992569Y-61603110D01*
X68941560Y-61855000D01*
X68941560Y-62605000D01*
X68985838Y-62840317D01*
X69124910Y-63056441D01*
X69337110Y-63201431D01*
X69589000Y-63252440D01*
X70389000Y-63252440D01*
X70624317Y-63208162D01*
X70727646Y-63141671D01*
X70729302Y-63143327D01*
X70962691Y-63240000D01*
X71203250Y-63240000D01*
X71362000Y-63081250D01*
X71362000Y-62556088D01*
X71419838Y-62416799D01*
X71420129Y-62083000D01*
X71616000Y-62083000D01*
X71616000Y-62103000D01*
X71636000Y-62103000D01*
X71636000Y-62167546D01*
X71582162Y-62297201D01*
X71581838Y-62669167D01*
X71616000Y-62751846D01*
X71616000Y-63081250D01*
X71774750Y-63240000D01*
X71950544Y-63240000D01*
X71986673Y-63276192D01*
X72330201Y-63418838D01*
X72702167Y-63419162D01*
X72836292Y-63363743D01*
X72875673Y-63403192D01*
X72882507Y-63406030D01*
X72882441Y-63482172D01*
X72988306Y-63738385D01*
X72867808Y-63858673D01*
X72725162Y-64202201D01*
X72724838Y-64574167D01*
X72866883Y-64917943D01*
X73129673Y-65181192D01*
X73473201Y-65323838D01*
X73525002Y-65323883D01*
X73525002Y-65862196D01*
X71615320Y-67771878D01*
X71569833Y-67771838D01*
X71226057Y-67913883D01*
X70962808Y-68176673D01*
X70820162Y-68520201D01*
X70819838Y-68892167D01*
X70961883Y-69235943D01*
X71224673Y-69499192D01*
X71568201Y-69641838D01*
X71940167Y-69642162D01*
X72042127Y-69600033D01*
X71963162Y-69790201D01*
X71962838Y-70162167D01*
X72104883Y-70505943D01*
X72138000Y-70539118D01*
X72138000Y-75764537D01*
X72105808Y-75796673D01*
X71963162Y-76140201D01*
X71962838Y-76512167D01*
X72065240Y-76760000D01*
X42620000Y-76760000D01*
X42620000Y-59438481D01*
X43076432Y-59895710D01*
X43076432Y-59895710D01*
G37*
X43076432Y-59895710D02*
X43820435Y-60204648D01*
X44626030Y-60205351D01*
X44917301Y-60085000D01*
X45679360Y-60085000D01*
X45679360Y-64504194D01*
X45449732Y-65057199D01*
X45448990Y-65906555D01*
X45720000Y-66562448D01*
X45720000Y-67155923D01*
X44430608Y-68445316D01*
X43877200Y-68673980D01*
X43276091Y-69274041D01*
X42950372Y-70058459D01*
X42949630Y-70907815D01*
X43273980Y-71692800D01*
X43874041Y-72293909D01*
X44658459Y-72619628D01*
X45507815Y-72620370D01*
X46292800Y-72296020D01*
X46893909Y-71695959D01*
X47125251Y-71138825D01*
X47950149Y-70313928D01*
X47949630Y-70907815D01*
X48273980Y-71692800D01*
X48874041Y-72293909D01*
X49658459Y-72619628D01*
X50507815Y-72620370D01*
X50617214Y-72575167D01*
X54182838Y-72575167D01*
X54324883Y-72918943D01*
X54587673Y-73182192D01*
X54931201Y-73324838D01*
X55303167Y-73325162D01*
X55424569Y-73275000D01*
X57097178Y-73275000D01*
X57217201Y-73324838D01*
X57589167Y-73325162D01*
X57932943Y-73183117D01*
X58196192Y-72920327D01*
X58338838Y-72576799D01*
X58339162Y-72204833D01*
X58197117Y-71861057D01*
X57934327Y-71597808D01*
X57590799Y-71455162D01*
X57218833Y-71454838D01*
X57097431Y-71505000D01*
X55424822Y-71505000D01*
X55304799Y-71455162D01*
X54932833Y-71454838D01*
X54589057Y-71596883D01*
X54325808Y-71859673D01*
X54183162Y-72203201D01*
X54182838Y-72575167D01*
X50617214Y-72575167D01*
X51292800Y-72296020D01*
X51893909Y-71695959D01*
X52068444Y-71275632D01*
X53931399Y-69412678D01*
X54344351Y-68794652D01*
X54489360Y-68065640D01*
X54489360Y-66852800D01*
X54670628Y-66852800D01*
X54755009Y-67277012D01*
X55167962Y-67895038D01*
X55785988Y-68307991D01*
X56515000Y-68453000D01*
X60325000Y-68453000D01*
X61054012Y-68307991D01*
X61579395Y-67956941D01*
X61577560Y-67966000D01*
X61577560Y-69026000D01*
X61621838Y-69261317D01*
X61725880Y-69423003D01*
X61536833Y-69422838D01*
X61193057Y-69564883D01*
X60929808Y-69827673D01*
X60787162Y-70171201D01*
X60786838Y-70543167D01*
X60928883Y-70886943D01*
X60962000Y-70920118D01*
X60962000Y-71501000D01*
X61019852Y-71791839D01*
X61184599Y-72038401D01*
X61565599Y-72419401D01*
X61812160Y-72584148D01*
X62103000Y-72642000D01*
X63246000Y-72642000D01*
X63536839Y-72584148D01*
X63783401Y-72419401D01*
X64037401Y-72165401D01*
X64202148Y-71918840D01*
X64211179Y-71873440D01*
X64775000Y-71873440D01*
X65010317Y-71829162D01*
X65226441Y-71690090D01*
X65371431Y-71477890D01*
X65422440Y-71226000D01*
X65422440Y-71219440D01*
X65599201Y-71292838D01*
X65971167Y-71293162D01*
X66314943Y-71151117D01*
X66578192Y-70888327D01*
X66720838Y-70544799D01*
X66721162Y-70172833D01*
X66579117Y-69829057D01*
X66316327Y-69565808D01*
X65972799Y-69423162D01*
X65600833Y-69422838D01*
X65257057Y-69564883D01*
X65223882Y-69598000D01*
X65068500Y-69598000D01*
X65062803Y-69594107D01*
X65134699Y-69564327D01*
X65313327Y-69385698D01*
X65410000Y-69152309D01*
X65410000Y-68781750D01*
X65251250Y-68623000D01*
X64577000Y-68623000D01*
X64577000Y-68643000D01*
X64323000Y-68643000D01*
X64323000Y-68623000D01*
X64303000Y-68623000D01*
X64303000Y-68369000D01*
X64323000Y-68369000D01*
X64323000Y-67489750D01*
X64577000Y-67489750D01*
X64577000Y-68369000D01*
X65251250Y-68369000D01*
X65410000Y-68210250D01*
X65410000Y-67839691D01*
X65313327Y-67606302D01*
X65134699Y-67427673D01*
X64901310Y-67331000D01*
X64735750Y-67331000D01*
X64577000Y-67489750D01*
X64323000Y-67489750D01*
X64164250Y-67331000D01*
X64045802Y-67331000D01*
X64195802Y-67181000D01*
X66548000Y-67181000D01*
X66838839Y-67123148D01*
X67085401Y-66958401D01*
X67974401Y-66069401D01*
X68139148Y-65822839D01*
X68197000Y-65532000D01*
X68197000Y-60323000D01*
X69433290Y-60323000D01*
X69286852Y-60542161D01*
X69229000Y-60833000D01*
X69286852Y-61123839D01*
X69370290Y-61248713D01*
X69353683Y-61251838D01*
X69137559Y-61390910D01*
X68992569Y-61603110D01*
X68941560Y-61855000D01*
X68941560Y-62605000D01*
X68985838Y-62840317D01*
X69124910Y-63056441D01*
X69337110Y-63201431D01*
X69589000Y-63252440D01*
X70389000Y-63252440D01*
X70624317Y-63208162D01*
X70727646Y-63141671D01*
X70729302Y-63143327D01*
X70962691Y-63240000D01*
X71203250Y-63240000D01*
X71362000Y-63081250D01*
X71362000Y-62556088D01*
X71419838Y-62416799D01*
X71420129Y-62083000D01*
X71616000Y-62083000D01*
X71616000Y-62103000D01*
X71636000Y-62103000D01*
X71636000Y-62167546D01*
X71582162Y-62297201D01*
X71581838Y-62669167D01*
X71616000Y-62751846D01*
X71616000Y-63081250D01*
X71774750Y-63240000D01*
X71950544Y-63240000D01*
X71986673Y-63276192D01*
X72330201Y-63418838D01*
X72702167Y-63419162D01*
X72836292Y-63363743D01*
X72875673Y-63403192D01*
X72882507Y-63406030D01*
X72882441Y-63482172D01*
X72988306Y-63738385D01*
X72867808Y-63858673D01*
X72725162Y-64202201D01*
X72724838Y-64574167D01*
X72866883Y-64917943D01*
X73129673Y-65181192D01*
X73473201Y-65323838D01*
X73525002Y-65323883D01*
X73525002Y-65862196D01*
X71615320Y-67771878D01*
X71569833Y-67771838D01*
X71226057Y-67913883D01*
X70962808Y-68176673D01*
X70820162Y-68520201D01*
X70819838Y-68892167D01*
X70961883Y-69235943D01*
X71224673Y-69499192D01*
X71568201Y-69641838D01*
X71940167Y-69642162D01*
X72042127Y-69600033D01*
X71963162Y-69790201D01*
X71962838Y-70162167D01*
X72104883Y-70505943D01*
X72138000Y-70539118D01*
X72138000Y-75764537D01*
X72105808Y-75796673D01*
X71963162Y-76140201D01*
X71962838Y-76512167D01*
X72065240Y-76760000D01*
X42620000Y-76760000D01*
X42620000Y-59438481D01*
X43076432Y-59895710D01*
G36*
X62378000Y-64819440D02*
X63210458Y-64819440D01*
X63098057Y-64865883D01*
X62834808Y-65128673D01*
X62692162Y-65472201D01*
X62691838Y-65844167D01*
X62833883Y-66187943D01*
X62936479Y-66290719D01*
X62118463Y-67108735D01*
X62230000Y-66548000D01*
X62230000Y-64947800D01*
X62197184Y-64782824D01*
X62378000Y-64819440D01*
X62378000Y-64819440D01*
G37*
X62378000Y-64819440D02*
X63210458Y-64819440D01*
X63098057Y-64865883D01*
X62834808Y-65128673D01*
X62692162Y-65472201D01*
X62691838Y-65844167D01*
X62833883Y-66187943D01*
X62936479Y-66290719D01*
X62118463Y-67108735D01*
X62230000Y-66548000D01*
X62230000Y-64947800D01*
X62197184Y-64782824D01*
X62378000Y-64819440D01*
G36*
X64885000Y-58801000D02*
X64905000Y-58801000D01*
X64905000Y-59055000D01*
X64885000Y-59055000D01*
X64885000Y-60325000D01*
X64905000Y-60325000D01*
X64905000Y-60579000D01*
X64885000Y-60579000D01*
X64885000Y-60599000D01*
X64631000Y-60599000D01*
X64631000Y-60579000D01*
X64611000Y-60579000D01*
X64611000Y-60325000D01*
X64631000Y-60325000D01*
X64631000Y-59055000D01*
X64611000Y-59055000D01*
X64611000Y-58801000D01*
X64631000Y-58801000D01*
X64631000Y-58781000D01*
X64885000Y-58781000D01*
X64885000Y-58801000D01*
X64885000Y-58801000D01*
G37*
X64885000Y-58801000D02*
X64905000Y-58801000D01*
X64905000Y-59055000D01*
X64885000Y-59055000D01*
X64885000Y-60325000D01*
X64905000Y-60325000D01*
X64905000Y-60579000D01*
X64885000Y-60579000D01*
X64885000Y-60599000D01*
X64631000Y-60599000D01*
X64631000Y-60579000D01*
X64611000Y-60579000D01*
X64611000Y-60325000D01*
X64631000Y-60325000D01*
X64631000Y-59055000D01*
X64611000Y-59055000D01*
X64611000Y-58801000D01*
X64631000Y-58801000D01*
X64631000Y-58781000D01*
X64885000Y-58781000D01*
X64885000Y-58801000D01*
G36*
X98521808Y-43284673D02*
X98379162Y-43628201D01*
X98378838Y-44000167D01*
X98394325Y-44037649D01*
X98325673Y-44106302D01*
X98229000Y-44339691D01*
X98229000Y-44432250D01*
X98387750Y-44591000D01*
X98767509Y-44591000D01*
X98783673Y-44607192D01*
X99127201Y-44749838D01*
X99461000Y-44750129D01*
X99461000Y-44841000D01*
X99441000Y-44841000D01*
X99441000Y-44863000D01*
X99187000Y-44863000D01*
X99187000Y-44841000D01*
X98387750Y-44841000D01*
X98229000Y-44999750D01*
X98229000Y-45092309D01*
X98325673Y-45325698D01*
X98466910Y-45466936D01*
X98412559Y-45501910D01*
X98267569Y-45714110D01*
X98216560Y-45966000D01*
X98216560Y-46466000D01*
X98260838Y-46701317D01*
X98352438Y-46843667D01*
X98342569Y-46858110D01*
X98291560Y-47110000D01*
X98291560Y-47910000D01*
X98335838Y-48145317D01*
X98402329Y-48248646D01*
X98400673Y-48250302D01*
X98304000Y-48483691D01*
X98304000Y-48724250D01*
X98462750Y-48883000D01*
X99187000Y-48883000D01*
X99187000Y-48863000D01*
X99441000Y-48863000D01*
X99441000Y-48883000D01*
X100165250Y-48883000D01*
X100324000Y-48724250D01*
X100324000Y-48483691D01*
X100227327Y-48250302D01*
X100225957Y-48248932D01*
X100264278Y-48192849D01*
X100293161Y-48212148D01*
X100584000Y-48270000D01*
X100874839Y-48212148D01*
X101112529Y-48053329D01*
X101129838Y-48145317D01*
X101196329Y-48248646D01*
X101194673Y-48250302D01*
X101098000Y-48483691D01*
X101098000Y-48724250D01*
X101256750Y-48883000D01*
X101981000Y-48883000D01*
X101981000Y-48863000D01*
X102235000Y-48863000D01*
X102235000Y-48883000D01*
X102959250Y-48883000D01*
X103118000Y-48724250D01*
X103118000Y-48483691D01*
X103021327Y-48250302D01*
X103019957Y-48248932D01*
X103079431Y-48161890D01*
X103130440Y-47910000D01*
X103130440Y-47110000D01*
X103105226Y-46976000D01*
X103164000Y-46976000D01*
X103454839Y-46918148D01*
X103701401Y-46753401D01*
X104454802Y-46000000D01*
X104822352Y-46000000D01*
X104777000Y-46228000D01*
X104777000Y-55755513D01*
X104630839Y-55657852D01*
X104483308Y-55628506D01*
X103701401Y-54846599D01*
X103454839Y-54681852D01*
X103164000Y-54624000D01*
X103103304Y-54624000D01*
X103130440Y-54490000D01*
X103130440Y-53690000D01*
X103086162Y-53454683D01*
X103019671Y-53351354D01*
X103021327Y-53349698D01*
X103118000Y-53116309D01*
X103118000Y-52875750D01*
X102959250Y-52717000D01*
X102235000Y-52717000D01*
X102235000Y-52737000D01*
X101981000Y-52737000D01*
X101981000Y-52717000D01*
X101256750Y-52717000D01*
X101098000Y-52875750D01*
X101098000Y-53116309D01*
X101194673Y-53349698D01*
X101196043Y-53351068D01*
X101136569Y-53438110D01*
X101114340Y-53547881D01*
X100874839Y-53387852D01*
X100584000Y-53330000D01*
X100293161Y-53387852D01*
X100262388Y-53408414D01*
X100225671Y-53351354D01*
X100227327Y-53349698D01*
X100324000Y-53116309D01*
X100324000Y-52875750D01*
X100165250Y-52717000D01*
X99441000Y-52717000D01*
X99441000Y-52737000D01*
X99187000Y-52737000D01*
X99187000Y-52717000D01*
X98462750Y-52717000D01*
X98304000Y-52875750D01*
X98304000Y-53116309D01*
X98400673Y-53349698D01*
X98402043Y-53351068D01*
X98342569Y-53438110D01*
X98291560Y-53690000D01*
X98291560Y-54309962D01*
X98267808Y-54333673D01*
X98125162Y-54677201D01*
X98125126Y-54718841D01*
X98013569Y-54882110D01*
X97962560Y-55134000D01*
X97962560Y-55634000D01*
X98006838Y-55869317D01*
X98145910Y-56085441D01*
X98214006Y-56131969D01*
X98071673Y-56274302D01*
X97975000Y-56507691D01*
X97975000Y-56600250D01*
X98133750Y-56759000D01*
X98933000Y-56759000D01*
X98933000Y-56737000D01*
X99187000Y-56737000D01*
X99187000Y-56759000D01*
X99207000Y-56759000D01*
X99207000Y-57009000D01*
X99187000Y-57009000D01*
X99187000Y-57031000D01*
X98933000Y-57031000D01*
X98933000Y-57009000D01*
X98133750Y-57009000D01*
X97975000Y-57167750D01*
X97975000Y-57260309D01*
X98071673Y-57493698D01*
X98237974Y-57660000D01*
X97596026Y-57660000D01*
X97762327Y-57493698D01*
X97859000Y-57260309D01*
X97859000Y-57167750D01*
X97700250Y-57009000D01*
X96901000Y-57009000D01*
X96901000Y-57031000D01*
X96647000Y-57031000D01*
X96647000Y-57009000D01*
X96627000Y-57009000D01*
X96627000Y-56759000D01*
X96647000Y-56759000D01*
X96647000Y-56737000D01*
X96901000Y-56737000D01*
X96901000Y-56759000D01*
X97700250Y-56759000D01*
X97859000Y-56600250D01*
X97859000Y-56507691D01*
X97762327Y-56274302D01*
X97621090Y-56133064D01*
X97675441Y-56098090D01*
X97820431Y-55885890D01*
X97871440Y-55634000D01*
X97871440Y-55134000D01*
X97827162Y-54898683D01*
X97735562Y-54756333D01*
X97745431Y-54741890D01*
X97796440Y-54490000D01*
X97796440Y-53690000D01*
X97752162Y-53454683D01*
X97685671Y-53351354D01*
X97687327Y-53349698D01*
X97784000Y-53116309D01*
X97784000Y-52875750D01*
X97625250Y-52717000D01*
X96901000Y-52717000D01*
X96901000Y-52737000D01*
X96647000Y-52737000D01*
X96647000Y-52717000D01*
X95922750Y-52717000D01*
X95764000Y-52875750D01*
X95764000Y-53116309D01*
X95860673Y-53349698D01*
X95862043Y-53351068D01*
X95823722Y-53407151D01*
X95794839Y-53387852D01*
X95504000Y-53330000D01*
X95213161Y-53387852D01*
X94975471Y-53546671D01*
X94958162Y-53454683D01*
X94891671Y-53351354D01*
X94893327Y-53349698D01*
X94990000Y-53116309D01*
X94990000Y-52875750D01*
X94831250Y-52717000D01*
X94107000Y-52717000D01*
X94107000Y-52737000D01*
X93853000Y-52737000D01*
X93853000Y-52717000D01*
X93128750Y-52717000D01*
X92970000Y-52875750D01*
X92970000Y-53116309D01*
X93066673Y-53349698D01*
X93068043Y-53351068D01*
X93008569Y-53438110D01*
X92957560Y-53690000D01*
X92957560Y-54490000D01*
X92982774Y-54624000D01*
X92924000Y-54624000D01*
X92693197Y-54669910D01*
X92633160Y-54681852D01*
X92386599Y-54846599D01*
X91410599Y-55822599D01*
X91245852Y-56069161D01*
X91188000Y-56360000D01*
X91188000Y-58232198D01*
X90559209Y-58860989D01*
X89879458Y-58860989D01*
X89927723Y-58812724D01*
X90087051Y-58574272D01*
X90092874Y-58545000D01*
X90143000Y-58293000D01*
X90143000Y-57657440D01*
X90258000Y-57657440D01*
X90493317Y-57613162D01*
X90709441Y-57474090D01*
X90854431Y-57261890D01*
X90905440Y-57010000D01*
X90905440Y-55831759D01*
X91089192Y-55648327D01*
X91231838Y-55304799D01*
X91232162Y-54932833D01*
X91098617Y-54609629D01*
X91231838Y-54288799D01*
X91232162Y-53916833D01*
X91090117Y-53573057D01*
X91005052Y-53487844D01*
X90999148Y-53458161D01*
X90905440Y-53317917D01*
X90905440Y-52210000D01*
X90877911Y-52063691D01*
X92970000Y-52063691D01*
X92970000Y-52304250D01*
X93128750Y-52463000D01*
X93853000Y-52463000D01*
X93853000Y-51713750D01*
X94107000Y-51713750D01*
X94107000Y-52463000D01*
X94831250Y-52463000D01*
X94990000Y-52304250D01*
X94990000Y-52063691D01*
X94893327Y-51830302D01*
X94714699Y-51651673D01*
X94481310Y-51555000D01*
X94265750Y-51555000D01*
X94107000Y-51713750D01*
X93853000Y-51713750D01*
X93694250Y-51555000D01*
X93478690Y-51555000D01*
X93245301Y-51651673D01*
X93066673Y-51830302D01*
X92970000Y-52063691D01*
X90877911Y-52063691D01*
X90861162Y-51974683D01*
X90722090Y-51758559D01*
X90509890Y-51613569D01*
X90258000Y-51562560D01*
X90168000Y-51562560D01*
X90168000Y-51435000D01*
X90110148Y-51144161D01*
X89945401Y-50897599D01*
X89498552Y-50450750D01*
X96259000Y-50450750D01*
X96259000Y-50666310D01*
X96314376Y-50800000D01*
X96259000Y-50933690D01*
X96259000Y-51149250D01*
X96417750Y-51308000D01*
X97167000Y-51308000D01*
X97167000Y-50292000D01*
X96417750Y-50292000D01*
X96259000Y-50450750D01*
X89498552Y-50450750D01*
X89122401Y-50074599D01*
X88875839Y-49909852D01*
X88585000Y-49852000D01*
X88332931Y-49852000D01*
X88283634Y-49775391D01*
X88289327Y-49769698D01*
X88386000Y-49536309D01*
X88386000Y-49295750D01*
X88227250Y-49137000D01*
X87503000Y-49137000D01*
X87503000Y-49157000D01*
X87249000Y-49157000D01*
X87249000Y-49137000D01*
X86524750Y-49137000D01*
X86366000Y-49295750D01*
X86366000Y-49536309D01*
X86455502Y-49752385D01*
X86313569Y-49960110D01*
X86262560Y-50212000D01*
X86262560Y-50702681D01*
X86061890Y-50565569D01*
X85810000Y-50514560D01*
X84910000Y-50514560D01*
X84674683Y-50558838D01*
X84458559Y-50697910D01*
X84387437Y-50802000D01*
X83077440Y-50802000D01*
X83077440Y-50171000D01*
X83033162Y-49935683D01*
X82937698Y-49787327D01*
X82955327Y-49769698D01*
X83052000Y-49536309D01*
X83052000Y-49295750D01*
X83572000Y-49295750D01*
X83572000Y-49536309D01*
X83668673Y-49769698D01*
X83847301Y-49948327D01*
X84080690Y-50045000D01*
X84296250Y-50045000D01*
X84455000Y-49886250D01*
X84455000Y-49137000D01*
X84709000Y-49137000D01*
X84709000Y-49886250D01*
X84867750Y-50045000D01*
X85083310Y-50045000D01*
X85316699Y-49948327D01*
X85495327Y-49769698D01*
X85592000Y-49536309D01*
X85592000Y-49295750D01*
X85433250Y-49137000D01*
X84709000Y-49137000D01*
X84455000Y-49137000D01*
X83730750Y-49137000D01*
X83572000Y-49295750D01*
X83052000Y-49295750D01*
X82893250Y-49137000D01*
X82169000Y-49137000D01*
X82169000Y-49157000D01*
X81915000Y-49157000D01*
X81915000Y-49137000D01*
X81190750Y-49137000D01*
X81032000Y-49295750D01*
X81032000Y-49536000D01*
X80815750Y-49536000D01*
X80657000Y-49694750D01*
X80657000Y-50419000D01*
X80677000Y-50419000D01*
X80677000Y-50673000D01*
X80657000Y-50673000D01*
X80657000Y-51943000D01*
X80677000Y-51943000D01*
X80677000Y-52197000D01*
X80657000Y-52197000D01*
X80657000Y-52921250D01*
X80815750Y-53080000D01*
X81056309Y-53080000D01*
X81289698Y-52983327D01*
X81291068Y-52981957D01*
X81378110Y-53041431D01*
X81630000Y-53092440D01*
X82430000Y-53092440D01*
X82665317Y-53048162D01*
X82881441Y-52909090D01*
X83026431Y-52696890D01*
X83077440Y-52445000D01*
X83077440Y-52322000D01*
X84387069Y-52322000D01*
X84445910Y-52413441D01*
X84658110Y-52558431D01*
X84910000Y-52609440D01*
X85810000Y-52609440D01*
X86045317Y-52565162D01*
X86261441Y-52426090D01*
X86262560Y-52424452D01*
X86262560Y-52912000D01*
X86282987Y-53020560D01*
X85960000Y-53020560D01*
X85724683Y-53064838D01*
X85508559Y-53203910D01*
X85363569Y-53416110D01*
X85312560Y-53668000D01*
X85312560Y-54074638D01*
X85029198Y-54358000D01*
X84890463Y-54358000D01*
X84858327Y-54325808D01*
X84514799Y-54183162D01*
X84142833Y-54182838D01*
X83799057Y-54324883D01*
X83535808Y-54587673D01*
X83393162Y-54931201D01*
X83392838Y-55303167D01*
X83534883Y-55646943D01*
X83797673Y-55910192D01*
X84141201Y-56052838D01*
X84513167Y-56053162D01*
X84663611Y-55991000D01*
X85283000Y-55991000D01*
X85283000Y-55971000D01*
X85537000Y-55971000D01*
X85537000Y-55991000D01*
X85557000Y-55991000D01*
X85557000Y-56245000D01*
X85537000Y-56245000D01*
X85537000Y-56265000D01*
X85283000Y-56265000D01*
X85283000Y-56245000D01*
X84533750Y-56245000D01*
X84375000Y-56403750D01*
X84375000Y-56694309D01*
X84459372Y-56898000D01*
X81960888Y-56898000D01*
X81961162Y-56583833D01*
X81819117Y-56240057D01*
X81556327Y-55976808D01*
X81212799Y-55834162D01*
X81130537Y-55834090D01*
X78459000Y-53162554D01*
X78459000Y-52355750D01*
X79495000Y-52355750D01*
X79495000Y-52571310D01*
X79591673Y-52804699D01*
X79770302Y-52983327D01*
X80003691Y-53080000D01*
X80244250Y-53080000D01*
X80403000Y-52921250D01*
X80403000Y-52197000D01*
X79653750Y-52197000D01*
X79495000Y-52355750D01*
X78459000Y-52355750D01*
X78459000Y-50831750D01*
X79495000Y-50831750D01*
X79495000Y-51047310D01*
X79591673Y-51280699D01*
X79618974Y-51308000D01*
X79591673Y-51335301D01*
X79495000Y-51568690D01*
X79495000Y-51784250D01*
X79653750Y-51943000D01*
X80403000Y-51943000D01*
X80403000Y-50673000D01*
X79653750Y-50673000D01*
X79495000Y-50831750D01*
X78459000Y-50831750D01*
X78459000Y-49894026D01*
X78513301Y-49948327D01*
X78746690Y-50045000D01*
X78962250Y-50045000D01*
X79121000Y-49886250D01*
X79121000Y-49137000D01*
X79375000Y-49137000D01*
X79375000Y-49886250D01*
X79506259Y-50017509D01*
X79495000Y-50044690D01*
X79495000Y-50260250D01*
X79653750Y-50419000D01*
X80403000Y-50419000D01*
X80403000Y-49694750D01*
X80254063Y-49545813D01*
X80258000Y-49536309D01*
X80258000Y-49295750D01*
X80099250Y-49137000D01*
X79375000Y-49137000D01*
X79121000Y-49137000D01*
X79101000Y-49137000D01*
X79101000Y-48953167D01*
X89742838Y-48953167D01*
X89884883Y-49296943D01*
X90147673Y-49560192D01*
X90491201Y-49702838D01*
X90863167Y-49703162D01*
X91206943Y-49561117D01*
X91268167Y-49500000D01*
X91948000Y-49500000D01*
X92238839Y-49442148D01*
X92457939Y-49295750D01*
X92970000Y-49295750D01*
X92970000Y-49536309D01*
X93066673Y-49769698D01*
X93245301Y-49948327D01*
X93478690Y-50045000D01*
X93694250Y-50045000D01*
X93853000Y-49886250D01*
X93853000Y-49137000D01*
X94107000Y-49137000D01*
X94107000Y-49886250D01*
X94265750Y-50045000D01*
X94481310Y-50045000D01*
X94714699Y-49948327D01*
X94893327Y-49769698D01*
X94990000Y-49536309D01*
X94990000Y-49295750D01*
X95764000Y-49295750D01*
X95764000Y-49536309D01*
X95860673Y-49769698D01*
X96039301Y-49948327D01*
X96272690Y-50045000D01*
X96488250Y-50045000D01*
X96495250Y-50038000D01*
X97052750Y-50038000D01*
X97059750Y-50045000D01*
X97275310Y-50045000D01*
X97340494Y-50018000D01*
X97421000Y-50018000D01*
X97421000Y-50038000D01*
X97441000Y-50038000D01*
X97441000Y-50292000D01*
X97421000Y-50292000D01*
X97421000Y-51308000D01*
X97441000Y-51308000D01*
X97441000Y-51562000D01*
X97421000Y-51562000D01*
X97421000Y-51582000D01*
X97340494Y-51582000D01*
X97275310Y-51555000D01*
X97059750Y-51555000D01*
X97052750Y-51562000D01*
X96495250Y-51562000D01*
X96488250Y-51555000D01*
X96272690Y-51555000D01*
X96039301Y-51651673D01*
X95860673Y-51830302D01*
X95764000Y-52063691D01*
X95764000Y-52304250D01*
X95922750Y-52463000D01*
X96647000Y-52463000D01*
X96647000Y-52395008D01*
X96767691Y-52445000D01*
X96901000Y-52445000D01*
X96901000Y-52463000D01*
X97625250Y-52463000D01*
X97643250Y-52445000D01*
X97820309Y-52445000D01*
X98053698Y-52348327D01*
X98055068Y-52346957D01*
X98142110Y-52406431D01*
X98394000Y-52457440D01*
X98457190Y-52457440D01*
X98462750Y-52463000D01*
X99187000Y-52463000D01*
X99187000Y-52457440D01*
X99194000Y-52457440D01*
X99270742Y-52443000D01*
X99441000Y-52443000D01*
X99441000Y-52463000D01*
X100165250Y-52463000D01*
X100324000Y-52304250D01*
X100324000Y-52063691D01*
X101098000Y-52063691D01*
X101098000Y-52304250D01*
X101256750Y-52463000D01*
X101981000Y-52463000D01*
X101981000Y-51713750D01*
X102235000Y-51713750D01*
X102235000Y-52463000D01*
X102959250Y-52463000D01*
X103118000Y-52304250D01*
X103118000Y-52063691D01*
X103021327Y-51830302D01*
X102842699Y-51651673D01*
X102609310Y-51555000D01*
X102393750Y-51555000D01*
X102235000Y-51713750D01*
X101981000Y-51713750D01*
X101822250Y-51555000D01*
X101606690Y-51555000D01*
X101373301Y-51651673D01*
X101194673Y-51830302D01*
X101098000Y-52063691D01*
X100324000Y-52063691D01*
X100227327Y-51830302D01*
X100048699Y-51651673D01*
X99841440Y-51565823D01*
X99841440Y-51060000D01*
X99797162Y-50824683D01*
X99783030Y-50802721D01*
X99790431Y-50791890D01*
X99841440Y-50540000D01*
X99841440Y-50034177D01*
X100048699Y-49948327D01*
X100227327Y-49769698D01*
X100324000Y-49536309D01*
X100324000Y-49295750D01*
X101098000Y-49295750D01*
X101098000Y-49536309D01*
X101194673Y-49769698D01*
X101373301Y-49948327D01*
X101606690Y-50045000D01*
X101822250Y-50045000D01*
X101981000Y-49886250D01*
X101981000Y-49137000D01*
X102235000Y-49137000D01*
X102235000Y-49886250D01*
X102393750Y-50045000D01*
X102609310Y-50045000D01*
X102842699Y-49948327D01*
X103021327Y-49769698D01*
X103118000Y-49536309D01*
X103118000Y-49295750D01*
X102959250Y-49137000D01*
X102235000Y-49137000D01*
X101981000Y-49137000D01*
X101256750Y-49137000D01*
X101098000Y-49295750D01*
X100324000Y-49295750D01*
X100165250Y-49137000D01*
X99441000Y-49137000D01*
X99441000Y-49157000D01*
X99265307Y-49157000D01*
X99194000Y-49142560D01*
X99187000Y-49142560D01*
X99187000Y-49137000D01*
X98462750Y-49137000D01*
X98457190Y-49142560D01*
X98394000Y-49142560D01*
X98158683Y-49186838D01*
X98055354Y-49253329D01*
X98053698Y-49251673D01*
X97820309Y-49155000D01*
X97643250Y-49155000D01*
X97625250Y-49137000D01*
X96901000Y-49137000D01*
X96901000Y-49155000D01*
X96767691Y-49155000D01*
X96647000Y-49204992D01*
X96647000Y-49137000D01*
X95922750Y-49137000D01*
X95764000Y-49295750D01*
X94990000Y-49295750D01*
X94831250Y-49137000D01*
X94107000Y-49137000D01*
X93853000Y-49137000D01*
X93128750Y-49137000D01*
X92970000Y-49295750D01*
X92457939Y-49295750D01*
X92485401Y-49277401D01*
X92650148Y-49030839D01*
X92708000Y-48740000D01*
X92650148Y-48449161D01*
X92485401Y-48202599D01*
X92238839Y-48037852D01*
X91948000Y-47980000D01*
X91212512Y-47980000D01*
X91208327Y-47975808D01*
X90864799Y-47833162D01*
X90492833Y-47832838D01*
X90149057Y-47974883D01*
X89885808Y-48237673D01*
X89743162Y-48581201D01*
X89742838Y-48953167D01*
X79101000Y-48953167D01*
X79101000Y-48883000D01*
X79121000Y-48883000D01*
X79121000Y-48863000D01*
X79375000Y-48863000D01*
X79375000Y-48883000D01*
X80099250Y-48883000D01*
X80258000Y-48724250D01*
X80258000Y-48483691D01*
X80161327Y-48250302D01*
X80159957Y-48248932D01*
X80219431Y-48161890D01*
X80241660Y-48052119D01*
X80481161Y-48212148D01*
X80772000Y-48270000D01*
X81062839Y-48212148D01*
X81093612Y-48191586D01*
X81130329Y-48248646D01*
X81128673Y-48250302D01*
X81032000Y-48483691D01*
X81032000Y-48724250D01*
X81190750Y-48883000D01*
X81915000Y-48883000D01*
X81915000Y-48863000D01*
X82169000Y-48863000D01*
X82169000Y-48883000D01*
X82893250Y-48883000D01*
X83052000Y-48724250D01*
X83052000Y-48483691D01*
X82955327Y-48250302D01*
X82953957Y-48248932D01*
X83013431Y-48161890D01*
X83064440Y-47910000D01*
X83064440Y-47110000D01*
X83020162Y-46874683D01*
X83001313Y-46845391D01*
X83088431Y-46717890D01*
X83139440Y-46466000D01*
X83139440Y-45966000D01*
X83095162Y-45730683D01*
X82956090Y-45514559D01*
X82887994Y-45468031D01*
X83030327Y-45325698D01*
X83127000Y-45092309D01*
X83127000Y-44999750D01*
X82968250Y-44841000D01*
X82169000Y-44841000D01*
X82169000Y-44863000D01*
X81915000Y-44863000D01*
X81915000Y-44841000D01*
X81895000Y-44841000D01*
X81895000Y-44750904D01*
X82227167Y-44751194D01*
X82570943Y-44609149D01*
X82589124Y-44591000D01*
X82968250Y-44591000D01*
X82983218Y-44576032D01*
X83640782Y-44576032D01*
X83655750Y-44591000D01*
X84455000Y-44591000D01*
X84455000Y-44576032D01*
X84709000Y-44576032D01*
X84709000Y-44591000D01*
X84729000Y-44591000D01*
X84729000Y-44841000D01*
X84709000Y-44841000D01*
X84709000Y-44863000D01*
X84455000Y-44863000D01*
X84455000Y-44841000D01*
X83655750Y-44841000D01*
X83497000Y-44999750D01*
X83497000Y-45092309D01*
X83593673Y-45325698D01*
X83734910Y-45466936D01*
X83680559Y-45501910D01*
X83535569Y-45714110D01*
X83484560Y-45966000D01*
X83484560Y-46466000D01*
X83528838Y-46701317D01*
X83620438Y-46843667D01*
X83610569Y-46858110D01*
X83559560Y-47110000D01*
X83559560Y-47910000D01*
X83603838Y-48145317D01*
X83670329Y-48248646D01*
X83668673Y-48250302D01*
X83572000Y-48483691D01*
X83572000Y-48724250D01*
X83730750Y-48883000D01*
X84455000Y-48883000D01*
X84455000Y-48863000D01*
X84709000Y-48863000D01*
X84709000Y-48883000D01*
X85433250Y-48883000D01*
X85592000Y-48724250D01*
X85592000Y-48483691D01*
X85495327Y-48250302D01*
X85493957Y-48248932D01*
X85532278Y-48192849D01*
X85561161Y-48212148D01*
X85852000Y-48270000D01*
X86142839Y-48212148D01*
X86380529Y-48053329D01*
X86397838Y-48145317D01*
X86464329Y-48248646D01*
X86462673Y-48250302D01*
X86366000Y-48483691D01*
X86366000Y-48724250D01*
X86524750Y-48883000D01*
X87249000Y-48883000D01*
X87249000Y-48863000D01*
X87503000Y-48863000D01*
X87503000Y-48883000D01*
X88227250Y-48883000D01*
X88386000Y-48724250D01*
X88386000Y-48483691D01*
X88289327Y-48250302D01*
X88287957Y-48248932D01*
X88347431Y-48161890D01*
X88398440Y-47910000D01*
X88398440Y-47110000D01*
X88373226Y-46976000D01*
X88432000Y-46976000D01*
X88722839Y-46918148D01*
X88969401Y-46753401D01*
X89945401Y-45777401D01*
X90110148Y-45530840D01*
X90124525Y-45458562D01*
X90168000Y-45240000D01*
X90110148Y-44949161D01*
X89945401Y-44702599D01*
X89698839Y-44537852D01*
X89551308Y-44508506D01*
X88543813Y-43501011D01*
X88934209Y-43501011D01*
X91210599Y-45777401D01*
X91457161Y-45942148D01*
X91604692Y-45971494D01*
X92386599Y-46753401D01*
X92633160Y-46918148D01*
X92681414Y-46927746D01*
X92924000Y-46976000D01*
X92984696Y-46976000D01*
X92957560Y-47110000D01*
X92957560Y-47910000D01*
X93001838Y-48145317D01*
X93068329Y-48248646D01*
X93066673Y-48250302D01*
X92970000Y-48483691D01*
X92970000Y-48724250D01*
X93128750Y-48883000D01*
X93853000Y-48883000D01*
X93853000Y-48863000D01*
X94107000Y-48863000D01*
X94107000Y-48883000D01*
X94831250Y-48883000D01*
X94990000Y-48724250D01*
X94990000Y-48483691D01*
X94893327Y-48250302D01*
X94891957Y-48248932D01*
X94951431Y-48161890D01*
X94973660Y-48052119D01*
X95213161Y-48212148D01*
X95504000Y-48270000D01*
X95794839Y-48212148D01*
X95825612Y-48191586D01*
X95862329Y-48248646D01*
X95860673Y-48250302D01*
X95764000Y-48483691D01*
X95764000Y-48724250D01*
X95922750Y-48883000D01*
X96647000Y-48883000D01*
X96647000Y-48863000D01*
X96901000Y-48863000D01*
X96901000Y-48883000D01*
X97625250Y-48883000D01*
X97784000Y-48724250D01*
X97784000Y-48483691D01*
X97687327Y-48250302D01*
X97685957Y-48248932D01*
X97745431Y-48161890D01*
X97796440Y-47910000D01*
X97796440Y-47110000D01*
X97752162Y-46874683D01*
X97733313Y-46845391D01*
X97820431Y-46717890D01*
X97871440Y-46466000D01*
X97871440Y-45966000D01*
X97827162Y-45730683D01*
X97688090Y-45514559D01*
X97619994Y-45468031D01*
X97762327Y-45325698D01*
X97859000Y-45092309D01*
X97859000Y-44999750D01*
X97700250Y-44841000D01*
X96901000Y-44841000D01*
X96901000Y-44863000D01*
X96647000Y-44863000D01*
X96647000Y-44841000D01*
X96627000Y-44841000D01*
X96627000Y-44591000D01*
X96647000Y-44591000D01*
X96647000Y-43989750D01*
X96901000Y-43989750D01*
X96901000Y-44591000D01*
X97700250Y-44591000D01*
X97859000Y-44432250D01*
X97859000Y-44339691D01*
X97762327Y-44106302D01*
X97583699Y-43927673D01*
X97350310Y-43831000D01*
X97059750Y-43831000D01*
X96901000Y-43989750D01*
X96647000Y-43989750D01*
X96488250Y-43831000D01*
X96197690Y-43831000D01*
X96137844Y-43855789D01*
X95954000Y-43818560D01*
X95054000Y-43818560D01*
X94818683Y-43862838D01*
X94743162Y-43911434D01*
X94681890Y-43869569D01*
X94430000Y-43818560D01*
X93530000Y-43818560D01*
X93294683Y-43862838D01*
X93078559Y-44001910D01*
X92933569Y-44214110D01*
X92882560Y-44466000D01*
X92882560Y-44966000D01*
X92913562Y-45130760D01*
X92485401Y-44702599D01*
X92238839Y-44537852D01*
X92091308Y-44508506D01*
X90633802Y-43051000D01*
X98755889Y-43051000D01*
X98521808Y-43284673D01*
X98521808Y-43284673D01*
G37*
X98521808Y-43284673D02*
X98379162Y-43628201D01*
X98378838Y-44000167D01*
X98394325Y-44037649D01*
X98325673Y-44106302D01*
X98229000Y-44339691D01*
X98229000Y-44432250D01*
X98387750Y-44591000D01*
X98767509Y-44591000D01*
X98783673Y-44607192D01*
X99127201Y-44749838D01*
X99461000Y-44750129D01*
X99461000Y-44841000D01*
X99441000Y-44841000D01*
X99441000Y-44863000D01*
X99187000Y-44863000D01*
X99187000Y-44841000D01*
X98387750Y-44841000D01*
X98229000Y-44999750D01*
X98229000Y-45092309D01*
X98325673Y-45325698D01*
X98466910Y-45466936D01*
X98412559Y-45501910D01*
X98267569Y-45714110D01*
X98216560Y-45966000D01*
X98216560Y-46466000D01*
X98260838Y-46701317D01*
X98352438Y-46843667D01*
X98342569Y-46858110D01*
X98291560Y-47110000D01*
X98291560Y-47910000D01*
X98335838Y-48145317D01*
X98402329Y-48248646D01*
X98400673Y-48250302D01*
X98304000Y-48483691D01*
X98304000Y-48724250D01*
X98462750Y-48883000D01*
X99187000Y-48883000D01*
X99187000Y-48863000D01*
X99441000Y-48863000D01*
X99441000Y-48883000D01*
X100165250Y-48883000D01*
X100324000Y-48724250D01*
X100324000Y-48483691D01*
X100227327Y-48250302D01*
X100225957Y-48248932D01*
X100264278Y-48192849D01*
X100293161Y-48212148D01*
X100584000Y-48270000D01*
X100874839Y-48212148D01*
X101112529Y-48053329D01*
X101129838Y-48145317D01*
X101196329Y-48248646D01*
X101194673Y-48250302D01*
X101098000Y-48483691D01*
X101098000Y-48724250D01*
X101256750Y-48883000D01*
X101981000Y-48883000D01*
X101981000Y-48863000D01*
X102235000Y-48863000D01*
X102235000Y-48883000D01*
X102959250Y-48883000D01*
X103118000Y-48724250D01*
X103118000Y-48483691D01*
X103021327Y-48250302D01*
X103019957Y-48248932D01*
X103079431Y-48161890D01*
X103130440Y-47910000D01*
X103130440Y-47110000D01*
X103105226Y-46976000D01*
X103164000Y-46976000D01*
X103454839Y-46918148D01*
X103701401Y-46753401D01*
X104454802Y-46000000D01*
X104822352Y-46000000D01*
X104777000Y-46228000D01*
X104777000Y-55755513D01*
X104630839Y-55657852D01*
X104483308Y-55628506D01*
X103701401Y-54846599D01*
X103454839Y-54681852D01*
X103164000Y-54624000D01*
X103103304Y-54624000D01*
X103130440Y-54490000D01*
X103130440Y-53690000D01*
X103086162Y-53454683D01*
X103019671Y-53351354D01*
X103021327Y-53349698D01*
X103118000Y-53116309D01*
X103118000Y-52875750D01*
X102959250Y-52717000D01*
X102235000Y-52717000D01*
X102235000Y-52737000D01*
X101981000Y-52737000D01*
X101981000Y-52717000D01*
X101256750Y-52717000D01*
X101098000Y-52875750D01*
X101098000Y-53116309D01*
X101194673Y-53349698D01*
X101196043Y-53351068D01*
X101136569Y-53438110D01*
X101114340Y-53547881D01*
X100874839Y-53387852D01*
X100584000Y-53330000D01*
X100293161Y-53387852D01*
X100262388Y-53408414D01*
X100225671Y-53351354D01*
X100227327Y-53349698D01*
X100324000Y-53116309D01*
X100324000Y-52875750D01*
X100165250Y-52717000D01*
X99441000Y-52717000D01*
X99441000Y-52737000D01*
X99187000Y-52737000D01*
X99187000Y-52717000D01*
X98462750Y-52717000D01*
X98304000Y-52875750D01*
X98304000Y-53116309D01*
X98400673Y-53349698D01*
X98402043Y-53351068D01*
X98342569Y-53438110D01*
X98291560Y-53690000D01*
X98291560Y-54309962D01*
X98267808Y-54333673D01*
X98125162Y-54677201D01*
X98125126Y-54718841D01*
X98013569Y-54882110D01*
X97962560Y-55134000D01*
X97962560Y-55634000D01*
X98006838Y-55869317D01*
X98145910Y-56085441D01*
X98214006Y-56131969D01*
X98071673Y-56274302D01*
X97975000Y-56507691D01*
X97975000Y-56600250D01*
X98133750Y-56759000D01*
X98933000Y-56759000D01*
X98933000Y-56737000D01*
X99187000Y-56737000D01*
X99187000Y-56759000D01*
X99207000Y-56759000D01*
X99207000Y-57009000D01*
X99187000Y-57009000D01*
X99187000Y-57031000D01*
X98933000Y-57031000D01*
X98933000Y-57009000D01*
X98133750Y-57009000D01*
X97975000Y-57167750D01*
X97975000Y-57260309D01*
X98071673Y-57493698D01*
X98237974Y-57660000D01*
X97596026Y-57660000D01*
X97762327Y-57493698D01*
X97859000Y-57260309D01*
X97859000Y-57167750D01*
X97700250Y-57009000D01*
X96901000Y-57009000D01*
X96901000Y-57031000D01*
X96647000Y-57031000D01*
X96647000Y-57009000D01*
X96627000Y-57009000D01*
X96627000Y-56759000D01*
X96647000Y-56759000D01*
X96647000Y-56737000D01*
X96901000Y-56737000D01*
X96901000Y-56759000D01*
X97700250Y-56759000D01*
X97859000Y-56600250D01*
X97859000Y-56507691D01*
X97762327Y-56274302D01*
X97621090Y-56133064D01*
X97675441Y-56098090D01*
X97820431Y-55885890D01*
X97871440Y-55634000D01*
X97871440Y-55134000D01*
X97827162Y-54898683D01*
X97735562Y-54756333D01*
X97745431Y-54741890D01*
X97796440Y-54490000D01*
X97796440Y-53690000D01*
X97752162Y-53454683D01*
X97685671Y-53351354D01*
X97687327Y-53349698D01*
X97784000Y-53116309D01*
X97784000Y-52875750D01*
X97625250Y-52717000D01*
X96901000Y-52717000D01*
X96901000Y-52737000D01*
X96647000Y-52737000D01*
X96647000Y-52717000D01*
X95922750Y-52717000D01*
X95764000Y-52875750D01*
X95764000Y-53116309D01*
X95860673Y-53349698D01*
X95862043Y-53351068D01*
X95823722Y-53407151D01*
X95794839Y-53387852D01*
X95504000Y-53330000D01*
X95213161Y-53387852D01*
X94975471Y-53546671D01*
X94958162Y-53454683D01*
X94891671Y-53351354D01*
X94893327Y-53349698D01*
X94990000Y-53116309D01*
X94990000Y-52875750D01*
X94831250Y-52717000D01*
X94107000Y-52717000D01*
X94107000Y-52737000D01*
X93853000Y-52737000D01*
X93853000Y-52717000D01*
X93128750Y-52717000D01*
X92970000Y-52875750D01*
X92970000Y-53116309D01*
X93066673Y-53349698D01*
X93068043Y-53351068D01*
X93008569Y-53438110D01*
X92957560Y-53690000D01*
X92957560Y-54490000D01*
X92982774Y-54624000D01*
X92924000Y-54624000D01*
X92693197Y-54669910D01*
X92633160Y-54681852D01*
X92386599Y-54846599D01*
X91410599Y-55822599D01*
X91245852Y-56069161D01*
X91188000Y-56360000D01*
X91188000Y-58232198D01*
X90559209Y-58860989D01*
X89879458Y-58860989D01*
X89927723Y-58812724D01*
X90087051Y-58574272D01*
X90092874Y-58545000D01*
X90143000Y-58293000D01*
X90143000Y-57657440D01*
X90258000Y-57657440D01*
X90493317Y-57613162D01*
X90709441Y-57474090D01*
X90854431Y-57261890D01*
X90905440Y-57010000D01*
X90905440Y-55831759D01*
X91089192Y-55648327D01*
X91231838Y-55304799D01*
X91232162Y-54932833D01*
X91098617Y-54609629D01*
X91231838Y-54288799D01*
X91232162Y-53916833D01*
X91090117Y-53573057D01*
X91005052Y-53487844D01*
X90999148Y-53458161D01*
X90905440Y-53317917D01*
X90905440Y-52210000D01*
X90877911Y-52063691D01*
X92970000Y-52063691D01*
X92970000Y-52304250D01*
X93128750Y-52463000D01*
X93853000Y-52463000D01*
X93853000Y-51713750D01*
X94107000Y-51713750D01*
X94107000Y-52463000D01*
X94831250Y-52463000D01*
X94990000Y-52304250D01*
X94990000Y-52063691D01*
X94893327Y-51830302D01*
X94714699Y-51651673D01*
X94481310Y-51555000D01*
X94265750Y-51555000D01*
X94107000Y-51713750D01*
X93853000Y-51713750D01*
X93694250Y-51555000D01*
X93478690Y-51555000D01*
X93245301Y-51651673D01*
X93066673Y-51830302D01*
X92970000Y-52063691D01*
X90877911Y-52063691D01*
X90861162Y-51974683D01*
X90722090Y-51758559D01*
X90509890Y-51613569D01*
X90258000Y-51562560D01*
X90168000Y-51562560D01*
X90168000Y-51435000D01*
X90110148Y-51144161D01*
X89945401Y-50897599D01*
X89498552Y-50450750D01*
X96259000Y-50450750D01*
X96259000Y-50666310D01*
X96314376Y-50800000D01*
X96259000Y-50933690D01*
X96259000Y-51149250D01*
X96417750Y-51308000D01*
X97167000Y-51308000D01*
X97167000Y-50292000D01*
X96417750Y-50292000D01*
X96259000Y-50450750D01*
X89498552Y-50450750D01*
X89122401Y-50074599D01*
X88875839Y-49909852D01*
X88585000Y-49852000D01*
X88332931Y-49852000D01*
X88283634Y-49775391D01*
X88289327Y-49769698D01*
X88386000Y-49536309D01*
X88386000Y-49295750D01*
X88227250Y-49137000D01*
X87503000Y-49137000D01*
X87503000Y-49157000D01*
X87249000Y-49157000D01*
X87249000Y-49137000D01*
X86524750Y-49137000D01*
X86366000Y-49295750D01*
X86366000Y-49536309D01*
X86455502Y-49752385D01*
X86313569Y-49960110D01*
X86262560Y-50212000D01*
X86262560Y-50702681D01*
X86061890Y-50565569D01*
X85810000Y-50514560D01*
X84910000Y-50514560D01*
X84674683Y-50558838D01*
X84458559Y-50697910D01*
X84387437Y-50802000D01*
X83077440Y-50802000D01*
X83077440Y-50171000D01*
X83033162Y-49935683D01*
X82937698Y-49787327D01*
X82955327Y-49769698D01*
X83052000Y-49536309D01*
X83052000Y-49295750D01*
X83572000Y-49295750D01*
X83572000Y-49536309D01*
X83668673Y-49769698D01*
X83847301Y-49948327D01*
X84080690Y-50045000D01*
X84296250Y-50045000D01*
X84455000Y-49886250D01*
X84455000Y-49137000D01*
X84709000Y-49137000D01*
X84709000Y-49886250D01*
X84867750Y-50045000D01*
X85083310Y-50045000D01*
X85316699Y-49948327D01*
X85495327Y-49769698D01*
X85592000Y-49536309D01*
X85592000Y-49295750D01*
X85433250Y-49137000D01*
X84709000Y-49137000D01*
X84455000Y-49137000D01*
X83730750Y-49137000D01*
X83572000Y-49295750D01*
X83052000Y-49295750D01*
X82893250Y-49137000D01*
X82169000Y-49137000D01*
X82169000Y-49157000D01*
X81915000Y-49157000D01*
X81915000Y-49137000D01*
X81190750Y-49137000D01*
X81032000Y-49295750D01*
X81032000Y-49536000D01*
X80815750Y-49536000D01*
X80657000Y-49694750D01*
X80657000Y-50419000D01*
X80677000Y-50419000D01*
X80677000Y-50673000D01*
X80657000Y-50673000D01*
X80657000Y-51943000D01*
X80677000Y-51943000D01*
X80677000Y-52197000D01*
X80657000Y-52197000D01*
X80657000Y-52921250D01*
X80815750Y-53080000D01*
X81056309Y-53080000D01*
X81289698Y-52983327D01*
X81291068Y-52981957D01*
X81378110Y-53041431D01*
X81630000Y-53092440D01*
X82430000Y-53092440D01*
X82665317Y-53048162D01*
X82881441Y-52909090D01*
X83026431Y-52696890D01*
X83077440Y-52445000D01*
X83077440Y-52322000D01*
X84387069Y-52322000D01*
X84445910Y-52413441D01*
X84658110Y-52558431D01*
X84910000Y-52609440D01*
X85810000Y-52609440D01*
X86045317Y-52565162D01*
X86261441Y-52426090D01*
X86262560Y-52424452D01*
X86262560Y-52912000D01*
X86282987Y-53020560D01*
X85960000Y-53020560D01*
X85724683Y-53064838D01*
X85508559Y-53203910D01*
X85363569Y-53416110D01*
X85312560Y-53668000D01*
X85312560Y-54074638D01*
X85029198Y-54358000D01*
X84890463Y-54358000D01*
X84858327Y-54325808D01*
X84514799Y-54183162D01*
X84142833Y-54182838D01*
X83799057Y-54324883D01*
X83535808Y-54587673D01*
X83393162Y-54931201D01*
X83392838Y-55303167D01*
X83534883Y-55646943D01*
X83797673Y-55910192D01*
X84141201Y-56052838D01*
X84513167Y-56053162D01*
X84663611Y-55991000D01*
X85283000Y-55991000D01*
X85283000Y-55971000D01*
X85537000Y-55971000D01*
X85537000Y-55991000D01*
X85557000Y-55991000D01*
X85557000Y-56245000D01*
X85537000Y-56245000D01*
X85537000Y-56265000D01*
X85283000Y-56265000D01*
X85283000Y-56245000D01*
X84533750Y-56245000D01*
X84375000Y-56403750D01*
X84375000Y-56694309D01*
X84459372Y-56898000D01*
X81960888Y-56898000D01*
X81961162Y-56583833D01*
X81819117Y-56240057D01*
X81556327Y-55976808D01*
X81212799Y-55834162D01*
X81130537Y-55834090D01*
X78459000Y-53162554D01*
X78459000Y-52355750D01*
X79495000Y-52355750D01*
X79495000Y-52571310D01*
X79591673Y-52804699D01*
X79770302Y-52983327D01*
X80003691Y-53080000D01*
X80244250Y-53080000D01*
X80403000Y-52921250D01*
X80403000Y-52197000D01*
X79653750Y-52197000D01*
X79495000Y-52355750D01*
X78459000Y-52355750D01*
X78459000Y-50831750D01*
X79495000Y-50831750D01*
X79495000Y-51047310D01*
X79591673Y-51280699D01*
X79618974Y-51308000D01*
X79591673Y-51335301D01*
X79495000Y-51568690D01*
X79495000Y-51784250D01*
X79653750Y-51943000D01*
X80403000Y-51943000D01*
X80403000Y-50673000D01*
X79653750Y-50673000D01*
X79495000Y-50831750D01*
X78459000Y-50831750D01*
X78459000Y-49894026D01*
X78513301Y-49948327D01*
X78746690Y-50045000D01*
X78962250Y-50045000D01*
X79121000Y-49886250D01*
X79121000Y-49137000D01*
X79375000Y-49137000D01*
X79375000Y-49886250D01*
X79506259Y-50017509D01*
X79495000Y-50044690D01*
X79495000Y-50260250D01*
X79653750Y-50419000D01*
X80403000Y-50419000D01*
X80403000Y-49694750D01*
X80254063Y-49545813D01*
X80258000Y-49536309D01*
X80258000Y-49295750D01*
X80099250Y-49137000D01*
X79375000Y-49137000D01*
X79121000Y-49137000D01*
X79101000Y-49137000D01*
X79101000Y-48953167D01*
X89742838Y-48953167D01*
X89884883Y-49296943D01*
X90147673Y-49560192D01*
X90491201Y-49702838D01*
X90863167Y-49703162D01*
X91206943Y-49561117D01*
X91268167Y-49500000D01*
X91948000Y-49500000D01*
X92238839Y-49442148D01*
X92457939Y-49295750D01*
X92970000Y-49295750D01*
X92970000Y-49536309D01*
X93066673Y-49769698D01*
X93245301Y-49948327D01*
X93478690Y-50045000D01*
X93694250Y-50045000D01*
X93853000Y-49886250D01*
X93853000Y-49137000D01*
X94107000Y-49137000D01*
X94107000Y-49886250D01*
X94265750Y-50045000D01*
X94481310Y-50045000D01*
X94714699Y-49948327D01*
X94893327Y-49769698D01*
X94990000Y-49536309D01*
X94990000Y-49295750D01*
X95764000Y-49295750D01*
X95764000Y-49536309D01*
X95860673Y-49769698D01*
X96039301Y-49948327D01*
X96272690Y-50045000D01*
X96488250Y-50045000D01*
X96495250Y-50038000D01*
X97052750Y-50038000D01*
X97059750Y-50045000D01*
X97275310Y-50045000D01*
X97340494Y-50018000D01*
X97421000Y-50018000D01*
X97421000Y-50038000D01*
X97441000Y-50038000D01*
X97441000Y-50292000D01*
X97421000Y-50292000D01*
X97421000Y-51308000D01*
X97441000Y-51308000D01*
X97441000Y-51562000D01*
X97421000Y-51562000D01*
X97421000Y-51582000D01*
X97340494Y-51582000D01*
X97275310Y-51555000D01*
X97059750Y-51555000D01*
X97052750Y-51562000D01*
X96495250Y-51562000D01*
X96488250Y-51555000D01*
X96272690Y-51555000D01*
X96039301Y-51651673D01*
X95860673Y-51830302D01*
X95764000Y-52063691D01*
X95764000Y-52304250D01*
X95922750Y-52463000D01*
X96647000Y-52463000D01*
X96647000Y-52395008D01*
X96767691Y-52445000D01*
X96901000Y-52445000D01*
X96901000Y-52463000D01*
X97625250Y-52463000D01*
X97643250Y-52445000D01*
X97820309Y-52445000D01*
X98053698Y-52348327D01*
X98055068Y-52346957D01*
X98142110Y-52406431D01*
X98394000Y-52457440D01*
X98457190Y-52457440D01*
X98462750Y-52463000D01*
X99187000Y-52463000D01*
X99187000Y-52457440D01*
X99194000Y-52457440D01*
X99270742Y-52443000D01*
X99441000Y-52443000D01*
X99441000Y-52463000D01*
X100165250Y-52463000D01*
X100324000Y-52304250D01*
X100324000Y-52063691D01*
X101098000Y-52063691D01*
X101098000Y-52304250D01*
X101256750Y-52463000D01*
X101981000Y-52463000D01*
X101981000Y-51713750D01*
X102235000Y-51713750D01*
X102235000Y-52463000D01*
X102959250Y-52463000D01*
X103118000Y-52304250D01*
X103118000Y-52063691D01*
X103021327Y-51830302D01*
X102842699Y-51651673D01*
X102609310Y-51555000D01*
X102393750Y-51555000D01*
X102235000Y-51713750D01*
X101981000Y-51713750D01*
X101822250Y-51555000D01*
X101606690Y-51555000D01*
X101373301Y-51651673D01*
X101194673Y-51830302D01*
X101098000Y-52063691D01*
X100324000Y-52063691D01*
X100227327Y-51830302D01*
X100048699Y-51651673D01*
X99841440Y-51565823D01*
X99841440Y-51060000D01*
X99797162Y-50824683D01*
X99783030Y-50802721D01*
X99790431Y-50791890D01*
X99841440Y-50540000D01*
X99841440Y-50034177D01*
X100048699Y-49948327D01*
X100227327Y-49769698D01*
X100324000Y-49536309D01*
X100324000Y-49295750D01*
X101098000Y-49295750D01*
X101098000Y-49536309D01*
X101194673Y-49769698D01*
X101373301Y-49948327D01*
X101606690Y-50045000D01*
X101822250Y-50045000D01*
X101981000Y-49886250D01*
X101981000Y-49137000D01*
X102235000Y-49137000D01*
X102235000Y-49886250D01*
X102393750Y-50045000D01*
X102609310Y-50045000D01*
X102842699Y-49948327D01*
X103021327Y-49769698D01*
X103118000Y-49536309D01*
X103118000Y-49295750D01*
X102959250Y-49137000D01*
X102235000Y-49137000D01*
X101981000Y-49137000D01*
X101256750Y-49137000D01*
X101098000Y-49295750D01*
X100324000Y-49295750D01*
X100165250Y-49137000D01*
X99441000Y-49137000D01*
X99441000Y-49157000D01*
X99265307Y-49157000D01*
X99194000Y-49142560D01*
X99187000Y-49142560D01*
X99187000Y-49137000D01*
X98462750Y-49137000D01*
X98457190Y-49142560D01*
X98394000Y-49142560D01*
X98158683Y-49186838D01*
X98055354Y-49253329D01*
X98053698Y-49251673D01*
X97820309Y-49155000D01*
X97643250Y-49155000D01*
X97625250Y-49137000D01*
X96901000Y-49137000D01*
X96901000Y-49155000D01*
X96767691Y-49155000D01*
X96647000Y-49204992D01*
X96647000Y-49137000D01*
X95922750Y-49137000D01*
X95764000Y-49295750D01*
X94990000Y-49295750D01*
X94831250Y-49137000D01*
X94107000Y-49137000D01*
X93853000Y-49137000D01*
X93128750Y-49137000D01*
X92970000Y-49295750D01*
X92457939Y-49295750D01*
X92485401Y-49277401D01*
X92650148Y-49030839D01*
X92708000Y-48740000D01*
X92650148Y-48449161D01*
X92485401Y-48202599D01*
X92238839Y-48037852D01*
X91948000Y-47980000D01*
X91212512Y-47980000D01*
X91208327Y-47975808D01*
X90864799Y-47833162D01*
X90492833Y-47832838D01*
X90149057Y-47974883D01*
X89885808Y-48237673D01*
X89743162Y-48581201D01*
X89742838Y-48953167D01*
X79101000Y-48953167D01*
X79101000Y-48883000D01*
X79121000Y-48883000D01*
X79121000Y-48863000D01*
X79375000Y-48863000D01*
X79375000Y-48883000D01*
X80099250Y-48883000D01*
X80258000Y-48724250D01*
X80258000Y-48483691D01*
X80161327Y-48250302D01*
X80159957Y-48248932D01*
X80219431Y-48161890D01*
X80241660Y-48052119D01*
X80481161Y-48212148D01*
X80772000Y-48270000D01*
X81062839Y-48212148D01*
X81093612Y-48191586D01*
X81130329Y-48248646D01*
X81128673Y-48250302D01*
X81032000Y-48483691D01*
X81032000Y-48724250D01*
X81190750Y-48883000D01*
X81915000Y-48883000D01*
X81915000Y-48863000D01*
X82169000Y-48863000D01*
X82169000Y-48883000D01*
X82893250Y-48883000D01*
X83052000Y-48724250D01*
X83052000Y-48483691D01*
X82955327Y-48250302D01*
X82953957Y-48248932D01*
X83013431Y-48161890D01*
X83064440Y-47910000D01*
X83064440Y-47110000D01*
X83020162Y-46874683D01*
X83001313Y-46845391D01*
X83088431Y-46717890D01*
X83139440Y-46466000D01*
X83139440Y-45966000D01*
X83095162Y-45730683D01*
X82956090Y-45514559D01*
X82887994Y-45468031D01*
X83030327Y-45325698D01*
X83127000Y-45092309D01*
X83127000Y-44999750D01*
X82968250Y-44841000D01*
X82169000Y-44841000D01*
X82169000Y-44863000D01*
X81915000Y-44863000D01*
X81915000Y-44841000D01*
X81895000Y-44841000D01*
X81895000Y-44750904D01*
X82227167Y-44751194D01*
X82570943Y-44609149D01*
X82589124Y-44591000D01*
X82968250Y-44591000D01*
X82983218Y-44576032D01*
X83640782Y-44576032D01*
X83655750Y-44591000D01*
X84455000Y-44591000D01*
X84455000Y-44576032D01*
X84709000Y-44576032D01*
X84709000Y-44591000D01*
X84729000Y-44591000D01*
X84729000Y-44841000D01*
X84709000Y-44841000D01*
X84709000Y-44863000D01*
X84455000Y-44863000D01*
X84455000Y-44841000D01*
X83655750Y-44841000D01*
X83497000Y-44999750D01*
X83497000Y-45092309D01*
X83593673Y-45325698D01*
X83734910Y-45466936D01*
X83680559Y-45501910D01*
X83535569Y-45714110D01*
X83484560Y-45966000D01*
X83484560Y-46466000D01*
X83528838Y-46701317D01*
X83620438Y-46843667D01*
X83610569Y-46858110D01*
X83559560Y-47110000D01*
X83559560Y-47910000D01*
X83603838Y-48145317D01*
X83670329Y-48248646D01*
X83668673Y-48250302D01*
X83572000Y-48483691D01*
X83572000Y-48724250D01*
X83730750Y-48883000D01*
X84455000Y-48883000D01*
X84455000Y-48863000D01*
X84709000Y-48863000D01*
X84709000Y-48883000D01*
X85433250Y-48883000D01*
X85592000Y-48724250D01*
X85592000Y-48483691D01*
X85495327Y-48250302D01*
X85493957Y-48248932D01*
X85532278Y-48192849D01*
X85561161Y-48212148D01*
X85852000Y-48270000D01*
X86142839Y-48212148D01*
X86380529Y-48053329D01*
X86397838Y-48145317D01*
X86464329Y-48248646D01*
X86462673Y-48250302D01*
X86366000Y-48483691D01*
X86366000Y-48724250D01*
X86524750Y-48883000D01*
X87249000Y-48883000D01*
X87249000Y-48863000D01*
X87503000Y-48863000D01*
X87503000Y-48883000D01*
X88227250Y-48883000D01*
X88386000Y-48724250D01*
X88386000Y-48483691D01*
X88289327Y-48250302D01*
X88287957Y-48248932D01*
X88347431Y-48161890D01*
X88398440Y-47910000D01*
X88398440Y-47110000D01*
X88373226Y-46976000D01*
X88432000Y-46976000D01*
X88722839Y-46918148D01*
X88969401Y-46753401D01*
X89945401Y-45777401D01*
X90110148Y-45530840D01*
X90124525Y-45458562D01*
X90168000Y-45240000D01*
X90110148Y-44949161D01*
X89945401Y-44702599D01*
X89698839Y-44537852D01*
X89551308Y-44508506D01*
X88543813Y-43501011D01*
X88934209Y-43501011D01*
X91210599Y-45777401D01*
X91457161Y-45942148D01*
X91604692Y-45971494D01*
X92386599Y-46753401D01*
X92633160Y-46918148D01*
X92681414Y-46927746D01*
X92924000Y-46976000D01*
X92984696Y-46976000D01*
X92957560Y-47110000D01*
X92957560Y-47910000D01*
X93001838Y-48145317D01*
X93068329Y-48248646D01*
X93066673Y-48250302D01*
X92970000Y-48483691D01*
X92970000Y-48724250D01*
X93128750Y-48883000D01*
X93853000Y-48883000D01*
X93853000Y-48863000D01*
X94107000Y-48863000D01*
X94107000Y-48883000D01*
X94831250Y-48883000D01*
X94990000Y-48724250D01*
X94990000Y-48483691D01*
X94893327Y-48250302D01*
X94891957Y-48248932D01*
X94951431Y-48161890D01*
X94973660Y-48052119D01*
X95213161Y-48212148D01*
X95504000Y-48270000D01*
X95794839Y-48212148D01*
X95825612Y-48191586D01*
X95862329Y-48248646D01*
X95860673Y-48250302D01*
X95764000Y-48483691D01*
X95764000Y-48724250D01*
X95922750Y-48883000D01*
X96647000Y-48883000D01*
X96647000Y-48863000D01*
X96901000Y-48863000D01*
X96901000Y-48883000D01*
X97625250Y-48883000D01*
X97784000Y-48724250D01*
X97784000Y-48483691D01*
X97687327Y-48250302D01*
X97685957Y-48248932D01*
X97745431Y-48161890D01*
X97796440Y-47910000D01*
X97796440Y-47110000D01*
X97752162Y-46874683D01*
X97733313Y-46845391D01*
X97820431Y-46717890D01*
X97871440Y-46466000D01*
X97871440Y-45966000D01*
X97827162Y-45730683D01*
X97688090Y-45514559D01*
X97619994Y-45468031D01*
X97762327Y-45325698D01*
X97859000Y-45092309D01*
X97859000Y-44999750D01*
X97700250Y-44841000D01*
X96901000Y-44841000D01*
X96901000Y-44863000D01*
X96647000Y-44863000D01*
X96647000Y-44841000D01*
X96627000Y-44841000D01*
X96627000Y-44591000D01*
X96647000Y-44591000D01*
X96647000Y-43989750D01*
X96901000Y-43989750D01*
X96901000Y-44591000D01*
X97700250Y-44591000D01*
X97859000Y-44432250D01*
X97859000Y-44339691D01*
X97762327Y-44106302D01*
X97583699Y-43927673D01*
X97350310Y-43831000D01*
X97059750Y-43831000D01*
X96901000Y-43989750D01*
X96647000Y-43989750D01*
X96488250Y-43831000D01*
X96197690Y-43831000D01*
X96137844Y-43855789D01*
X95954000Y-43818560D01*
X95054000Y-43818560D01*
X94818683Y-43862838D01*
X94743162Y-43911434D01*
X94681890Y-43869569D01*
X94430000Y-43818560D01*
X93530000Y-43818560D01*
X93294683Y-43862838D01*
X93078559Y-44001910D01*
X92933569Y-44214110D01*
X92882560Y-44466000D01*
X92882560Y-44966000D01*
X92913562Y-45130760D01*
X92485401Y-44702599D01*
X92238839Y-44537852D01*
X92091308Y-44508506D01*
X90633802Y-43051000D01*
X98755889Y-43051000D01*
X98521808Y-43284673D01*
G36*
X60939057Y-38830883D02*
X60675808Y-39093673D01*
X60533162Y-39437201D01*
X60532980Y-39646574D01*
X59458645Y-40720908D01*
X59377833Y-40720838D01*
X59034057Y-40862883D01*
X58770808Y-41125673D01*
X58628162Y-41469201D01*
X58627998Y-41658000D01*
X58393440Y-41658000D01*
X58393440Y-40044000D01*
X58349162Y-39808683D01*
X58210090Y-39592559D01*
X57997890Y-39447569D01*
X57746000Y-39396560D01*
X56046000Y-39396560D01*
X55810683Y-39440838D01*
X55594559Y-39579910D01*
X55449569Y-39792110D01*
X55435914Y-39859541D01*
X55406054Y-39814853D01*
X54924285Y-39492946D01*
X54356000Y-39379907D01*
X53787715Y-39492946D01*
X53305946Y-39814853D01*
X53078298Y-40155553D01*
X53011183Y-40012642D01*
X52582924Y-39622355D01*
X52172890Y-39452524D01*
X51943000Y-39573845D01*
X51943000Y-40767000D01*
X51963000Y-40767000D01*
X51963000Y-41021000D01*
X51943000Y-41021000D01*
X51943000Y-41041000D01*
X51689000Y-41041000D01*
X51689000Y-41021000D01*
X51669000Y-41021000D01*
X51669000Y-40767000D01*
X51689000Y-40767000D01*
X51689000Y-39573845D01*
X51459110Y-39452524D01*
X51049076Y-39622355D01*
X50620817Y-40012642D01*
X50553702Y-40155553D01*
X50326054Y-39814853D01*
X49844285Y-39492946D01*
X49276000Y-39379907D01*
X48707715Y-39492946D01*
X48225946Y-39814853D01*
X48006000Y-40144026D01*
X47786054Y-39814853D01*
X47304285Y-39492946D01*
X46736000Y-39379907D01*
X46167715Y-39492946D01*
X45685946Y-39814853D01*
X45466000Y-40144026D01*
X45246054Y-39814853D01*
X44764285Y-39492946D01*
X44196000Y-39379907D01*
X43627715Y-39492946D01*
X43145946Y-39814853D01*
X42824039Y-40296622D01*
X42711000Y-40864907D01*
X42711000Y-40923093D01*
X42824039Y-41491378D01*
X43145946Y-41973147D01*
X43627715Y-42295054D01*
X44196000Y-42408093D01*
X44764285Y-42295054D01*
X45246054Y-41973147D01*
X45466000Y-41643974D01*
X45685946Y-41973147D01*
X46167715Y-42295054D01*
X46736000Y-42408093D01*
X47102408Y-42335210D01*
X47722599Y-42955401D01*
X47969160Y-43120148D01*
X48017414Y-43129746D01*
X48260000Y-43178000D01*
X57742105Y-43178000D01*
X57549009Y-43466988D01*
X57404000Y-44196000D01*
X57404000Y-45974000D01*
X57549009Y-46703012D01*
X57961962Y-47321038D01*
X58579988Y-47733991D01*
X59309000Y-47879000D01*
X62230000Y-47879000D01*
X62230000Y-51689000D01*
X59436000Y-51689000D01*
X59254471Y-51725108D01*
X59336834Y-51642745D01*
X59456943Y-51593117D01*
X59720192Y-51330327D01*
X59862838Y-50986799D01*
X59863162Y-50614833D01*
X59721117Y-50271057D01*
X59458327Y-50007808D01*
X59114799Y-49865162D01*
X58742833Y-49864838D01*
X58399057Y-50006883D01*
X58135808Y-50269673D01*
X58085434Y-50390987D01*
X56778210Y-51698210D01*
X56586367Y-51985325D01*
X56586367Y-51985326D01*
X56518999Y-52324000D01*
X56519000Y-52324005D01*
X56519000Y-56895995D01*
X56518999Y-56896000D01*
X56573055Y-57167750D01*
X56586367Y-57234675D01*
X56730902Y-57450988D01*
X56778210Y-57521790D01*
X58057421Y-58801000D01*
X53717000Y-58801000D01*
X53717000Y-54306669D01*
X53733441Y-54296090D01*
X53878431Y-54083890D01*
X53929440Y-53832000D01*
X53929440Y-53332000D01*
X53885162Y-53096683D01*
X53746090Y-52880559D01*
X53676289Y-52832866D01*
X53733441Y-52796090D01*
X53878431Y-52583890D01*
X53929440Y-52332000D01*
X53929440Y-51832000D01*
X53885162Y-51596683D01*
X53746090Y-51380559D01*
X53533890Y-51235569D01*
X53282000Y-51184560D01*
X53186139Y-51184560D01*
X52070000Y-50068420D01*
X52070000Y-46228000D01*
X51924991Y-45498988D01*
X51512038Y-44880962D01*
X50894012Y-44468009D01*
X50165000Y-44323000D01*
X49435988Y-44468009D01*
X48817962Y-44880962D01*
X48405009Y-45498988D01*
X48260000Y-46228000D01*
X48260000Y-46331037D01*
X48029565Y-46235352D01*
X47223970Y-46234649D01*
X46932699Y-46355000D01*
X44917708Y-46355000D01*
X44629565Y-46235352D01*
X43823970Y-46234649D01*
X43079428Y-46542288D01*
X42620000Y-47000915D01*
X42620000Y-38810000D01*
X60989598Y-38810000D01*
X60939057Y-38830883D01*
X60939057Y-38830883D01*
G37*
X60939057Y-38830883D02*
X60675808Y-39093673D01*
X60533162Y-39437201D01*
X60532980Y-39646574D01*
X59458645Y-40720908D01*
X59377833Y-40720838D01*
X59034057Y-40862883D01*
X58770808Y-41125673D01*
X58628162Y-41469201D01*
X58627998Y-41658000D01*
X58393440Y-41658000D01*
X58393440Y-40044000D01*
X58349162Y-39808683D01*
X58210090Y-39592559D01*
X57997890Y-39447569D01*
X57746000Y-39396560D01*
X56046000Y-39396560D01*
X55810683Y-39440838D01*
X55594559Y-39579910D01*
X55449569Y-39792110D01*
X55435914Y-39859541D01*
X55406054Y-39814853D01*
X54924285Y-39492946D01*
X54356000Y-39379907D01*
X53787715Y-39492946D01*
X53305946Y-39814853D01*
X53078298Y-40155553D01*
X53011183Y-40012642D01*
X52582924Y-39622355D01*
X52172890Y-39452524D01*
X51943000Y-39573845D01*
X51943000Y-40767000D01*
X51963000Y-40767000D01*
X51963000Y-41021000D01*
X51943000Y-41021000D01*
X51943000Y-41041000D01*
X51689000Y-41041000D01*
X51689000Y-41021000D01*
X51669000Y-41021000D01*
X51669000Y-40767000D01*
X51689000Y-40767000D01*
X51689000Y-39573845D01*
X51459110Y-39452524D01*
X51049076Y-39622355D01*
X50620817Y-40012642D01*
X50553702Y-40155553D01*
X50326054Y-39814853D01*
X49844285Y-39492946D01*
X49276000Y-39379907D01*
X48707715Y-39492946D01*
X48225946Y-39814853D01*
X48006000Y-40144026D01*
X47786054Y-39814853D01*
X47304285Y-39492946D01*
X46736000Y-39379907D01*
X46167715Y-39492946D01*
X45685946Y-39814853D01*
X45466000Y-40144026D01*
X45246054Y-39814853D01*
X44764285Y-39492946D01*
X44196000Y-39379907D01*
X43627715Y-39492946D01*
X43145946Y-39814853D01*
X42824039Y-40296622D01*
X42711000Y-40864907D01*
X42711000Y-40923093D01*
X42824039Y-41491378D01*
X43145946Y-41973147D01*
X43627715Y-42295054D01*
X44196000Y-42408093D01*
X44764285Y-42295054D01*
X45246054Y-41973147D01*
X45466000Y-41643974D01*
X45685946Y-41973147D01*
X46167715Y-42295054D01*
X46736000Y-42408093D01*
X47102408Y-42335210D01*
X47722599Y-42955401D01*
X47969160Y-43120148D01*
X48017414Y-43129746D01*
X48260000Y-43178000D01*
X57742105Y-43178000D01*
X57549009Y-43466988D01*
X57404000Y-44196000D01*
X57404000Y-45974000D01*
X57549009Y-46703012D01*
X57961962Y-47321038D01*
X58579988Y-47733991D01*
X59309000Y-47879000D01*
X62230000Y-47879000D01*
X62230000Y-51689000D01*
X59436000Y-51689000D01*
X59254471Y-51725108D01*
X59336834Y-51642745D01*
X59456943Y-51593117D01*
X59720192Y-51330327D01*
X59862838Y-50986799D01*
X59863162Y-50614833D01*
X59721117Y-50271057D01*
X59458327Y-50007808D01*
X59114799Y-49865162D01*
X58742833Y-49864838D01*
X58399057Y-50006883D01*
X58135808Y-50269673D01*
X58085434Y-50390987D01*
X56778210Y-51698210D01*
X56586367Y-51985325D01*
X56586367Y-51985326D01*
X56518999Y-52324000D01*
X56519000Y-52324005D01*
X56519000Y-56895995D01*
X56518999Y-56896000D01*
X56573055Y-57167750D01*
X56586367Y-57234675D01*
X56730902Y-57450988D01*
X56778210Y-57521790D01*
X58057421Y-58801000D01*
X53717000Y-58801000D01*
X53717000Y-54306669D01*
X53733441Y-54296090D01*
X53878431Y-54083890D01*
X53929440Y-53832000D01*
X53929440Y-53332000D01*
X53885162Y-53096683D01*
X53746090Y-52880559D01*
X53676289Y-52832866D01*
X53733441Y-52796090D01*
X53878431Y-52583890D01*
X53929440Y-52332000D01*
X53929440Y-51832000D01*
X53885162Y-51596683D01*
X53746090Y-51380559D01*
X53533890Y-51235569D01*
X53282000Y-51184560D01*
X53186139Y-51184560D01*
X52070000Y-50068420D01*
X52070000Y-46228000D01*
X51924991Y-45498988D01*
X51512038Y-44880962D01*
X50894012Y-44468009D01*
X50165000Y-44323000D01*
X49435988Y-44468009D01*
X48817962Y-44880962D01*
X48405009Y-45498988D01*
X48260000Y-46228000D01*
X48260000Y-46331037D01*
X48029565Y-46235352D01*
X47223970Y-46234649D01*
X46932699Y-46355000D01*
X44917708Y-46355000D01*
X44629565Y-46235352D01*
X43823970Y-46234649D01*
X43079428Y-46542288D01*
X42620000Y-47000915D01*
X42620000Y-38810000D01*
X60989598Y-38810000D01*
X60939057Y-38830883D01*
G36*
X71503000Y-52384802D02*
X71503000Y-58242667D01*
X71396327Y-58135808D01*
X71052799Y-57993162D01*
X70680833Y-57992838D01*
X70564272Y-58041000D01*
X67618463Y-58041000D01*
X67586327Y-58008808D01*
X67242799Y-57866162D01*
X66870833Y-57865838D01*
X66527057Y-58007883D01*
X66482500Y-58052362D01*
X66482500Y-57975500D01*
X66443546Y-57779667D01*
X66424648Y-57684660D01*
X66276615Y-57463113D01*
X66276662Y-57409333D01*
X66134617Y-57065557D01*
X65871827Y-56802308D01*
X65528299Y-56659662D01*
X65156333Y-56659338D01*
X64812557Y-56801383D01*
X64549308Y-57064173D01*
X64406662Y-57407701D01*
X64406338Y-57779667D01*
X64463496Y-57918000D01*
X64231691Y-57918000D01*
X64181088Y-57938961D01*
X64181162Y-57853833D01*
X64039117Y-57510057D01*
X63999965Y-57470837D01*
X67847401Y-53623401D01*
X68012148Y-53376839D01*
X68070000Y-53086000D01*
X68070000Y-51833103D01*
X68139201Y-51861838D01*
X68511167Y-51862162D01*
X68854943Y-51720117D01*
X69118192Y-51457327D01*
X69260838Y-51113799D01*
X69261162Y-50741833D01*
X69124601Y-50411329D01*
X69160431Y-50358890D01*
X69211440Y-50107000D01*
X69211440Y-50093242D01*
X71503000Y-52384802D01*
X71503000Y-52384802D01*
G37*
X71503000Y-52384802D02*
X71503000Y-58242667D01*
X71396327Y-58135808D01*
X71052799Y-57993162D01*
X70680833Y-57992838D01*
X70564272Y-58041000D01*
X67618463Y-58041000D01*
X67586327Y-58008808D01*
X67242799Y-57866162D01*
X66870833Y-57865838D01*
X66527057Y-58007883D01*
X66482500Y-58052362D01*
X66482500Y-57975500D01*
X66443546Y-57779667D01*
X66424648Y-57684660D01*
X66276615Y-57463113D01*
X66276662Y-57409333D01*
X66134617Y-57065557D01*
X65871827Y-56802308D01*
X65528299Y-56659662D01*
X65156333Y-56659338D01*
X64812557Y-56801383D01*
X64549308Y-57064173D01*
X64406662Y-57407701D01*
X64406338Y-57779667D01*
X64463496Y-57918000D01*
X64231691Y-57918000D01*
X64181088Y-57938961D01*
X64181162Y-57853833D01*
X64039117Y-57510057D01*
X63999965Y-57470837D01*
X67847401Y-53623401D01*
X68012148Y-53376839D01*
X68070000Y-53086000D01*
X68070000Y-51833103D01*
X68139201Y-51861838D01*
X68511167Y-51862162D01*
X68854943Y-51720117D01*
X69118192Y-51457327D01*
X69260838Y-51113799D01*
X69261162Y-50741833D01*
X69124601Y-50411329D01*
X69160431Y-50358890D01*
X69211440Y-50107000D01*
X69211440Y-50093242D01*
X71503000Y-52384802D01*
G36*
X78346559Y-44001910D02*
X78201569Y-44214110D01*
X78150560Y-44466000D01*
X78150560Y-44966000D01*
X78194838Y-45201317D01*
X78312849Y-45384711D01*
X78312838Y-45397167D01*
X78316075Y-45405000D01*
X77341683Y-45405000D01*
X77216000Y-45380000D01*
X76925161Y-45437852D01*
X76678599Y-45602599D01*
X74858989Y-47422209D01*
X74858989Y-46398050D01*
X77306017Y-43951022D01*
X78425641Y-43951022D01*
X78346559Y-44001910D01*
X78346559Y-44001910D01*
G37*
X78346559Y-44001910D02*
X78201569Y-44214110D01*
X78150560Y-44466000D01*
X78150560Y-44966000D01*
X78194838Y-45201317D01*
X78312849Y-45384711D01*
X78312838Y-45397167D01*
X78316075Y-45405000D01*
X77341683Y-45405000D01*
X77216000Y-45380000D01*
X76925161Y-45437852D01*
X76678599Y-45602599D01*
X74858989Y-47422209D01*
X74858989Y-46398050D01*
X77306017Y-43951022D01*
X78425641Y-43951022D01*
X78346559Y-44001910D01*
G36*
X105970000Y-43065344D02*
X105918000Y-43055000D01*
X105460111Y-43055000D01*
X105694192Y-42821327D01*
X105836838Y-42477799D01*
X105837162Y-42105833D01*
X105695117Y-41762057D01*
X105432327Y-41498808D01*
X105088799Y-41356162D01*
X104716833Y-41355838D01*
X104373057Y-41497883D01*
X104339882Y-41531000D01*
X77443440Y-41531000D01*
X77443440Y-40044000D01*
X77399162Y-39808683D01*
X77260090Y-39592559D01*
X77047890Y-39447569D01*
X76796000Y-39396560D01*
X75096000Y-39396560D01*
X74860683Y-39440838D01*
X74644559Y-39579910D01*
X74499569Y-39792110D01*
X74485914Y-39859541D01*
X74456054Y-39814853D01*
X73974285Y-39492946D01*
X73406000Y-39379907D01*
X72837715Y-39492946D01*
X72355946Y-39814853D01*
X72128298Y-40155553D01*
X72061183Y-40012642D01*
X71632924Y-39622355D01*
X71222890Y-39452524D01*
X70993000Y-39573845D01*
X70993000Y-40767000D01*
X71013000Y-40767000D01*
X71013000Y-41021000D01*
X70993000Y-41021000D01*
X70993000Y-41041000D01*
X70739000Y-41041000D01*
X70739000Y-41021000D01*
X69545181Y-41021000D01*
X69424514Y-41250892D01*
X69670817Y-41775358D01*
X69924867Y-42006883D01*
X69789000Y-42142750D01*
X69789000Y-42942000D01*
X69809000Y-42942000D01*
X69809000Y-43196000D01*
X69789000Y-43196000D01*
X69789000Y-43216000D01*
X69535000Y-43216000D01*
X69535000Y-43196000D01*
X69515000Y-43196000D01*
X69515000Y-42942000D01*
X69535000Y-42942000D01*
X69535000Y-42142750D01*
X69376250Y-41984000D01*
X69135690Y-41984000D01*
X68902301Y-42080673D01*
X68771408Y-42211567D01*
X68743090Y-42167559D01*
X68585641Y-42059979D01*
X68629431Y-41995890D01*
X68680440Y-41744000D01*
X68680440Y-40537108D01*
X69424514Y-40537108D01*
X69545181Y-40767000D01*
X70739000Y-40767000D01*
X70739000Y-39573845D01*
X70509110Y-39452524D01*
X70099076Y-39622355D01*
X69670817Y-40012642D01*
X69424514Y-40537108D01*
X68680440Y-40537108D01*
X68680440Y-40044000D01*
X68636162Y-39808683D01*
X68497090Y-39592559D01*
X68284890Y-39447569D01*
X68033000Y-39396560D01*
X66333000Y-39396560D01*
X66097683Y-39440838D01*
X65881559Y-39579910D01*
X65736569Y-39792110D01*
X65714699Y-39900107D01*
X65409924Y-39622355D01*
X64999890Y-39452524D01*
X64770000Y-39573845D01*
X64770000Y-40767000D01*
X64790000Y-40767000D01*
X64790000Y-41021000D01*
X64770000Y-41021000D01*
X64770000Y-42214155D01*
X64999890Y-42335476D01*
X65011032Y-42330861D01*
X64944000Y-42492691D01*
X64944000Y-42783250D01*
X65102750Y-42942000D01*
X65852000Y-42942000D01*
X65852000Y-42922000D01*
X66106000Y-42922000D01*
X66106000Y-42942000D01*
X66126000Y-42942000D01*
X66126000Y-43196000D01*
X66106000Y-43196000D01*
X66106000Y-43995250D01*
X66192012Y-44081262D01*
X66077559Y-44154910D01*
X65932569Y-44367110D01*
X65882443Y-44614641D01*
X65399961Y-44132159D01*
X65452690Y-44154000D01*
X65693250Y-44154000D01*
X65852000Y-43995250D01*
X65852000Y-43196000D01*
X65102750Y-43196000D01*
X64944000Y-43354750D01*
X64944000Y-43645309D01*
X64965842Y-43698040D01*
X63148401Y-41880599D01*
X62901839Y-41715852D01*
X62611000Y-41658000D01*
X60600446Y-41658000D01*
X61007554Y-41250892D01*
X63201514Y-41250892D01*
X63447817Y-41775358D01*
X63876076Y-42165645D01*
X64286110Y-42335476D01*
X64516000Y-42214155D01*
X64516000Y-41021000D01*
X63322181Y-41021000D01*
X63201514Y-41250892D01*
X61007554Y-41250892D01*
X61721338Y-40537108D01*
X63201514Y-40537108D01*
X63322181Y-40767000D01*
X64516000Y-40767000D01*
X64516000Y-39573845D01*
X64286110Y-39452524D01*
X63876076Y-39622355D01*
X63447817Y-40012642D01*
X63201514Y-40537108D01*
X61721338Y-40537108D01*
X61731758Y-40526689D01*
X61996943Y-40417117D01*
X62260192Y-40154327D01*
X62402838Y-39810799D01*
X62403162Y-39438833D01*
X62261117Y-39095057D01*
X61998327Y-38831808D01*
X61945808Y-38810000D01*
X105970000Y-38810000D01*
X105970000Y-43065344D01*
X105970000Y-43065344D01*
G37*
X105970000Y-43065344D02*
X105918000Y-43055000D01*
X105460111Y-43055000D01*
X105694192Y-42821327D01*
X105836838Y-42477799D01*
X105837162Y-42105833D01*
X105695117Y-41762057D01*
X105432327Y-41498808D01*
X105088799Y-41356162D01*
X104716833Y-41355838D01*
X104373057Y-41497883D01*
X104339882Y-41531000D01*
X77443440Y-41531000D01*
X77443440Y-40044000D01*
X77399162Y-39808683D01*
X77260090Y-39592559D01*
X77047890Y-39447569D01*
X76796000Y-39396560D01*
X75096000Y-39396560D01*
X74860683Y-39440838D01*
X74644559Y-39579910D01*
X74499569Y-39792110D01*
X74485914Y-39859541D01*
X74456054Y-39814853D01*
X73974285Y-39492946D01*
X73406000Y-39379907D01*
X72837715Y-39492946D01*
X72355946Y-39814853D01*
X72128298Y-40155553D01*
X72061183Y-40012642D01*
X71632924Y-39622355D01*
X71222890Y-39452524D01*
X70993000Y-39573845D01*
X70993000Y-40767000D01*
X71013000Y-40767000D01*
X71013000Y-41021000D01*
X70993000Y-41021000D01*
X70993000Y-41041000D01*
X70739000Y-41041000D01*
X70739000Y-41021000D01*
X69545181Y-41021000D01*
X69424514Y-41250892D01*
X69670817Y-41775358D01*
X69924867Y-42006883D01*
X69789000Y-42142750D01*
X69789000Y-42942000D01*
X69809000Y-42942000D01*
X69809000Y-43196000D01*
X69789000Y-43196000D01*
X69789000Y-43216000D01*
X69535000Y-43216000D01*
X69535000Y-43196000D01*
X69515000Y-43196000D01*
X69515000Y-42942000D01*
X69535000Y-42942000D01*
X69535000Y-42142750D01*
X69376250Y-41984000D01*
X69135690Y-41984000D01*
X68902301Y-42080673D01*
X68771408Y-42211567D01*
X68743090Y-42167559D01*
X68585641Y-42059979D01*
X68629431Y-41995890D01*
X68680440Y-41744000D01*
X68680440Y-40537108D01*
X69424514Y-40537108D01*
X69545181Y-40767000D01*
X70739000Y-40767000D01*
X70739000Y-39573845D01*
X70509110Y-39452524D01*
X70099076Y-39622355D01*
X69670817Y-40012642D01*
X69424514Y-40537108D01*
X68680440Y-40537108D01*
X68680440Y-40044000D01*
X68636162Y-39808683D01*
X68497090Y-39592559D01*
X68284890Y-39447569D01*
X68033000Y-39396560D01*
X66333000Y-39396560D01*
X66097683Y-39440838D01*
X65881559Y-39579910D01*
X65736569Y-39792110D01*
X65714699Y-39900107D01*
X65409924Y-39622355D01*
X64999890Y-39452524D01*
X64770000Y-39573845D01*
X64770000Y-40767000D01*
X64790000Y-40767000D01*
X64790000Y-41021000D01*
X64770000Y-41021000D01*
X64770000Y-42214155D01*
X64999890Y-42335476D01*
X65011032Y-42330861D01*
X64944000Y-42492691D01*
X64944000Y-42783250D01*
X65102750Y-42942000D01*
X65852000Y-42942000D01*
X65852000Y-42922000D01*
X66106000Y-42922000D01*
X66106000Y-42942000D01*
X66126000Y-42942000D01*
X66126000Y-43196000D01*
X66106000Y-43196000D01*
X66106000Y-43995250D01*
X66192012Y-44081262D01*
X66077559Y-44154910D01*
X65932569Y-44367110D01*
X65882443Y-44614641D01*
X65399961Y-44132159D01*
X65452690Y-44154000D01*
X65693250Y-44154000D01*
X65852000Y-43995250D01*
X65852000Y-43196000D01*
X65102750Y-43196000D01*
X64944000Y-43354750D01*
X64944000Y-43645309D01*
X64965842Y-43698040D01*
X63148401Y-41880599D01*
X62901839Y-41715852D01*
X62611000Y-41658000D01*
X60600446Y-41658000D01*
X61007554Y-41250892D01*
X63201514Y-41250892D01*
X63447817Y-41775358D01*
X63876076Y-42165645D01*
X64286110Y-42335476D01*
X64516000Y-42214155D01*
X64516000Y-41021000D01*
X63322181Y-41021000D01*
X63201514Y-41250892D01*
X61007554Y-41250892D01*
X61721338Y-40537108D01*
X63201514Y-40537108D01*
X63322181Y-40767000D01*
X64516000Y-40767000D01*
X64516000Y-39573845D01*
X64286110Y-39452524D01*
X63876076Y-39622355D01*
X63447817Y-40012642D01*
X63201514Y-40537108D01*
X61721338Y-40537108D01*
X61731758Y-40526689D01*
X61996943Y-40417117D01*
X62260192Y-40154327D01*
X62402838Y-39810799D01*
X62403162Y-39438833D01*
X62261117Y-39095057D01*
X61998327Y-38831808D01*
X61945808Y-38810000D01*
X105970000Y-38810000D01*
X105970000Y-43065344D01*
M02*
